G04 #@! TF.GenerationSoftware,KiCad,Pcbnew,(5.0.1)-3*
G04 #@! TF.CreationDate,2020-04-01T16:59:10+01:00*
G04 #@! TF.ProjectId,testsmt,74657374736D742E6B696361645F7063,rev?*
G04 #@! TF.SameCoordinates,Original*
G04 #@! TF.FileFunction,Soldermask,Bot*
G04 #@! TF.FilePolarity,Negative*
%FSLAX46Y46*%
G04 Gerber Fmt 4.6, Leading zero omitted, Abs format (unit mm)*
G04 Created by KiCad (PCBNEW (5.0.1)-3) date 01/04/2020 16:59:10*
%MOMM*%
%LPD*%
G01*
G04 APERTURE LIST*
%ADD10C,0.100000*%
G04 APERTURE END LIST*
D10*
G36*
X140277396Y-120085546D02*
X140450466Y-120157234D01*
X140606230Y-120261312D01*
X140738688Y-120393770D01*
X140842766Y-120549534D01*
X140914454Y-120722604D01*
X140951000Y-120906333D01*
X140951000Y-121093667D01*
X140914454Y-121277396D01*
X140842766Y-121450466D01*
X140738688Y-121606230D01*
X140606230Y-121738688D01*
X140450466Y-121842766D01*
X140277396Y-121914454D01*
X140093667Y-121951000D01*
X139906333Y-121951000D01*
X139722604Y-121914454D01*
X139549534Y-121842766D01*
X139393770Y-121738688D01*
X139261312Y-121606230D01*
X139157234Y-121450466D01*
X139085546Y-121277396D01*
X139049000Y-121093667D01*
X139049000Y-120906333D01*
X139085546Y-120722604D01*
X139157234Y-120549534D01*
X139261312Y-120393770D01*
X139393770Y-120261312D01*
X139549534Y-120157234D01*
X139722604Y-120085546D01*
X139906333Y-120049000D01*
X140093667Y-120049000D01*
X140277396Y-120085546D01*
X140277396Y-120085546D01*
G37*
G36*
X106277396Y-120085546D02*
X106450466Y-120157234D01*
X106606230Y-120261312D01*
X106738688Y-120393770D01*
X106842766Y-120549534D01*
X106914454Y-120722604D01*
X106951000Y-120906333D01*
X106951000Y-121093667D01*
X106914454Y-121277396D01*
X106842766Y-121450466D01*
X106738688Y-121606230D01*
X106606230Y-121738688D01*
X106450466Y-121842766D01*
X106277396Y-121914454D01*
X106093667Y-121951000D01*
X105906333Y-121951000D01*
X105722604Y-121914454D01*
X105549534Y-121842766D01*
X105393770Y-121738688D01*
X105261312Y-121606230D01*
X105157234Y-121450466D01*
X105085546Y-121277396D01*
X105049000Y-121093667D01*
X105049000Y-120906333D01*
X105085546Y-120722604D01*
X105157234Y-120549534D01*
X105261312Y-120393770D01*
X105393770Y-120261312D01*
X105549534Y-120157234D01*
X105722604Y-120085546D01*
X105906333Y-120049000D01*
X106093667Y-120049000D01*
X106277396Y-120085546D01*
X106277396Y-120085546D01*
G37*
G36*
X118277396Y-120085546D02*
X118450466Y-120157234D01*
X118606230Y-120261312D01*
X118738688Y-120393770D01*
X118842766Y-120549534D01*
X118914454Y-120722604D01*
X118951000Y-120906333D01*
X118951000Y-121093667D01*
X118914454Y-121277396D01*
X118842766Y-121450466D01*
X118738688Y-121606230D01*
X118606230Y-121738688D01*
X118450466Y-121842766D01*
X118277396Y-121914454D01*
X118093667Y-121951000D01*
X117906333Y-121951000D01*
X117722604Y-121914454D01*
X117549534Y-121842766D01*
X117393770Y-121738688D01*
X117261312Y-121606230D01*
X117157234Y-121450466D01*
X117085546Y-121277396D01*
X117049000Y-121093667D01*
X117049000Y-120906333D01*
X117085546Y-120722604D01*
X117157234Y-120549534D01*
X117261312Y-120393770D01*
X117393770Y-120261312D01*
X117549534Y-120157234D01*
X117722604Y-120085546D01*
X117906333Y-120049000D01*
X118093667Y-120049000D01*
X118277396Y-120085546D01*
X118277396Y-120085546D01*
G37*
G36*
X120777396Y-120085546D02*
X120950466Y-120157234D01*
X121106230Y-120261312D01*
X121238688Y-120393770D01*
X121342766Y-120549534D01*
X121414454Y-120722604D01*
X121451000Y-120906333D01*
X121451000Y-121093667D01*
X121414454Y-121277396D01*
X121342766Y-121450466D01*
X121238688Y-121606230D01*
X121106230Y-121738688D01*
X120950466Y-121842766D01*
X120777396Y-121914454D01*
X120593667Y-121951000D01*
X120406333Y-121951000D01*
X120222604Y-121914454D01*
X120049534Y-121842766D01*
X119893770Y-121738688D01*
X119761312Y-121606230D01*
X119657234Y-121450466D01*
X119585546Y-121277396D01*
X119549000Y-121093667D01*
X119549000Y-120906333D01*
X119585546Y-120722604D01*
X119657234Y-120549534D01*
X119761312Y-120393770D01*
X119893770Y-120261312D01*
X120049534Y-120157234D01*
X120222604Y-120085546D01*
X120406333Y-120049000D01*
X120593667Y-120049000D01*
X120777396Y-120085546D01*
X120777396Y-120085546D01*
G37*
G36*
X123277396Y-120085546D02*
X123450466Y-120157234D01*
X123606230Y-120261312D01*
X123738688Y-120393770D01*
X123842766Y-120549534D01*
X123914454Y-120722604D01*
X123951000Y-120906333D01*
X123951000Y-121093667D01*
X123914454Y-121277396D01*
X123842766Y-121450466D01*
X123738688Y-121606230D01*
X123606230Y-121738688D01*
X123450466Y-121842766D01*
X123277396Y-121914454D01*
X123093667Y-121951000D01*
X122906333Y-121951000D01*
X122722604Y-121914454D01*
X122549534Y-121842766D01*
X122393770Y-121738688D01*
X122261312Y-121606230D01*
X122157234Y-121450466D01*
X122085546Y-121277396D01*
X122049000Y-121093667D01*
X122049000Y-120906333D01*
X122085546Y-120722604D01*
X122157234Y-120549534D01*
X122261312Y-120393770D01*
X122393770Y-120261312D01*
X122549534Y-120157234D01*
X122722604Y-120085546D01*
X122906333Y-120049000D01*
X123093667Y-120049000D01*
X123277396Y-120085546D01*
X123277396Y-120085546D01*
G37*
G36*
X72277396Y-120085546D02*
X72450466Y-120157234D01*
X72606230Y-120261312D01*
X72738688Y-120393770D01*
X72842766Y-120549534D01*
X72914454Y-120722604D01*
X72951000Y-120906333D01*
X72951000Y-121093667D01*
X72914454Y-121277396D01*
X72842766Y-121450466D01*
X72738688Y-121606230D01*
X72606230Y-121738688D01*
X72450466Y-121842766D01*
X72277396Y-121914454D01*
X72093667Y-121951000D01*
X71906333Y-121951000D01*
X71722604Y-121914454D01*
X71549534Y-121842766D01*
X71393770Y-121738688D01*
X71261312Y-121606230D01*
X71157234Y-121450466D01*
X71085546Y-121277396D01*
X71049000Y-121093667D01*
X71049000Y-120906333D01*
X71085546Y-120722604D01*
X71157234Y-120549534D01*
X71261312Y-120393770D01*
X71393770Y-120261312D01*
X71549534Y-120157234D01*
X71722604Y-120085546D01*
X71906333Y-120049000D01*
X72093667Y-120049000D01*
X72277396Y-120085546D01*
X72277396Y-120085546D01*
G37*
G36*
X69777396Y-120085546D02*
X69950466Y-120157234D01*
X70106230Y-120261312D01*
X70238688Y-120393770D01*
X70342766Y-120549534D01*
X70414454Y-120722604D01*
X70451000Y-120906333D01*
X70451000Y-121093667D01*
X70414454Y-121277396D01*
X70342766Y-121450466D01*
X70238688Y-121606230D01*
X70106230Y-121738688D01*
X69950466Y-121842766D01*
X69777396Y-121914454D01*
X69593667Y-121951000D01*
X69406333Y-121951000D01*
X69222604Y-121914454D01*
X69049534Y-121842766D01*
X68893770Y-121738688D01*
X68761312Y-121606230D01*
X68657234Y-121450466D01*
X68585546Y-121277396D01*
X68549000Y-121093667D01*
X68549000Y-120906333D01*
X68585546Y-120722604D01*
X68657234Y-120549534D01*
X68761312Y-120393770D01*
X68893770Y-120261312D01*
X69049534Y-120157234D01*
X69222604Y-120085546D01*
X69406333Y-120049000D01*
X69593667Y-120049000D01*
X69777396Y-120085546D01*
X69777396Y-120085546D01*
G37*
G36*
X67277396Y-120085546D02*
X67450466Y-120157234D01*
X67606230Y-120261312D01*
X67738688Y-120393770D01*
X67842766Y-120549534D01*
X67914454Y-120722604D01*
X67951000Y-120906333D01*
X67951000Y-121093667D01*
X67914454Y-121277396D01*
X67842766Y-121450466D01*
X67738688Y-121606230D01*
X67606230Y-121738688D01*
X67450466Y-121842766D01*
X67277396Y-121914454D01*
X67093667Y-121951000D01*
X66906333Y-121951000D01*
X66722604Y-121914454D01*
X66549534Y-121842766D01*
X66393770Y-121738688D01*
X66261312Y-121606230D01*
X66157234Y-121450466D01*
X66085546Y-121277396D01*
X66049000Y-121093667D01*
X66049000Y-120906333D01*
X66085546Y-120722604D01*
X66157234Y-120549534D01*
X66261312Y-120393770D01*
X66393770Y-120261312D01*
X66549534Y-120157234D01*
X66722604Y-120085546D01*
X66906333Y-120049000D01*
X67093667Y-120049000D01*
X67277396Y-120085546D01*
X67277396Y-120085546D01*
G37*
G36*
X84277396Y-120085546D02*
X84450466Y-120157234D01*
X84606230Y-120261312D01*
X84738688Y-120393770D01*
X84842766Y-120549534D01*
X84914454Y-120722604D01*
X84951000Y-120906333D01*
X84951000Y-121093667D01*
X84914454Y-121277396D01*
X84842766Y-121450466D01*
X84738688Y-121606230D01*
X84606230Y-121738688D01*
X84450466Y-121842766D01*
X84277396Y-121914454D01*
X84093667Y-121951000D01*
X83906333Y-121951000D01*
X83722604Y-121914454D01*
X83549534Y-121842766D01*
X83393770Y-121738688D01*
X83261312Y-121606230D01*
X83157234Y-121450466D01*
X83085546Y-121277396D01*
X83049000Y-121093667D01*
X83049000Y-120906333D01*
X83085546Y-120722604D01*
X83157234Y-120549534D01*
X83261312Y-120393770D01*
X83393770Y-120261312D01*
X83549534Y-120157234D01*
X83722604Y-120085546D01*
X83906333Y-120049000D01*
X84093667Y-120049000D01*
X84277396Y-120085546D01*
X84277396Y-120085546D01*
G37*
G36*
X86777396Y-120085546D02*
X86950466Y-120157234D01*
X87106230Y-120261312D01*
X87238688Y-120393770D01*
X87342766Y-120549534D01*
X87414454Y-120722604D01*
X87451000Y-120906333D01*
X87451000Y-121093667D01*
X87414454Y-121277396D01*
X87342766Y-121450466D01*
X87238688Y-121606230D01*
X87106230Y-121738688D01*
X86950466Y-121842766D01*
X86777396Y-121914454D01*
X86593667Y-121951000D01*
X86406333Y-121951000D01*
X86222604Y-121914454D01*
X86049534Y-121842766D01*
X85893770Y-121738688D01*
X85761312Y-121606230D01*
X85657234Y-121450466D01*
X85585546Y-121277396D01*
X85549000Y-121093667D01*
X85549000Y-120906333D01*
X85585546Y-120722604D01*
X85657234Y-120549534D01*
X85761312Y-120393770D01*
X85893770Y-120261312D01*
X86049534Y-120157234D01*
X86222604Y-120085546D01*
X86406333Y-120049000D01*
X86593667Y-120049000D01*
X86777396Y-120085546D01*
X86777396Y-120085546D01*
G37*
G36*
X103777396Y-120085546D02*
X103950466Y-120157234D01*
X104106230Y-120261312D01*
X104238688Y-120393770D01*
X104342766Y-120549534D01*
X104414454Y-120722604D01*
X104451000Y-120906333D01*
X104451000Y-121093667D01*
X104414454Y-121277396D01*
X104342766Y-121450466D01*
X104238688Y-121606230D01*
X104106230Y-121738688D01*
X103950466Y-121842766D01*
X103777396Y-121914454D01*
X103593667Y-121951000D01*
X103406333Y-121951000D01*
X103222604Y-121914454D01*
X103049534Y-121842766D01*
X102893770Y-121738688D01*
X102761312Y-121606230D01*
X102657234Y-121450466D01*
X102585546Y-121277396D01*
X102549000Y-121093667D01*
X102549000Y-120906333D01*
X102585546Y-120722604D01*
X102657234Y-120549534D01*
X102761312Y-120393770D01*
X102893770Y-120261312D01*
X103049534Y-120157234D01*
X103222604Y-120085546D01*
X103406333Y-120049000D01*
X103593667Y-120049000D01*
X103777396Y-120085546D01*
X103777396Y-120085546D01*
G37*
G36*
X101277396Y-120085546D02*
X101450466Y-120157234D01*
X101606230Y-120261312D01*
X101738688Y-120393770D01*
X101842766Y-120549534D01*
X101914454Y-120722604D01*
X101951000Y-120906333D01*
X101951000Y-121093667D01*
X101914454Y-121277396D01*
X101842766Y-121450466D01*
X101738688Y-121606230D01*
X101606230Y-121738688D01*
X101450466Y-121842766D01*
X101277396Y-121914454D01*
X101093667Y-121951000D01*
X100906333Y-121951000D01*
X100722604Y-121914454D01*
X100549534Y-121842766D01*
X100393770Y-121738688D01*
X100261312Y-121606230D01*
X100157234Y-121450466D01*
X100085546Y-121277396D01*
X100049000Y-121093667D01*
X100049000Y-120906333D01*
X100085546Y-120722604D01*
X100157234Y-120549534D01*
X100261312Y-120393770D01*
X100393770Y-120261312D01*
X100549534Y-120157234D01*
X100722604Y-120085546D01*
X100906333Y-120049000D01*
X101093667Y-120049000D01*
X101277396Y-120085546D01*
X101277396Y-120085546D01*
G37*
G36*
X135277396Y-120085546D02*
X135450466Y-120157234D01*
X135606230Y-120261312D01*
X135738688Y-120393770D01*
X135842766Y-120549534D01*
X135914454Y-120722604D01*
X135951000Y-120906333D01*
X135951000Y-121093667D01*
X135914454Y-121277396D01*
X135842766Y-121450466D01*
X135738688Y-121606230D01*
X135606230Y-121738688D01*
X135450466Y-121842766D01*
X135277396Y-121914454D01*
X135093667Y-121951000D01*
X134906333Y-121951000D01*
X134722604Y-121914454D01*
X134549534Y-121842766D01*
X134393770Y-121738688D01*
X134261312Y-121606230D01*
X134157234Y-121450466D01*
X134085546Y-121277396D01*
X134049000Y-121093667D01*
X134049000Y-120906333D01*
X134085546Y-120722604D01*
X134157234Y-120549534D01*
X134261312Y-120393770D01*
X134393770Y-120261312D01*
X134549534Y-120157234D01*
X134722604Y-120085546D01*
X134906333Y-120049000D01*
X135093667Y-120049000D01*
X135277396Y-120085546D01*
X135277396Y-120085546D01*
G37*
G36*
X137777396Y-120085546D02*
X137950466Y-120157234D01*
X138106230Y-120261312D01*
X138238688Y-120393770D01*
X138342766Y-120549534D01*
X138414454Y-120722604D01*
X138451000Y-120906333D01*
X138451000Y-121093667D01*
X138414454Y-121277396D01*
X138342766Y-121450466D01*
X138238688Y-121606230D01*
X138106230Y-121738688D01*
X137950466Y-121842766D01*
X137777396Y-121914454D01*
X137593667Y-121951000D01*
X137406333Y-121951000D01*
X137222604Y-121914454D01*
X137049534Y-121842766D01*
X136893770Y-121738688D01*
X136761312Y-121606230D01*
X136657234Y-121450466D01*
X136585546Y-121277396D01*
X136549000Y-121093667D01*
X136549000Y-120906333D01*
X136585546Y-120722604D01*
X136657234Y-120549534D01*
X136761312Y-120393770D01*
X136893770Y-120261312D01*
X137049534Y-120157234D01*
X137222604Y-120085546D01*
X137406333Y-120049000D01*
X137593667Y-120049000D01*
X137777396Y-120085546D01*
X137777396Y-120085546D01*
G37*
G36*
X50277396Y-120085546D02*
X50450466Y-120157234D01*
X50606230Y-120261312D01*
X50738688Y-120393770D01*
X50842766Y-120549534D01*
X50914454Y-120722604D01*
X50951000Y-120906333D01*
X50951000Y-121093667D01*
X50914454Y-121277396D01*
X50842766Y-121450466D01*
X50738688Y-121606230D01*
X50606230Y-121738688D01*
X50450466Y-121842766D01*
X50277396Y-121914454D01*
X50093667Y-121951000D01*
X49906333Y-121951000D01*
X49722604Y-121914454D01*
X49549534Y-121842766D01*
X49393770Y-121738688D01*
X49261312Y-121606230D01*
X49157234Y-121450466D01*
X49085546Y-121277396D01*
X49049000Y-121093667D01*
X49049000Y-120906333D01*
X49085546Y-120722604D01*
X49157234Y-120549534D01*
X49261312Y-120393770D01*
X49393770Y-120261312D01*
X49549534Y-120157234D01*
X49722604Y-120085546D01*
X49906333Y-120049000D01*
X50093667Y-120049000D01*
X50277396Y-120085546D01*
X50277396Y-120085546D01*
G37*
G36*
X52777396Y-120085546D02*
X52950466Y-120157234D01*
X53106230Y-120261312D01*
X53238688Y-120393770D01*
X53342766Y-120549534D01*
X53414454Y-120722604D01*
X53451000Y-120906333D01*
X53451000Y-121093667D01*
X53414454Y-121277396D01*
X53342766Y-121450466D01*
X53238688Y-121606230D01*
X53106230Y-121738688D01*
X52950466Y-121842766D01*
X52777396Y-121914454D01*
X52593667Y-121951000D01*
X52406333Y-121951000D01*
X52222604Y-121914454D01*
X52049534Y-121842766D01*
X51893770Y-121738688D01*
X51761312Y-121606230D01*
X51657234Y-121450466D01*
X51585546Y-121277396D01*
X51549000Y-121093667D01*
X51549000Y-120906333D01*
X51585546Y-120722604D01*
X51657234Y-120549534D01*
X51761312Y-120393770D01*
X51893770Y-120261312D01*
X52049534Y-120157234D01*
X52222604Y-120085546D01*
X52406333Y-120049000D01*
X52593667Y-120049000D01*
X52777396Y-120085546D01*
X52777396Y-120085546D01*
G37*
G36*
X55277396Y-120085546D02*
X55450466Y-120157234D01*
X55606230Y-120261312D01*
X55738688Y-120393770D01*
X55842766Y-120549534D01*
X55914454Y-120722604D01*
X55951000Y-120906333D01*
X55951000Y-121093667D01*
X55914454Y-121277396D01*
X55842766Y-121450466D01*
X55738688Y-121606230D01*
X55606230Y-121738688D01*
X55450466Y-121842766D01*
X55277396Y-121914454D01*
X55093667Y-121951000D01*
X54906333Y-121951000D01*
X54722604Y-121914454D01*
X54549534Y-121842766D01*
X54393770Y-121738688D01*
X54261312Y-121606230D01*
X54157234Y-121450466D01*
X54085546Y-121277396D01*
X54049000Y-121093667D01*
X54049000Y-120906333D01*
X54085546Y-120722604D01*
X54157234Y-120549534D01*
X54261312Y-120393770D01*
X54393770Y-120261312D01*
X54549534Y-120157234D01*
X54722604Y-120085546D01*
X54906333Y-120049000D01*
X55093667Y-120049000D01*
X55277396Y-120085546D01*
X55277396Y-120085546D01*
G37*
G36*
X89277396Y-120085546D02*
X89450466Y-120157234D01*
X89606230Y-120261312D01*
X89738688Y-120393770D01*
X89842766Y-120549534D01*
X89914454Y-120722604D01*
X89951000Y-120906333D01*
X89951000Y-121093667D01*
X89914454Y-121277396D01*
X89842766Y-121450466D01*
X89738688Y-121606230D01*
X89606230Y-121738688D01*
X89450466Y-121842766D01*
X89277396Y-121914454D01*
X89093667Y-121951000D01*
X88906333Y-121951000D01*
X88722604Y-121914454D01*
X88549534Y-121842766D01*
X88393770Y-121738688D01*
X88261312Y-121606230D01*
X88157234Y-121450466D01*
X88085546Y-121277396D01*
X88049000Y-121093667D01*
X88049000Y-120906333D01*
X88085546Y-120722604D01*
X88157234Y-120549534D01*
X88261312Y-120393770D01*
X88393770Y-120261312D01*
X88549534Y-120157234D01*
X88722604Y-120085546D01*
X88906333Y-120049000D01*
X89093667Y-120049000D01*
X89277396Y-120085546D01*
X89277396Y-120085546D01*
G37*
G36*
X82698252Y-112042818D02*
X82698254Y-112042819D01*
X82698255Y-112042819D01*
X83071513Y-112197427D01*
X83071514Y-112197428D01*
X83407439Y-112421886D01*
X83693114Y-112707561D01*
X83693116Y-112707564D01*
X83917573Y-113043487D01*
X84065968Y-113401745D01*
X84072182Y-113416748D01*
X84151000Y-113812993D01*
X84151000Y-114217007D01*
X84075166Y-114598252D01*
X84072181Y-114613255D01*
X83917573Y-114986513D01*
X83917572Y-114986514D01*
X83693114Y-115322439D01*
X83407439Y-115608114D01*
X83407436Y-115608116D01*
X83071513Y-115832573D01*
X82698255Y-115987181D01*
X82698254Y-115987181D01*
X82698252Y-115987182D01*
X82302007Y-116066000D01*
X81897993Y-116066000D01*
X81501748Y-115987182D01*
X81501746Y-115987181D01*
X81501745Y-115987181D01*
X81128487Y-115832573D01*
X80792564Y-115608116D01*
X80792561Y-115608114D01*
X80506886Y-115322439D01*
X80282428Y-114986514D01*
X80282427Y-114986513D01*
X80127819Y-114613255D01*
X80124835Y-114598252D01*
X80049000Y-114217007D01*
X80049000Y-113812993D01*
X80127818Y-113416748D01*
X80134032Y-113401745D01*
X80282427Y-113043487D01*
X80506884Y-112707564D01*
X80506886Y-112707561D01*
X80792561Y-112421886D01*
X81128486Y-112197428D01*
X81128487Y-112197427D01*
X81501745Y-112042819D01*
X81501746Y-112042819D01*
X81501748Y-112042818D01*
X81897993Y-111964000D01*
X82302007Y-111964000D01*
X82698252Y-112042818D01*
X82698252Y-112042818D01*
G37*
G36*
X48698252Y-112042818D02*
X48698254Y-112042819D01*
X48698255Y-112042819D01*
X49071513Y-112197427D01*
X49071514Y-112197428D01*
X49407439Y-112421886D01*
X49693114Y-112707561D01*
X49693116Y-112707564D01*
X49917573Y-113043487D01*
X50065968Y-113401745D01*
X50072182Y-113416748D01*
X50151000Y-113812993D01*
X50151000Y-114217007D01*
X50075166Y-114598252D01*
X50072181Y-114613255D01*
X49917573Y-114986513D01*
X49917572Y-114986514D01*
X49693114Y-115322439D01*
X49407439Y-115608114D01*
X49407436Y-115608116D01*
X49071513Y-115832573D01*
X48698255Y-115987181D01*
X48698254Y-115987181D01*
X48698252Y-115987182D01*
X48302007Y-116066000D01*
X47897993Y-116066000D01*
X47501748Y-115987182D01*
X47501746Y-115987181D01*
X47501745Y-115987181D01*
X47128487Y-115832573D01*
X46792564Y-115608116D01*
X46792561Y-115608114D01*
X46506886Y-115322439D01*
X46282428Y-114986514D01*
X46282427Y-114986513D01*
X46127819Y-114613255D01*
X46124835Y-114598252D01*
X46049000Y-114217007D01*
X46049000Y-113812993D01*
X46127818Y-113416748D01*
X46134032Y-113401745D01*
X46282427Y-113043487D01*
X46506884Y-112707564D01*
X46506886Y-112707561D01*
X46792561Y-112421886D01*
X47128486Y-112197428D01*
X47128487Y-112197427D01*
X47501745Y-112042819D01*
X47501746Y-112042819D01*
X47501748Y-112042818D01*
X47897993Y-111964000D01*
X48302007Y-111964000D01*
X48698252Y-112042818D01*
X48698252Y-112042818D01*
G37*
G36*
X133698252Y-112042818D02*
X133698254Y-112042819D01*
X133698255Y-112042819D01*
X134071513Y-112197427D01*
X134071514Y-112197428D01*
X134407439Y-112421886D01*
X134693114Y-112707561D01*
X134693116Y-112707564D01*
X134917573Y-113043487D01*
X135065968Y-113401745D01*
X135072182Y-113416748D01*
X135151000Y-113812993D01*
X135151000Y-114217007D01*
X135075166Y-114598252D01*
X135072181Y-114613255D01*
X134917573Y-114986513D01*
X134917572Y-114986514D01*
X134693114Y-115322439D01*
X134407439Y-115608114D01*
X134407436Y-115608116D01*
X134071513Y-115832573D01*
X133698255Y-115987181D01*
X133698254Y-115987181D01*
X133698252Y-115987182D01*
X133302007Y-116066000D01*
X132897993Y-116066000D01*
X132501748Y-115987182D01*
X132501746Y-115987181D01*
X132501745Y-115987181D01*
X132128487Y-115832573D01*
X131792564Y-115608116D01*
X131792561Y-115608114D01*
X131506886Y-115322439D01*
X131282428Y-114986514D01*
X131282427Y-114986513D01*
X131127819Y-114613255D01*
X131124835Y-114598252D01*
X131049000Y-114217007D01*
X131049000Y-113812993D01*
X131127818Y-113416748D01*
X131134032Y-113401745D01*
X131282427Y-113043487D01*
X131506884Y-112707564D01*
X131506886Y-112707561D01*
X131792561Y-112421886D01*
X132128486Y-112197428D01*
X132128487Y-112197427D01*
X132501745Y-112042819D01*
X132501746Y-112042819D01*
X132501748Y-112042818D01*
X132897993Y-111964000D01*
X133302007Y-111964000D01*
X133698252Y-112042818D01*
X133698252Y-112042818D01*
G37*
G36*
X116698252Y-112042818D02*
X116698254Y-112042819D01*
X116698255Y-112042819D01*
X117071513Y-112197427D01*
X117071514Y-112197428D01*
X117407439Y-112421886D01*
X117693114Y-112707561D01*
X117693116Y-112707564D01*
X117917573Y-113043487D01*
X118065968Y-113401745D01*
X118072182Y-113416748D01*
X118151000Y-113812993D01*
X118151000Y-114217007D01*
X118075166Y-114598252D01*
X118072181Y-114613255D01*
X117917573Y-114986513D01*
X117917572Y-114986514D01*
X117693114Y-115322439D01*
X117407439Y-115608114D01*
X117407436Y-115608116D01*
X117071513Y-115832573D01*
X116698255Y-115987181D01*
X116698254Y-115987181D01*
X116698252Y-115987182D01*
X116302007Y-116066000D01*
X115897993Y-116066000D01*
X115501748Y-115987182D01*
X115501746Y-115987181D01*
X115501745Y-115987181D01*
X115128487Y-115832573D01*
X114792564Y-115608116D01*
X114792561Y-115608114D01*
X114506886Y-115322439D01*
X114282428Y-114986514D01*
X114282427Y-114986513D01*
X114127819Y-114613255D01*
X114124835Y-114598252D01*
X114049000Y-114217007D01*
X114049000Y-113812993D01*
X114127818Y-113416748D01*
X114134032Y-113401745D01*
X114282427Y-113043487D01*
X114506884Y-112707564D01*
X114506886Y-112707561D01*
X114792561Y-112421886D01*
X115128486Y-112197428D01*
X115128487Y-112197427D01*
X115501745Y-112042819D01*
X115501746Y-112042819D01*
X115501748Y-112042818D01*
X115897993Y-111964000D01*
X116302007Y-111964000D01*
X116698252Y-112042818D01*
X116698252Y-112042818D01*
G37*
G36*
X65698252Y-112042818D02*
X65698254Y-112042819D01*
X65698255Y-112042819D01*
X66071513Y-112197427D01*
X66071514Y-112197428D01*
X66407439Y-112421886D01*
X66693114Y-112707561D01*
X66693116Y-112707564D01*
X66917573Y-113043487D01*
X67065968Y-113401745D01*
X67072182Y-113416748D01*
X67151000Y-113812993D01*
X67151000Y-114217007D01*
X67075166Y-114598252D01*
X67072181Y-114613255D01*
X66917573Y-114986513D01*
X66917572Y-114986514D01*
X66693114Y-115322439D01*
X66407439Y-115608114D01*
X66407436Y-115608116D01*
X66071513Y-115832573D01*
X65698255Y-115987181D01*
X65698254Y-115987181D01*
X65698252Y-115987182D01*
X65302007Y-116066000D01*
X64897993Y-116066000D01*
X64501748Y-115987182D01*
X64501746Y-115987181D01*
X64501745Y-115987181D01*
X64128487Y-115832573D01*
X63792564Y-115608116D01*
X63792561Y-115608114D01*
X63506886Y-115322439D01*
X63282428Y-114986514D01*
X63282427Y-114986513D01*
X63127819Y-114613255D01*
X63124835Y-114598252D01*
X63049000Y-114217007D01*
X63049000Y-113812993D01*
X63127818Y-113416748D01*
X63134032Y-113401745D01*
X63282427Y-113043487D01*
X63506884Y-112707564D01*
X63506886Y-112707561D01*
X63792561Y-112421886D01*
X64128486Y-112197428D01*
X64128487Y-112197427D01*
X64501745Y-112042819D01*
X64501746Y-112042819D01*
X64501748Y-112042818D01*
X64897993Y-111964000D01*
X65302007Y-111964000D01*
X65698252Y-112042818D01*
X65698252Y-112042818D01*
G37*
G36*
X99698252Y-112042818D02*
X99698254Y-112042819D01*
X99698255Y-112042819D01*
X100071513Y-112197427D01*
X100071514Y-112197428D01*
X100407439Y-112421886D01*
X100693114Y-112707561D01*
X100693116Y-112707564D01*
X100917573Y-113043487D01*
X101065968Y-113401745D01*
X101072182Y-113416748D01*
X101151000Y-113812993D01*
X101151000Y-114217007D01*
X101075166Y-114598252D01*
X101072181Y-114613255D01*
X100917573Y-114986513D01*
X100917572Y-114986514D01*
X100693114Y-115322439D01*
X100407439Y-115608114D01*
X100407436Y-115608116D01*
X100071513Y-115832573D01*
X99698255Y-115987181D01*
X99698254Y-115987181D01*
X99698252Y-115987182D01*
X99302007Y-116066000D01*
X98897993Y-116066000D01*
X98501748Y-115987182D01*
X98501746Y-115987181D01*
X98501745Y-115987181D01*
X98128487Y-115832573D01*
X97792564Y-115608116D01*
X97792561Y-115608114D01*
X97506886Y-115322439D01*
X97282428Y-114986514D01*
X97282427Y-114986513D01*
X97127819Y-114613255D01*
X97124835Y-114598252D01*
X97049000Y-114217007D01*
X97049000Y-113812993D01*
X97127818Y-113416748D01*
X97134032Y-113401745D01*
X97282427Y-113043487D01*
X97506884Y-112707564D01*
X97506886Y-112707561D01*
X97792561Y-112421886D01*
X98128486Y-112197428D01*
X98128487Y-112197427D01*
X98501745Y-112042819D01*
X98501746Y-112042819D01*
X98501748Y-112042818D01*
X98897993Y-111964000D01*
X99302007Y-111964000D01*
X99698252Y-112042818D01*
X99698252Y-112042818D01*
G37*
G36*
X142498252Y-112027818D02*
X142498254Y-112027819D01*
X142498255Y-112027819D01*
X142871513Y-112182427D01*
X143202905Y-112403857D01*
X143207439Y-112406886D01*
X143493114Y-112692561D01*
X143493116Y-112692564D01*
X143717573Y-113028487D01*
X143723786Y-113043487D01*
X143872182Y-113401748D01*
X143951000Y-113797993D01*
X143951000Y-114202007D01*
X143948017Y-114217006D01*
X143872181Y-114598255D01*
X143717573Y-114971513D01*
X143496143Y-115302905D01*
X143493114Y-115307439D01*
X143207439Y-115593114D01*
X143207436Y-115593116D01*
X142871513Y-115817573D01*
X142498255Y-115972181D01*
X142498254Y-115972181D01*
X142498252Y-115972182D01*
X142102007Y-116051000D01*
X141697993Y-116051000D01*
X141301748Y-115972182D01*
X141301746Y-115972181D01*
X141301745Y-115972181D01*
X140928487Y-115817573D01*
X140592564Y-115593116D01*
X140592561Y-115593114D01*
X140306886Y-115307439D01*
X140303857Y-115302905D01*
X140082427Y-114971513D01*
X139927819Y-114598255D01*
X139851984Y-114217006D01*
X139849000Y-114202007D01*
X139849000Y-113797993D01*
X139927818Y-113401748D01*
X140076214Y-113043487D01*
X140082427Y-113028487D01*
X140306884Y-112692564D01*
X140306886Y-112692561D01*
X140592561Y-112406886D01*
X140597095Y-112403857D01*
X140928487Y-112182427D01*
X141301745Y-112027819D01*
X141301746Y-112027819D01*
X141301748Y-112027818D01*
X141697993Y-111949000D01*
X142102007Y-111949000D01*
X142498252Y-112027818D01*
X142498252Y-112027818D01*
G37*
G36*
X57498252Y-112027818D02*
X57498254Y-112027819D01*
X57498255Y-112027819D01*
X57871513Y-112182427D01*
X58202905Y-112403857D01*
X58207439Y-112406886D01*
X58493114Y-112692561D01*
X58493116Y-112692564D01*
X58717573Y-113028487D01*
X58723786Y-113043487D01*
X58872182Y-113401748D01*
X58951000Y-113797993D01*
X58951000Y-114202007D01*
X58948017Y-114217006D01*
X58872181Y-114598255D01*
X58717573Y-114971513D01*
X58496143Y-115302905D01*
X58493114Y-115307439D01*
X58207439Y-115593114D01*
X58207436Y-115593116D01*
X57871513Y-115817573D01*
X57498255Y-115972181D01*
X57498254Y-115972181D01*
X57498252Y-115972182D01*
X57102007Y-116051000D01*
X56697993Y-116051000D01*
X56301748Y-115972182D01*
X56301746Y-115972181D01*
X56301745Y-115972181D01*
X55928487Y-115817573D01*
X55592564Y-115593116D01*
X55592561Y-115593114D01*
X55306886Y-115307439D01*
X55303857Y-115302905D01*
X55082427Y-114971513D01*
X54927819Y-114598255D01*
X54851984Y-114217006D01*
X54849000Y-114202007D01*
X54849000Y-113797993D01*
X54927818Y-113401748D01*
X55076214Y-113043487D01*
X55082427Y-113028487D01*
X55306884Y-112692564D01*
X55306886Y-112692561D01*
X55592561Y-112406886D01*
X55597095Y-112403857D01*
X55928487Y-112182427D01*
X56301745Y-112027819D01*
X56301746Y-112027819D01*
X56301748Y-112027818D01*
X56697993Y-111949000D01*
X57102007Y-111949000D01*
X57498252Y-112027818D01*
X57498252Y-112027818D01*
G37*
G36*
X91498252Y-112027818D02*
X91498254Y-112027819D01*
X91498255Y-112027819D01*
X91871513Y-112182427D01*
X92202905Y-112403857D01*
X92207439Y-112406886D01*
X92493114Y-112692561D01*
X92493116Y-112692564D01*
X92717573Y-113028487D01*
X92723786Y-113043487D01*
X92872182Y-113401748D01*
X92951000Y-113797993D01*
X92951000Y-114202007D01*
X92948017Y-114217006D01*
X92872181Y-114598255D01*
X92717573Y-114971513D01*
X92496143Y-115302905D01*
X92493114Y-115307439D01*
X92207439Y-115593114D01*
X92207436Y-115593116D01*
X91871513Y-115817573D01*
X91498255Y-115972181D01*
X91498254Y-115972181D01*
X91498252Y-115972182D01*
X91102007Y-116051000D01*
X90697993Y-116051000D01*
X90301748Y-115972182D01*
X90301746Y-115972181D01*
X90301745Y-115972181D01*
X89928487Y-115817573D01*
X89592564Y-115593116D01*
X89592561Y-115593114D01*
X89306886Y-115307439D01*
X89303857Y-115302905D01*
X89082427Y-114971513D01*
X88927819Y-114598255D01*
X88851984Y-114217006D01*
X88849000Y-114202007D01*
X88849000Y-113797993D01*
X88927818Y-113401748D01*
X89076214Y-113043487D01*
X89082427Y-113028487D01*
X89306884Y-112692564D01*
X89306886Y-112692561D01*
X89592561Y-112406886D01*
X89597095Y-112403857D01*
X89928487Y-112182427D01*
X90301745Y-112027819D01*
X90301746Y-112027819D01*
X90301748Y-112027818D01*
X90697993Y-111949000D01*
X91102007Y-111949000D01*
X91498252Y-112027818D01*
X91498252Y-112027818D01*
G37*
G36*
X108498252Y-112027818D02*
X108498254Y-112027819D01*
X108498255Y-112027819D01*
X108871513Y-112182427D01*
X109202905Y-112403857D01*
X109207439Y-112406886D01*
X109493114Y-112692561D01*
X109493116Y-112692564D01*
X109717573Y-113028487D01*
X109723786Y-113043487D01*
X109872182Y-113401748D01*
X109951000Y-113797993D01*
X109951000Y-114202007D01*
X109948017Y-114217006D01*
X109872181Y-114598255D01*
X109717573Y-114971513D01*
X109496143Y-115302905D01*
X109493114Y-115307439D01*
X109207439Y-115593114D01*
X109207436Y-115593116D01*
X108871513Y-115817573D01*
X108498255Y-115972181D01*
X108498254Y-115972181D01*
X108498252Y-115972182D01*
X108102007Y-116051000D01*
X107697993Y-116051000D01*
X107301748Y-115972182D01*
X107301746Y-115972181D01*
X107301745Y-115972181D01*
X106928487Y-115817573D01*
X106592564Y-115593116D01*
X106592561Y-115593114D01*
X106306886Y-115307439D01*
X106303857Y-115302905D01*
X106082427Y-114971513D01*
X105927819Y-114598255D01*
X105851984Y-114217006D01*
X105849000Y-114202007D01*
X105849000Y-113797993D01*
X105927818Y-113401748D01*
X106076214Y-113043487D01*
X106082427Y-113028487D01*
X106306884Y-112692564D01*
X106306886Y-112692561D01*
X106592561Y-112406886D01*
X106597095Y-112403857D01*
X106928487Y-112182427D01*
X107301745Y-112027819D01*
X107301746Y-112027819D01*
X107301748Y-112027818D01*
X107697993Y-111949000D01*
X108102007Y-111949000D01*
X108498252Y-112027818D01*
X108498252Y-112027818D01*
G37*
G36*
X74498252Y-112027818D02*
X74498254Y-112027819D01*
X74498255Y-112027819D01*
X74871513Y-112182427D01*
X75202905Y-112403857D01*
X75207439Y-112406886D01*
X75493114Y-112692561D01*
X75493116Y-112692564D01*
X75717573Y-113028487D01*
X75723786Y-113043487D01*
X75872182Y-113401748D01*
X75951000Y-113797993D01*
X75951000Y-114202007D01*
X75948017Y-114217006D01*
X75872181Y-114598255D01*
X75717573Y-114971513D01*
X75496143Y-115302905D01*
X75493114Y-115307439D01*
X75207439Y-115593114D01*
X75207436Y-115593116D01*
X74871513Y-115817573D01*
X74498255Y-115972181D01*
X74498254Y-115972181D01*
X74498252Y-115972182D01*
X74102007Y-116051000D01*
X73697993Y-116051000D01*
X73301748Y-115972182D01*
X73301746Y-115972181D01*
X73301745Y-115972181D01*
X72928487Y-115817573D01*
X72592564Y-115593116D01*
X72592561Y-115593114D01*
X72306886Y-115307439D01*
X72303857Y-115302905D01*
X72082427Y-114971513D01*
X71927819Y-114598255D01*
X71851984Y-114217006D01*
X71849000Y-114202007D01*
X71849000Y-113797993D01*
X71927818Y-113401748D01*
X72076214Y-113043487D01*
X72082427Y-113028487D01*
X72306884Y-112692564D01*
X72306886Y-112692561D01*
X72592561Y-112406886D01*
X72597095Y-112403857D01*
X72928487Y-112182427D01*
X73301745Y-112027819D01*
X73301746Y-112027819D01*
X73301748Y-112027818D01*
X73697993Y-111949000D01*
X74102007Y-111949000D01*
X74498252Y-112027818D01*
X74498252Y-112027818D01*
G37*
G36*
X125498252Y-112027818D02*
X125498254Y-112027819D01*
X125498255Y-112027819D01*
X125871513Y-112182427D01*
X126202905Y-112403857D01*
X126207439Y-112406886D01*
X126493114Y-112692561D01*
X126493116Y-112692564D01*
X126717573Y-113028487D01*
X126723786Y-113043487D01*
X126872182Y-113401748D01*
X126951000Y-113797993D01*
X126951000Y-114202007D01*
X126948017Y-114217006D01*
X126872181Y-114598255D01*
X126717573Y-114971513D01*
X126496143Y-115302905D01*
X126493114Y-115307439D01*
X126207439Y-115593114D01*
X126207436Y-115593116D01*
X125871513Y-115817573D01*
X125498255Y-115972181D01*
X125498254Y-115972181D01*
X125498252Y-115972182D01*
X125102007Y-116051000D01*
X124697993Y-116051000D01*
X124301748Y-115972182D01*
X124301746Y-115972181D01*
X124301745Y-115972181D01*
X123928487Y-115817573D01*
X123592564Y-115593116D01*
X123592561Y-115593114D01*
X123306886Y-115307439D01*
X123303857Y-115302905D01*
X123082427Y-114971513D01*
X122927819Y-114598255D01*
X122851984Y-114217006D01*
X122849000Y-114202007D01*
X122849000Y-113797993D01*
X122927818Y-113401748D01*
X123076214Y-113043487D01*
X123082427Y-113028487D01*
X123306884Y-112692564D01*
X123306886Y-112692561D01*
X123592561Y-112406886D01*
X123597095Y-112403857D01*
X123928487Y-112182427D01*
X124301745Y-112027819D01*
X124301746Y-112027819D01*
X124301748Y-112027818D01*
X124697993Y-111949000D01*
X125102007Y-111949000D01*
X125498252Y-112027818D01*
X125498252Y-112027818D01*
G37*
G36*
X138646529Y-105087398D02*
X138821079Y-105140348D01*
X138981947Y-105226333D01*
X139122949Y-105342051D01*
X139238667Y-105483053D01*
X139324652Y-105643921D01*
X139377602Y-105818471D01*
X139395480Y-106000000D01*
X139377602Y-106181529D01*
X139324652Y-106356079D01*
X139238667Y-106516947D01*
X139122949Y-106657949D01*
X138981947Y-106773667D01*
X138821079Y-106859652D01*
X138646529Y-106912602D01*
X138510490Y-106926000D01*
X136669510Y-106926000D01*
X136533471Y-106912602D01*
X136358921Y-106859652D01*
X136198053Y-106773667D01*
X136057051Y-106657949D01*
X135941333Y-106516947D01*
X135855348Y-106356079D01*
X135802398Y-106181529D01*
X135784520Y-106000000D01*
X135802398Y-105818471D01*
X135855348Y-105643921D01*
X135941333Y-105483053D01*
X136057051Y-105342051D01*
X136198053Y-105226333D01*
X136358921Y-105140348D01*
X136533471Y-105087398D01*
X136669510Y-105074000D01*
X138510490Y-105074000D01*
X138646529Y-105087398D01*
X138646529Y-105087398D01*
G37*
G36*
X138646529Y-102587398D02*
X138821079Y-102640348D01*
X138981947Y-102726333D01*
X139122949Y-102842051D01*
X139238667Y-102983053D01*
X139324652Y-103143921D01*
X139377602Y-103318471D01*
X139395480Y-103500000D01*
X139377602Y-103681529D01*
X139324652Y-103856079D01*
X139238667Y-104016947D01*
X139122949Y-104157949D01*
X138981947Y-104273667D01*
X138821079Y-104359652D01*
X138646529Y-104412602D01*
X138510490Y-104426000D01*
X136669510Y-104426000D01*
X136533471Y-104412602D01*
X136358921Y-104359652D01*
X136198053Y-104273667D01*
X136057051Y-104157949D01*
X135941333Y-104016947D01*
X135855348Y-103856079D01*
X135802398Y-103681529D01*
X135784520Y-103500000D01*
X135802398Y-103318471D01*
X135855348Y-103143921D01*
X135941333Y-102983053D01*
X136057051Y-102842051D01*
X136198053Y-102726333D01*
X136358921Y-102640348D01*
X136533471Y-102587398D01*
X136669510Y-102574000D01*
X138510490Y-102574000D01*
X138646529Y-102587398D01*
X138646529Y-102587398D01*
G37*
G36*
X143897000Y-102801000D02*
X141295000Y-102801000D01*
X141295000Y-99199000D01*
X143897000Y-99199000D01*
X143897000Y-102801000D01*
X143897000Y-102801000D01*
G37*
G36*
X130375256Y-99391298D02*
X130481579Y-99412447D01*
X130782042Y-99536903D01*
X131048852Y-99715180D01*
X131052454Y-99717587D01*
X131282413Y-99947546D01*
X131463098Y-100217960D01*
X131587553Y-100518422D01*
X131651000Y-100837389D01*
X131651000Y-101162611D01*
X131587553Y-101481578D01*
X131463098Y-101782040D01*
X131282413Y-102052454D01*
X131052454Y-102282413D01*
X131052451Y-102282415D01*
X130782042Y-102463097D01*
X130481579Y-102587553D01*
X130375256Y-102608702D01*
X130162611Y-102651000D01*
X129837389Y-102651000D01*
X129624744Y-102608702D01*
X129518421Y-102587553D01*
X129217958Y-102463097D01*
X128947549Y-102282415D01*
X128947546Y-102282413D01*
X128717587Y-102052454D01*
X128536902Y-101782040D01*
X128412447Y-101481578D01*
X128349000Y-101162611D01*
X128349000Y-100837389D01*
X128412447Y-100518422D01*
X128536902Y-100217960D01*
X128717587Y-99947546D01*
X128947546Y-99717587D01*
X128951148Y-99715180D01*
X129217958Y-99536903D01*
X129518421Y-99412447D01*
X129624744Y-99391298D01*
X129837389Y-99349000D01*
X130162611Y-99349000D01*
X130375256Y-99391298D01*
X130375256Y-99391298D01*
G37*
G36*
X55277396Y-99085546D02*
X55450466Y-99157234D01*
X55606230Y-99261312D01*
X55738688Y-99393770D01*
X55842766Y-99549534D01*
X55914454Y-99722604D01*
X55951000Y-99906333D01*
X55951000Y-100093667D01*
X55914454Y-100277396D01*
X55842766Y-100450466D01*
X55738688Y-100606230D01*
X55606230Y-100738688D01*
X55450466Y-100842766D01*
X55277396Y-100914454D01*
X55093667Y-100951000D01*
X54906333Y-100951000D01*
X54722604Y-100914454D01*
X54549534Y-100842766D01*
X54393770Y-100738688D01*
X54261312Y-100606230D01*
X54157234Y-100450466D01*
X54085546Y-100277396D01*
X54049000Y-100093667D01*
X54049000Y-99906333D01*
X54085546Y-99722604D01*
X54157234Y-99549534D01*
X54261312Y-99393770D01*
X54393770Y-99261312D01*
X54549534Y-99157234D01*
X54722604Y-99085546D01*
X54906333Y-99049000D01*
X55093667Y-99049000D01*
X55277396Y-99085546D01*
X55277396Y-99085546D01*
G37*
G36*
X52777396Y-99085546D02*
X52950466Y-99157234D01*
X53106230Y-99261312D01*
X53238688Y-99393770D01*
X53342766Y-99549534D01*
X53414454Y-99722604D01*
X53451000Y-99906333D01*
X53451000Y-100093667D01*
X53414454Y-100277396D01*
X53342766Y-100450466D01*
X53238688Y-100606230D01*
X53106230Y-100738688D01*
X52950466Y-100842766D01*
X52777396Y-100914454D01*
X52593667Y-100951000D01*
X52406333Y-100951000D01*
X52222604Y-100914454D01*
X52049534Y-100842766D01*
X51893770Y-100738688D01*
X51761312Y-100606230D01*
X51657234Y-100450466D01*
X51585546Y-100277396D01*
X51549000Y-100093667D01*
X51549000Y-99906333D01*
X51585546Y-99722604D01*
X51657234Y-99549534D01*
X51761312Y-99393770D01*
X51893770Y-99261312D01*
X52049534Y-99157234D01*
X52222604Y-99085546D01*
X52406333Y-99049000D01*
X52593667Y-99049000D01*
X52777396Y-99085546D01*
X52777396Y-99085546D01*
G37*
G36*
X50277396Y-99085546D02*
X50450466Y-99157234D01*
X50606230Y-99261312D01*
X50738688Y-99393770D01*
X50842766Y-99549534D01*
X50914454Y-99722604D01*
X50951000Y-99906333D01*
X50951000Y-100093667D01*
X50914454Y-100277396D01*
X50842766Y-100450466D01*
X50738688Y-100606230D01*
X50606230Y-100738688D01*
X50450466Y-100842766D01*
X50277396Y-100914454D01*
X50093667Y-100951000D01*
X49906333Y-100951000D01*
X49722604Y-100914454D01*
X49549534Y-100842766D01*
X49393770Y-100738688D01*
X49261312Y-100606230D01*
X49157234Y-100450466D01*
X49085546Y-100277396D01*
X49049000Y-100093667D01*
X49049000Y-99906333D01*
X49085546Y-99722604D01*
X49157234Y-99549534D01*
X49261312Y-99393770D01*
X49393770Y-99261312D01*
X49549534Y-99157234D01*
X49722604Y-99085546D01*
X49906333Y-99049000D01*
X50093667Y-99049000D01*
X50277396Y-99085546D01*
X50277396Y-99085546D01*
G37*
G36*
X138646529Y-97587398D02*
X138821079Y-97640348D01*
X138981947Y-97726333D01*
X139122949Y-97842051D01*
X139238667Y-97983053D01*
X139324652Y-98143921D01*
X139377602Y-98318471D01*
X139395480Y-98500000D01*
X139377602Y-98681529D01*
X139324652Y-98856079D01*
X139238667Y-99016947D01*
X139122949Y-99157949D01*
X138981947Y-99273667D01*
X138821079Y-99359652D01*
X138646529Y-99412602D01*
X138510490Y-99426000D01*
X136669510Y-99426000D01*
X136533471Y-99412602D01*
X136358921Y-99359652D01*
X136198053Y-99273667D01*
X136057051Y-99157949D01*
X135941333Y-99016947D01*
X135855348Y-98856079D01*
X135802398Y-98681529D01*
X135784520Y-98500000D01*
X135802398Y-98318471D01*
X135855348Y-98143921D01*
X135941333Y-97983053D01*
X136057051Y-97842051D01*
X136198053Y-97726333D01*
X136358921Y-97640348D01*
X136533471Y-97587398D01*
X136669510Y-97574000D01*
X138510490Y-97574000D01*
X138646529Y-97587398D01*
X138646529Y-97587398D01*
G37*
G36*
X138646529Y-95087398D02*
X138821079Y-95140348D01*
X138981947Y-95226333D01*
X139122949Y-95342051D01*
X139238667Y-95483053D01*
X139324652Y-95643921D01*
X139377602Y-95818471D01*
X139395480Y-96000000D01*
X139377602Y-96181529D01*
X139324652Y-96356079D01*
X139238667Y-96516947D01*
X139122949Y-96657949D01*
X138981947Y-96773667D01*
X138821079Y-96859652D01*
X138646529Y-96912602D01*
X138510490Y-96926000D01*
X136669510Y-96926000D01*
X136533471Y-96912602D01*
X136358921Y-96859652D01*
X136198053Y-96773667D01*
X136057051Y-96657949D01*
X135941333Y-96516947D01*
X135855348Y-96356079D01*
X135802398Y-96181529D01*
X135784520Y-96000000D01*
X135802398Y-95818471D01*
X135855348Y-95643921D01*
X135941333Y-95483053D01*
X136057051Y-95342051D01*
X136198053Y-95226333D01*
X136358921Y-95140348D01*
X136533471Y-95087398D01*
X136669510Y-95074000D01*
X138510490Y-95074000D01*
X138646529Y-95087398D01*
X138646529Y-95087398D01*
G37*
G36*
X48698252Y-91042818D02*
X48698254Y-91042819D01*
X48698255Y-91042819D01*
X49071513Y-91197427D01*
X49071514Y-91197428D01*
X49407439Y-91421886D01*
X49693114Y-91707561D01*
X49693116Y-91707564D01*
X49917573Y-92043487D01*
X50035098Y-92327218D01*
X50072182Y-92416748D01*
X50151000Y-92812993D01*
X50151000Y-93217007D01*
X50075166Y-93598252D01*
X50072181Y-93613255D01*
X49917573Y-93986513D01*
X49917572Y-93986514D01*
X49693114Y-94322439D01*
X49407439Y-94608114D01*
X49407436Y-94608116D01*
X49071513Y-94832573D01*
X48698255Y-94987181D01*
X48698254Y-94987181D01*
X48698252Y-94987182D01*
X48302007Y-95066000D01*
X47897993Y-95066000D01*
X47501748Y-94987182D01*
X47501746Y-94987181D01*
X47501745Y-94987181D01*
X47128487Y-94832573D01*
X46792564Y-94608116D01*
X46792561Y-94608114D01*
X46506886Y-94322439D01*
X46282428Y-93986514D01*
X46282427Y-93986513D01*
X46127819Y-93613255D01*
X46124835Y-93598252D01*
X46049000Y-93217007D01*
X46049000Y-92812993D01*
X46127818Y-92416748D01*
X46164902Y-92327218D01*
X46282427Y-92043487D01*
X46506884Y-91707564D01*
X46506886Y-91707561D01*
X46792561Y-91421886D01*
X47128486Y-91197428D01*
X47128487Y-91197427D01*
X47501745Y-91042819D01*
X47501746Y-91042819D01*
X47501748Y-91042818D01*
X47897993Y-90964000D01*
X48302007Y-90964000D01*
X48698252Y-91042818D01*
X48698252Y-91042818D01*
G37*
G36*
X57498252Y-91027818D02*
X57498254Y-91027819D01*
X57498255Y-91027819D01*
X57871513Y-91182427D01*
X58152195Y-91369973D01*
X58207439Y-91406886D01*
X58493114Y-91692561D01*
X58493116Y-91692564D01*
X58717573Y-92028487D01*
X58841311Y-92327218D01*
X58872182Y-92401748D01*
X58951000Y-92797993D01*
X58951000Y-93202007D01*
X58948017Y-93217006D01*
X58872181Y-93598255D01*
X58717573Y-93971513D01*
X58496143Y-94302905D01*
X58493114Y-94307439D01*
X58207439Y-94593114D01*
X58207436Y-94593116D01*
X57871513Y-94817573D01*
X57498255Y-94972181D01*
X57498254Y-94972181D01*
X57498252Y-94972182D01*
X57102007Y-95051000D01*
X56697993Y-95051000D01*
X56301748Y-94972182D01*
X56301746Y-94972181D01*
X56301745Y-94972181D01*
X55928487Y-94817573D01*
X55592564Y-94593116D01*
X55592561Y-94593114D01*
X55306886Y-94307439D01*
X55303857Y-94302905D01*
X55082427Y-93971513D01*
X54927819Y-93598255D01*
X54851984Y-93217006D01*
X54849000Y-93202007D01*
X54849000Y-92797993D01*
X54927818Y-92401748D01*
X54958689Y-92327218D01*
X55082427Y-92028487D01*
X55306884Y-91692564D01*
X55306886Y-91692561D01*
X55592561Y-91406886D01*
X55647805Y-91369973D01*
X55928487Y-91182427D01*
X56301745Y-91027819D01*
X56301746Y-91027819D01*
X56301748Y-91027818D01*
X56697993Y-90949000D01*
X57102007Y-90949000D01*
X57498252Y-91027818D01*
X57498252Y-91027818D01*
G37*
G36*
X132382193Y-90247384D02*
X132618902Y-90345432D01*
X132831938Y-90487778D01*
X133013102Y-90668942D01*
X133155448Y-90881978D01*
X133253496Y-91118687D01*
X133303480Y-91369973D01*
X133303480Y-91626187D01*
X133253496Y-91877473D01*
X133155448Y-92114182D01*
X133013102Y-92327218D01*
X132831938Y-92508382D01*
X132618902Y-92650728D01*
X132382193Y-92748776D01*
X132130907Y-92798760D01*
X131874693Y-92798760D01*
X131623407Y-92748776D01*
X131386698Y-92650728D01*
X131173662Y-92508382D01*
X130992498Y-92327218D01*
X130850152Y-92114182D01*
X130752104Y-91877473D01*
X130702120Y-91626187D01*
X130702120Y-91369973D01*
X130752104Y-91118687D01*
X130850152Y-90881978D01*
X130992498Y-90668942D01*
X131173662Y-90487778D01*
X131386698Y-90345432D01*
X131623407Y-90247384D01*
X131874693Y-90197400D01*
X132130907Y-90197400D01*
X132382193Y-90247384D01*
X132382193Y-90247384D01*
G37*
G36*
X64796201Y-89375573D02*
X64981579Y-89412447D01*
X65282042Y-89536903D01*
X65548852Y-89715180D01*
X65552454Y-89717587D01*
X65782413Y-89947546D01*
X65782415Y-89947549D01*
X65949361Y-90197400D01*
X65963098Y-90217960D01*
X65989795Y-90282413D01*
X66015899Y-90345432D01*
X66087553Y-90518422D01*
X66151000Y-90837389D01*
X66151000Y-91162611D01*
X66087553Y-91481578D01*
X65963098Y-91782040D01*
X65782413Y-92052454D01*
X65552454Y-92282413D01*
X65552451Y-92282415D01*
X65282042Y-92463097D01*
X64981579Y-92587553D01*
X64875256Y-92608702D01*
X64662611Y-92651000D01*
X64337389Y-92651000D01*
X64124744Y-92608702D01*
X64018421Y-92587553D01*
X63717958Y-92463097D01*
X63447549Y-92282415D01*
X63447546Y-92282413D01*
X63217587Y-92052454D01*
X63036902Y-91782040D01*
X62912447Y-91481578D01*
X62849000Y-91162611D01*
X62849000Y-90837389D01*
X62912447Y-90518422D01*
X62984102Y-90345432D01*
X63010205Y-90282413D01*
X63036902Y-90217960D01*
X63050640Y-90197400D01*
X63217585Y-89947549D01*
X63217587Y-89947546D01*
X63447546Y-89717587D01*
X63451148Y-89715180D01*
X63717958Y-89536903D01*
X64018421Y-89412447D01*
X64203799Y-89375573D01*
X64337389Y-89349000D01*
X64662611Y-89349000D01*
X64796201Y-89375573D01*
X64796201Y-89375573D01*
G37*
G36*
X89375256Y-87391298D02*
X89481579Y-87412447D01*
X89782042Y-87536903D01*
X90027001Y-87700580D01*
X90052454Y-87717587D01*
X90282413Y-87947546D01*
X90282415Y-87947549D01*
X90463097Y-88217958D01*
X90587553Y-88518421D01*
X90651000Y-88837391D01*
X90651000Y-89162609D01*
X90587553Y-89481579D01*
X90531310Y-89617362D01*
X90463098Y-89782040D01*
X90282413Y-90052454D01*
X90052454Y-90282413D01*
X90052451Y-90282415D01*
X89782042Y-90463097D01*
X89481579Y-90587553D01*
X89375256Y-90608702D01*
X89162611Y-90651000D01*
X88837389Y-90651000D01*
X88624744Y-90608702D01*
X88518421Y-90587553D01*
X88217958Y-90463097D01*
X87947549Y-90282415D01*
X87947546Y-90282413D01*
X87717587Y-90052454D01*
X87536902Y-89782040D01*
X87468690Y-89617362D01*
X87412447Y-89481579D01*
X87349000Y-89162609D01*
X87349000Y-88837391D01*
X87412447Y-88518421D01*
X87536903Y-88217958D01*
X87717585Y-87947549D01*
X87717587Y-87947546D01*
X87947546Y-87717587D01*
X87972999Y-87700580D01*
X88217958Y-87536903D01*
X88518421Y-87412447D01*
X88624744Y-87391298D01*
X88837389Y-87349000D01*
X89162611Y-87349000D01*
X89375256Y-87391298D01*
X89375256Y-87391298D01*
G37*
G36*
X142377093Y-87750564D02*
X142613802Y-87848612D01*
X142826838Y-87990958D01*
X143008002Y-88172122D01*
X143150348Y-88385158D01*
X143248396Y-88621867D01*
X143298380Y-88873153D01*
X143298380Y-89129367D01*
X143248396Y-89380653D01*
X143150348Y-89617362D01*
X143008002Y-89830398D01*
X142826838Y-90011562D01*
X142613802Y-90153908D01*
X142377093Y-90251956D01*
X142125807Y-90301940D01*
X141869593Y-90301940D01*
X141618307Y-90251956D01*
X141381598Y-90153908D01*
X141168562Y-90011562D01*
X140987398Y-89830398D01*
X140845052Y-89617362D01*
X140747004Y-89380653D01*
X140697020Y-89129367D01*
X140697020Y-88873153D01*
X140747004Y-88621867D01*
X140845052Y-88385158D01*
X140987398Y-88172122D01*
X141168562Y-87990958D01*
X141381598Y-87848612D01*
X141618307Y-87750564D01*
X141869593Y-87700580D01*
X142125807Y-87700580D01*
X142377093Y-87750564D01*
X142377093Y-87750564D01*
G37*
G36*
X129880293Y-87745484D02*
X130117002Y-87843532D01*
X130330038Y-87985878D01*
X130511202Y-88167042D01*
X130653548Y-88380078D01*
X130751596Y-88616787D01*
X130801580Y-88868073D01*
X130801580Y-89124287D01*
X130751596Y-89375573D01*
X130653548Y-89612282D01*
X130511202Y-89825318D01*
X130330038Y-90006482D01*
X130117002Y-90148828D01*
X129880293Y-90246876D01*
X129629007Y-90296860D01*
X129372793Y-90296860D01*
X129121507Y-90246876D01*
X128884798Y-90148828D01*
X128671762Y-90006482D01*
X128490598Y-89825318D01*
X128348252Y-89612282D01*
X128250204Y-89375573D01*
X128200220Y-89124287D01*
X128200220Y-88868073D01*
X128250204Y-88616787D01*
X128348252Y-88380078D01*
X128490598Y-88167042D01*
X128671762Y-87985878D01*
X128884798Y-87843532D01*
X129121507Y-87745484D01*
X129372793Y-87695500D01*
X129629007Y-87695500D01*
X129880293Y-87745484D01*
X129880293Y-87745484D01*
G37*
G36*
X132379653Y-82749304D02*
X132616362Y-82847352D01*
X132829398Y-82989698D01*
X133010562Y-83170862D01*
X133152908Y-83383898D01*
X133250956Y-83620607D01*
X133300940Y-83871893D01*
X133300940Y-84128107D01*
X133250956Y-84379393D01*
X133152908Y-84616102D01*
X133010562Y-84829138D01*
X132829398Y-85010302D01*
X132616362Y-85152648D01*
X132379653Y-85250696D01*
X132128367Y-85300680D01*
X131872153Y-85300680D01*
X131620867Y-85250696D01*
X131384158Y-85152648D01*
X131171122Y-85010302D01*
X130989958Y-84829138D01*
X130847612Y-84616102D01*
X130749564Y-84379393D01*
X130699580Y-84128107D01*
X130699580Y-83871893D01*
X130749564Y-83620607D01*
X130847612Y-83383898D01*
X130989958Y-83170862D01*
X131171122Y-82989698D01*
X131384158Y-82847352D01*
X131620867Y-82749304D01*
X131872153Y-82699320D01*
X132128367Y-82699320D01*
X132379653Y-82749304D01*
X132379653Y-82749304D01*
G37*
G36*
X80901000Y-84901000D02*
X79099000Y-84901000D01*
X79099000Y-83099000D01*
X80901000Y-83099000D01*
X80901000Y-84901000D01*
X80901000Y-84901000D01*
G37*
G36*
X77570442Y-83105518D02*
X77636627Y-83112037D01*
X77749853Y-83146384D01*
X77806467Y-83163557D01*
X77945087Y-83237652D01*
X77962991Y-83247222D01*
X77998729Y-83276552D01*
X78100186Y-83359814D01*
X78183448Y-83461271D01*
X78212778Y-83497009D01*
X78212779Y-83497011D01*
X78296443Y-83653533D01*
X78296443Y-83653534D01*
X78347963Y-83823373D01*
X78365359Y-84000000D01*
X78347963Y-84176627D01*
X78313616Y-84289853D01*
X78296443Y-84346467D01*
X78222348Y-84485087D01*
X78212778Y-84502991D01*
X78183448Y-84538729D01*
X78100186Y-84640186D01*
X77998729Y-84723448D01*
X77962991Y-84752778D01*
X77962989Y-84752779D01*
X77806467Y-84836443D01*
X77749853Y-84853616D01*
X77636627Y-84887963D01*
X77570442Y-84894482D01*
X77504260Y-84901000D01*
X77415740Y-84901000D01*
X77349558Y-84894482D01*
X77283373Y-84887963D01*
X77170147Y-84853616D01*
X77113533Y-84836443D01*
X76957011Y-84752779D01*
X76957009Y-84752778D01*
X76921271Y-84723448D01*
X76819814Y-84640186D01*
X76736552Y-84538729D01*
X76707222Y-84502991D01*
X76697652Y-84485087D01*
X76623557Y-84346467D01*
X76606384Y-84289853D01*
X76572037Y-84176627D01*
X76554641Y-84000000D01*
X76572037Y-83823373D01*
X76623557Y-83653534D01*
X76623557Y-83653533D01*
X76707221Y-83497011D01*
X76707222Y-83497009D01*
X76736552Y-83461271D01*
X76819814Y-83359814D01*
X76921271Y-83276552D01*
X76957009Y-83247222D01*
X76974913Y-83237652D01*
X77113533Y-83163557D01*
X77170147Y-83146384D01*
X77283373Y-83112037D01*
X77349558Y-83105518D01*
X77415740Y-83099000D01*
X77504260Y-83099000D01*
X77570442Y-83105518D01*
X77570442Y-83105518D01*
G37*
G36*
X129880293Y-77753124D02*
X130117002Y-77851172D01*
X130330038Y-77993518D01*
X130511202Y-78174682D01*
X130653548Y-78387718D01*
X130751596Y-78624427D01*
X130801580Y-78875713D01*
X130801580Y-79131927D01*
X130751596Y-79383213D01*
X130653548Y-79619922D01*
X130511202Y-79832958D01*
X130330038Y-80014122D01*
X130117002Y-80156468D01*
X129880293Y-80254516D01*
X129629007Y-80304500D01*
X129372793Y-80304500D01*
X129121507Y-80254516D01*
X128884798Y-80156468D01*
X128671762Y-80014122D01*
X128490598Y-79832958D01*
X128348252Y-79619922D01*
X128250204Y-79383213D01*
X128200220Y-79131927D01*
X128200220Y-78875713D01*
X128250204Y-78624427D01*
X128348252Y-78387718D01*
X128490598Y-78174682D01*
X128671762Y-77993518D01*
X128884798Y-77851172D01*
X129121507Y-77753124D01*
X129372793Y-77703140D01*
X129629007Y-77703140D01*
X129880293Y-77753124D01*
X129880293Y-77753124D01*
G37*
G36*
X142377093Y-77748044D02*
X142613802Y-77846092D01*
X142826838Y-77988438D01*
X143008002Y-78169602D01*
X143150348Y-78382638D01*
X143248396Y-78619347D01*
X143298380Y-78870633D01*
X143298380Y-79126847D01*
X143248396Y-79378133D01*
X143150348Y-79614842D01*
X143008002Y-79827878D01*
X142826838Y-80009042D01*
X142613802Y-80151388D01*
X142377093Y-80249436D01*
X142125807Y-80299420D01*
X141869593Y-80299420D01*
X141618307Y-80249436D01*
X141381598Y-80151388D01*
X141168562Y-80009042D01*
X140987398Y-79827878D01*
X140845052Y-79614842D01*
X140747004Y-79378133D01*
X140697020Y-79126847D01*
X140697020Y-78870633D01*
X140747004Y-78619347D01*
X140845052Y-78382638D01*
X140987398Y-78169602D01*
X141168562Y-77988438D01*
X141381598Y-77846092D01*
X141618307Y-77748044D01*
X141869593Y-77698060D01*
X142125807Y-77698060D01*
X142377093Y-77748044D01*
X142377093Y-77748044D01*
G37*
G36*
X132382193Y-75251224D02*
X132618902Y-75349272D01*
X132831938Y-75491618D01*
X133013102Y-75672782D01*
X133155448Y-75885818D01*
X133253496Y-76122527D01*
X133303480Y-76373813D01*
X133303480Y-76630027D01*
X133253496Y-76881313D01*
X133155448Y-77118022D01*
X133013102Y-77331058D01*
X132831938Y-77512222D01*
X132618902Y-77654568D01*
X132382193Y-77752616D01*
X132130907Y-77802600D01*
X131874693Y-77802600D01*
X131623407Y-77752616D01*
X131386698Y-77654568D01*
X131173662Y-77512222D01*
X130992498Y-77331058D01*
X130850152Y-77118022D01*
X130752104Y-76881313D01*
X130702120Y-76630027D01*
X130702120Y-76373813D01*
X130752104Y-76122527D01*
X130850152Y-75885818D01*
X130992498Y-75672782D01*
X131173662Y-75491618D01*
X131386698Y-75349272D01*
X131623407Y-75251224D01*
X131874693Y-75201240D01*
X132130907Y-75201240D01*
X132382193Y-75251224D01*
X132382193Y-75251224D01*
G37*
G36*
X73095443Y-66050519D02*
X73161628Y-66057038D01*
X73274854Y-66091385D01*
X73331468Y-66108558D01*
X73470088Y-66182653D01*
X73487992Y-66192223D01*
X73523730Y-66221553D01*
X73625187Y-66304815D01*
X73708449Y-66406272D01*
X73737779Y-66442010D01*
X73737780Y-66442012D01*
X73821444Y-66598534D01*
X73821444Y-66598535D01*
X73872964Y-66768374D01*
X73890360Y-66945001D01*
X73872964Y-67121628D01*
X73838617Y-67234854D01*
X73821444Y-67291468D01*
X73747349Y-67430088D01*
X73737779Y-67447992D01*
X73708449Y-67483730D01*
X73625187Y-67585187D01*
X73523730Y-67668449D01*
X73487992Y-67697779D01*
X73487990Y-67697780D01*
X73331468Y-67781444D01*
X73274854Y-67798617D01*
X73161628Y-67832964D01*
X73095444Y-67839482D01*
X73029261Y-67846001D01*
X72940741Y-67846001D01*
X72874558Y-67839482D01*
X72808374Y-67832964D01*
X72695148Y-67798617D01*
X72638534Y-67781444D01*
X72482012Y-67697780D01*
X72482010Y-67697779D01*
X72446272Y-67668449D01*
X72344815Y-67585187D01*
X72261553Y-67483730D01*
X72232223Y-67447992D01*
X72222653Y-67430088D01*
X72148558Y-67291468D01*
X72131385Y-67234854D01*
X72097038Y-67121628D01*
X72079642Y-66945001D01*
X72097038Y-66768374D01*
X72148558Y-66598535D01*
X72148558Y-66598534D01*
X72232222Y-66442012D01*
X72232223Y-66442010D01*
X72261553Y-66406272D01*
X72344815Y-66304815D01*
X72446272Y-66221553D01*
X72482010Y-66192223D01*
X72499914Y-66182653D01*
X72638534Y-66108558D01*
X72695148Y-66091385D01*
X72808374Y-66057038D01*
X72874559Y-66050519D01*
X72940741Y-66044001D01*
X73029261Y-66044001D01*
X73095443Y-66050519D01*
X73095443Y-66050519D01*
G37*
G36*
X76695443Y-66050519D02*
X76761628Y-66057038D01*
X76874854Y-66091385D01*
X76931468Y-66108558D01*
X77070088Y-66182653D01*
X77087992Y-66192223D01*
X77123730Y-66221553D01*
X77225187Y-66304815D01*
X77308449Y-66406272D01*
X77337779Y-66442010D01*
X77337780Y-66442012D01*
X77421444Y-66598534D01*
X77421444Y-66598535D01*
X77472964Y-66768374D01*
X77490360Y-66945001D01*
X77472964Y-67121628D01*
X77438617Y-67234854D01*
X77421444Y-67291468D01*
X77347349Y-67430088D01*
X77337779Y-67447992D01*
X77308449Y-67483730D01*
X77225187Y-67585187D01*
X77123730Y-67668449D01*
X77087992Y-67697779D01*
X77087990Y-67697780D01*
X76931468Y-67781444D01*
X76874854Y-67798617D01*
X76761628Y-67832964D01*
X76695444Y-67839482D01*
X76629261Y-67846001D01*
X76540741Y-67846001D01*
X76474558Y-67839482D01*
X76408374Y-67832964D01*
X76295148Y-67798617D01*
X76238534Y-67781444D01*
X76082012Y-67697780D01*
X76082010Y-67697779D01*
X76046272Y-67668449D01*
X75944815Y-67585187D01*
X75861553Y-67483730D01*
X75832223Y-67447992D01*
X75822653Y-67430088D01*
X75748558Y-67291468D01*
X75731385Y-67234854D01*
X75697038Y-67121628D01*
X75679642Y-66945001D01*
X75697038Y-66768374D01*
X75748558Y-66598535D01*
X75748558Y-66598534D01*
X75832222Y-66442012D01*
X75832223Y-66442010D01*
X75861553Y-66406272D01*
X75944815Y-66304815D01*
X76046272Y-66221553D01*
X76082010Y-66192223D01*
X76099914Y-66182653D01*
X76238534Y-66108558D01*
X76295148Y-66091385D01*
X76408374Y-66057038D01*
X76474559Y-66050519D01*
X76540741Y-66044001D01*
X76629261Y-66044001D01*
X76695443Y-66050519D01*
X76695443Y-66050519D01*
G37*
G36*
X69495443Y-66050519D02*
X69561628Y-66057038D01*
X69674854Y-66091385D01*
X69731468Y-66108558D01*
X69870088Y-66182653D01*
X69887992Y-66192223D01*
X69923730Y-66221553D01*
X70025187Y-66304815D01*
X70108449Y-66406272D01*
X70137779Y-66442010D01*
X70137780Y-66442012D01*
X70221444Y-66598534D01*
X70221444Y-66598535D01*
X70272964Y-66768374D01*
X70290360Y-66945001D01*
X70272964Y-67121628D01*
X70238617Y-67234854D01*
X70221444Y-67291468D01*
X70147349Y-67430088D01*
X70137779Y-67447992D01*
X70108449Y-67483730D01*
X70025187Y-67585187D01*
X69923730Y-67668449D01*
X69887992Y-67697779D01*
X69887990Y-67697780D01*
X69731468Y-67781444D01*
X69674854Y-67798617D01*
X69561628Y-67832964D01*
X69495444Y-67839482D01*
X69429261Y-67846001D01*
X69340741Y-67846001D01*
X69274558Y-67839482D01*
X69208374Y-67832964D01*
X69095148Y-67798617D01*
X69038534Y-67781444D01*
X68882012Y-67697780D01*
X68882010Y-67697779D01*
X68846272Y-67668449D01*
X68744815Y-67585187D01*
X68661553Y-67483730D01*
X68632223Y-67447992D01*
X68622653Y-67430088D01*
X68548558Y-67291468D01*
X68531385Y-67234854D01*
X68497038Y-67121628D01*
X68479642Y-66945001D01*
X68497038Y-66768374D01*
X68548558Y-66598535D01*
X68548558Y-66598534D01*
X68632222Y-66442012D01*
X68632223Y-66442010D01*
X68661553Y-66406272D01*
X68744815Y-66304815D01*
X68846272Y-66221553D01*
X68882010Y-66192223D01*
X68899914Y-66182653D01*
X69038534Y-66108558D01*
X69095148Y-66091385D01*
X69208374Y-66057038D01*
X69274559Y-66050519D01*
X69340741Y-66044001D01*
X69429261Y-66044001D01*
X69495443Y-66050519D01*
X69495443Y-66050519D01*
G37*
G36*
X76695444Y-63510520D02*
X76761628Y-63517038D01*
X76874854Y-63551385D01*
X76931468Y-63568558D01*
X77070088Y-63642653D01*
X77087992Y-63652223D01*
X77123730Y-63681553D01*
X77225187Y-63764815D01*
X77308449Y-63866272D01*
X77337779Y-63902010D01*
X77337780Y-63902012D01*
X77421444Y-64058534D01*
X77421444Y-64058535D01*
X77472964Y-64228374D01*
X77490360Y-64405001D01*
X77472964Y-64581628D01*
X77438617Y-64694854D01*
X77421444Y-64751468D01*
X77347349Y-64890088D01*
X77337779Y-64907992D01*
X77308449Y-64943730D01*
X77225187Y-65045187D01*
X77123730Y-65128449D01*
X77087992Y-65157779D01*
X77087990Y-65157780D01*
X76931468Y-65241444D01*
X76874854Y-65258617D01*
X76761628Y-65292964D01*
X76695443Y-65299483D01*
X76629261Y-65306001D01*
X76540741Y-65306001D01*
X76474559Y-65299483D01*
X76408374Y-65292964D01*
X76295148Y-65258617D01*
X76238534Y-65241444D01*
X76082012Y-65157780D01*
X76082010Y-65157779D01*
X76046272Y-65128449D01*
X75944815Y-65045187D01*
X75861553Y-64943730D01*
X75832223Y-64907992D01*
X75822653Y-64890088D01*
X75748558Y-64751468D01*
X75731385Y-64694854D01*
X75697038Y-64581628D01*
X75679642Y-64405001D01*
X75697038Y-64228374D01*
X75748558Y-64058535D01*
X75748558Y-64058534D01*
X75832222Y-63902012D01*
X75832223Y-63902010D01*
X75861553Y-63866272D01*
X75944815Y-63764815D01*
X76046272Y-63681553D01*
X76082010Y-63652223D01*
X76099914Y-63642653D01*
X76238534Y-63568558D01*
X76295148Y-63551385D01*
X76408374Y-63517038D01*
X76474558Y-63510520D01*
X76540741Y-63504001D01*
X76629261Y-63504001D01*
X76695444Y-63510520D01*
X76695444Y-63510520D01*
G37*
G36*
X69495444Y-63510520D02*
X69561628Y-63517038D01*
X69674854Y-63551385D01*
X69731468Y-63568558D01*
X69870088Y-63642653D01*
X69887992Y-63652223D01*
X69923730Y-63681553D01*
X70025187Y-63764815D01*
X70108449Y-63866272D01*
X70137779Y-63902010D01*
X70137780Y-63902012D01*
X70221444Y-64058534D01*
X70221444Y-64058535D01*
X70272964Y-64228374D01*
X70290360Y-64405001D01*
X70272964Y-64581628D01*
X70238617Y-64694854D01*
X70221444Y-64751468D01*
X70147349Y-64890088D01*
X70137779Y-64907992D01*
X70108449Y-64943730D01*
X70025187Y-65045187D01*
X69923730Y-65128449D01*
X69887992Y-65157779D01*
X69887990Y-65157780D01*
X69731468Y-65241444D01*
X69674854Y-65258617D01*
X69561628Y-65292964D01*
X69495443Y-65299483D01*
X69429261Y-65306001D01*
X69340741Y-65306001D01*
X69274559Y-65299483D01*
X69208374Y-65292964D01*
X69095148Y-65258617D01*
X69038534Y-65241444D01*
X68882012Y-65157780D01*
X68882010Y-65157779D01*
X68846272Y-65128449D01*
X68744815Y-65045187D01*
X68661553Y-64943730D01*
X68632223Y-64907992D01*
X68622653Y-64890088D01*
X68548558Y-64751468D01*
X68531385Y-64694854D01*
X68497038Y-64581628D01*
X68479642Y-64405001D01*
X68497038Y-64228374D01*
X68548558Y-64058535D01*
X68548558Y-64058534D01*
X68632222Y-63902012D01*
X68632223Y-63902010D01*
X68661553Y-63866272D01*
X68744815Y-63764815D01*
X68846272Y-63681553D01*
X68882010Y-63652223D01*
X68899914Y-63642653D01*
X69038534Y-63568558D01*
X69095148Y-63551385D01*
X69208374Y-63517038D01*
X69274558Y-63510520D01*
X69340741Y-63504001D01*
X69429261Y-63504001D01*
X69495444Y-63510520D01*
X69495444Y-63510520D01*
G37*
G36*
X73095444Y-63510520D02*
X73161628Y-63517038D01*
X73274854Y-63551385D01*
X73331468Y-63568558D01*
X73470088Y-63642653D01*
X73487992Y-63652223D01*
X73523730Y-63681553D01*
X73625187Y-63764815D01*
X73708449Y-63866272D01*
X73737779Y-63902010D01*
X73737780Y-63902012D01*
X73821444Y-64058534D01*
X73821444Y-64058535D01*
X73872964Y-64228374D01*
X73890360Y-64405001D01*
X73872964Y-64581628D01*
X73838617Y-64694854D01*
X73821444Y-64751468D01*
X73747349Y-64890088D01*
X73737779Y-64907992D01*
X73708449Y-64943730D01*
X73625187Y-65045187D01*
X73523730Y-65128449D01*
X73487992Y-65157779D01*
X73487990Y-65157780D01*
X73331468Y-65241444D01*
X73274854Y-65258617D01*
X73161628Y-65292964D01*
X73095443Y-65299483D01*
X73029261Y-65306001D01*
X72940741Y-65306001D01*
X72874559Y-65299483D01*
X72808374Y-65292964D01*
X72695148Y-65258617D01*
X72638534Y-65241444D01*
X72482012Y-65157780D01*
X72482010Y-65157779D01*
X72446272Y-65128449D01*
X72344815Y-65045187D01*
X72261553Y-64943730D01*
X72232223Y-64907992D01*
X72222653Y-64890088D01*
X72148558Y-64751468D01*
X72131385Y-64694854D01*
X72097038Y-64581628D01*
X72079642Y-64405001D01*
X72097038Y-64228374D01*
X72148558Y-64058535D01*
X72148558Y-64058534D01*
X72232222Y-63902012D01*
X72232223Y-63902010D01*
X72261553Y-63866272D01*
X72344815Y-63764815D01*
X72446272Y-63681553D01*
X72482010Y-63652223D01*
X72499914Y-63642653D01*
X72638534Y-63568558D01*
X72695148Y-63551385D01*
X72808374Y-63517038D01*
X72874558Y-63510520D01*
X72940741Y-63504001D01*
X73029261Y-63504001D01*
X73095444Y-63510520D01*
X73095444Y-63510520D01*
G37*
G36*
X125328228Y-61691703D02*
X125483100Y-61755853D01*
X125622481Y-61848985D01*
X125741015Y-61967519D01*
X125834147Y-62106900D01*
X125898297Y-62261772D01*
X125931000Y-62426184D01*
X125931000Y-62593816D01*
X125898297Y-62758228D01*
X125834147Y-62913100D01*
X125741015Y-63052481D01*
X125622481Y-63171015D01*
X125483100Y-63264147D01*
X125328228Y-63328297D01*
X125163816Y-63361000D01*
X124996184Y-63361000D01*
X124831772Y-63328297D01*
X124676900Y-63264147D01*
X124537519Y-63171015D01*
X124418985Y-63052481D01*
X124325853Y-62913100D01*
X124261703Y-62758228D01*
X124229000Y-62593816D01*
X124229000Y-62426184D01*
X124261703Y-62261772D01*
X124325853Y-62106900D01*
X124418985Y-61967519D01*
X124537519Y-61848985D01*
X124676900Y-61755853D01*
X124831772Y-61691703D01*
X124996184Y-61659000D01*
X125163816Y-61659000D01*
X125328228Y-61691703D01*
X125328228Y-61691703D01*
G37*
G36*
X120248228Y-61691703D02*
X120403100Y-61755853D01*
X120542481Y-61848985D01*
X120661015Y-61967519D01*
X120754147Y-62106900D01*
X120818297Y-62261772D01*
X120851000Y-62426184D01*
X120851000Y-62593816D01*
X120818297Y-62758228D01*
X120754147Y-62913100D01*
X120661015Y-63052481D01*
X120542481Y-63171015D01*
X120403100Y-63264147D01*
X120248228Y-63328297D01*
X120083816Y-63361000D01*
X119916184Y-63361000D01*
X119751772Y-63328297D01*
X119596900Y-63264147D01*
X119457519Y-63171015D01*
X119338985Y-63052481D01*
X119245853Y-62913100D01*
X119181703Y-62758228D01*
X119149000Y-62593816D01*
X119149000Y-62426184D01*
X119181703Y-62261772D01*
X119245853Y-62106900D01*
X119338985Y-61967519D01*
X119457519Y-61848985D01*
X119596900Y-61755853D01*
X119751772Y-61691703D01*
X119916184Y-61659000D01*
X120083816Y-61659000D01*
X120248228Y-61691703D01*
X120248228Y-61691703D01*
G37*
G36*
X122788228Y-61691703D02*
X122943100Y-61755853D01*
X123082481Y-61848985D01*
X123201015Y-61967519D01*
X123294147Y-62106900D01*
X123358297Y-62261772D01*
X123391000Y-62426184D01*
X123391000Y-62593816D01*
X123358297Y-62758228D01*
X123294147Y-62913100D01*
X123201015Y-63052481D01*
X123082481Y-63171015D01*
X122943100Y-63264147D01*
X122788228Y-63328297D01*
X122623816Y-63361000D01*
X122456184Y-63361000D01*
X122291772Y-63328297D01*
X122136900Y-63264147D01*
X121997519Y-63171015D01*
X121878985Y-63052481D01*
X121785853Y-62913100D01*
X121721703Y-62758228D01*
X121689000Y-62593816D01*
X121689000Y-62426184D01*
X121721703Y-62261772D01*
X121785853Y-62106900D01*
X121878985Y-61967519D01*
X121997519Y-61848985D01*
X122136900Y-61755853D01*
X122291772Y-61691703D01*
X122456184Y-61659000D01*
X122623816Y-61659000D01*
X122788228Y-61691703D01*
X122788228Y-61691703D01*
G37*
G36*
X127868228Y-61691703D02*
X128023100Y-61755853D01*
X128162481Y-61848985D01*
X128281015Y-61967519D01*
X128374147Y-62106900D01*
X128438297Y-62261772D01*
X128471000Y-62426184D01*
X128471000Y-62593816D01*
X128438297Y-62758228D01*
X128374147Y-62913100D01*
X128281015Y-63052481D01*
X128162481Y-63171015D01*
X128023100Y-63264147D01*
X127868228Y-63328297D01*
X127703816Y-63361000D01*
X127536184Y-63361000D01*
X127371772Y-63328297D01*
X127216900Y-63264147D01*
X127077519Y-63171015D01*
X126958985Y-63052481D01*
X126865853Y-62913100D01*
X126801703Y-62758228D01*
X126769000Y-62593816D01*
X126769000Y-62426184D01*
X126801703Y-62261772D01*
X126865853Y-62106900D01*
X126958985Y-61967519D01*
X127077519Y-61848985D01*
X127216900Y-61755853D01*
X127371772Y-61691703D01*
X127536184Y-61659000D01*
X127703816Y-61659000D01*
X127868228Y-61691703D01*
X127868228Y-61691703D01*
G37*
G36*
X117708228Y-61691703D02*
X117863100Y-61755853D01*
X118002481Y-61848985D01*
X118121015Y-61967519D01*
X118214147Y-62106900D01*
X118278297Y-62261772D01*
X118311000Y-62426184D01*
X118311000Y-62593816D01*
X118278297Y-62758228D01*
X118214147Y-62913100D01*
X118121015Y-63052481D01*
X118002481Y-63171015D01*
X117863100Y-63264147D01*
X117708228Y-63328297D01*
X117543816Y-63361000D01*
X117376184Y-63361000D01*
X117211772Y-63328297D01*
X117056900Y-63264147D01*
X116917519Y-63171015D01*
X116798985Y-63052481D01*
X116705853Y-62913100D01*
X116641703Y-62758228D01*
X116609000Y-62593816D01*
X116609000Y-62426184D01*
X116641703Y-62261772D01*
X116705853Y-62106900D01*
X116798985Y-61967519D01*
X116917519Y-61848985D01*
X117056900Y-61755853D01*
X117211772Y-61691703D01*
X117376184Y-61659000D01*
X117543816Y-61659000D01*
X117708228Y-61691703D01*
X117708228Y-61691703D01*
G37*
G36*
X115168228Y-61691703D02*
X115323100Y-61755853D01*
X115462481Y-61848985D01*
X115581015Y-61967519D01*
X115674147Y-62106900D01*
X115738297Y-62261772D01*
X115771000Y-62426184D01*
X115771000Y-62593816D01*
X115738297Y-62758228D01*
X115674147Y-62913100D01*
X115581015Y-63052481D01*
X115462481Y-63171015D01*
X115323100Y-63264147D01*
X115168228Y-63328297D01*
X115003816Y-63361000D01*
X114836184Y-63361000D01*
X114671772Y-63328297D01*
X114516900Y-63264147D01*
X114377519Y-63171015D01*
X114258985Y-63052481D01*
X114165853Y-62913100D01*
X114101703Y-62758228D01*
X114069000Y-62593816D01*
X114069000Y-62426184D01*
X114101703Y-62261772D01*
X114165853Y-62106900D01*
X114258985Y-61967519D01*
X114377519Y-61848985D01*
X114516900Y-61755853D01*
X114671772Y-61691703D01*
X114836184Y-61659000D01*
X115003816Y-61659000D01*
X115168228Y-61691703D01*
X115168228Y-61691703D01*
G37*
G36*
X112628228Y-61691703D02*
X112783100Y-61755853D01*
X112922481Y-61848985D01*
X113041015Y-61967519D01*
X113134147Y-62106900D01*
X113198297Y-62261772D01*
X113231000Y-62426184D01*
X113231000Y-62593816D01*
X113198297Y-62758228D01*
X113134147Y-62913100D01*
X113041015Y-63052481D01*
X112922481Y-63171015D01*
X112783100Y-63264147D01*
X112628228Y-63328297D01*
X112463816Y-63361000D01*
X112296184Y-63361000D01*
X112131772Y-63328297D01*
X111976900Y-63264147D01*
X111837519Y-63171015D01*
X111718985Y-63052481D01*
X111625853Y-62913100D01*
X111561703Y-62758228D01*
X111529000Y-62593816D01*
X111529000Y-62426184D01*
X111561703Y-62261772D01*
X111625853Y-62106900D01*
X111718985Y-61967519D01*
X111837519Y-61848985D01*
X111976900Y-61755853D01*
X112131772Y-61691703D01*
X112296184Y-61659000D01*
X112463816Y-61659000D01*
X112628228Y-61691703D01*
X112628228Y-61691703D01*
G37*
G36*
X76695443Y-60970519D02*
X76761628Y-60977038D01*
X76874854Y-61011385D01*
X76931468Y-61028558D01*
X77070088Y-61102653D01*
X77087992Y-61112223D01*
X77123730Y-61141553D01*
X77225187Y-61224815D01*
X77308449Y-61326272D01*
X77337779Y-61362010D01*
X77337780Y-61362012D01*
X77421444Y-61518534D01*
X77421444Y-61518535D01*
X77472964Y-61688374D01*
X77490360Y-61865001D01*
X77472964Y-62041628D01*
X77453164Y-62106900D01*
X77421444Y-62211468D01*
X77347349Y-62350088D01*
X77337779Y-62367992D01*
X77308449Y-62403730D01*
X77225187Y-62505187D01*
X77123730Y-62588449D01*
X77087992Y-62617779D01*
X77087990Y-62617780D01*
X76931468Y-62701444D01*
X76874854Y-62718617D01*
X76761628Y-62752964D01*
X76695443Y-62759483D01*
X76629261Y-62766001D01*
X76540741Y-62766001D01*
X76474559Y-62759483D01*
X76408374Y-62752964D01*
X76295148Y-62718617D01*
X76238534Y-62701444D01*
X76082012Y-62617780D01*
X76082010Y-62617779D01*
X76046272Y-62588449D01*
X75944815Y-62505187D01*
X75861553Y-62403730D01*
X75832223Y-62367992D01*
X75822653Y-62350088D01*
X75748558Y-62211468D01*
X75716838Y-62106900D01*
X75697038Y-62041628D01*
X75679642Y-61865001D01*
X75697038Y-61688374D01*
X75748558Y-61518535D01*
X75748558Y-61518534D01*
X75832222Y-61362012D01*
X75832223Y-61362010D01*
X75861553Y-61326272D01*
X75944815Y-61224815D01*
X76046272Y-61141553D01*
X76082010Y-61112223D01*
X76099914Y-61102653D01*
X76238534Y-61028558D01*
X76295148Y-61011385D01*
X76408374Y-60977038D01*
X76474559Y-60970519D01*
X76540741Y-60964001D01*
X76629261Y-60964001D01*
X76695443Y-60970519D01*
X76695443Y-60970519D01*
G37*
G36*
X69495443Y-60970519D02*
X69561628Y-60977038D01*
X69674854Y-61011385D01*
X69731468Y-61028558D01*
X69870088Y-61102653D01*
X69887992Y-61112223D01*
X69923730Y-61141553D01*
X70025187Y-61224815D01*
X70108449Y-61326272D01*
X70137779Y-61362010D01*
X70137780Y-61362012D01*
X70221444Y-61518534D01*
X70221444Y-61518535D01*
X70272964Y-61688374D01*
X70290360Y-61865001D01*
X70272964Y-62041628D01*
X70253164Y-62106900D01*
X70221444Y-62211468D01*
X70147349Y-62350088D01*
X70137779Y-62367992D01*
X70108449Y-62403730D01*
X70025187Y-62505187D01*
X69923730Y-62588449D01*
X69887992Y-62617779D01*
X69887990Y-62617780D01*
X69731468Y-62701444D01*
X69674854Y-62718617D01*
X69561628Y-62752964D01*
X69495443Y-62759483D01*
X69429261Y-62766001D01*
X69340741Y-62766001D01*
X69274559Y-62759483D01*
X69208374Y-62752964D01*
X69095148Y-62718617D01*
X69038534Y-62701444D01*
X68882012Y-62617780D01*
X68882010Y-62617779D01*
X68846272Y-62588449D01*
X68744815Y-62505187D01*
X68661553Y-62403730D01*
X68632223Y-62367992D01*
X68622653Y-62350088D01*
X68548558Y-62211468D01*
X68516838Y-62106900D01*
X68497038Y-62041628D01*
X68479642Y-61865001D01*
X68497038Y-61688374D01*
X68548558Y-61518535D01*
X68548558Y-61518534D01*
X68632222Y-61362012D01*
X68632223Y-61362010D01*
X68661553Y-61326272D01*
X68744815Y-61224815D01*
X68846272Y-61141553D01*
X68882010Y-61112223D01*
X68899914Y-61102653D01*
X69038534Y-61028558D01*
X69095148Y-61011385D01*
X69208374Y-60977038D01*
X69274559Y-60970519D01*
X69340741Y-60964001D01*
X69429261Y-60964001D01*
X69495443Y-60970519D01*
X69495443Y-60970519D01*
G37*
G36*
X73095443Y-60970519D02*
X73161628Y-60977038D01*
X73274854Y-61011385D01*
X73331468Y-61028558D01*
X73470088Y-61102653D01*
X73487992Y-61112223D01*
X73523730Y-61141553D01*
X73625187Y-61224815D01*
X73708449Y-61326272D01*
X73737779Y-61362010D01*
X73737780Y-61362012D01*
X73821444Y-61518534D01*
X73821444Y-61518535D01*
X73872964Y-61688374D01*
X73890360Y-61865001D01*
X73872964Y-62041628D01*
X73853164Y-62106900D01*
X73821444Y-62211468D01*
X73747349Y-62350088D01*
X73737779Y-62367992D01*
X73708449Y-62403730D01*
X73625187Y-62505187D01*
X73523730Y-62588449D01*
X73487992Y-62617779D01*
X73487990Y-62617780D01*
X73331468Y-62701444D01*
X73274854Y-62718617D01*
X73161628Y-62752964D01*
X73095443Y-62759483D01*
X73029261Y-62766001D01*
X72940741Y-62766001D01*
X72874559Y-62759483D01*
X72808374Y-62752964D01*
X72695148Y-62718617D01*
X72638534Y-62701444D01*
X72482012Y-62617780D01*
X72482010Y-62617779D01*
X72446272Y-62588449D01*
X72344815Y-62505187D01*
X72261553Y-62403730D01*
X72232223Y-62367992D01*
X72222653Y-62350088D01*
X72148558Y-62211468D01*
X72116838Y-62106900D01*
X72097038Y-62041628D01*
X72079642Y-61865001D01*
X72097038Y-61688374D01*
X72148558Y-61518535D01*
X72148558Y-61518534D01*
X72232222Y-61362012D01*
X72232223Y-61362010D01*
X72261553Y-61326272D01*
X72344815Y-61224815D01*
X72446272Y-61141553D01*
X72482010Y-61112223D01*
X72499914Y-61102653D01*
X72638534Y-61028558D01*
X72695148Y-61011385D01*
X72808374Y-60977038D01*
X72874559Y-60970519D01*
X72940741Y-60964001D01*
X73029261Y-60964001D01*
X73095443Y-60970519D01*
X73095443Y-60970519D01*
G37*
G36*
X112628228Y-59151703D02*
X112783100Y-59215853D01*
X112922481Y-59308985D01*
X113041015Y-59427519D01*
X113134147Y-59566900D01*
X113198297Y-59721772D01*
X113231000Y-59886184D01*
X113231000Y-60053816D01*
X113198297Y-60218228D01*
X113134147Y-60373100D01*
X113041015Y-60512481D01*
X112922481Y-60631015D01*
X112783100Y-60724147D01*
X112628228Y-60788297D01*
X112463816Y-60821000D01*
X112296184Y-60821000D01*
X112131772Y-60788297D01*
X111976900Y-60724147D01*
X111837519Y-60631015D01*
X111718985Y-60512481D01*
X111625853Y-60373100D01*
X111561703Y-60218228D01*
X111529000Y-60053816D01*
X111529000Y-59886184D01*
X111561703Y-59721772D01*
X111625853Y-59566900D01*
X111718985Y-59427519D01*
X111837519Y-59308985D01*
X111976900Y-59215853D01*
X112131772Y-59151703D01*
X112296184Y-59119000D01*
X112463816Y-59119000D01*
X112628228Y-59151703D01*
X112628228Y-59151703D01*
G37*
G36*
X127868228Y-59151703D02*
X128023100Y-59215853D01*
X128162481Y-59308985D01*
X128281015Y-59427519D01*
X128374147Y-59566900D01*
X128438297Y-59721772D01*
X128471000Y-59886184D01*
X128471000Y-60053816D01*
X128438297Y-60218228D01*
X128374147Y-60373100D01*
X128281015Y-60512481D01*
X128162481Y-60631015D01*
X128023100Y-60724147D01*
X127868228Y-60788297D01*
X127703816Y-60821000D01*
X127536184Y-60821000D01*
X127371772Y-60788297D01*
X127216900Y-60724147D01*
X127077519Y-60631015D01*
X126958985Y-60512481D01*
X126865853Y-60373100D01*
X126801703Y-60218228D01*
X126769000Y-60053816D01*
X126769000Y-59886184D01*
X126801703Y-59721772D01*
X126865853Y-59566900D01*
X126958985Y-59427519D01*
X127077519Y-59308985D01*
X127216900Y-59215853D01*
X127371772Y-59151703D01*
X127536184Y-59119000D01*
X127703816Y-59119000D01*
X127868228Y-59151703D01*
X127868228Y-59151703D01*
G37*
G36*
X120248228Y-59151703D02*
X120403100Y-59215853D01*
X120542481Y-59308985D01*
X120661015Y-59427519D01*
X120754147Y-59566900D01*
X120818297Y-59721772D01*
X120851000Y-59886184D01*
X120851000Y-60053816D01*
X120818297Y-60218228D01*
X120754147Y-60373100D01*
X120661015Y-60512481D01*
X120542481Y-60631015D01*
X120403100Y-60724147D01*
X120248228Y-60788297D01*
X120083816Y-60821000D01*
X119916184Y-60821000D01*
X119751772Y-60788297D01*
X119596900Y-60724147D01*
X119457519Y-60631015D01*
X119338985Y-60512481D01*
X119245853Y-60373100D01*
X119181703Y-60218228D01*
X119149000Y-60053816D01*
X119149000Y-59886184D01*
X119181703Y-59721772D01*
X119245853Y-59566900D01*
X119338985Y-59427519D01*
X119457519Y-59308985D01*
X119596900Y-59215853D01*
X119751772Y-59151703D01*
X119916184Y-59119000D01*
X120083816Y-59119000D01*
X120248228Y-59151703D01*
X120248228Y-59151703D01*
G37*
G36*
X122788228Y-59151703D02*
X122943100Y-59215853D01*
X123082481Y-59308985D01*
X123201015Y-59427519D01*
X123294147Y-59566900D01*
X123358297Y-59721772D01*
X123391000Y-59886184D01*
X123391000Y-60053816D01*
X123358297Y-60218228D01*
X123294147Y-60373100D01*
X123201015Y-60512481D01*
X123082481Y-60631015D01*
X122943100Y-60724147D01*
X122788228Y-60788297D01*
X122623816Y-60821000D01*
X122456184Y-60821000D01*
X122291772Y-60788297D01*
X122136900Y-60724147D01*
X121997519Y-60631015D01*
X121878985Y-60512481D01*
X121785853Y-60373100D01*
X121721703Y-60218228D01*
X121689000Y-60053816D01*
X121689000Y-59886184D01*
X121721703Y-59721772D01*
X121785853Y-59566900D01*
X121878985Y-59427519D01*
X121997519Y-59308985D01*
X122136900Y-59215853D01*
X122291772Y-59151703D01*
X122456184Y-59119000D01*
X122623816Y-59119000D01*
X122788228Y-59151703D01*
X122788228Y-59151703D01*
G37*
G36*
X76695443Y-58430519D02*
X76761628Y-58437038D01*
X76874854Y-58471385D01*
X76931468Y-58488558D01*
X77070088Y-58562653D01*
X77087992Y-58572223D01*
X77123730Y-58601553D01*
X77225187Y-58684815D01*
X77308449Y-58786272D01*
X77337779Y-58822010D01*
X77337780Y-58822012D01*
X77421444Y-58978534D01*
X77421444Y-58978535D01*
X77472964Y-59148374D01*
X77490360Y-59325001D01*
X77472964Y-59501628D01*
X77453164Y-59566900D01*
X77421444Y-59671468D01*
X77347349Y-59810088D01*
X77337779Y-59827992D01*
X77308449Y-59863730D01*
X77225187Y-59965187D01*
X77123730Y-60048449D01*
X77087992Y-60077779D01*
X77087990Y-60077780D01*
X76931468Y-60161444D01*
X76874854Y-60178617D01*
X76761628Y-60212964D01*
X76695443Y-60219483D01*
X76629261Y-60226001D01*
X76540741Y-60226001D01*
X76474559Y-60219483D01*
X76408374Y-60212964D01*
X76295148Y-60178617D01*
X76238534Y-60161444D01*
X76082012Y-60077780D01*
X76082010Y-60077779D01*
X76046272Y-60048449D01*
X75944815Y-59965187D01*
X75861553Y-59863730D01*
X75832223Y-59827992D01*
X75822653Y-59810088D01*
X75748558Y-59671468D01*
X75716838Y-59566900D01*
X75697038Y-59501628D01*
X75679642Y-59325001D01*
X75697038Y-59148374D01*
X75748558Y-58978535D01*
X75748558Y-58978534D01*
X75832222Y-58822012D01*
X75832223Y-58822010D01*
X75861553Y-58786272D01*
X75944815Y-58684815D01*
X76046272Y-58601553D01*
X76082010Y-58572223D01*
X76099914Y-58562653D01*
X76238534Y-58488558D01*
X76295148Y-58471385D01*
X76408374Y-58437038D01*
X76474559Y-58430519D01*
X76540741Y-58424001D01*
X76629261Y-58424001D01*
X76695443Y-58430519D01*
X76695443Y-58430519D01*
G37*
G36*
X73095443Y-58430519D02*
X73161628Y-58437038D01*
X73274854Y-58471385D01*
X73331468Y-58488558D01*
X73470088Y-58562653D01*
X73487992Y-58572223D01*
X73523730Y-58601553D01*
X73625187Y-58684815D01*
X73708449Y-58786272D01*
X73737779Y-58822010D01*
X73737780Y-58822012D01*
X73821444Y-58978534D01*
X73821444Y-58978535D01*
X73872964Y-59148374D01*
X73890360Y-59325001D01*
X73872964Y-59501628D01*
X73853164Y-59566900D01*
X73821444Y-59671468D01*
X73747349Y-59810088D01*
X73737779Y-59827992D01*
X73708449Y-59863730D01*
X73625187Y-59965187D01*
X73523730Y-60048449D01*
X73487992Y-60077779D01*
X73487990Y-60077780D01*
X73331468Y-60161444D01*
X73274854Y-60178617D01*
X73161628Y-60212964D01*
X73095443Y-60219483D01*
X73029261Y-60226001D01*
X72940741Y-60226001D01*
X72874559Y-60219483D01*
X72808374Y-60212964D01*
X72695148Y-60178617D01*
X72638534Y-60161444D01*
X72482012Y-60077780D01*
X72482010Y-60077779D01*
X72446272Y-60048449D01*
X72344815Y-59965187D01*
X72261553Y-59863730D01*
X72232223Y-59827992D01*
X72222653Y-59810088D01*
X72148558Y-59671468D01*
X72116838Y-59566900D01*
X72097038Y-59501628D01*
X72079642Y-59325001D01*
X72097038Y-59148374D01*
X72148558Y-58978535D01*
X72148558Y-58978534D01*
X72232222Y-58822012D01*
X72232223Y-58822010D01*
X72261553Y-58786272D01*
X72344815Y-58684815D01*
X72446272Y-58601553D01*
X72482010Y-58572223D01*
X72499914Y-58562653D01*
X72638534Y-58488558D01*
X72695148Y-58471385D01*
X72808374Y-58437038D01*
X72874559Y-58430519D01*
X72940741Y-58424001D01*
X73029261Y-58424001D01*
X73095443Y-58430519D01*
X73095443Y-58430519D01*
G37*
G36*
X69495443Y-58430519D02*
X69561628Y-58437038D01*
X69674854Y-58471385D01*
X69731468Y-58488558D01*
X69870088Y-58562653D01*
X69887992Y-58572223D01*
X69923730Y-58601553D01*
X70025187Y-58684815D01*
X70108449Y-58786272D01*
X70137779Y-58822010D01*
X70137780Y-58822012D01*
X70221444Y-58978534D01*
X70221444Y-58978535D01*
X70272964Y-59148374D01*
X70290360Y-59325001D01*
X70272964Y-59501628D01*
X70253164Y-59566900D01*
X70221444Y-59671468D01*
X70147349Y-59810088D01*
X70137779Y-59827992D01*
X70108449Y-59863730D01*
X70025187Y-59965187D01*
X69923730Y-60048449D01*
X69887992Y-60077779D01*
X69887990Y-60077780D01*
X69731468Y-60161444D01*
X69674854Y-60178617D01*
X69561628Y-60212964D01*
X69495443Y-60219483D01*
X69429261Y-60226001D01*
X69340741Y-60226001D01*
X69274559Y-60219483D01*
X69208374Y-60212964D01*
X69095148Y-60178617D01*
X69038534Y-60161444D01*
X68882012Y-60077780D01*
X68882010Y-60077779D01*
X68846272Y-60048449D01*
X68744815Y-59965187D01*
X68661553Y-59863730D01*
X68632223Y-59827992D01*
X68622653Y-59810088D01*
X68548558Y-59671468D01*
X68516838Y-59566900D01*
X68497038Y-59501628D01*
X68479642Y-59325001D01*
X68497038Y-59148374D01*
X68548558Y-58978535D01*
X68548558Y-58978534D01*
X68632222Y-58822012D01*
X68632223Y-58822010D01*
X68661553Y-58786272D01*
X68744815Y-58684815D01*
X68846272Y-58601553D01*
X68882010Y-58572223D01*
X68899914Y-58562653D01*
X69038534Y-58488558D01*
X69095148Y-58471385D01*
X69208374Y-58437038D01*
X69274559Y-58430519D01*
X69340741Y-58424001D01*
X69429261Y-58424001D01*
X69495443Y-58430519D01*
X69495443Y-58430519D01*
G37*
G36*
X122788228Y-56611703D02*
X122943100Y-56675853D01*
X123082481Y-56768985D01*
X123201015Y-56887519D01*
X123294147Y-57026900D01*
X123358297Y-57181772D01*
X123391000Y-57346184D01*
X123391000Y-57513816D01*
X123358297Y-57678228D01*
X123294147Y-57833100D01*
X123201015Y-57972481D01*
X123082481Y-58091015D01*
X122943100Y-58184147D01*
X122788228Y-58248297D01*
X122623816Y-58281000D01*
X122456184Y-58281000D01*
X122291772Y-58248297D01*
X122136900Y-58184147D01*
X121997519Y-58091015D01*
X121878985Y-57972481D01*
X121785853Y-57833100D01*
X121721703Y-57678228D01*
X121689000Y-57513816D01*
X121689000Y-57346184D01*
X121721703Y-57181772D01*
X121785853Y-57026900D01*
X121878985Y-56887519D01*
X121997519Y-56768985D01*
X122136900Y-56675853D01*
X122291772Y-56611703D01*
X122456184Y-56579000D01*
X122623816Y-56579000D01*
X122788228Y-56611703D01*
X122788228Y-56611703D01*
G37*
G36*
X120248228Y-56611703D02*
X120403100Y-56675853D01*
X120542481Y-56768985D01*
X120661015Y-56887519D01*
X120754147Y-57026900D01*
X120818297Y-57181772D01*
X120851000Y-57346184D01*
X120851000Y-57513816D01*
X120818297Y-57678228D01*
X120754147Y-57833100D01*
X120661015Y-57972481D01*
X120542481Y-58091015D01*
X120403100Y-58184147D01*
X120248228Y-58248297D01*
X120083816Y-58281000D01*
X119916184Y-58281000D01*
X119751772Y-58248297D01*
X119596900Y-58184147D01*
X119457519Y-58091015D01*
X119338985Y-57972481D01*
X119245853Y-57833100D01*
X119181703Y-57678228D01*
X119149000Y-57513816D01*
X119149000Y-57346184D01*
X119181703Y-57181772D01*
X119245853Y-57026900D01*
X119338985Y-56887519D01*
X119457519Y-56768985D01*
X119596900Y-56675853D01*
X119751772Y-56611703D01*
X119916184Y-56579000D01*
X120083816Y-56579000D01*
X120248228Y-56611703D01*
X120248228Y-56611703D01*
G37*
G36*
X127868228Y-56611703D02*
X128023100Y-56675853D01*
X128162481Y-56768985D01*
X128281015Y-56887519D01*
X128374147Y-57026900D01*
X128438297Y-57181772D01*
X128471000Y-57346184D01*
X128471000Y-57513816D01*
X128438297Y-57678228D01*
X128374147Y-57833100D01*
X128281015Y-57972481D01*
X128162481Y-58091015D01*
X128023100Y-58184147D01*
X127868228Y-58248297D01*
X127703816Y-58281000D01*
X127536184Y-58281000D01*
X127371772Y-58248297D01*
X127216900Y-58184147D01*
X127077519Y-58091015D01*
X126958985Y-57972481D01*
X126865853Y-57833100D01*
X126801703Y-57678228D01*
X126769000Y-57513816D01*
X126769000Y-57346184D01*
X126801703Y-57181772D01*
X126865853Y-57026900D01*
X126958985Y-56887519D01*
X127077519Y-56768985D01*
X127216900Y-56675853D01*
X127371772Y-56611703D01*
X127536184Y-56579000D01*
X127703816Y-56579000D01*
X127868228Y-56611703D01*
X127868228Y-56611703D01*
G37*
G36*
X112628228Y-56611703D02*
X112783100Y-56675853D01*
X112922481Y-56768985D01*
X113041015Y-56887519D01*
X113134147Y-57026900D01*
X113198297Y-57181772D01*
X113231000Y-57346184D01*
X113231000Y-57513816D01*
X113198297Y-57678228D01*
X113134147Y-57833100D01*
X113041015Y-57972481D01*
X112922481Y-58091015D01*
X112783100Y-58184147D01*
X112628228Y-58248297D01*
X112463816Y-58281000D01*
X112296184Y-58281000D01*
X112131772Y-58248297D01*
X111976900Y-58184147D01*
X111837519Y-58091015D01*
X111718985Y-57972481D01*
X111625853Y-57833100D01*
X111561703Y-57678228D01*
X111529000Y-57513816D01*
X111529000Y-57346184D01*
X111561703Y-57181772D01*
X111625853Y-57026900D01*
X111718985Y-56887519D01*
X111837519Y-56768985D01*
X111976900Y-56675853D01*
X112131772Y-56611703D01*
X112296184Y-56579000D01*
X112463816Y-56579000D01*
X112628228Y-56611703D01*
X112628228Y-56611703D01*
G37*
G36*
X73095443Y-55890519D02*
X73161628Y-55897038D01*
X73274854Y-55931385D01*
X73331468Y-55948558D01*
X73470088Y-56022653D01*
X73487992Y-56032223D01*
X73523730Y-56061553D01*
X73625187Y-56144815D01*
X73708449Y-56246272D01*
X73737779Y-56282010D01*
X73737780Y-56282012D01*
X73821444Y-56438534D01*
X73821444Y-56438535D01*
X73872964Y-56608374D01*
X73890360Y-56785001D01*
X73872964Y-56961628D01*
X73853164Y-57026900D01*
X73821444Y-57131468D01*
X73747349Y-57270088D01*
X73737779Y-57287992D01*
X73708449Y-57323730D01*
X73625187Y-57425187D01*
X73523730Y-57508449D01*
X73487992Y-57537779D01*
X73487990Y-57537780D01*
X73331468Y-57621444D01*
X73274854Y-57638617D01*
X73161628Y-57672964D01*
X73095444Y-57679482D01*
X73029261Y-57686001D01*
X72940741Y-57686001D01*
X72874558Y-57679482D01*
X72808374Y-57672964D01*
X72695148Y-57638617D01*
X72638534Y-57621444D01*
X72482012Y-57537780D01*
X72482010Y-57537779D01*
X72446272Y-57508449D01*
X72344815Y-57425187D01*
X72261553Y-57323730D01*
X72232223Y-57287992D01*
X72222653Y-57270088D01*
X72148558Y-57131468D01*
X72116838Y-57026900D01*
X72097038Y-56961628D01*
X72079642Y-56785001D01*
X72097038Y-56608374D01*
X72148558Y-56438535D01*
X72148558Y-56438534D01*
X72232222Y-56282012D01*
X72232223Y-56282010D01*
X72261553Y-56246272D01*
X72344815Y-56144815D01*
X72446272Y-56061553D01*
X72482010Y-56032223D01*
X72499914Y-56022653D01*
X72638534Y-55948558D01*
X72695148Y-55931385D01*
X72808374Y-55897038D01*
X72874559Y-55890519D01*
X72940741Y-55884001D01*
X73029261Y-55884001D01*
X73095443Y-55890519D01*
X73095443Y-55890519D01*
G37*
G36*
X69495443Y-55890519D02*
X69561628Y-55897038D01*
X69674854Y-55931385D01*
X69731468Y-55948558D01*
X69870088Y-56022653D01*
X69887992Y-56032223D01*
X69923730Y-56061553D01*
X70025187Y-56144815D01*
X70108449Y-56246272D01*
X70137779Y-56282010D01*
X70137780Y-56282012D01*
X70221444Y-56438534D01*
X70221444Y-56438535D01*
X70272964Y-56608374D01*
X70290360Y-56785001D01*
X70272964Y-56961628D01*
X70253164Y-57026900D01*
X70221444Y-57131468D01*
X70147349Y-57270088D01*
X70137779Y-57287992D01*
X70108449Y-57323730D01*
X70025187Y-57425187D01*
X69923730Y-57508449D01*
X69887992Y-57537779D01*
X69887990Y-57537780D01*
X69731468Y-57621444D01*
X69674854Y-57638617D01*
X69561628Y-57672964D01*
X69495444Y-57679482D01*
X69429261Y-57686001D01*
X69340741Y-57686001D01*
X69274558Y-57679482D01*
X69208374Y-57672964D01*
X69095148Y-57638617D01*
X69038534Y-57621444D01*
X68882012Y-57537780D01*
X68882010Y-57537779D01*
X68846272Y-57508449D01*
X68744815Y-57425187D01*
X68661553Y-57323730D01*
X68632223Y-57287992D01*
X68622653Y-57270088D01*
X68548558Y-57131468D01*
X68516838Y-57026900D01*
X68497038Y-56961628D01*
X68479642Y-56785001D01*
X68497038Y-56608374D01*
X68548558Y-56438535D01*
X68548558Y-56438534D01*
X68632222Y-56282012D01*
X68632223Y-56282010D01*
X68661553Y-56246272D01*
X68744815Y-56144815D01*
X68846272Y-56061553D01*
X68882010Y-56032223D01*
X68899914Y-56022653D01*
X69038534Y-55948558D01*
X69095148Y-55931385D01*
X69208374Y-55897038D01*
X69274559Y-55890519D01*
X69340741Y-55884001D01*
X69429261Y-55884001D01*
X69495443Y-55890519D01*
X69495443Y-55890519D01*
G37*
G36*
X76695443Y-55890519D02*
X76761628Y-55897038D01*
X76874854Y-55931385D01*
X76931468Y-55948558D01*
X77070088Y-56022653D01*
X77087992Y-56032223D01*
X77123730Y-56061553D01*
X77225187Y-56144815D01*
X77308449Y-56246272D01*
X77337779Y-56282010D01*
X77337780Y-56282012D01*
X77421444Y-56438534D01*
X77421444Y-56438535D01*
X77472964Y-56608374D01*
X77490360Y-56785001D01*
X77472964Y-56961628D01*
X77453164Y-57026900D01*
X77421444Y-57131468D01*
X77347349Y-57270088D01*
X77337779Y-57287992D01*
X77308449Y-57323730D01*
X77225187Y-57425187D01*
X77123730Y-57508449D01*
X77087992Y-57537779D01*
X77087990Y-57537780D01*
X76931468Y-57621444D01*
X76874854Y-57638617D01*
X76761628Y-57672964D01*
X76695444Y-57679482D01*
X76629261Y-57686001D01*
X76540741Y-57686001D01*
X76474558Y-57679482D01*
X76408374Y-57672964D01*
X76295148Y-57638617D01*
X76238534Y-57621444D01*
X76082012Y-57537780D01*
X76082010Y-57537779D01*
X76046272Y-57508449D01*
X75944815Y-57425187D01*
X75861553Y-57323730D01*
X75832223Y-57287992D01*
X75822653Y-57270088D01*
X75748558Y-57131468D01*
X75716838Y-57026900D01*
X75697038Y-56961628D01*
X75679642Y-56785001D01*
X75697038Y-56608374D01*
X75748558Y-56438535D01*
X75748558Y-56438534D01*
X75832222Y-56282012D01*
X75832223Y-56282010D01*
X75861553Y-56246272D01*
X75944815Y-56144815D01*
X76046272Y-56061553D01*
X76082010Y-56032223D01*
X76099914Y-56022653D01*
X76238534Y-55948558D01*
X76295148Y-55931385D01*
X76408374Y-55897038D01*
X76474559Y-55890519D01*
X76540741Y-55884001D01*
X76629261Y-55884001D01*
X76695443Y-55890519D01*
X76695443Y-55890519D01*
G37*
G36*
X127868228Y-54071703D02*
X128023100Y-54135853D01*
X128162481Y-54228985D01*
X128281015Y-54347519D01*
X128374147Y-54486900D01*
X128438297Y-54641772D01*
X128471000Y-54806184D01*
X128471000Y-54973816D01*
X128438297Y-55138228D01*
X128374147Y-55293100D01*
X128281015Y-55432481D01*
X128162481Y-55551015D01*
X128023100Y-55644147D01*
X127868228Y-55708297D01*
X127703816Y-55741000D01*
X127536184Y-55741000D01*
X127371772Y-55708297D01*
X127216900Y-55644147D01*
X127077519Y-55551015D01*
X126958985Y-55432481D01*
X126865853Y-55293100D01*
X126801703Y-55138228D01*
X126769000Y-54973816D01*
X126769000Y-54806184D01*
X126801703Y-54641772D01*
X126865853Y-54486900D01*
X126958985Y-54347519D01*
X127077519Y-54228985D01*
X127216900Y-54135853D01*
X127371772Y-54071703D01*
X127536184Y-54039000D01*
X127703816Y-54039000D01*
X127868228Y-54071703D01*
X127868228Y-54071703D01*
G37*
G36*
X112628228Y-54071703D02*
X112783100Y-54135853D01*
X112922481Y-54228985D01*
X113041015Y-54347519D01*
X113134147Y-54486900D01*
X113198297Y-54641772D01*
X113231000Y-54806184D01*
X113231000Y-54973816D01*
X113198297Y-55138228D01*
X113134147Y-55293100D01*
X113041015Y-55432481D01*
X112922481Y-55551015D01*
X112783100Y-55644147D01*
X112628228Y-55708297D01*
X112463816Y-55741000D01*
X112296184Y-55741000D01*
X112131772Y-55708297D01*
X111976900Y-55644147D01*
X111837519Y-55551015D01*
X111718985Y-55432481D01*
X111625853Y-55293100D01*
X111561703Y-55138228D01*
X111529000Y-54973816D01*
X111529000Y-54806184D01*
X111561703Y-54641772D01*
X111625853Y-54486900D01*
X111718985Y-54347519D01*
X111837519Y-54228985D01*
X111976900Y-54135853D01*
X112131772Y-54071703D01*
X112296184Y-54039000D01*
X112463816Y-54039000D01*
X112628228Y-54071703D01*
X112628228Y-54071703D01*
G37*
G36*
X120248228Y-54071703D02*
X120403100Y-54135853D01*
X120542481Y-54228985D01*
X120661015Y-54347519D01*
X120754147Y-54486900D01*
X120818297Y-54641772D01*
X120851000Y-54806184D01*
X120851000Y-54973816D01*
X120818297Y-55138228D01*
X120754147Y-55293100D01*
X120661015Y-55432481D01*
X120542481Y-55551015D01*
X120403100Y-55644147D01*
X120248228Y-55708297D01*
X120083816Y-55741000D01*
X119916184Y-55741000D01*
X119751772Y-55708297D01*
X119596900Y-55644147D01*
X119457519Y-55551015D01*
X119338985Y-55432481D01*
X119245853Y-55293100D01*
X119181703Y-55138228D01*
X119149000Y-54973816D01*
X119149000Y-54806184D01*
X119181703Y-54641772D01*
X119245853Y-54486900D01*
X119338985Y-54347519D01*
X119457519Y-54228985D01*
X119596900Y-54135853D01*
X119751772Y-54071703D01*
X119916184Y-54039000D01*
X120083816Y-54039000D01*
X120248228Y-54071703D01*
X120248228Y-54071703D01*
G37*
G36*
X122788228Y-54071703D02*
X122943100Y-54135853D01*
X123082481Y-54228985D01*
X123201015Y-54347519D01*
X123294147Y-54486900D01*
X123358297Y-54641772D01*
X123391000Y-54806184D01*
X123391000Y-54973816D01*
X123358297Y-55138228D01*
X123294147Y-55293100D01*
X123201015Y-55432481D01*
X123082481Y-55551015D01*
X122943100Y-55644147D01*
X122788228Y-55708297D01*
X122623816Y-55741000D01*
X122456184Y-55741000D01*
X122291772Y-55708297D01*
X122136900Y-55644147D01*
X121997519Y-55551015D01*
X121878985Y-55432481D01*
X121785853Y-55293100D01*
X121721703Y-55138228D01*
X121689000Y-54973816D01*
X121689000Y-54806184D01*
X121721703Y-54641772D01*
X121785853Y-54486900D01*
X121878985Y-54347519D01*
X121997519Y-54228985D01*
X122136900Y-54135853D01*
X122291772Y-54071703D01*
X122456184Y-54039000D01*
X122623816Y-54039000D01*
X122788228Y-54071703D01*
X122788228Y-54071703D01*
G37*
G36*
X73095444Y-53350520D02*
X73161628Y-53357038D01*
X73274854Y-53391385D01*
X73331468Y-53408558D01*
X73470088Y-53482653D01*
X73487992Y-53492223D01*
X73523730Y-53521553D01*
X73625187Y-53604815D01*
X73708449Y-53706272D01*
X73737779Y-53742010D01*
X73737780Y-53742012D01*
X73821444Y-53898534D01*
X73821444Y-53898535D01*
X73872964Y-54068374D01*
X73890360Y-54245001D01*
X73872964Y-54421628D01*
X73853164Y-54486900D01*
X73821444Y-54591468D01*
X73747349Y-54730088D01*
X73737779Y-54747992D01*
X73708449Y-54783730D01*
X73625187Y-54885187D01*
X73523730Y-54968449D01*
X73487992Y-54997779D01*
X73487990Y-54997780D01*
X73331468Y-55081444D01*
X73274854Y-55098617D01*
X73161628Y-55132964D01*
X73095443Y-55139483D01*
X73029261Y-55146001D01*
X72940741Y-55146001D01*
X72874559Y-55139483D01*
X72808374Y-55132964D01*
X72695148Y-55098617D01*
X72638534Y-55081444D01*
X72482012Y-54997780D01*
X72482010Y-54997779D01*
X72446272Y-54968449D01*
X72344815Y-54885187D01*
X72261553Y-54783730D01*
X72232223Y-54747992D01*
X72222653Y-54730088D01*
X72148558Y-54591468D01*
X72116838Y-54486900D01*
X72097038Y-54421628D01*
X72079642Y-54245001D01*
X72097038Y-54068374D01*
X72148558Y-53898535D01*
X72148558Y-53898534D01*
X72232222Y-53742012D01*
X72232223Y-53742010D01*
X72261553Y-53706272D01*
X72344815Y-53604815D01*
X72446272Y-53521553D01*
X72482010Y-53492223D01*
X72499914Y-53482653D01*
X72638534Y-53408558D01*
X72695148Y-53391385D01*
X72808374Y-53357038D01*
X72874558Y-53350520D01*
X72940741Y-53344001D01*
X73029261Y-53344001D01*
X73095444Y-53350520D01*
X73095444Y-53350520D01*
G37*
G36*
X76695444Y-53350520D02*
X76761628Y-53357038D01*
X76874854Y-53391385D01*
X76931468Y-53408558D01*
X77070088Y-53482653D01*
X77087992Y-53492223D01*
X77123730Y-53521553D01*
X77225187Y-53604815D01*
X77308449Y-53706272D01*
X77337779Y-53742010D01*
X77337780Y-53742012D01*
X77421444Y-53898534D01*
X77421444Y-53898535D01*
X77472964Y-54068374D01*
X77490360Y-54245001D01*
X77472964Y-54421628D01*
X77453164Y-54486900D01*
X77421444Y-54591468D01*
X77347349Y-54730088D01*
X77337779Y-54747992D01*
X77308449Y-54783730D01*
X77225187Y-54885187D01*
X77123730Y-54968449D01*
X77087992Y-54997779D01*
X77087990Y-54997780D01*
X76931468Y-55081444D01*
X76874854Y-55098617D01*
X76761628Y-55132964D01*
X76695443Y-55139483D01*
X76629261Y-55146001D01*
X76540741Y-55146001D01*
X76474559Y-55139483D01*
X76408374Y-55132964D01*
X76295148Y-55098617D01*
X76238534Y-55081444D01*
X76082012Y-54997780D01*
X76082010Y-54997779D01*
X76046272Y-54968449D01*
X75944815Y-54885187D01*
X75861553Y-54783730D01*
X75832223Y-54747992D01*
X75822653Y-54730088D01*
X75748558Y-54591468D01*
X75716838Y-54486900D01*
X75697038Y-54421628D01*
X75679642Y-54245001D01*
X75697038Y-54068374D01*
X75748558Y-53898535D01*
X75748558Y-53898534D01*
X75832222Y-53742012D01*
X75832223Y-53742010D01*
X75861553Y-53706272D01*
X75944815Y-53604815D01*
X76046272Y-53521553D01*
X76082010Y-53492223D01*
X76099914Y-53482653D01*
X76238534Y-53408558D01*
X76295148Y-53391385D01*
X76408374Y-53357038D01*
X76474558Y-53350520D01*
X76540741Y-53344001D01*
X76629261Y-53344001D01*
X76695444Y-53350520D01*
X76695444Y-53350520D01*
G37*
G36*
X69495444Y-53350520D02*
X69561628Y-53357038D01*
X69674854Y-53391385D01*
X69731468Y-53408558D01*
X69870088Y-53482653D01*
X69887992Y-53492223D01*
X69923730Y-53521553D01*
X70025187Y-53604815D01*
X70108449Y-53706272D01*
X70137779Y-53742010D01*
X70137780Y-53742012D01*
X70221444Y-53898534D01*
X70221444Y-53898535D01*
X70272964Y-54068374D01*
X70290360Y-54245001D01*
X70272964Y-54421628D01*
X70253164Y-54486900D01*
X70221444Y-54591468D01*
X70147349Y-54730088D01*
X70137779Y-54747992D01*
X70108449Y-54783730D01*
X70025187Y-54885187D01*
X69923730Y-54968449D01*
X69887992Y-54997779D01*
X69887990Y-54997780D01*
X69731468Y-55081444D01*
X69674854Y-55098617D01*
X69561628Y-55132964D01*
X69495443Y-55139483D01*
X69429261Y-55146001D01*
X69340741Y-55146001D01*
X69274559Y-55139483D01*
X69208374Y-55132964D01*
X69095148Y-55098617D01*
X69038534Y-55081444D01*
X68882012Y-54997780D01*
X68882010Y-54997779D01*
X68846272Y-54968449D01*
X68744815Y-54885187D01*
X68661553Y-54783730D01*
X68632223Y-54747992D01*
X68622653Y-54730088D01*
X68548558Y-54591468D01*
X68516838Y-54486900D01*
X68497038Y-54421628D01*
X68479642Y-54245001D01*
X68497038Y-54068374D01*
X68548558Y-53898535D01*
X68548558Y-53898534D01*
X68632222Y-53742012D01*
X68632223Y-53742010D01*
X68661553Y-53706272D01*
X68744815Y-53604815D01*
X68846272Y-53521553D01*
X68882010Y-53492223D01*
X68899914Y-53482653D01*
X69038534Y-53408558D01*
X69095148Y-53391385D01*
X69208374Y-53357038D01*
X69274558Y-53350520D01*
X69340741Y-53344001D01*
X69429261Y-53344001D01*
X69495444Y-53350520D01*
X69495444Y-53350520D01*
G37*
G36*
X127868228Y-51531703D02*
X128023100Y-51595853D01*
X128162481Y-51688985D01*
X128281015Y-51807519D01*
X128374147Y-51946900D01*
X128438297Y-52101772D01*
X128471000Y-52266184D01*
X128471000Y-52433816D01*
X128438297Y-52598228D01*
X128374147Y-52753100D01*
X128281015Y-52892481D01*
X128162481Y-53011015D01*
X128023100Y-53104147D01*
X127868228Y-53168297D01*
X127703816Y-53201000D01*
X127536184Y-53201000D01*
X127371772Y-53168297D01*
X127216900Y-53104147D01*
X127077519Y-53011015D01*
X126958985Y-52892481D01*
X126865853Y-52753100D01*
X126801703Y-52598228D01*
X126769000Y-52433816D01*
X126769000Y-52266184D01*
X126801703Y-52101772D01*
X126865853Y-51946900D01*
X126958985Y-51807519D01*
X127077519Y-51688985D01*
X127216900Y-51595853D01*
X127371772Y-51531703D01*
X127536184Y-51499000D01*
X127703816Y-51499000D01*
X127868228Y-51531703D01*
X127868228Y-51531703D01*
G37*
G36*
X122788228Y-51531703D02*
X122943100Y-51595853D01*
X123082481Y-51688985D01*
X123201015Y-51807519D01*
X123294147Y-51946900D01*
X123358297Y-52101772D01*
X123391000Y-52266184D01*
X123391000Y-52433816D01*
X123358297Y-52598228D01*
X123294147Y-52753100D01*
X123201015Y-52892481D01*
X123082481Y-53011015D01*
X122943100Y-53104147D01*
X122788228Y-53168297D01*
X122623816Y-53201000D01*
X122456184Y-53201000D01*
X122291772Y-53168297D01*
X122136900Y-53104147D01*
X121997519Y-53011015D01*
X121878985Y-52892481D01*
X121785853Y-52753100D01*
X121721703Y-52598228D01*
X121689000Y-52433816D01*
X121689000Y-52266184D01*
X121721703Y-52101772D01*
X121785853Y-51946900D01*
X121878985Y-51807519D01*
X121997519Y-51688985D01*
X122136900Y-51595853D01*
X122291772Y-51531703D01*
X122456184Y-51499000D01*
X122623816Y-51499000D01*
X122788228Y-51531703D01*
X122788228Y-51531703D01*
G37*
G36*
X120248228Y-51531703D02*
X120403100Y-51595853D01*
X120542481Y-51688985D01*
X120661015Y-51807519D01*
X120754147Y-51946900D01*
X120818297Y-52101772D01*
X120851000Y-52266184D01*
X120851000Y-52433816D01*
X120818297Y-52598228D01*
X120754147Y-52753100D01*
X120661015Y-52892481D01*
X120542481Y-53011015D01*
X120403100Y-53104147D01*
X120248228Y-53168297D01*
X120083816Y-53201000D01*
X119916184Y-53201000D01*
X119751772Y-53168297D01*
X119596900Y-53104147D01*
X119457519Y-53011015D01*
X119338985Y-52892481D01*
X119245853Y-52753100D01*
X119181703Y-52598228D01*
X119149000Y-52433816D01*
X119149000Y-52266184D01*
X119181703Y-52101772D01*
X119245853Y-51946900D01*
X119338985Y-51807519D01*
X119457519Y-51688985D01*
X119596900Y-51595853D01*
X119751772Y-51531703D01*
X119916184Y-51499000D01*
X120083816Y-51499000D01*
X120248228Y-51531703D01*
X120248228Y-51531703D01*
G37*
G36*
X112628228Y-51531703D02*
X112783100Y-51595853D01*
X112922481Y-51688985D01*
X113041015Y-51807519D01*
X113134147Y-51946900D01*
X113198297Y-52101772D01*
X113231000Y-52266184D01*
X113231000Y-52433816D01*
X113198297Y-52598228D01*
X113134147Y-52753100D01*
X113041015Y-52892481D01*
X112922481Y-53011015D01*
X112783100Y-53104147D01*
X112628228Y-53168297D01*
X112463816Y-53201000D01*
X112296184Y-53201000D01*
X112131772Y-53168297D01*
X111976900Y-53104147D01*
X111837519Y-53011015D01*
X111718985Y-52892481D01*
X111625853Y-52753100D01*
X111561703Y-52598228D01*
X111529000Y-52433816D01*
X111529000Y-52266184D01*
X111561703Y-52101772D01*
X111625853Y-51946900D01*
X111718985Y-51807519D01*
X111837519Y-51688985D01*
X111976900Y-51595853D01*
X112131772Y-51531703D01*
X112296184Y-51499000D01*
X112463816Y-51499000D01*
X112628228Y-51531703D01*
X112628228Y-51531703D01*
G37*
G36*
X73095443Y-50810519D02*
X73161628Y-50817038D01*
X73274854Y-50851385D01*
X73331468Y-50868558D01*
X73470088Y-50942653D01*
X73487992Y-50952223D01*
X73523730Y-50981553D01*
X73625187Y-51064815D01*
X73708449Y-51166272D01*
X73737779Y-51202010D01*
X73737780Y-51202012D01*
X73821444Y-51358534D01*
X73821444Y-51358535D01*
X73872964Y-51528374D01*
X73890360Y-51705001D01*
X73872964Y-51881628D01*
X73853164Y-51946900D01*
X73821444Y-52051468D01*
X73747349Y-52190088D01*
X73737779Y-52207992D01*
X73708449Y-52243730D01*
X73625187Y-52345187D01*
X73523730Y-52428449D01*
X73487992Y-52457779D01*
X73487990Y-52457780D01*
X73331468Y-52541444D01*
X73274854Y-52558617D01*
X73161628Y-52592964D01*
X73095444Y-52599482D01*
X73029261Y-52606001D01*
X72940741Y-52606001D01*
X72874558Y-52599482D01*
X72808374Y-52592964D01*
X72695148Y-52558617D01*
X72638534Y-52541444D01*
X72482012Y-52457780D01*
X72482010Y-52457779D01*
X72446272Y-52428449D01*
X72344815Y-52345187D01*
X72261553Y-52243730D01*
X72232223Y-52207992D01*
X72222653Y-52190088D01*
X72148558Y-52051468D01*
X72116838Y-51946900D01*
X72097038Y-51881628D01*
X72079642Y-51705001D01*
X72097038Y-51528374D01*
X72148558Y-51358535D01*
X72148558Y-51358534D01*
X72232222Y-51202012D01*
X72232223Y-51202010D01*
X72261553Y-51166272D01*
X72344815Y-51064815D01*
X72446272Y-50981553D01*
X72482010Y-50952223D01*
X72499914Y-50942653D01*
X72638534Y-50868558D01*
X72695148Y-50851385D01*
X72808374Y-50817038D01*
X72874559Y-50810519D01*
X72940741Y-50804001D01*
X73029261Y-50804001D01*
X73095443Y-50810519D01*
X73095443Y-50810519D01*
G37*
G36*
X69495443Y-50810519D02*
X69561628Y-50817038D01*
X69674854Y-50851385D01*
X69731468Y-50868558D01*
X69870088Y-50942653D01*
X69887992Y-50952223D01*
X69923730Y-50981553D01*
X70025187Y-51064815D01*
X70108449Y-51166272D01*
X70137779Y-51202010D01*
X70137780Y-51202012D01*
X70221444Y-51358534D01*
X70221444Y-51358535D01*
X70272964Y-51528374D01*
X70290360Y-51705001D01*
X70272964Y-51881628D01*
X70253164Y-51946900D01*
X70221444Y-52051468D01*
X70147349Y-52190088D01*
X70137779Y-52207992D01*
X70108449Y-52243730D01*
X70025187Y-52345187D01*
X69923730Y-52428449D01*
X69887992Y-52457779D01*
X69887990Y-52457780D01*
X69731468Y-52541444D01*
X69674854Y-52558617D01*
X69561628Y-52592964D01*
X69495444Y-52599482D01*
X69429261Y-52606001D01*
X69340741Y-52606001D01*
X69274558Y-52599482D01*
X69208374Y-52592964D01*
X69095148Y-52558617D01*
X69038534Y-52541444D01*
X68882012Y-52457780D01*
X68882010Y-52457779D01*
X68846272Y-52428449D01*
X68744815Y-52345187D01*
X68661553Y-52243730D01*
X68632223Y-52207992D01*
X68622653Y-52190088D01*
X68548558Y-52051468D01*
X68516838Y-51946900D01*
X68497038Y-51881628D01*
X68479642Y-51705001D01*
X68497038Y-51528374D01*
X68548558Y-51358535D01*
X68548558Y-51358534D01*
X68632222Y-51202012D01*
X68632223Y-51202010D01*
X68661553Y-51166272D01*
X68744815Y-51064815D01*
X68846272Y-50981553D01*
X68882010Y-50952223D01*
X68899914Y-50942653D01*
X69038534Y-50868558D01*
X69095148Y-50851385D01*
X69208374Y-50817038D01*
X69274559Y-50810519D01*
X69340741Y-50804001D01*
X69429261Y-50804001D01*
X69495443Y-50810519D01*
X69495443Y-50810519D01*
G37*
G36*
X76695443Y-50810519D02*
X76761628Y-50817038D01*
X76874854Y-50851385D01*
X76931468Y-50868558D01*
X77070088Y-50942653D01*
X77087992Y-50952223D01*
X77123730Y-50981553D01*
X77225187Y-51064815D01*
X77308449Y-51166272D01*
X77337779Y-51202010D01*
X77337780Y-51202012D01*
X77421444Y-51358534D01*
X77421444Y-51358535D01*
X77472964Y-51528374D01*
X77490360Y-51705001D01*
X77472964Y-51881628D01*
X77453164Y-51946900D01*
X77421444Y-52051468D01*
X77347349Y-52190088D01*
X77337779Y-52207992D01*
X77308449Y-52243730D01*
X77225187Y-52345187D01*
X77123730Y-52428449D01*
X77087992Y-52457779D01*
X77087990Y-52457780D01*
X76931468Y-52541444D01*
X76874854Y-52558617D01*
X76761628Y-52592964D01*
X76695444Y-52599482D01*
X76629261Y-52606001D01*
X76540741Y-52606001D01*
X76474558Y-52599482D01*
X76408374Y-52592964D01*
X76295148Y-52558617D01*
X76238534Y-52541444D01*
X76082012Y-52457780D01*
X76082010Y-52457779D01*
X76046272Y-52428449D01*
X75944815Y-52345187D01*
X75861553Y-52243730D01*
X75832223Y-52207992D01*
X75822653Y-52190088D01*
X75748558Y-52051468D01*
X75716838Y-51946900D01*
X75697038Y-51881628D01*
X75679642Y-51705001D01*
X75697038Y-51528374D01*
X75748558Y-51358535D01*
X75748558Y-51358534D01*
X75832222Y-51202012D01*
X75832223Y-51202010D01*
X75861553Y-51166272D01*
X75944815Y-51064815D01*
X76046272Y-50981553D01*
X76082010Y-50952223D01*
X76099914Y-50942653D01*
X76238534Y-50868558D01*
X76295148Y-50851385D01*
X76408374Y-50817038D01*
X76474559Y-50810519D01*
X76540741Y-50804001D01*
X76629261Y-50804001D01*
X76695443Y-50810519D01*
X76695443Y-50810519D01*
G37*
G36*
X105650442Y-50105518D02*
X105716627Y-50112037D01*
X105829853Y-50146384D01*
X105886467Y-50163557D01*
X105979154Y-50213100D01*
X106042991Y-50247222D01*
X106078729Y-50276552D01*
X106180186Y-50359814D01*
X106263448Y-50461271D01*
X106292778Y-50497009D01*
X106292779Y-50497011D01*
X106376443Y-50653533D01*
X106376443Y-50653534D01*
X106427963Y-50823373D01*
X106445359Y-51000000D01*
X106427963Y-51176627D01*
X106393616Y-51289853D01*
X106376443Y-51346467D01*
X106369992Y-51358535D01*
X106292778Y-51502991D01*
X106269214Y-51531704D01*
X106180186Y-51640186D01*
X106078729Y-51723448D01*
X106042991Y-51752778D01*
X106042989Y-51752779D01*
X105886467Y-51836443D01*
X105829853Y-51853616D01*
X105716627Y-51887963D01*
X105650443Y-51894481D01*
X105584260Y-51901000D01*
X105495740Y-51901000D01*
X105429557Y-51894481D01*
X105363373Y-51887963D01*
X105250147Y-51853616D01*
X105193533Y-51836443D01*
X105037011Y-51752779D01*
X105037009Y-51752778D01*
X105001271Y-51723448D01*
X104899814Y-51640186D01*
X104810786Y-51531704D01*
X104787222Y-51502991D01*
X104710008Y-51358535D01*
X104703557Y-51346467D01*
X104686384Y-51289853D01*
X104652037Y-51176627D01*
X104634641Y-51000000D01*
X104652037Y-50823373D01*
X104703557Y-50653534D01*
X104703557Y-50653533D01*
X104787221Y-50497011D01*
X104787222Y-50497009D01*
X104816552Y-50461271D01*
X104899814Y-50359814D01*
X105001271Y-50276552D01*
X105037009Y-50247222D01*
X105100846Y-50213100D01*
X105193533Y-50163557D01*
X105250147Y-50146384D01*
X105363373Y-50112037D01*
X105429558Y-50105518D01*
X105495740Y-50099000D01*
X105584260Y-50099000D01*
X105650442Y-50105518D01*
X105650442Y-50105518D01*
G37*
G36*
X103901000Y-51901000D02*
X102099000Y-51901000D01*
X102099000Y-50099000D01*
X103901000Y-50099000D01*
X103901000Y-51901000D01*
X103901000Y-51901000D01*
G37*
G36*
X120248228Y-48991703D02*
X120403100Y-49055853D01*
X120542481Y-49148985D01*
X120661015Y-49267519D01*
X120754147Y-49406900D01*
X120818297Y-49561772D01*
X120851000Y-49726184D01*
X120851000Y-49893816D01*
X120818297Y-50058228D01*
X120754147Y-50213100D01*
X120661015Y-50352481D01*
X120542481Y-50471015D01*
X120403100Y-50564147D01*
X120248228Y-50628297D01*
X120083816Y-50661000D01*
X119916184Y-50661000D01*
X119751772Y-50628297D01*
X119596900Y-50564147D01*
X119457519Y-50471015D01*
X119338985Y-50352481D01*
X119245853Y-50213100D01*
X119181703Y-50058228D01*
X119149000Y-49893816D01*
X119149000Y-49726184D01*
X119181703Y-49561772D01*
X119245853Y-49406900D01*
X119338985Y-49267519D01*
X119457519Y-49148985D01*
X119596900Y-49055853D01*
X119751772Y-48991703D01*
X119916184Y-48959000D01*
X120083816Y-48959000D01*
X120248228Y-48991703D01*
X120248228Y-48991703D01*
G37*
G36*
X112628228Y-48991703D02*
X112783100Y-49055853D01*
X112922481Y-49148985D01*
X113041015Y-49267519D01*
X113134147Y-49406900D01*
X113198297Y-49561772D01*
X113231000Y-49726184D01*
X113231000Y-49893816D01*
X113198297Y-50058228D01*
X113134147Y-50213100D01*
X113041015Y-50352481D01*
X112922481Y-50471015D01*
X112783100Y-50564147D01*
X112628228Y-50628297D01*
X112463816Y-50661000D01*
X112296184Y-50661000D01*
X112131772Y-50628297D01*
X111976900Y-50564147D01*
X111837519Y-50471015D01*
X111718985Y-50352481D01*
X111625853Y-50213100D01*
X111561703Y-50058228D01*
X111529000Y-49893816D01*
X111529000Y-49726184D01*
X111561703Y-49561772D01*
X111625853Y-49406900D01*
X111718985Y-49267519D01*
X111837519Y-49148985D01*
X111976900Y-49055853D01*
X112131772Y-48991703D01*
X112296184Y-48959000D01*
X112463816Y-48959000D01*
X112628228Y-48991703D01*
X112628228Y-48991703D01*
G37*
G36*
X122788228Y-48991703D02*
X122943100Y-49055853D01*
X123082481Y-49148985D01*
X123201015Y-49267519D01*
X123294147Y-49406900D01*
X123358297Y-49561772D01*
X123391000Y-49726184D01*
X123391000Y-49893816D01*
X123358297Y-50058228D01*
X123294147Y-50213100D01*
X123201015Y-50352481D01*
X123082481Y-50471015D01*
X122943100Y-50564147D01*
X122788228Y-50628297D01*
X122623816Y-50661000D01*
X122456184Y-50661000D01*
X122291772Y-50628297D01*
X122136900Y-50564147D01*
X121997519Y-50471015D01*
X121878985Y-50352481D01*
X121785853Y-50213100D01*
X121721703Y-50058228D01*
X121689000Y-49893816D01*
X121689000Y-49726184D01*
X121721703Y-49561772D01*
X121785853Y-49406900D01*
X121878985Y-49267519D01*
X121997519Y-49148985D01*
X122136900Y-49055853D01*
X122291772Y-48991703D01*
X122456184Y-48959000D01*
X122623816Y-48959000D01*
X122788228Y-48991703D01*
X122788228Y-48991703D01*
G37*
G36*
X127868228Y-48991703D02*
X128023100Y-49055853D01*
X128162481Y-49148985D01*
X128281015Y-49267519D01*
X128374147Y-49406900D01*
X128438297Y-49561772D01*
X128471000Y-49726184D01*
X128471000Y-49893816D01*
X128438297Y-50058228D01*
X128374147Y-50213100D01*
X128281015Y-50352481D01*
X128162481Y-50471015D01*
X128023100Y-50564147D01*
X127868228Y-50628297D01*
X127703816Y-50661000D01*
X127536184Y-50661000D01*
X127371772Y-50628297D01*
X127216900Y-50564147D01*
X127077519Y-50471015D01*
X126958985Y-50352481D01*
X126865853Y-50213100D01*
X126801703Y-50058228D01*
X126769000Y-49893816D01*
X126769000Y-49726184D01*
X126801703Y-49561772D01*
X126865853Y-49406900D01*
X126958985Y-49267519D01*
X127077519Y-49148985D01*
X127216900Y-49055853D01*
X127371772Y-48991703D01*
X127536184Y-48959000D01*
X127703816Y-48959000D01*
X127868228Y-48991703D01*
X127868228Y-48991703D01*
G37*
G36*
X69495444Y-48270520D02*
X69561628Y-48277038D01*
X69674854Y-48311385D01*
X69731468Y-48328558D01*
X69870088Y-48402653D01*
X69887992Y-48412223D01*
X69923730Y-48441553D01*
X70025187Y-48524815D01*
X70108449Y-48626272D01*
X70137779Y-48662010D01*
X70137780Y-48662012D01*
X70221444Y-48818534D01*
X70221444Y-48818535D01*
X70272964Y-48988374D01*
X70290360Y-49165001D01*
X70272964Y-49341628D01*
X70253164Y-49406900D01*
X70221444Y-49511468D01*
X70147349Y-49650088D01*
X70137779Y-49667992D01*
X70108449Y-49703730D01*
X70025187Y-49805187D01*
X69923730Y-49888449D01*
X69887992Y-49917779D01*
X69887990Y-49917780D01*
X69731468Y-50001444D01*
X69674854Y-50018617D01*
X69561628Y-50052964D01*
X69495443Y-50059483D01*
X69429261Y-50066001D01*
X69340741Y-50066001D01*
X69274559Y-50059483D01*
X69208374Y-50052964D01*
X69095148Y-50018617D01*
X69038534Y-50001444D01*
X68882012Y-49917780D01*
X68882010Y-49917779D01*
X68846272Y-49888449D01*
X68744815Y-49805187D01*
X68661553Y-49703730D01*
X68632223Y-49667992D01*
X68622653Y-49650088D01*
X68548558Y-49511468D01*
X68516838Y-49406900D01*
X68497038Y-49341628D01*
X68479642Y-49165001D01*
X68497038Y-48988374D01*
X68548558Y-48818535D01*
X68548558Y-48818534D01*
X68632222Y-48662012D01*
X68632223Y-48662010D01*
X68661553Y-48626272D01*
X68744815Y-48524815D01*
X68846272Y-48441553D01*
X68882010Y-48412223D01*
X68899914Y-48402653D01*
X69038534Y-48328558D01*
X69095148Y-48311385D01*
X69208374Y-48277038D01*
X69274559Y-48270519D01*
X69340741Y-48264001D01*
X69429261Y-48264001D01*
X69495444Y-48270520D01*
X69495444Y-48270520D01*
G37*
G36*
X73095444Y-48270520D02*
X73161628Y-48277038D01*
X73274854Y-48311385D01*
X73331468Y-48328558D01*
X73470088Y-48402653D01*
X73487992Y-48412223D01*
X73523730Y-48441553D01*
X73625187Y-48524815D01*
X73708449Y-48626272D01*
X73737779Y-48662010D01*
X73737780Y-48662012D01*
X73821444Y-48818534D01*
X73821444Y-48818535D01*
X73872964Y-48988374D01*
X73890360Y-49165001D01*
X73872964Y-49341628D01*
X73853164Y-49406900D01*
X73821444Y-49511468D01*
X73747349Y-49650088D01*
X73737779Y-49667992D01*
X73708449Y-49703730D01*
X73625187Y-49805187D01*
X73523730Y-49888449D01*
X73487992Y-49917779D01*
X73487990Y-49917780D01*
X73331468Y-50001444D01*
X73274854Y-50018617D01*
X73161628Y-50052964D01*
X73095443Y-50059483D01*
X73029261Y-50066001D01*
X72940741Y-50066001D01*
X72874559Y-50059483D01*
X72808374Y-50052964D01*
X72695148Y-50018617D01*
X72638534Y-50001444D01*
X72482012Y-49917780D01*
X72482010Y-49917779D01*
X72446272Y-49888449D01*
X72344815Y-49805187D01*
X72261553Y-49703730D01*
X72232223Y-49667992D01*
X72222653Y-49650088D01*
X72148558Y-49511468D01*
X72116838Y-49406900D01*
X72097038Y-49341628D01*
X72079642Y-49165001D01*
X72097038Y-48988374D01*
X72148558Y-48818535D01*
X72148558Y-48818534D01*
X72232222Y-48662012D01*
X72232223Y-48662010D01*
X72261553Y-48626272D01*
X72344815Y-48524815D01*
X72446272Y-48441553D01*
X72482010Y-48412223D01*
X72499914Y-48402653D01*
X72638534Y-48328558D01*
X72695148Y-48311385D01*
X72808374Y-48277038D01*
X72874559Y-48270519D01*
X72940741Y-48264001D01*
X73029261Y-48264001D01*
X73095444Y-48270520D01*
X73095444Y-48270520D01*
G37*
G36*
X76695444Y-48270520D02*
X76761628Y-48277038D01*
X76874854Y-48311385D01*
X76931468Y-48328558D01*
X77070088Y-48402653D01*
X77087992Y-48412223D01*
X77123730Y-48441553D01*
X77225187Y-48524815D01*
X77308449Y-48626272D01*
X77337779Y-48662010D01*
X77337780Y-48662012D01*
X77421444Y-48818534D01*
X77421444Y-48818535D01*
X77472964Y-48988374D01*
X77490360Y-49165001D01*
X77472964Y-49341628D01*
X77453164Y-49406900D01*
X77421444Y-49511468D01*
X77347349Y-49650088D01*
X77337779Y-49667992D01*
X77308449Y-49703730D01*
X77225187Y-49805187D01*
X77123730Y-49888449D01*
X77087992Y-49917779D01*
X77087990Y-49917780D01*
X76931468Y-50001444D01*
X76874854Y-50018617D01*
X76761628Y-50052964D01*
X76695443Y-50059483D01*
X76629261Y-50066001D01*
X76540741Y-50066001D01*
X76474559Y-50059483D01*
X76408374Y-50052964D01*
X76295148Y-50018617D01*
X76238534Y-50001444D01*
X76082012Y-49917780D01*
X76082010Y-49917779D01*
X76046272Y-49888449D01*
X75944815Y-49805187D01*
X75861553Y-49703730D01*
X75832223Y-49667992D01*
X75822653Y-49650088D01*
X75748558Y-49511468D01*
X75716838Y-49406900D01*
X75697038Y-49341628D01*
X75679642Y-49165001D01*
X75697038Y-48988374D01*
X75748558Y-48818535D01*
X75748558Y-48818534D01*
X75832222Y-48662012D01*
X75832223Y-48662010D01*
X75861553Y-48626272D01*
X75944815Y-48524815D01*
X76046272Y-48441553D01*
X76082010Y-48412223D01*
X76099914Y-48402653D01*
X76238534Y-48328558D01*
X76295148Y-48311385D01*
X76408374Y-48277038D01*
X76474559Y-48270519D01*
X76540741Y-48264001D01*
X76629261Y-48264001D01*
X76695444Y-48270520D01*
X76695444Y-48270520D01*
G37*
G36*
X112628228Y-46451703D02*
X112783100Y-46515853D01*
X112922481Y-46608985D01*
X113041015Y-46727519D01*
X113134147Y-46866900D01*
X113198297Y-47021772D01*
X113231000Y-47186184D01*
X113231000Y-47353816D01*
X113198297Y-47518228D01*
X113134147Y-47673100D01*
X113041015Y-47812481D01*
X112922481Y-47931015D01*
X112783100Y-48024147D01*
X112628228Y-48088297D01*
X112463816Y-48121000D01*
X112296184Y-48121000D01*
X112131772Y-48088297D01*
X111976900Y-48024147D01*
X111837519Y-47931015D01*
X111718985Y-47812481D01*
X111625853Y-47673100D01*
X111561703Y-47518228D01*
X111529000Y-47353816D01*
X111529000Y-47186184D01*
X111561703Y-47021772D01*
X111625853Y-46866900D01*
X111718985Y-46727519D01*
X111837519Y-46608985D01*
X111976900Y-46515853D01*
X112131772Y-46451703D01*
X112296184Y-46419000D01*
X112463816Y-46419000D01*
X112628228Y-46451703D01*
X112628228Y-46451703D01*
G37*
G36*
X120248228Y-46451703D02*
X120403100Y-46515853D01*
X120542481Y-46608985D01*
X120661015Y-46727519D01*
X120754147Y-46866900D01*
X120818297Y-47021772D01*
X120851000Y-47186184D01*
X120851000Y-47353816D01*
X120818297Y-47518228D01*
X120754147Y-47673100D01*
X120661015Y-47812481D01*
X120542481Y-47931015D01*
X120403100Y-48024147D01*
X120248228Y-48088297D01*
X120083816Y-48121000D01*
X119916184Y-48121000D01*
X119751772Y-48088297D01*
X119596900Y-48024147D01*
X119457519Y-47931015D01*
X119338985Y-47812481D01*
X119245853Y-47673100D01*
X119181703Y-47518228D01*
X119149000Y-47353816D01*
X119149000Y-47186184D01*
X119181703Y-47021772D01*
X119245853Y-46866900D01*
X119338985Y-46727519D01*
X119457519Y-46608985D01*
X119596900Y-46515853D01*
X119751772Y-46451703D01*
X119916184Y-46419000D01*
X120083816Y-46419000D01*
X120248228Y-46451703D01*
X120248228Y-46451703D01*
G37*
G36*
X127868228Y-46451703D02*
X128023100Y-46515853D01*
X128162481Y-46608985D01*
X128281015Y-46727519D01*
X128374147Y-46866900D01*
X128438297Y-47021772D01*
X128471000Y-47186184D01*
X128471000Y-47353816D01*
X128438297Y-47518228D01*
X128374147Y-47673100D01*
X128281015Y-47812481D01*
X128162481Y-47931015D01*
X128023100Y-48024147D01*
X127868228Y-48088297D01*
X127703816Y-48121000D01*
X127536184Y-48121000D01*
X127371772Y-48088297D01*
X127216900Y-48024147D01*
X127077519Y-47931015D01*
X126958985Y-47812481D01*
X126865853Y-47673100D01*
X126801703Y-47518228D01*
X126769000Y-47353816D01*
X126769000Y-47186184D01*
X126801703Y-47021772D01*
X126865853Y-46866900D01*
X126958985Y-46727519D01*
X127077519Y-46608985D01*
X127216900Y-46515853D01*
X127371772Y-46451703D01*
X127536184Y-46419000D01*
X127703816Y-46419000D01*
X127868228Y-46451703D01*
X127868228Y-46451703D01*
G37*
G36*
X122788228Y-46451703D02*
X122943100Y-46515853D01*
X123082481Y-46608985D01*
X123201015Y-46727519D01*
X123294147Y-46866900D01*
X123358297Y-47021772D01*
X123391000Y-47186184D01*
X123391000Y-47353816D01*
X123358297Y-47518228D01*
X123294147Y-47673100D01*
X123201015Y-47812481D01*
X123082481Y-47931015D01*
X122943100Y-48024147D01*
X122788228Y-48088297D01*
X122623816Y-48121000D01*
X122456184Y-48121000D01*
X122291772Y-48088297D01*
X122136900Y-48024147D01*
X121997519Y-47931015D01*
X121878985Y-47812481D01*
X121785853Y-47673100D01*
X121721703Y-47518228D01*
X121689000Y-47353816D01*
X121689000Y-47186184D01*
X121721703Y-47021772D01*
X121785853Y-46866900D01*
X121878985Y-46727519D01*
X121997519Y-46608985D01*
X122136900Y-46515853D01*
X122291772Y-46451703D01*
X122456184Y-46419000D01*
X122623816Y-46419000D01*
X122788228Y-46451703D01*
X122788228Y-46451703D01*
G37*
G36*
X69495443Y-45730519D02*
X69561628Y-45737038D01*
X69674854Y-45771385D01*
X69731468Y-45788558D01*
X69870088Y-45862653D01*
X69887992Y-45872223D01*
X69923730Y-45901553D01*
X70025187Y-45984815D01*
X70108449Y-46086272D01*
X70137779Y-46122010D01*
X70137780Y-46122012D01*
X70221444Y-46278534D01*
X70221444Y-46278535D01*
X70272964Y-46448374D01*
X70290360Y-46625001D01*
X70272964Y-46801628D01*
X70253164Y-46866900D01*
X70221444Y-46971468D01*
X70147349Y-47110088D01*
X70137779Y-47127992D01*
X70108449Y-47163730D01*
X70025187Y-47265187D01*
X69923730Y-47348449D01*
X69887992Y-47377779D01*
X69887990Y-47377780D01*
X69731468Y-47461444D01*
X69674854Y-47478617D01*
X69561628Y-47512964D01*
X69495443Y-47519483D01*
X69429261Y-47526001D01*
X69340741Y-47526001D01*
X69274559Y-47519483D01*
X69208374Y-47512964D01*
X69095148Y-47478617D01*
X69038534Y-47461444D01*
X68882012Y-47377780D01*
X68882010Y-47377779D01*
X68846272Y-47348449D01*
X68744815Y-47265187D01*
X68661553Y-47163730D01*
X68632223Y-47127992D01*
X68622653Y-47110088D01*
X68548558Y-46971468D01*
X68516838Y-46866900D01*
X68497038Y-46801628D01*
X68479642Y-46625001D01*
X68497038Y-46448374D01*
X68548558Y-46278535D01*
X68548558Y-46278534D01*
X68632222Y-46122012D01*
X68632223Y-46122010D01*
X68661553Y-46086272D01*
X68744815Y-45984815D01*
X68846272Y-45901553D01*
X68882010Y-45872223D01*
X68899914Y-45862653D01*
X69038534Y-45788558D01*
X69095148Y-45771385D01*
X69208374Y-45737038D01*
X69274559Y-45730519D01*
X69340741Y-45724001D01*
X69429261Y-45724001D01*
X69495443Y-45730519D01*
X69495443Y-45730519D01*
G37*
G36*
X76695443Y-45730519D02*
X76761628Y-45737038D01*
X76874854Y-45771385D01*
X76931468Y-45788558D01*
X77070088Y-45862653D01*
X77087992Y-45872223D01*
X77123730Y-45901553D01*
X77225187Y-45984815D01*
X77308449Y-46086272D01*
X77337779Y-46122010D01*
X77337780Y-46122012D01*
X77421444Y-46278534D01*
X77421444Y-46278535D01*
X77472964Y-46448374D01*
X77490360Y-46625001D01*
X77472964Y-46801628D01*
X77453164Y-46866900D01*
X77421444Y-46971468D01*
X77347349Y-47110088D01*
X77337779Y-47127992D01*
X77308449Y-47163730D01*
X77225187Y-47265187D01*
X77123730Y-47348449D01*
X77087992Y-47377779D01*
X77087990Y-47377780D01*
X76931468Y-47461444D01*
X76874854Y-47478617D01*
X76761628Y-47512964D01*
X76695443Y-47519483D01*
X76629261Y-47526001D01*
X76540741Y-47526001D01*
X76474559Y-47519483D01*
X76408374Y-47512964D01*
X76295148Y-47478617D01*
X76238534Y-47461444D01*
X76082012Y-47377780D01*
X76082010Y-47377779D01*
X76046272Y-47348449D01*
X75944815Y-47265187D01*
X75861553Y-47163730D01*
X75832223Y-47127992D01*
X75822653Y-47110088D01*
X75748558Y-46971468D01*
X75716838Y-46866900D01*
X75697038Y-46801628D01*
X75679642Y-46625001D01*
X75697038Y-46448374D01*
X75748558Y-46278535D01*
X75748558Y-46278534D01*
X75832222Y-46122012D01*
X75832223Y-46122010D01*
X75861553Y-46086272D01*
X75944815Y-45984815D01*
X76046272Y-45901553D01*
X76082010Y-45872223D01*
X76099914Y-45862653D01*
X76238534Y-45788558D01*
X76295148Y-45771385D01*
X76408374Y-45737038D01*
X76474558Y-45730520D01*
X76540741Y-45724001D01*
X76629261Y-45724001D01*
X76695443Y-45730519D01*
X76695443Y-45730519D01*
G37*
G36*
X73095443Y-45730519D02*
X73161628Y-45737038D01*
X73274854Y-45771385D01*
X73331468Y-45788558D01*
X73470088Y-45862653D01*
X73487992Y-45872223D01*
X73523730Y-45901553D01*
X73625187Y-45984815D01*
X73708449Y-46086272D01*
X73737779Y-46122010D01*
X73737780Y-46122012D01*
X73821444Y-46278534D01*
X73821444Y-46278535D01*
X73872964Y-46448374D01*
X73890360Y-46625001D01*
X73872964Y-46801628D01*
X73853164Y-46866900D01*
X73821444Y-46971468D01*
X73747349Y-47110088D01*
X73737779Y-47127992D01*
X73708449Y-47163730D01*
X73625187Y-47265187D01*
X73523730Y-47348449D01*
X73487992Y-47377779D01*
X73487990Y-47377780D01*
X73331468Y-47461444D01*
X73274854Y-47478617D01*
X73161628Y-47512964D01*
X73095443Y-47519483D01*
X73029261Y-47526001D01*
X72940741Y-47526001D01*
X72874559Y-47519483D01*
X72808374Y-47512964D01*
X72695148Y-47478617D01*
X72638534Y-47461444D01*
X72482012Y-47377780D01*
X72482010Y-47377779D01*
X72446272Y-47348449D01*
X72344815Y-47265187D01*
X72261553Y-47163730D01*
X72232223Y-47127992D01*
X72222653Y-47110088D01*
X72148558Y-46971468D01*
X72116838Y-46866900D01*
X72097038Y-46801628D01*
X72079642Y-46625001D01*
X72097038Y-46448374D01*
X72148558Y-46278535D01*
X72148558Y-46278534D01*
X72232222Y-46122012D01*
X72232223Y-46122010D01*
X72261553Y-46086272D01*
X72344815Y-45984815D01*
X72446272Y-45901553D01*
X72482010Y-45872223D01*
X72499914Y-45862653D01*
X72638534Y-45788558D01*
X72695148Y-45771385D01*
X72808374Y-45737038D01*
X72874558Y-45730520D01*
X72940741Y-45724001D01*
X73029261Y-45724001D01*
X73095443Y-45730519D01*
X73095443Y-45730519D01*
G37*
G36*
X120248228Y-43911703D02*
X120403100Y-43975853D01*
X120542481Y-44068985D01*
X120661015Y-44187519D01*
X120754147Y-44326900D01*
X120818297Y-44481772D01*
X120851000Y-44646184D01*
X120851000Y-44813816D01*
X120818297Y-44978228D01*
X120754147Y-45133100D01*
X120661015Y-45272481D01*
X120542481Y-45391015D01*
X120403100Y-45484147D01*
X120248228Y-45548297D01*
X120083816Y-45581000D01*
X119916184Y-45581000D01*
X119751772Y-45548297D01*
X119596900Y-45484147D01*
X119457519Y-45391015D01*
X119338985Y-45272481D01*
X119245853Y-45133100D01*
X119181703Y-44978228D01*
X119149000Y-44813816D01*
X119149000Y-44646184D01*
X119181703Y-44481772D01*
X119245853Y-44326900D01*
X119338985Y-44187519D01*
X119457519Y-44068985D01*
X119596900Y-43975853D01*
X119751772Y-43911703D01*
X119916184Y-43879000D01*
X120083816Y-43879000D01*
X120248228Y-43911703D01*
X120248228Y-43911703D01*
G37*
G36*
X127868228Y-43911703D02*
X128023100Y-43975853D01*
X128162481Y-44068985D01*
X128281015Y-44187519D01*
X128374147Y-44326900D01*
X128438297Y-44481772D01*
X128471000Y-44646184D01*
X128471000Y-44813816D01*
X128438297Y-44978228D01*
X128374147Y-45133100D01*
X128281015Y-45272481D01*
X128162481Y-45391015D01*
X128023100Y-45484147D01*
X127868228Y-45548297D01*
X127703816Y-45581000D01*
X127536184Y-45581000D01*
X127371772Y-45548297D01*
X127216900Y-45484147D01*
X127077519Y-45391015D01*
X126958985Y-45272481D01*
X126865853Y-45133100D01*
X126801703Y-44978228D01*
X126769000Y-44813816D01*
X126769000Y-44646184D01*
X126801703Y-44481772D01*
X126865853Y-44326900D01*
X126958985Y-44187519D01*
X127077519Y-44068985D01*
X127216900Y-43975853D01*
X127371772Y-43911703D01*
X127536184Y-43879000D01*
X127703816Y-43879000D01*
X127868228Y-43911703D01*
X127868228Y-43911703D01*
G37*
G36*
X112628228Y-43911703D02*
X112783100Y-43975853D01*
X112922481Y-44068985D01*
X113041015Y-44187519D01*
X113134147Y-44326900D01*
X113198297Y-44481772D01*
X113231000Y-44646184D01*
X113231000Y-44813816D01*
X113198297Y-44978228D01*
X113134147Y-45133100D01*
X113041015Y-45272481D01*
X112922481Y-45391015D01*
X112783100Y-45484147D01*
X112628228Y-45548297D01*
X112463816Y-45581000D01*
X112296184Y-45581000D01*
X112131772Y-45548297D01*
X111976900Y-45484147D01*
X111837519Y-45391015D01*
X111718985Y-45272481D01*
X111625853Y-45133100D01*
X111561703Y-44978228D01*
X111529000Y-44813816D01*
X111529000Y-44646184D01*
X111561703Y-44481772D01*
X111625853Y-44326900D01*
X111718985Y-44187519D01*
X111837519Y-44068985D01*
X111976900Y-43975853D01*
X112131772Y-43911703D01*
X112296184Y-43879000D01*
X112463816Y-43879000D01*
X112628228Y-43911703D01*
X112628228Y-43911703D01*
G37*
G36*
X122788228Y-43911703D02*
X122943100Y-43975853D01*
X123082481Y-44068985D01*
X123201015Y-44187519D01*
X123294147Y-44326900D01*
X123358297Y-44481772D01*
X123391000Y-44646184D01*
X123391000Y-44813816D01*
X123358297Y-44978228D01*
X123294147Y-45133100D01*
X123201015Y-45272481D01*
X123082481Y-45391015D01*
X122943100Y-45484147D01*
X122788228Y-45548297D01*
X122623816Y-45581000D01*
X122456184Y-45581000D01*
X122291772Y-45548297D01*
X122136900Y-45484147D01*
X121997519Y-45391015D01*
X121878985Y-45272481D01*
X121785853Y-45133100D01*
X121721703Y-44978228D01*
X121689000Y-44813816D01*
X121689000Y-44646184D01*
X121721703Y-44481772D01*
X121785853Y-44326900D01*
X121878985Y-44187519D01*
X121997519Y-44068985D01*
X122136900Y-43975853D01*
X122291772Y-43911703D01*
X122456184Y-43879000D01*
X122623816Y-43879000D01*
X122788228Y-43911703D01*
X122788228Y-43911703D01*
G37*
G36*
X73095444Y-43190520D02*
X73161628Y-43197038D01*
X73274854Y-43231385D01*
X73331468Y-43248558D01*
X73470088Y-43322653D01*
X73487992Y-43332223D01*
X73523730Y-43361553D01*
X73625187Y-43444815D01*
X73708449Y-43546272D01*
X73737779Y-43582010D01*
X73737780Y-43582012D01*
X73821444Y-43738534D01*
X73821444Y-43738535D01*
X73872964Y-43908374D01*
X73890360Y-44085001D01*
X73872964Y-44261628D01*
X73853164Y-44326900D01*
X73821444Y-44431468D01*
X73747349Y-44570088D01*
X73737779Y-44587992D01*
X73708449Y-44623730D01*
X73625187Y-44725187D01*
X73523730Y-44808449D01*
X73487992Y-44837779D01*
X73487990Y-44837780D01*
X73331468Y-44921444D01*
X73274854Y-44938617D01*
X73161628Y-44972964D01*
X73095443Y-44979483D01*
X73029261Y-44986001D01*
X72940741Y-44986001D01*
X72874559Y-44979483D01*
X72808374Y-44972964D01*
X72695148Y-44938617D01*
X72638534Y-44921444D01*
X72482012Y-44837780D01*
X72482010Y-44837779D01*
X72446272Y-44808449D01*
X72344815Y-44725187D01*
X72261553Y-44623730D01*
X72232223Y-44587992D01*
X72222653Y-44570088D01*
X72148558Y-44431468D01*
X72116838Y-44326900D01*
X72097038Y-44261628D01*
X72079642Y-44085001D01*
X72097038Y-43908374D01*
X72148558Y-43738535D01*
X72148558Y-43738534D01*
X72232222Y-43582012D01*
X72232223Y-43582010D01*
X72261553Y-43546272D01*
X72344815Y-43444815D01*
X72446272Y-43361553D01*
X72482010Y-43332223D01*
X72499914Y-43322653D01*
X72638534Y-43248558D01*
X72695148Y-43231385D01*
X72808374Y-43197038D01*
X72874558Y-43190520D01*
X72940741Y-43184001D01*
X73029261Y-43184001D01*
X73095444Y-43190520D01*
X73095444Y-43190520D01*
G37*
G36*
X69495444Y-43190520D02*
X69561628Y-43197038D01*
X69674854Y-43231385D01*
X69731468Y-43248558D01*
X69870088Y-43322653D01*
X69887992Y-43332223D01*
X69923730Y-43361553D01*
X70025187Y-43444815D01*
X70108449Y-43546272D01*
X70137779Y-43582010D01*
X70137780Y-43582012D01*
X70221444Y-43738534D01*
X70221444Y-43738535D01*
X70272964Y-43908374D01*
X70290360Y-44085001D01*
X70272964Y-44261628D01*
X70253164Y-44326900D01*
X70221444Y-44431468D01*
X70147349Y-44570088D01*
X70137779Y-44587992D01*
X70108449Y-44623730D01*
X70025187Y-44725187D01*
X69923730Y-44808449D01*
X69887992Y-44837779D01*
X69887990Y-44837780D01*
X69731468Y-44921444D01*
X69674854Y-44938617D01*
X69561628Y-44972964D01*
X69495443Y-44979483D01*
X69429261Y-44986001D01*
X69340741Y-44986001D01*
X69274559Y-44979483D01*
X69208374Y-44972964D01*
X69095148Y-44938617D01*
X69038534Y-44921444D01*
X68882012Y-44837780D01*
X68882010Y-44837779D01*
X68846272Y-44808449D01*
X68744815Y-44725187D01*
X68661553Y-44623730D01*
X68632223Y-44587992D01*
X68622653Y-44570088D01*
X68548558Y-44431468D01*
X68516838Y-44326900D01*
X68497038Y-44261628D01*
X68479642Y-44085001D01*
X68497038Y-43908374D01*
X68548558Y-43738535D01*
X68548558Y-43738534D01*
X68632222Y-43582012D01*
X68632223Y-43582010D01*
X68661553Y-43546272D01*
X68744815Y-43444815D01*
X68846272Y-43361553D01*
X68882010Y-43332223D01*
X68899914Y-43322653D01*
X69038534Y-43248558D01*
X69095148Y-43231385D01*
X69208374Y-43197038D01*
X69274558Y-43190520D01*
X69340741Y-43184001D01*
X69429261Y-43184001D01*
X69495444Y-43190520D01*
X69495444Y-43190520D01*
G37*
G36*
X76695444Y-43190520D02*
X76761628Y-43197038D01*
X76874854Y-43231385D01*
X76931468Y-43248558D01*
X77070088Y-43322653D01*
X77087992Y-43332223D01*
X77123730Y-43361553D01*
X77225187Y-43444815D01*
X77308449Y-43546272D01*
X77337779Y-43582010D01*
X77337780Y-43582012D01*
X77421444Y-43738534D01*
X77421444Y-43738535D01*
X77472964Y-43908374D01*
X77490360Y-44085001D01*
X77472964Y-44261628D01*
X77453164Y-44326900D01*
X77421444Y-44431468D01*
X77347349Y-44570088D01*
X77337779Y-44587992D01*
X77308449Y-44623730D01*
X77225187Y-44725187D01*
X77123730Y-44808449D01*
X77087992Y-44837779D01*
X77087990Y-44837780D01*
X76931468Y-44921444D01*
X76874854Y-44938617D01*
X76761628Y-44972964D01*
X76695443Y-44979483D01*
X76629261Y-44986001D01*
X76540741Y-44986001D01*
X76474559Y-44979483D01*
X76408374Y-44972964D01*
X76295148Y-44938617D01*
X76238534Y-44921444D01*
X76082012Y-44837780D01*
X76082010Y-44837779D01*
X76046272Y-44808449D01*
X75944815Y-44725187D01*
X75861553Y-44623730D01*
X75832223Y-44587992D01*
X75822653Y-44570088D01*
X75748558Y-44431468D01*
X75716838Y-44326900D01*
X75697038Y-44261628D01*
X75679642Y-44085001D01*
X75697038Y-43908374D01*
X75748558Y-43738535D01*
X75748558Y-43738534D01*
X75832222Y-43582012D01*
X75832223Y-43582010D01*
X75861553Y-43546272D01*
X75944815Y-43444815D01*
X76046272Y-43361553D01*
X76082010Y-43332223D01*
X76099914Y-43322653D01*
X76238534Y-43248558D01*
X76295148Y-43231385D01*
X76408374Y-43197038D01*
X76474558Y-43190520D01*
X76540741Y-43184001D01*
X76629261Y-43184001D01*
X76695444Y-43190520D01*
X76695444Y-43190520D01*
G37*
G36*
X127868228Y-41371703D02*
X128023100Y-41435853D01*
X128162481Y-41528985D01*
X128281015Y-41647519D01*
X128374147Y-41786900D01*
X128438297Y-41941772D01*
X128471000Y-42106184D01*
X128471000Y-42273816D01*
X128438297Y-42438228D01*
X128374147Y-42593100D01*
X128281015Y-42732481D01*
X128162481Y-42851015D01*
X128023100Y-42944147D01*
X127868228Y-43008297D01*
X127703816Y-43041000D01*
X127536184Y-43041000D01*
X127371772Y-43008297D01*
X127216900Y-42944147D01*
X127077519Y-42851015D01*
X126958985Y-42732481D01*
X126865853Y-42593100D01*
X126801703Y-42438228D01*
X126769000Y-42273816D01*
X126769000Y-42106184D01*
X126801703Y-41941772D01*
X126865853Y-41786900D01*
X126958985Y-41647519D01*
X127077519Y-41528985D01*
X127216900Y-41435853D01*
X127371772Y-41371703D01*
X127536184Y-41339000D01*
X127703816Y-41339000D01*
X127868228Y-41371703D01*
X127868228Y-41371703D01*
G37*
G36*
X125328228Y-41371703D02*
X125483100Y-41435853D01*
X125622481Y-41528985D01*
X125741015Y-41647519D01*
X125834147Y-41786900D01*
X125898297Y-41941772D01*
X125931000Y-42106184D01*
X125931000Y-42273816D01*
X125898297Y-42438228D01*
X125834147Y-42593100D01*
X125741015Y-42732481D01*
X125622481Y-42851015D01*
X125483100Y-42944147D01*
X125328228Y-43008297D01*
X125163816Y-43041000D01*
X124996184Y-43041000D01*
X124831772Y-43008297D01*
X124676900Y-42944147D01*
X124537519Y-42851015D01*
X124418985Y-42732481D01*
X124325853Y-42593100D01*
X124261703Y-42438228D01*
X124229000Y-42273816D01*
X124229000Y-42106184D01*
X124261703Y-41941772D01*
X124325853Y-41786900D01*
X124418985Y-41647519D01*
X124537519Y-41528985D01*
X124676900Y-41435853D01*
X124831772Y-41371703D01*
X124996184Y-41339000D01*
X125163816Y-41339000D01*
X125328228Y-41371703D01*
X125328228Y-41371703D01*
G37*
G36*
X112628228Y-41371703D02*
X112783100Y-41435853D01*
X112922481Y-41528985D01*
X113041015Y-41647519D01*
X113134147Y-41786900D01*
X113198297Y-41941772D01*
X113231000Y-42106184D01*
X113231000Y-42273816D01*
X113198297Y-42438228D01*
X113134147Y-42593100D01*
X113041015Y-42732481D01*
X112922481Y-42851015D01*
X112783100Y-42944147D01*
X112628228Y-43008297D01*
X112463816Y-43041000D01*
X112296184Y-43041000D01*
X112131772Y-43008297D01*
X111976900Y-42944147D01*
X111837519Y-42851015D01*
X111718985Y-42732481D01*
X111625853Y-42593100D01*
X111561703Y-42438228D01*
X111529000Y-42273816D01*
X111529000Y-42106184D01*
X111561703Y-41941772D01*
X111625853Y-41786900D01*
X111718985Y-41647519D01*
X111837519Y-41528985D01*
X111976900Y-41435853D01*
X112131772Y-41371703D01*
X112296184Y-41339000D01*
X112463816Y-41339000D01*
X112628228Y-41371703D01*
X112628228Y-41371703D01*
G37*
G36*
X73095443Y-40650519D02*
X73161628Y-40657038D01*
X73274854Y-40691385D01*
X73331468Y-40708558D01*
X73470088Y-40782653D01*
X73487992Y-40792223D01*
X73523730Y-40821553D01*
X73625187Y-40904815D01*
X73708449Y-41006272D01*
X73737779Y-41042010D01*
X73737780Y-41042012D01*
X73821444Y-41198534D01*
X73821444Y-41198535D01*
X73872964Y-41368374D01*
X73890360Y-41545001D01*
X73872964Y-41721628D01*
X73853164Y-41786900D01*
X73821444Y-41891468D01*
X73747349Y-42030088D01*
X73737779Y-42047992D01*
X73708449Y-42083730D01*
X73625187Y-42185187D01*
X73523730Y-42268449D01*
X73487992Y-42297779D01*
X73487990Y-42297780D01*
X73331468Y-42381444D01*
X73274854Y-42398617D01*
X73161628Y-42432964D01*
X73095443Y-42439483D01*
X73029261Y-42446001D01*
X72940741Y-42446001D01*
X72874559Y-42439483D01*
X72808374Y-42432964D01*
X72695148Y-42398617D01*
X72638534Y-42381444D01*
X72482012Y-42297780D01*
X72482010Y-42297779D01*
X72446272Y-42268449D01*
X72344815Y-42185187D01*
X72261553Y-42083730D01*
X72232223Y-42047992D01*
X72222653Y-42030088D01*
X72148558Y-41891468D01*
X72116838Y-41786900D01*
X72097038Y-41721628D01*
X72079642Y-41545001D01*
X72097038Y-41368374D01*
X72148558Y-41198535D01*
X72148558Y-41198534D01*
X72232222Y-41042012D01*
X72232223Y-41042010D01*
X72261553Y-41006272D01*
X72344815Y-40904815D01*
X72446272Y-40821553D01*
X72482010Y-40792223D01*
X72499914Y-40782653D01*
X72638534Y-40708558D01*
X72695148Y-40691385D01*
X72808374Y-40657038D01*
X72874559Y-40650519D01*
X72940741Y-40644001D01*
X73029261Y-40644001D01*
X73095443Y-40650519D01*
X73095443Y-40650519D01*
G37*
G36*
X69495443Y-40650519D02*
X69561628Y-40657038D01*
X69674854Y-40691385D01*
X69731468Y-40708558D01*
X69870088Y-40782653D01*
X69887992Y-40792223D01*
X69923730Y-40821553D01*
X70025187Y-40904815D01*
X70108449Y-41006272D01*
X70137779Y-41042010D01*
X70137780Y-41042012D01*
X70221444Y-41198534D01*
X70221444Y-41198535D01*
X70272964Y-41368374D01*
X70290360Y-41545001D01*
X70272964Y-41721628D01*
X70253164Y-41786900D01*
X70221444Y-41891468D01*
X70147349Y-42030088D01*
X70137779Y-42047992D01*
X70108449Y-42083730D01*
X70025187Y-42185187D01*
X69923730Y-42268449D01*
X69887992Y-42297779D01*
X69887990Y-42297780D01*
X69731468Y-42381444D01*
X69674854Y-42398617D01*
X69561628Y-42432964D01*
X69495443Y-42439483D01*
X69429261Y-42446001D01*
X69340741Y-42446001D01*
X69274559Y-42439483D01*
X69208374Y-42432964D01*
X69095148Y-42398617D01*
X69038534Y-42381444D01*
X68882012Y-42297780D01*
X68882010Y-42297779D01*
X68846272Y-42268449D01*
X68744815Y-42185187D01*
X68661553Y-42083730D01*
X68632223Y-42047992D01*
X68622653Y-42030088D01*
X68548558Y-41891468D01*
X68516838Y-41786900D01*
X68497038Y-41721628D01*
X68479642Y-41545001D01*
X68497038Y-41368374D01*
X68548558Y-41198535D01*
X68548558Y-41198534D01*
X68632222Y-41042012D01*
X68632223Y-41042010D01*
X68661553Y-41006272D01*
X68744815Y-40904815D01*
X68846272Y-40821553D01*
X68882010Y-40792223D01*
X68899914Y-40782653D01*
X69038534Y-40708558D01*
X69095148Y-40691385D01*
X69208374Y-40657038D01*
X69274559Y-40650519D01*
X69340741Y-40644001D01*
X69429261Y-40644001D01*
X69495443Y-40650519D01*
X69495443Y-40650519D01*
G37*
G36*
X76695443Y-40650519D02*
X76761628Y-40657038D01*
X76874854Y-40691385D01*
X76931468Y-40708558D01*
X77070088Y-40782653D01*
X77087992Y-40792223D01*
X77123730Y-40821553D01*
X77225187Y-40904815D01*
X77308449Y-41006272D01*
X77337779Y-41042010D01*
X77337780Y-41042012D01*
X77421444Y-41198534D01*
X77421444Y-41198535D01*
X77472964Y-41368374D01*
X77490360Y-41545001D01*
X77472964Y-41721628D01*
X77453164Y-41786900D01*
X77421444Y-41891468D01*
X77347349Y-42030088D01*
X77337779Y-42047992D01*
X77308449Y-42083730D01*
X77225187Y-42185187D01*
X77123730Y-42268449D01*
X77087992Y-42297779D01*
X77087990Y-42297780D01*
X76931468Y-42381444D01*
X76874854Y-42398617D01*
X76761628Y-42432964D01*
X76695443Y-42439483D01*
X76629261Y-42446001D01*
X76540741Y-42446001D01*
X76474559Y-42439483D01*
X76408374Y-42432964D01*
X76295148Y-42398617D01*
X76238534Y-42381444D01*
X76082012Y-42297780D01*
X76082010Y-42297779D01*
X76046272Y-42268449D01*
X75944815Y-42185187D01*
X75861553Y-42083730D01*
X75832223Y-42047992D01*
X75822653Y-42030088D01*
X75748558Y-41891468D01*
X75716838Y-41786900D01*
X75697038Y-41721628D01*
X75679642Y-41545001D01*
X75697038Y-41368374D01*
X75748558Y-41198535D01*
X75748558Y-41198534D01*
X75832222Y-41042012D01*
X75832223Y-41042010D01*
X75861553Y-41006272D01*
X75944815Y-40904815D01*
X76046272Y-40821553D01*
X76082010Y-40792223D01*
X76099914Y-40782653D01*
X76238534Y-40708558D01*
X76295148Y-40691385D01*
X76408374Y-40657038D01*
X76474559Y-40650519D01*
X76540741Y-40644001D01*
X76629261Y-40644001D01*
X76695443Y-40650519D01*
X76695443Y-40650519D01*
G37*
G36*
X120291981Y-38687468D02*
X120474150Y-38762925D01*
X120638103Y-38872475D01*
X120777525Y-39011897D01*
X120887075Y-39175850D01*
X120962532Y-39358019D01*
X121001000Y-39551410D01*
X121001000Y-39748590D01*
X120962532Y-39941981D01*
X120887075Y-40124150D01*
X120777525Y-40288103D01*
X120638103Y-40427525D01*
X120474150Y-40537075D01*
X120291981Y-40612532D01*
X120098590Y-40651000D01*
X119901410Y-40651000D01*
X119708019Y-40612532D01*
X119525850Y-40537075D01*
X119361897Y-40427525D01*
X119222475Y-40288103D01*
X119112925Y-40124150D01*
X119037468Y-39941981D01*
X118999000Y-39748590D01*
X118999000Y-39551410D01*
X119037468Y-39358019D01*
X119112925Y-39175850D01*
X119222475Y-39011897D01*
X119361897Y-38872475D01*
X119525850Y-38762925D01*
X119708019Y-38687468D01*
X119901410Y-38649000D01*
X120098590Y-38649000D01*
X120291981Y-38687468D01*
X120291981Y-38687468D01*
G37*
G36*
X125328228Y-38831703D02*
X125483100Y-38895853D01*
X125622481Y-38988985D01*
X125741015Y-39107519D01*
X125834147Y-39246900D01*
X125898297Y-39401772D01*
X125931000Y-39566184D01*
X125931000Y-39733816D01*
X125898297Y-39898228D01*
X125834147Y-40053100D01*
X125741015Y-40192481D01*
X125622481Y-40311015D01*
X125483100Y-40404147D01*
X125328228Y-40468297D01*
X125163816Y-40501000D01*
X124996184Y-40501000D01*
X124831772Y-40468297D01*
X124676900Y-40404147D01*
X124537519Y-40311015D01*
X124418985Y-40192481D01*
X124325853Y-40053100D01*
X124261703Y-39898228D01*
X124229000Y-39733816D01*
X124229000Y-39566184D01*
X124261703Y-39401772D01*
X124325853Y-39246900D01*
X124418985Y-39107519D01*
X124537519Y-38988985D01*
X124676900Y-38895853D01*
X124831772Y-38831703D01*
X124996184Y-38799000D01*
X125163816Y-38799000D01*
X125328228Y-38831703D01*
X125328228Y-38831703D01*
G37*
G36*
X112628228Y-38831703D02*
X112783100Y-38895853D01*
X112922481Y-38988985D01*
X113041015Y-39107519D01*
X113134147Y-39246900D01*
X113198297Y-39401772D01*
X113231000Y-39566184D01*
X113231000Y-39733816D01*
X113198297Y-39898228D01*
X113134147Y-40053100D01*
X113041015Y-40192481D01*
X112922481Y-40311015D01*
X112783100Y-40404147D01*
X112628228Y-40468297D01*
X112463816Y-40501000D01*
X112296184Y-40501000D01*
X112131772Y-40468297D01*
X111976900Y-40404147D01*
X111837519Y-40311015D01*
X111718985Y-40192481D01*
X111625853Y-40053100D01*
X111561703Y-39898228D01*
X111529000Y-39733816D01*
X111529000Y-39566184D01*
X111561703Y-39401772D01*
X111625853Y-39246900D01*
X111718985Y-39107519D01*
X111837519Y-38988985D01*
X111976900Y-38895853D01*
X112131772Y-38831703D01*
X112296184Y-38799000D01*
X112463816Y-38799000D01*
X112628228Y-38831703D01*
X112628228Y-38831703D01*
G37*
G36*
X127868228Y-38831703D02*
X128023100Y-38895853D01*
X128162481Y-38988985D01*
X128281015Y-39107519D01*
X128374147Y-39246900D01*
X128438297Y-39401772D01*
X128471000Y-39566184D01*
X128471000Y-39733816D01*
X128438297Y-39898228D01*
X128374147Y-40053100D01*
X128281015Y-40192481D01*
X128162481Y-40311015D01*
X128023100Y-40404147D01*
X127868228Y-40468297D01*
X127703816Y-40501000D01*
X127536184Y-40501000D01*
X127371772Y-40468297D01*
X127216900Y-40404147D01*
X127077519Y-40311015D01*
X126958985Y-40192481D01*
X126865853Y-40053100D01*
X126801703Y-39898228D01*
X126769000Y-39733816D01*
X126769000Y-39566184D01*
X126801703Y-39401772D01*
X126865853Y-39246900D01*
X126958985Y-39107519D01*
X127077519Y-38988985D01*
X127216900Y-38895853D01*
X127371772Y-38831703D01*
X127536184Y-38799000D01*
X127703816Y-38799000D01*
X127868228Y-38831703D01*
X127868228Y-38831703D01*
G37*
G36*
X69495444Y-38110520D02*
X69561628Y-38117038D01*
X69674854Y-38151385D01*
X69731468Y-38168558D01*
X69870088Y-38242653D01*
X69887992Y-38252223D01*
X69923730Y-38281553D01*
X70025187Y-38364815D01*
X70108449Y-38466272D01*
X70137779Y-38502010D01*
X70137780Y-38502012D01*
X70221444Y-38658534D01*
X70221444Y-38658535D01*
X70272964Y-38828374D01*
X70290360Y-39005001D01*
X70272964Y-39181628D01*
X70253164Y-39246900D01*
X70221444Y-39351468D01*
X70147349Y-39490088D01*
X70137779Y-39507992D01*
X70108449Y-39543730D01*
X70025187Y-39645187D01*
X69923730Y-39728449D01*
X69887992Y-39757779D01*
X69887990Y-39757780D01*
X69731468Y-39841444D01*
X69674854Y-39858617D01*
X69561628Y-39892964D01*
X69495444Y-39899482D01*
X69429261Y-39906001D01*
X69340741Y-39906001D01*
X69274558Y-39899482D01*
X69208374Y-39892964D01*
X69095148Y-39858617D01*
X69038534Y-39841444D01*
X68882012Y-39757780D01*
X68882010Y-39757779D01*
X68846272Y-39728449D01*
X68744815Y-39645187D01*
X68661553Y-39543730D01*
X68632223Y-39507992D01*
X68622653Y-39490088D01*
X68548558Y-39351468D01*
X68516838Y-39246900D01*
X68497038Y-39181628D01*
X68479642Y-39005001D01*
X68497038Y-38828374D01*
X68548558Y-38658535D01*
X68548558Y-38658534D01*
X68632222Y-38502012D01*
X68632223Y-38502010D01*
X68661553Y-38466272D01*
X68744815Y-38364815D01*
X68846272Y-38281553D01*
X68882010Y-38252223D01*
X68899914Y-38242653D01*
X69038534Y-38168558D01*
X69095148Y-38151385D01*
X69208374Y-38117038D01*
X69274558Y-38110520D01*
X69340741Y-38104001D01*
X69429261Y-38104001D01*
X69495444Y-38110520D01*
X69495444Y-38110520D01*
G37*
G36*
X73095444Y-38110520D02*
X73161628Y-38117038D01*
X73274854Y-38151385D01*
X73331468Y-38168558D01*
X73470088Y-38242653D01*
X73487992Y-38252223D01*
X73523730Y-38281553D01*
X73625187Y-38364815D01*
X73708449Y-38466272D01*
X73737779Y-38502010D01*
X73737780Y-38502012D01*
X73821444Y-38658534D01*
X73821444Y-38658535D01*
X73872964Y-38828374D01*
X73890360Y-39005001D01*
X73872964Y-39181628D01*
X73853164Y-39246900D01*
X73821444Y-39351468D01*
X73747349Y-39490088D01*
X73737779Y-39507992D01*
X73708449Y-39543730D01*
X73625187Y-39645187D01*
X73523730Y-39728449D01*
X73487992Y-39757779D01*
X73487990Y-39757780D01*
X73331468Y-39841444D01*
X73274854Y-39858617D01*
X73161628Y-39892964D01*
X73095444Y-39899482D01*
X73029261Y-39906001D01*
X72940741Y-39906001D01*
X72874558Y-39899482D01*
X72808374Y-39892964D01*
X72695148Y-39858617D01*
X72638534Y-39841444D01*
X72482012Y-39757780D01*
X72482010Y-39757779D01*
X72446272Y-39728449D01*
X72344815Y-39645187D01*
X72261553Y-39543730D01*
X72232223Y-39507992D01*
X72222653Y-39490088D01*
X72148558Y-39351468D01*
X72116838Y-39246900D01*
X72097038Y-39181628D01*
X72079642Y-39005001D01*
X72097038Y-38828374D01*
X72148558Y-38658535D01*
X72148558Y-38658534D01*
X72232222Y-38502012D01*
X72232223Y-38502010D01*
X72261553Y-38466272D01*
X72344815Y-38364815D01*
X72446272Y-38281553D01*
X72482010Y-38252223D01*
X72499914Y-38242653D01*
X72638534Y-38168558D01*
X72695148Y-38151385D01*
X72808374Y-38117038D01*
X72874558Y-38110520D01*
X72940741Y-38104001D01*
X73029261Y-38104001D01*
X73095444Y-38110520D01*
X73095444Y-38110520D01*
G37*
G36*
X76695444Y-38110520D02*
X76761628Y-38117038D01*
X76874854Y-38151385D01*
X76931468Y-38168558D01*
X77070088Y-38242653D01*
X77087992Y-38252223D01*
X77123730Y-38281553D01*
X77225187Y-38364815D01*
X77308449Y-38466272D01*
X77337779Y-38502010D01*
X77337780Y-38502012D01*
X77421444Y-38658534D01*
X77421444Y-38658535D01*
X77472964Y-38828374D01*
X77490360Y-39005001D01*
X77472964Y-39181628D01*
X77453164Y-39246900D01*
X77421444Y-39351468D01*
X77347349Y-39490088D01*
X77337779Y-39507992D01*
X77308449Y-39543730D01*
X77225187Y-39645187D01*
X77123730Y-39728449D01*
X77087992Y-39757779D01*
X77087990Y-39757780D01*
X76931468Y-39841444D01*
X76874854Y-39858617D01*
X76761628Y-39892964D01*
X76695444Y-39899482D01*
X76629261Y-39906001D01*
X76540741Y-39906001D01*
X76474558Y-39899482D01*
X76408374Y-39892964D01*
X76295148Y-39858617D01*
X76238534Y-39841444D01*
X76082012Y-39757780D01*
X76082010Y-39757779D01*
X76046272Y-39728449D01*
X75944815Y-39645187D01*
X75861553Y-39543730D01*
X75832223Y-39507992D01*
X75822653Y-39490088D01*
X75748558Y-39351468D01*
X75716838Y-39246900D01*
X75697038Y-39181628D01*
X75679642Y-39005001D01*
X75697038Y-38828374D01*
X75748558Y-38658535D01*
X75748558Y-38658534D01*
X75832222Y-38502012D01*
X75832223Y-38502010D01*
X75861553Y-38466272D01*
X75944815Y-38364815D01*
X76046272Y-38281553D01*
X76082010Y-38252223D01*
X76099914Y-38242653D01*
X76238534Y-38168558D01*
X76295148Y-38151385D01*
X76408374Y-38117038D01*
X76474558Y-38110520D01*
X76540741Y-38104001D01*
X76629261Y-38104001D01*
X76695444Y-38110520D01*
X76695444Y-38110520D01*
G37*
G36*
X127868228Y-36291703D02*
X128023100Y-36355853D01*
X128162481Y-36448985D01*
X128281015Y-36567519D01*
X128374147Y-36706900D01*
X128438297Y-36861772D01*
X128471000Y-37026184D01*
X128471000Y-37193816D01*
X128438297Y-37358228D01*
X128374147Y-37513100D01*
X128281015Y-37652481D01*
X128162481Y-37771015D01*
X128023100Y-37864147D01*
X127868228Y-37928297D01*
X127703816Y-37961000D01*
X127536184Y-37961000D01*
X127371772Y-37928297D01*
X127216900Y-37864147D01*
X127077519Y-37771015D01*
X126958985Y-37652481D01*
X126865853Y-37513100D01*
X126801703Y-37358228D01*
X126769000Y-37193816D01*
X126769000Y-37026184D01*
X126801703Y-36861772D01*
X126865853Y-36706900D01*
X126958985Y-36567519D01*
X127077519Y-36448985D01*
X127216900Y-36355853D01*
X127371772Y-36291703D01*
X127536184Y-36259000D01*
X127703816Y-36259000D01*
X127868228Y-36291703D01*
X127868228Y-36291703D01*
G37*
G36*
X125328228Y-36291703D02*
X125483100Y-36355853D01*
X125622481Y-36448985D01*
X125741015Y-36567519D01*
X125834147Y-36706900D01*
X125898297Y-36861772D01*
X125931000Y-37026184D01*
X125931000Y-37193816D01*
X125898297Y-37358228D01*
X125834147Y-37513100D01*
X125741015Y-37652481D01*
X125622481Y-37771015D01*
X125483100Y-37864147D01*
X125328228Y-37928297D01*
X125163816Y-37961000D01*
X124996184Y-37961000D01*
X124831772Y-37928297D01*
X124676900Y-37864147D01*
X124537519Y-37771015D01*
X124418985Y-37652481D01*
X124325853Y-37513100D01*
X124261703Y-37358228D01*
X124229000Y-37193816D01*
X124229000Y-37026184D01*
X124261703Y-36861772D01*
X124325853Y-36706900D01*
X124418985Y-36567519D01*
X124537519Y-36448985D01*
X124676900Y-36355853D01*
X124831772Y-36291703D01*
X124996184Y-36259000D01*
X125163816Y-36259000D01*
X125328228Y-36291703D01*
X125328228Y-36291703D01*
G37*
G36*
X112628228Y-36291703D02*
X112783100Y-36355853D01*
X112922481Y-36448985D01*
X113041015Y-36567519D01*
X113134147Y-36706900D01*
X113198297Y-36861772D01*
X113231000Y-37026184D01*
X113231000Y-37193816D01*
X113198297Y-37358228D01*
X113134147Y-37513100D01*
X113041015Y-37652481D01*
X112922481Y-37771015D01*
X112783100Y-37864147D01*
X112628228Y-37928297D01*
X112463816Y-37961000D01*
X112296184Y-37961000D01*
X112131772Y-37928297D01*
X111976900Y-37864147D01*
X111837519Y-37771015D01*
X111718985Y-37652481D01*
X111625853Y-37513100D01*
X111561703Y-37358228D01*
X111529000Y-37193816D01*
X111529000Y-37026184D01*
X111561703Y-36861772D01*
X111625853Y-36706900D01*
X111718985Y-36567519D01*
X111837519Y-36448985D01*
X111976900Y-36355853D01*
X112131772Y-36291703D01*
X112296184Y-36259000D01*
X112463816Y-36259000D01*
X112628228Y-36291703D01*
X112628228Y-36291703D01*
G37*
G36*
X69495443Y-35570519D02*
X69561628Y-35577038D01*
X69674854Y-35611385D01*
X69731468Y-35628558D01*
X69773453Y-35651000D01*
X69887992Y-35712223D01*
X69923556Y-35741410D01*
X70025187Y-35824815D01*
X70108449Y-35926272D01*
X70137779Y-35962010D01*
X70137780Y-35962012D01*
X70221444Y-36118534D01*
X70221444Y-36118535D01*
X70272964Y-36288374D01*
X70290360Y-36465001D01*
X70272964Y-36641628D01*
X70253164Y-36706900D01*
X70221444Y-36811468D01*
X70147349Y-36950088D01*
X70137779Y-36967992D01*
X70108449Y-37003730D01*
X70025187Y-37105187D01*
X69923730Y-37188449D01*
X69887992Y-37217779D01*
X69887990Y-37217780D01*
X69731468Y-37301444D01*
X69674854Y-37318617D01*
X69561628Y-37352964D01*
X69495443Y-37359483D01*
X69429261Y-37366001D01*
X69340741Y-37366001D01*
X69274559Y-37359483D01*
X69208374Y-37352964D01*
X69095148Y-37318617D01*
X69038534Y-37301444D01*
X68882012Y-37217780D01*
X68882010Y-37217779D01*
X68846272Y-37188449D01*
X68744815Y-37105187D01*
X68661553Y-37003730D01*
X68632223Y-36967992D01*
X68622653Y-36950088D01*
X68548558Y-36811468D01*
X68516838Y-36706900D01*
X68497038Y-36641628D01*
X68479642Y-36465001D01*
X68497038Y-36288374D01*
X68548558Y-36118535D01*
X68548558Y-36118534D01*
X68632222Y-35962012D01*
X68632223Y-35962010D01*
X68661553Y-35926272D01*
X68744815Y-35824815D01*
X68846446Y-35741410D01*
X68882010Y-35712223D01*
X68996549Y-35651000D01*
X69038534Y-35628558D01*
X69095148Y-35611385D01*
X69208374Y-35577038D01*
X69274559Y-35570519D01*
X69340741Y-35564001D01*
X69429261Y-35564001D01*
X69495443Y-35570519D01*
X69495443Y-35570519D01*
G37*
G36*
X76695443Y-35570519D02*
X76761628Y-35577038D01*
X76874854Y-35611385D01*
X76931468Y-35628558D01*
X76973453Y-35651000D01*
X77087992Y-35712223D01*
X77123556Y-35741410D01*
X77225187Y-35824815D01*
X77308449Y-35926272D01*
X77337779Y-35962010D01*
X77337780Y-35962012D01*
X77421444Y-36118534D01*
X77421444Y-36118535D01*
X77472964Y-36288374D01*
X77490360Y-36465001D01*
X77472964Y-36641628D01*
X77453164Y-36706900D01*
X77421444Y-36811468D01*
X77347349Y-36950088D01*
X77337779Y-36967992D01*
X77308449Y-37003730D01*
X77225187Y-37105187D01*
X77123730Y-37188449D01*
X77087992Y-37217779D01*
X77087990Y-37217780D01*
X76931468Y-37301444D01*
X76874854Y-37318617D01*
X76761628Y-37352964D01*
X76695443Y-37359483D01*
X76629261Y-37366001D01*
X76540741Y-37366001D01*
X76474559Y-37359483D01*
X76408374Y-37352964D01*
X76295148Y-37318617D01*
X76238534Y-37301444D01*
X76082012Y-37217780D01*
X76082010Y-37217779D01*
X76046272Y-37188449D01*
X75944815Y-37105187D01*
X75861553Y-37003730D01*
X75832223Y-36967992D01*
X75822653Y-36950088D01*
X75748558Y-36811468D01*
X75716838Y-36706900D01*
X75697038Y-36641628D01*
X75679642Y-36465001D01*
X75697038Y-36288374D01*
X75748558Y-36118535D01*
X75748558Y-36118534D01*
X75832222Y-35962012D01*
X75832223Y-35962010D01*
X75861553Y-35926272D01*
X75944815Y-35824815D01*
X76046446Y-35741410D01*
X76082010Y-35712223D01*
X76196549Y-35651000D01*
X76238534Y-35628558D01*
X76295148Y-35611385D01*
X76408374Y-35577038D01*
X76474559Y-35570519D01*
X76540741Y-35564001D01*
X76629261Y-35564001D01*
X76695443Y-35570519D01*
X76695443Y-35570519D01*
G37*
G36*
X73095443Y-35570519D02*
X73161628Y-35577038D01*
X73274854Y-35611385D01*
X73331468Y-35628558D01*
X73373453Y-35651000D01*
X73487992Y-35712223D01*
X73523556Y-35741410D01*
X73625187Y-35824815D01*
X73708449Y-35926272D01*
X73737779Y-35962010D01*
X73737780Y-35962012D01*
X73821444Y-36118534D01*
X73821444Y-36118535D01*
X73872964Y-36288374D01*
X73890360Y-36465001D01*
X73872964Y-36641628D01*
X73853164Y-36706900D01*
X73821444Y-36811468D01*
X73747349Y-36950088D01*
X73737779Y-36967992D01*
X73708449Y-37003730D01*
X73625187Y-37105187D01*
X73523730Y-37188449D01*
X73487992Y-37217779D01*
X73487990Y-37217780D01*
X73331468Y-37301444D01*
X73274854Y-37318617D01*
X73161628Y-37352964D01*
X73095443Y-37359483D01*
X73029261Y-37366001D01*
X72940741Y-37366001D01*
X72874559Y-37359483D01*
X72808374Y-37352964D01*
X72695148Y-37318617D01*
X72638534Y-37301444D01*
X72482012Y-37217780D01*
X72482010Y-37217779D01*
X72446272Y-37188449D01*
X72344815Y-37105187D01*
X72261553Y-37003730D01*
X72232223Y-36967992D01*
X72222653Y-36950088D01*
X72148558Y-36811468D01*
X72116838Y-36706900D01*
X72097038Y-36641628D01*
X72079642Y-36465001D01*
X72097038Y-36288374D01*
X72148558Y-36118535D01*
X72148558Y-36118534D01*
X72232222Y-35962012D01*
X72232223Y-35962010D01*
X72261553Y-35926272D01*
X72344815Y-35824815D01*
X72446446Y-35741410D01*
X72482010Y-35712223D01*
X72596549Y-35651000D01*
X72638534Y-35628558D01*
X72695148Y-35611385D01*
X72808374Y-35577038D01*
X72874559Y-35570519D01*
X72940741Y-35564001D01*
X73029261Y-35564001D01*
X73095443Y-35570519D01*
X73095443Y-35570519D01*
G37*
G36*
X120291981Y-34877468D02*
X120474150Y-34952925D01*
X120638103Y-35062475D01*
X120777525Y-35201897D01*
X120887075Y-35365850D01*
X120962532Y-35548019D01*
X121001000Y-35741410D01*
X121001000Y-35938590D01*
X120962532Y-36131981D01*
X120887075Y-36314150D01*
X120777525Y-36478103D01*
X120638103Y-36617525D01*
X120474150Y-36727075D01*
X120291981Y-36802532D01*
X120098590Y-36841000D01*
X119901410Y-36841000D01*
X119708019Y-36802532D01*
X119525850Y-36727075D01*
X119361897Y-36617525D01*
X119222475Y-36478103D01*
X119112925Y-36314150D01*
X119037468Y-36131981D01*
X118999000Y-35938590D01*
X118999000Y-35741410D01*
X119037468Y-35548019D01*
X119112925Y-35365850D01*
X119222475Y-35201897D01*
X119361897Y-35062475D01*
X119525850Y-34952925D01*
X119708019Y-34877468D01*
X119901410Y-34839000D01*
X120098590Y-34839000D01*
X120291981Y-34877468D01*
X120291981Y-34877468D01*
G37*
G36*
X106375256Y-32391298D02*
X106481579Y-32412447D01*
X106782042Y-32536903D01*
X106835288Y-32572481D01*
X107052454Y-32717587D01*
X107282413Y-32947546D01*
X107282415Y-32947549D01*
X107432538Y-33172223D01*
X107463098Y-33217960D01*
X107587553Y-33518422D01*
X107651000Y-33837389D01*
X107651000Y-34162611D01*
X107629347Y-34271467D01*
X107587553Y-34481579D01*
X107463097Y-34782042D01*
X107438918Y-34818228D01*
X107282413Y-35052454D01*
X107052454Y-35282413D01*
X107052451Y-35282415D01*
X106782042Y-35463097D01*
X106481579Y-35587553D01*
X106375256Y-35608702D01*
X106162611Y-35651000D01*
X105837389Y-35651000D01*
X105624744Y-35608702D01*
X105518421Y-35587553D01*
X105217958Y-35463097D01*
X104947549Y-35282415D01*
X104947546Y-35282413D01*
X104717587Y-35052454D01*
X104561082Y-34818228D01*
X104536903Y-34782042D01*
X104412447Y-34481579D01*
X104370653Y-34271467D01*
X104349000Y-34162611D01*
X104349000Y-33837389D01*
X104412447Y-33518422D01*
X104536902Y-33217960D01*
X104567463Y-33172223D01*
X104717585Y-32947549D01*
X104717587Y-32947546D01*
X104947546Y-32717587D01*
X105164712Y-32572481D01*
X105217958Y-32536903D01*
X105518421Y-32412447D01*
X105624744Y-32391298D01*
X105837389Y-32349000D01*
X106162611Y-32349000D01*
X106375256Y-32391298D01*
X106375256Y-32391298D01*
G37*
G36*
X112628228Y-33751703D02*
X112783100Y-33815853D01*
X112922481Y-33908985D01*
X113041015Y-34027519D01*
X113134147Y-34166900D01*
X113198297Y-34321772D01*
X113231000Y-34486184D01*
X113231000Y-34653816D01*
X113198297Y-34818228D01*
X113134147Y-34973100D01*
X113041015Y-35112481D01*
X112922481Y-35231015D01*
X112783100Y-35324147D01*
X112628228Y-35388297D01*
X112463816Y-35421000D01*
X112296184Y-35421000D01*
X112131772Y-35388297D01*
X111976900Y-35324147D01*
X111837519Y-35231015D01*
X111718985Y-35112481D01*
X111625853Y-34973100D01*
X111561703Y-34818228D01*
X111529000Y-34653816D01*
X111529000Y-34486184D01*
X111561703Y-34321772D01*
X111625853Y-34166900D01*
X111718985Y-34027519D01*
X111837519Y-33908985D01*
X111976900Y-33815853D01*
X112131772Y-33751703D01*
X112296184Y-33719000D01*
X112463816Y-33719000D01*
X112628228Y-33751703D01*
X112628228Y-33751703D01*
G37*
G36*
X127868228Y-33751703D02*
X128023100Y-33815853D01*
X128162481Y-33908985D01*
X128281015Y-34027519D01*
X128374147Y-34166900D01*
X128438297Y-34321772D01*
X128471000Y-34486184D01*
X128471000Y-34653816D01*
X128438297Y-34818228D01*
X128374147Y-34973100D01*
X128281015Y-35112481D01*
X128162481Y-35231015D01*
X128023100Y-35324147D01*
X127868228Y-35388297D01*
X127703816Y-35421000D01*
X127536184Y-35421000D01*
X127371772Y-35388297D01*
X127216900Y-35324147D01*
X127077519Y-35231015D01*
X126958985Y-35112481D01*
X126865853Y-34973100D01*
X126801703Y-34818228D01*
X126769000Y-34653816D01*
X126769000Y-34486184D01*
X126801703Y-34321772D01*
X126865853Y-34166900D01*
X126958985Y-34027519D01*
X127077519Y-33908985D01*
X127216900Y-33815853D01*
X127371772Y-33751703D01*
X127536184Y-33719000D01*
X127703816Y-33719000D01*
X127868228Y-33751703D01*
X127868228Y-33751703D01*
G37*
G36*
X76695443Y-33030519D02*
X76761628Y-33037038D01*
X76874854Y-33071385D01*
X76931468Y-33088558D01*
X77070088Y-33162653D01*
X77087992Y-33172223D01*
X77123730Y-33201553D01*
X77225187Y-33284815D01*
X77308449Y-33386272D01*
X77337779Y-33422010D01*
X77337780Y-33422012D01*
X77421444Y-33578534D01*
X77421444Y-33578535D01*
X77472964Y-33748374D01*
X77490360Y-33925001D01*
X77472964Y-34101628D01*
X77454465Y-34162611D01*
X77421444Y-34271468D01*
X77347349Y-34410088D01*
X77337779Y-34427992D01*
X77308449Y-34463730D01*
X77225187Y-34565187D01*
X77123730Y-34648449D01*
X77087992Y-34677779D01*
X77087990Y-34677780D01*
X76931468Y-34761444D01*
X76874854Y-34778617D01*
X76761628Y-34812964D01*
X76695444Y-34819482D01*
X76629261Y-34826001D01*
X76540741Y-34826001D01*
X76474558Y-34819482D01*
X76408374Y-34812964D01*
X76295148Y-34778617D01*
X76238534Y-34761444D01*
X76082012Y-34677780D01*
X76082010Y-34677779D01*
X76046272Y-34648449D01*
X75944815Y-34565187D01*
X75861553Y-34463730D01*
X75832223Y-34427992D01*
X75822653Y-34410088D01*
X75748558Y-34271468D01*
X75715537Y-34162611D01*
X75697038Y-34101628D01*
X75679642Y-33925001D01*
X75697038Y-33748374D01*
X75748558Y-33578535D01*
X75748558Y-33578534D01*
X75832222Y-33422012D01*
X75832223Y-33422010D01*
X75861553Y-33386272D01*
X75944815Y-33284815D01*
X76046272Y-33201553D01*
X76082010Y-33172223D01*
X76099914Y-33162653D01*
X76238534Y-33088558D01*
X76295148Y-33071385D01*
X76408374Y-33037038D01*
X76474559Y-33030519D01*
X76540741Y-33024001D01*
X76629261Y-33024001D01*
X76695443Y-33030519D01*
X76695443Y-33030519D01*
G37*
G36*
X73095443Y-33030519D02*
X73161628Y-33037038D01*
X73274854Y-33071385D01*
X73331468Y-33088558D01*
X73470088Y-33162653D01*
X73487992Y-33172223D01*
X73523730Y-33201553D01*
X73625187Y-33284815D01*
X73708449Y-33386272D01*
X73737779Y-33422010D01*
X73737780Y-33422012D01*
X73821444Y-33578534D01*
X73821444Y-33578535D01*
X73872964Y-33748374D01*
X73890360Y-33925001D01*
X73872964Y-34101628D01*
X73854465Y-34162611D01*
X73821444Y-34271468D01*
X73747349Y-34410088D01*
X73737779Y-34427992D01*
X73708449Y-34463730D01*
X73625187Y-34565187D01*
X73523730Y-34648449D01*
X73487992Y-34677779D01*
X73487990Y-34677780D01*
X73331468Y-34761444D01*
X73274854Y-34778617D01*
X73161628Y-34812964D01*
X73095444Y-34819482D01*
X73029261Y-34826001D01*
X72940741Y-34826001D01*
X72874558Y-34819482D01*
X72808374Y-34812964D01*
X72695148Y-34778617D01*
X72638534Y-34761444D01*
X72482012Y-34677780D01*
X72482010Y-34677779D01*
X72446272Y-34648449D01*
X72344815Y-34565187D01*
X72261553Y-34463730D01*
X72232223Y-34427992D01*
X72222653Y-34410088D01*
X72148558Y-34271468D01*
X72115537Y-34162611D01*
X72097038Y-34101628D01*
X72079642Y-33925001D01*
X72097038Y-33748374D01*
X72148558Y-33578535D01*
X72148558Y-33578534D01*
X72232222Y-33422012D01*
X72232223Y-33422010D01*
X72261553Y-33386272D01*
X72344815Y-33284815D01*
X72446272Y-33201553D01*
X72482010Y-33172223D01*
X72499914Y-33162653D01*
X72638534Y-33088558D01*
X72695148Y-33071385D01*
X72808374Y-33037038D01*
X72874559Y-33030519D01*
X72940741Y-33024001D01*
X73029261Y-33024001D01*
X73095443Y-33030519D01*
X73095443Y-33030519D01*
G37*
G36*
X69495443Y-33030519D02*
X69561628Y-33037038D01*
X69674854Y-33071385D01*
X69731468Y-33088558D01*
X69870088Y-33162653D01*
X69887992Y-33172223D01*
X69923730Y-33201553D01*
X70025187Y-33284815D01*
X70108449Y-33386272D01*
X70137779Y-33422010D01*
X70137780Y-33422012D01*
X70221444Y-33578534D01*
X70221444Y-33578535D01*
X70272964Y-33748374D01*
X70290360Y-33925001D01*
X70272964Y-34101628D01*
X70254465Y-34162611D01*
X70221444Y-34271468D01*
X70147349Y-34410088D01*
X70137779Y-34427992D01*
X70108449Y-34463730D01*
X70025187Y-34565187D01*
X69923730Y-34648449D01*
X69887992Y-34677779D01*
X69887990Y-34677780D01*
X69731468Y-34761444D01*
X69674854Y-34778617D01*
X69561628Y-34812964D01*
X69495444Y-34819482D01*
X69429261Y-34826001D01*
X69340741Y-34826001D01*
X69274558Y-34819482D01*
X69208374Y-34812964D01*
X69095148Y-34778617D01*
X69038534Y-34761444D01*
X68882012Y-34677780D01*
X68882010Y-34677779D01*
X68846272Y-34648449D01*
X68744815Y-34565187D01*
X68661553Y-34463730D01*
X68632223Y-34427992D01*
X68622653Y-34410088D01*
X68548558Y-34271468D01*
X68515537Y-34162611D01*
X68497038Y-34101628D01*
X68479642Y-33925001D01*
X68497038Y-33748374D01*
X68548558Y-33578535D01*
X68548558Y-33578534D01*
X68632222Y-33422012D01*
X68632223Y-33422010D01*
X68661553Y-33386272D01*
X68744815Y-33284815D01*
X68846272Y-33201553D01*
X68882010Y-33172223D01*
X68899914Y-33162653D01*
X69038534Y-33088558D01*
X69095148Y-33071385D01*
X69208374Y-33037038D01*
X69274559Y-33030519D01*
X69340741Y-33024001D01*
X69429261Y-33024001D01*
X69495443Y-33030519D01*
X69495443Y-33030519D01*
G37*
G36*
X125328228Y-31211703D02*
X125483100Y-31275853D01*
X125622481Y-31368985D01*
X125741015Y-31487519D01*
X125834147Y-31626900D01*
X125898297Y-31781772D01*
X125931000Y-31946184D01*
X125931000Y-32113816D01*
X125898297Y-32278228D01*
X125834147Y-32433100D01*
X125741015Y-32572481D01*
X125622481Y-32691015D01*
X125483100Y-32784147D01*
X125328228Y-32848297D01*
X125163816Y-32881000D01*
X124996184Y-32881000D01*
X124831772Y-32848297D01*
X124676900Y-32784147D01*
X124537519Y-32691015D01*
X124418985Y-32572481D01*
X124325853Y-32433100D01*
X124261703Y-32278228D01*
X124229000Y-32113816D01*
X124229000Y-31946184D01*
X124261703Y-31781772D01*
X124325853Y-31626900D01*
X124418985Y-31487519D01*
X124537519Y-31368985D01*
X124676900Y-31275853D01*
X124831772Y-31211703D01*
X124996184Y-31179000D01*
X125163816Y-31179000D01*
X125328228Y-31211703D01*
X125328228Y-31211703D01*
G37*
G36*
X112628228Y-31211703D02*
X112783100Y-31275853D01*
X112922481Y-31368985D01*
X113041015Y-31487519D01*
X113134147Y-31626900D01*
X113198297Y-31781772D01*
X113231000Y-31946184D01*
X113231000Y-32113816D01*
X113198297Y-32278228D01*
X113134147Y-32433100D01*
X113041015Y-32572481D01*
X112922481Y-32691015D01*
X112783100Y-32784147D01*
X112628228Y-32848297D01*
X112463816Y-32881000D01*
X112296184Y-32881000D01*
X112131772Y-32848297D01*
X111976900Y-32784147D01*
X111837519Y-32691015D01*
X111718985Y-32572481D01*
X111625853Y-32433100D01*
X111561703Y-32278228D01*
X111529000Y-32113816D01*
X111529000Y-31946184D01*
X111561703Y-31781772D01*
X111625853Y-31626900D01*
X111718985Y-31487519D01*
X111837519Y-31368985D01*
X111976900Y-31275853D01*
X112131772Y-31211703D01*
X112296184Y-31179000D01*
X112463816Y-31179000D01*
X112628228Y-31211703D01*
X112628228Y-31211703D01*
G37*
G36*
X127868228Y-31211703D02*
X128023100Y-31275853D01*
X128162481Y-31368985D01*
X128281015Y-31487519D01*
X128374147Y-31626900D01*
X128438297Y-31781772D01*
X128471000Y-31946184D01*
X128471000Y-32113816D01*
X128438297Y-32278228D01*
X128374147Y-32433100D01*
X128281015Y-32572481D01*
X128162481Y-32691015D01*
X128023100Y-32784147D01*
X127868228Y-32848297D01*
X127703816Y-32881000D01*
X127536184Y-32881000D01*
X127371772Y-32848297D01*
X127216900Y-32784147D01*
X127077519Y-32691015D01*
X126958985Y-32572481D01*
X126865853Y-32433100D01*
X126801703Y-32278228D01*
X126769000Y-32113816D01*
X126769000Y-31946184D01*
X126801703Y-31781772D01*
X126865853Y-31626900D01*
X126958985Y-31487519D01*
X127077519Y-31368985D01*
X127216900Y-31275853D01*
X127371772Y-31211703D01*
X127536184Y-31179000D01*
X127703816Y-31179000D01*
X127868228Y-31211703D01*
X127868228Y-31211703D01*
G37*
G36*
X76695443Y-30490519D02*
X76761628Y-30497038D01*
X76874854Y-30531385D01*
X76931468Y-30548558D01*
X77070088Y-30622653D01*
X77087992Y-30632223D01*
X77123730Y-30661553D01*
X77225187Y-30744815D01*
X77308449Y-30846272D01*
X77337779Y-30882010D01*
X77337780Y-30882012D01*
X77421444Y-31038534D01*
X77421444Y-31038535D01*
X77472964Y-31208374D01*
X77490360Y-31385001D01*
X77472964Y-31561628D01*
X77453164Y-31626900D01*
X77421444Y-31731468D01*
X77347349Y-31870088D01*
X77337779Y-31887992D01*
X77308449Y-31923730D01*
X77225187Y-32025187D01*
X77123730Y-32108449D01*
X77087992Y-32137779D01*
X77087990Y-32137780D01*
X76931468Y-32221444D01*
X76874854Y-32238617D01*
X76761628Y-32272964D01*
X76695443Y-32279483D01*
X76629261Y-32286001D01*
X76540741Y-32286001D01*
X76474559Y-32279483D01*
X76408374Y-32272964D01*
X76295148Y-32238617D01*
X76238534Y-32221444D01*
X76082012Y-32137780D01*
X76082010Y-32137779D01*
X76046272Y-32108449D01*
X75944815Y-32025187D01*
X75861553Y-31923730D01*
X75832223Y-31887992D01*
X75822653Y-31870088D01*
X75748558Y-31731468D01*
X75716838Y-31626900D01*
X75697038Y-31561628D01*
X75679642Y-31385001D01*
X75697038Y-31208374D01*
X75748558Y-31038535D01*
X75748558Y-31038534D01*
X75832222Y-30882012D01*
X75832223Y-30882010D01*
X75861553Y-30846272D01*
X75944815Y-30744815D01*
X76046272Y-30661553D01*
X76082010Y-30632223D01*
X76099914Y-30622653D01*
X76238534Y-30548558D01*
X76295148Y-30531385D01*
X76408374Y-30497038D01*
X76474559Y-30490519D01*
X76540741Y-30484001D01*
X76629261Y-30484001D01*
X76695443Y-30490519D01*
X76695443Y-30490519D01*
G37*
G36*
X69495443Y-30490519D02*
X69561628Y-30497038D01*
X69674854Y-30531385D01*
X69731468Y-30548558D01*
X69870088Y-30622653D01*
X69887992Y-30632223D01*
X69923730Y-30661553D01*
X70025187Y-30744815D01*
X70108449Y-30846272D01*
X70137779Y-30882010D01*
X70137780Y-30882012D01*
X70221444Y-31038534D01*
X70221444Y-31038535D01*
X70272964Y-31208374D01*
X70290360Y-31385001D01*
X70272964Y-31561628D01*
X70253164Y-31626900D01*
X70221444Y-31731468D01*
X70147349Y-31870088D01*
X70137779Y-31887992D01*
X70108449Y-31923730D01*
X70025187Y-32025187D01*
X69923730Y-32108449D01*
X69887992Y-32137779D01*
X69887990Y-32137780D01*
X69731468Y-32221444D01*
X69674854Y-32238617D01*
X69561628Y-32272964D01*
X69495443Y-32279483D01*
X69429261Y-32286001D01*
X69340741Y-32286001D01*
X69274559Y-32279483D01*
X69208374Y-32272964D01*
X69095148Y-32238617D01*
X69038534Y-32221444D01*
X68882012Y-32137780D01*
X68882010Y-32137779D01*
X68846272Y-32108449D01*
X68744815Y-32025187D01*
X68661553Y-31923730D01*
X68632223Y-31887992D01*
X68622653Y-31870088D01*
X68548558Y-31731468D01*
X68516838Y-31626900D01*
X68497038Y-31561628D01*
X68479642Y-31385001D01*
X68497038Y-31208374D01*
X68548558Y-31038535D01*
X68548558Y-31038534D01*
X68632222Y-30882012D01*
X68632223Y-30882010D01*
X68661553Y-30846272D01*
X68744815Y-30744815D01*
X68846272Y-30661553D01*
X68882010Y-30632223D01*
X68899914Y-30622653D01*
X69038534Y-30548558D01*
X69095148Y-30531385D01*
X69208374Y-30497038D01*
X69274559Y-30490519D01*
X69340741Y-30484001D01*
X69429261Y-30484001D01*
X69495443Y-30490519D01*
X69495443Y-30490519D01*
G37*
G36*
X73095443Y-30490519D02*
X73161628Y-30497038D01*
X73274854Y-30531385D01*
X73331468Y-30548558D01*
X73470088Y-30622653D01*
X73487992Y-30632223D01*
X73523730Y-30661553D01*
X73625187Y-30744815D01*
X73708449Y-30846272D01*
X73737779Y-30882010D01*
X73737780Y-30882012D01*
X73821444Y-31038534D01*
X73821444Y-31038535D01*
X73872964Y-31208374D01*
X73890360Y-31385001D01*
X73872964Y-31561628D01*
X73853164Y-31626900D01*
X73821444Y-31731468D01*
X73747349Y-31870088D01*
X73737779Y-31887992D01*
X73708449Y-31923730D01*
X73625187Y-32025187D01*
X73523730Y-32108449D01*
X73487992Y-32137779D01*
X73487990Y-32137780D01*
X73331468Y-32221444D01*
X73274854Y-32238617D01*
X73161628Y-32272964D01*
X73095443Y-32279483D01*
X73029261Y-32286001D01*
X72940741Y-32286001D01*
X72874559Y-32279483D01*
X72808374Y-32272964D01*
X72695148Y-32238617D01*
X72638534Y-32221444D01*
X72482012Y-32137780D01*
X72482010Y-32137779D01*
X72446272Y-32108449D01*
X72344815Y-32025187D01*
X72261553Y-31923730D01*
X72232223Y-31887992D01*
X72222653Y-31870088D01*
X72148558Y-31731468D01*
X72116838Y-31626900D01*
X72097038Y-31561628D01*
X72079642Y-31385001D01*
X72097038Y-31208374D01*
X72148558Y-31038535D01*
X72148558Y-31038534D01*
X72232222Y-30882012D01*
X72232223Y-30882010D01*
X72261553Y-30846272D01*
X72344815Y-30744815D01*
X72446272Y-30661553D01*
X72482010Y-30632223D01*
X72499914Y-30622653D01*
X72638534Y-30548558D01*
X72695148Y-30531385D01*
X72808374Y-30497038D01*
X72874559Y-30490519D01*
X72940741Y-30484001D01*
X73029261Y-30484001D01*
X73095443Y-30490519D01*
X73095443Y-30490519D01*
G37*
G36*
X113231000Y-30341000D02*
X111529000Y-30341000D01*
X111529000Y-28639000D01*
X113231000Y-28639000D01*
X113231000Y-30341000D01*
X113231000Y-30341000D01*
G37*
G36*
X127868228Y-28671703D02*
X128023100Y-28735853D01*
X128162481Y-28828985D01*
X128281015Y-28947519D01*
X128374147Y-29086900D01*
X128438297Y-29241772D01*
X128471000Y-29406184D01*
X128471000Y-29573816D01*
X128438297Y-29738228D01*
X128374147Y-29893100D01*
X128281015Y-30032481D01*
X128162481Y-30151015D01*
X128023100Y-30244147D01*
X127868228Y-30308297D01*
X127703816Y-30341000D01*
X127536184Y-30341000D01*
X127371772Y-30308297D01*
X127216900Y-30244147D01*
X127077519Y-30151015D01*
X126958985Y-30032481D01*
X126865853Y-29893100D01*
X126801703Y-29738228D01*
X126769000Y-29573816D01*
X126769000Y-29406184D01*
X126801703Y-29241772D01*
X126865853Y-29086900D01*
X126958985Y-28947519D01*
X127077519Y-28828985D01*
X127216900Y-28735853D01*
X127371772Y-28671703D01*
X127536184Y-28639000D01*
X127703816Y-28639000D01*
X127868228Y-28671703D01*
X127868228Y-28671703D01*
G37*
G36*
X70286001Y-29746001D02*
X68484001Y-29746001D01*
X68484001Y-27944001D01*
X70286001Y-27944001D01*
X70286001Y-29746001D01*
X70286001Y-29746001D01*
G37*
G36*
X73886001Y-29746001D02*
X72084001Y-29746001D01*
X72084001Y-27944001D01*
X73886001Y-27944001D01*
X73886001Y-29746001D01*
X73886001Y-29746001D01*
G37*
G36*
X77486001Y-29746001D02*
X75684001Y-29746001D01*
X75684001Y-27944001D01*
X77486001Y-27944001D01*
X77486001Y-29746001D01*
X77486001Y-29746001D01*
G37*
M02*
