G04 #@! TF.GenerationSoftware,KiCad,Pcbnew,(5.0.1)-3*
G04 #@! TF.CreationDate,2020-04-01T16:59:10+01:00*
G04 #@! TF.ProjectId,testsmt,74657374736D742E6B696361645F7063,rev?*
G04 #@! TF.SameCoordinates,Original*
G04 #@! TF.FileFunction,Legend,Top*
G04 #@! TF.FilePolarity,Positive*
%FSLAX46Y46*%
G04 Gerber Fmt 4.6, Leading zero omitted, Abs format (unit mm)*
G04 Created by KiCad (PCBNEW (5.0.1)-3) date 01/04/2020 16:59:10*
%MOMM*%
%LPD*%
G01*
G04 APERTURE LIST*
%ADD10C,0.300000*%
%ADD11C,0.500000*%
%ADD12C,0.120000*%
%ADD13C,0.150000*%
G04 APERTURE END LIST*
D10*
X60052142Y-84403571D02*
X60052142Y-82903571D01*
X60052142Y-83475000D02*
X60195000Y-83403571D01*
X60480714Y-83403571D01*
X60623571Y-83475000D01*
X60695000Y-83546428D01*
X60766428Y-83689285D01*
X60766428Y-84117857D01*
X60695000Y-84260714D01*
X60623571Y-84332142D01*
X60480714Y-84403571D01*
X60195000Y-84403571D01*
X60052142Y-84332142D01*
X61266428Y-83403571D02*
X61623571Y-84403571D01*
X61980714Y-83403571D02*
X61623571Y-84403571D01*
X61480714Y-84760714D01*
X61409285Y-84832142D01*
X61266428Y-84903571D01*
X63695000Y-84403571D02*
X63695000Y-82903571D01*
X64195000Y-83975000D01*
X64695000Y-82903571D01*
X64695000Y-84403571D01*
X66052142Y-84403571D02*
X66052142Y-83617857D01*
X65980714Y-83475000D01*
X65837857Y-83403571D01*
X65552142Y-83403571D01*
X65409285Y-83475000D01*
X66052142Y-84332142D02*
X65909285Y-84403571D01*
X65552142Y-84403571D01*
X65409285Y-84332142D01*
X65337857Y-84189285D01*
X65337857Y-84046428D01*
X65409285Y-83903571D01*
X65552142Y-83832142D01*
X65909285Y-83832142D01*
X66052142Y-83760714D01*
X66552142Y-83403571D02*
X67123571Y-83403571D01*
X66766428Y-82903571D02*
X66766428Y-84189285D01*
X66837857Y-84332142D01*
X66980714Y-84403571D01*
X67123571Y-84403571D01*
X67409285Y-83403571D02*
X67980714Y-83403571D01*
X67623571Y-82903571D02*
X67623571Y-84189285D01*
X67695000Y-84332142D01*
X67837857Y-84403571D01*
X67980714Y-84403571D01*
X60552142Y-86167857D02*
X60766428Y-86239285D01*
X60837857Y-86310714D01*
X60909285Y-86453571D01*
X60909285Y-86667857D01*
X60837857Y-86810714D01*
X60766428Y-86882142D01*
X60623571Y-86953571D01*
X60052142Y-86953571D01*
X60052142Y-85453571D01*
X60552142Y-85453571D01*
X60695000Y-85525000D01*
X60766428Y-85596428D01*
X60837857Y-85739285D01*
X60837857Y-85882142D01*
X60766428Y-86025000D01*
X60695000Y-86096428D01*
X60552142Y-86167857D01*
X60052142Y-86167857D01*
X61552142Y-86953571D02*
X61552142Y-85953571D01*
X61552142Y-86239285D02*
X61623571Y-86096428D01*
X61695000Y-86025000D01*
X61837857Y-85953571D01*
X61980714Y-85953571D01*
X63123571Y-86953571D02*
X63123571Y-86167857D01*
X63052142Y-86025000D01*
X62909285Y-85953571D01*
X62623571Y-85953571D01*
X62480714Y-86025000D01*
X63123571Y-86882142D02*
X62980714Y-86953571D01*
X62623571Y-86953571D01*
X62480714Y-86882142D01*
X62409285Y-86739285D01*
X62409285Y-86596428D01*
X62480714Y-86453571D01*
X62623571Y-86382142D01*
X62980714Y-86382142D01*
X63123571Y-86310714D01*
X64480714Y-86953571D02*
X64480714Y-85453571D01*
X64480714Y-86882142D02*
X64337857Y-86953571D01*
X64052142Y-86953571D01*
X63909285Y-86882142D01*
X63837857Y-86810714D01*
X63766428Y-86667857D01*
X63766428Y-86239285D01*
X63837857Y-86096428D01*
X63909285Y-86025000D01*
X64052142Y-85953571D01*
X64337857Y-85953571D01*
X64480714Y-86025000D01*
X65123571Y-86882142D02*
X65266428Y-86953571D01*
X65552142Y-86953571D01*
X65695000Y-86882142D01*
X65766428Y-86739285D01*
X65766428Y-86667857D01*
X65695000Y-86525000D01*
X65552142Y-86453571D01*
X65337857Y-86453571D01*
X65195000Y-86382142D01*
X65123571Y-86239285D01*
X65123571Y-86167857D01*
X65195000Y-86025000D01*
X65337857Y-85953571D01*
X65552142Y-85953571D01*
X65695000Y-86025000D01*
X66409285Y-86953571D02*
X66409285Y-85453571D01*
X67052142Y-86953571D02*
X67052142Y-86167857D01*
X66980714Y-86025000D01*
X66837857Y-85953571D01*
X66623571Y-85953571D01*
X66480714Y-86025000D01*
X66409285Y-86096428D01*
X68409285Y-86953571D02*
X68409285Y-86167857D01*
X68337857Y-86025000D01*
X68195000Y-85953571D01*
X67909285Y-85953571D01*
X67766428Y-86025000D01*
X68409285Y-86882142D02*
X68266428Y-86953571D01*
X67909285Y-86953571D01*
X67766428Y-86882142D01*
X67695000Y-86739285D01*
X67695000Y-86596428D01*
X67766428Y-86453571D01*
X67909285Y-86382142D01*
X68266428Y-86382142D01*
X68409285Y-86310714D01*
X68980714Y-85953571D02*
X69266428Y-86953571D01*
X69552142Y-86239285D01*
X69837857Y-86953571D01*
X70123571Y-85953571D01*
D11*
X59920238Y-78964285D02*
X59920238Y-81464285D01*
X59920238Y-79083333D02*
X60158333Y-78964285D01*
X60634523Y-78964285D01*
X60872619Y-79083333D01*
X60991666Y-79202380D01*
X61110714Y-79440476D01*
X61110714Y-80154761D01*
X60991666Y-80392857D01*
X60872619Y-80511904D01*
X60634523Y-80630952D01*
X60158333Y-80630952D01*
X59920238Y-80511904D01*
X62539285Y-80630952D02*
X62301190Y-80511904D01*
X62182142Y-80392857D01*
X62063095Y-80154761D01*
X62063095Y-79440476D01*
X62182142Y-79202380D01*
X62301190Y-79083333D01*
X62539285Y-78964285D01*
X62896428Y-78964285D01*
X63134523Y-79083333D01*
X63253571Y-79202380D01*
X63372619Y-79440476D01*
X63372619Y-80154761D01*
X63253571Y-80392857D01*
X63134523Y-80511904D01*
X62896428Y-80630952D01*
X62539285Y-80630952D01*
X64801190Y-80630952D02*
X64563095Y-80511904D01*
X64444047Y-80273809D01*
X64444047Y-78130952D01*
X65515476Y-78964285D02*
X66110714Y-80630952D01*
X66705952Y-78964285D02*
X66110714Y-80630952D01*
X65872619Y-81226190D01*
X65753571Y-81345238D01*
X65515476Y-81464285D01*
X67658333Y-80630952D02*
X67658333Y-78964285D01*
X67658333Y-79202380D02*
X67777380Y-79083333D01*
X68015476Y-78964285D01*
X68372619Y-78964285D01*
X68610714Y-79083333D01*
X68729761Y-79321428D01*
X68729761Y-80630952D01*
X68729761Y-79321428D02*
X68848809Y-79083333D01*
X69086904Y-78964285D01*
X69444047Y-78964285D01*
X69682142Y-79083333D01*
X69801190Y-79321428D01*
X69801190Y-80630952D01*
X71348809Y-80630952D02*
X71110714Y-80511904D01*
X70991666Y-80392857D01*
X70872619Y-80154761D01*
X70872619Y-79440476D01*
X70991666Y-79202380D01*
X71110714Y-79083333D01*
X71348809Y-78964285D01*
X71705952Y-78964285D01*
X71944047Y-79083333D01*
X72063095Y-79202380D01*
X72182142Y-79440476D01*
X72182142Y-80154761D01*
X72063095Y-80392857D01*
X71944047Y-80511904D01*
X71705952Y-80630952D01*
X71348809Y-80630952D01*
X74325000Y-80630952D02*
X74325000Y-78130952D01*
X74325000Y-80511904D02*
X74086904Y-80630952D01*
X73610714Y-80630952D01*
X73372619Y-80511904D01*
X73253571Y-80392857D01*
X73134523Y-80154761D01*
X73134523Y-79440476D01*
X73253571Y-79202380D01*
X73372619Y-79083333D01*
X73610714Y-78964285D01*
X74086904Y-78964285D01*
X74325000Y-79083333D01*
X77420238Y-80630952D02*
X77420238Y-78964285D01*
X77420238Y-79202380D02*
X77539285Y-79083333D01*
X77777380Y-78964285D01*
X78134523Y-78964285D01*
X78372619Y-79083333D01*
X78491666Y-79321428D01*
X78491666Y-80630952D01*
X78491666Y-79321428D02*
X78610714Y-79083333D01*
X78848809Y-78964285D01*
X79205952Y-78964285D01*
X79444047Y-79083333D01*
X79563095Y-79321428D01*
X79563095Y-80630952D01*
X80753571Y-80630952D02*
X80753571Y-78964285D01*
X80753571Y-78130952D02*
X80634523Y-78250000D01*
X80753571Y-78369047D01*
X80872619Y-78250000D01*
X80753571Y-78130952D01*
X80753571Y-78369047D01*
X81944047Y-78964285D02*
X81944047Y-80630952D01*
X81944047Y-79202380D02*
X82063095Y-79083333D01*
X82301190Y-78964285D01*
X82658333Y-78964285D01*
X82896428Y-79083333D01*
X83015476Y-79321428D01*
X83015476Y-80630952D01*
X84205952Y-80630952D02*
X84205952Y-78964285D01*
X84205952Y-78130952D02*
X84086904Y-78250000D01*
X84205952Y-78369047D01*
X84325000Y-78250000D01*
X84205952Y-78130952D01*
X84205952Y-78369047D01*
X87063095Y-78964285D02*
X87658333Y-80630952D01*
X88253571Y-78964285D01*
X90515476Y-80630952D02*
X89086904Y-80630952D01*
X89801190Y-80630952D02*
X89801190Y-78130952D01*
X89563095Y-78488095D01*
X89324999Y-78726190D01*
X89086904Y-78845238D01*
D10*
X74750000Y-88678571D02*
X74035714Y-88678571D01*
X74035714Y-87178571D01*
X75750000Y-87892857D02*
X75250000Y-87892857D01*
X75250000Y-88678571D02*
X75250000Y-87178571D01*
X75964285Y-87178571D01*
X76821428Y-87178571D02*
X77107142Y-87178571D01*
X77250000Y-87250000D01*
X77392857Y-87392857D01*
X77464285Y-87678571D01*
X77464285Y-88178571D01*
X77392857Y-88464285D01*
X77250000Y-88607142D01*
X77107142Y-88678571D01*
X76821428Y-88678571D01*
X76678571Y-88607142D01*
X76535714Y-88464285D01*
X76464285Y-88178571D01*
X76464285Y-87678571D01*
X76535714Y-87392857D01*
X76678571Y-87250000D01*
X76821428Y-87178571D01*
X79035714Y-87678571D02*
X79607142Y-87678571D01*
X79250000Y-88678571D02*
X79250000Y-87392857D01*
X79321428Y-87250000D01*
X79464285Y-87178571D01*
X79607142Y-87178571D01*
X80107142Y-88678571D02*
X80107142Y-87678571D01*
X80107142Y-87964285D02*
X80178571Y-87821428D01*
X80250000Y-87750000D01*
X80392857Y-87678571D01*
X80535714Y-87678571D01*
X81607142Y-88607142D02*
X81464285Y-88678571D01*
X81178571Y-88678571D01*
X81035714Y-88607142D01*
X80964285Y-88464285D01*
X80964285Y-87892857D01*
X81035714Y-87750000D01*
X81178571Y-87678571D01*
X81464285Y-87678571D01*
X81607142Y-87750000D01*
X81678571Y-87892857D01*
X81678571Y-88035714D01*
X80964285Y-88178571D01*
X82964285Y-87678571D02*
X82964285Y-89178571D01*
X82964285Y-88607142D02*
X82821428Y-88678571D01*
X82535714Y-88678571D01*
X82392857Y-88607142D01*
X82321428Y-88535714D01*
X82250000Y-88392857D01*
X82250000Y-87964285D01*
X82321428Y-87821428D01*
X82392857Y-87750000D01*
X82535714Y-87678571D01*
X82821428Y-87678571D01*
X82964285Y-87750000D01*
X101821428Y-93535714D02*
X101750000Y-93607142D01*
X101535714Y-93678571D01*
X101392857Y-93678571D01*
X101178571Y-93607142D01*
X101035714Y-93464285D01*
X100964285Y-93321428D01*
X100892857Y-93035714D01*
X100892857Y-92821428D01*
X100964285Y-92535714D01*
X101035714Y-92392857D01*
X101178571Y-92250000D01*
X101392857Y-92178571D01*
X101535714Y-92178571D01*
X101750000Y-92250000D01*
X101821428Y-92321428D01*
X103107142Y-92678571D02*
X103107142Y-93678571D01*
X102464285Y-92678571D02*
X102464285Y-93464285D01*
X102535714Y-93607142D01*
X102678571Y-93678571D01*
X102892857Y-93678571D01*
X103035714Y-93607142D01*
X103107142Y-93535714D01*
X103607142Y-92678571D02*
X104178571Y-92678571D01*
X103821428Y-92178571D02*
X103821428Y-93464285D01*
X103892857Y-93607142D01*
X104035714Y-93678571D01*
X104178571Y-93678571D01*
X104892857Y-93678571D02*
X104750000Y-93607142D01*
X104678571Y-93535714D01*
X104607142Y-93392857D01*
X104607142Y-92964285D01*
X104678571Y-92821428D01*
X104750000Y-92750000D01*
X104892857Y-92678571D01*
X105107142Y-92678571D01*
X105250000Y-92750000D01*
X105321428Y-92821428D01*
X105392857Y-92964285D01*
X105392857Y-93392857D01*
X105321428Y-93535714D01*
X105250000Y-93607142D01*
X105107142Y-93678571D01*
X104892857Y-93678571D01*
X105821428Y-92678571D02*
X106392857Y-92678571D01*
X106035714Y-93678571D02*
X106035714Y-92392857D01*
X106107142Y-92250000D01*
X106250000Y-92178571D01*
X106392857Y-92178571D01*
X106678571Y-92678571D02*
X107250000Y-92678571D01*
X106892857Y-93678571D02*
X106892857Y-92392857D01*
X106964285Y-92250000D01*
X107107142Y-92178571D01*
X107250000Y-92178571D01*
X134357142Y-123678571D02*
X133857142Y-122964285D01*
X133500000Y-123678571D02*
X133500000Y-122178571D01*
X134071428Y-122178571D01*
X134214285Y-122250000D01*
X134285714Y-122321428D01*
X134357142Y-122464285D01*
X134357142Y-122678571D01*
X134285714Y-122821428D01*
X134214285Y-122892857D01*
X134071428Y-122964285D01*
X133500000Y-122964285D01*
X135571428Y-123607142D02*
X135428571Y-123678571D01*
X135142857Y-123678571D01*
X135000000Y-123607142D01*
X134928571Y-123464285D01*
X134928571Y-122892857D01*
X135000000Y-122750000D01*
X135142857Y-122678571D01*
X135428571Y-122678571D01*
X135571428Y-122750000D01*
X135642857Y-122892857D01*
X135642857Y-123035714D01*
X134928571Y-123178571D01*
X136500000Y-123678571D02*
X136357142Y-123607142D01*
X136285714Y-123464285D01*
X136285714Y-122178571D01*
X137642857Y-123607142D02*
X137500000Y-123678571D01*
X137214285Y-123678571D01*
X137071428Y-123607142D01*
X137000000Y-123464285D01*
X137000000Y-122892857D01*
X137071428Y-122750000D01*
X137214285Y-122678571D01*
X137500000Y-122678571D01*
X137642857Y-122750000D01*
X137714285Y-122892857D01*
X137714285Y-123035714D01*
X137000000Y-123178571D01*
X139000000Y-123678571D02*
X139000000Y-122892857D01*
X138928571Y-122750000D01*
X138785714Y-122678571D01*
X138500000Y-122678571D01*
X138357142Y-122750000D01*
X139000000Y-123607142D02*
X138857142Y-123678571D01*
X138500000Y-123678571D01*
X138357142Y-123607142D01*
X138285714Y-123464285D01*
X138285714Y-123321428D01*
X138357142Y-123178571D01*
X138500000Y-123107142D01*
X138857142Y-123107142D01*
X139000000Y-123035714D01*
X139642857Y-123607142D02*
X139785714Y-123678571D01*
X140071428Y-123678571D01*
X140214285Y-123607142D01*
X140285714Y-123464285D01*
X140285714Y-123392857D01*
X140214285Y-123250000D01*
X140071428Y-123178571D01*
X139857142Y-123178571D01*
X139714285Y-123107142D01*
X139642857Y-122964285D01*
X139642857Y-122892857D01*
X139714285Y-122750000D01*
X139857142Y-122678571D01*
X140071428Y-122678571D01*
X140214285Y-122750000D01*
X141500000Y-123607142D02*
X141357142Y-123678571D01*
X141071428Y-123678571D01*
X140928571Y-123607142D01*
X140857142Y-123464285D01*
X140857142Y-122892857D01*
X140928571Y-122750000D01*
X141071428Y-122678571D01*
X141357142Y-122678571D01*
X141500000Y-122750000D01*
X141571428Y-122892857D01*
X141571428Y-123035714D01*
X140857142Y-123178571D01*
X116642857Y-123607142D02*
X116857142Y-123678571D01*
X117214285Y-123678571D01*
X117357142Y-123607142D01*
X117428571Y-123535714D01*
X117500000Y-123392857D01*
X117500000Y-123250000D01*
X117428571Y-123107142D01*
X117357142Y-123035714D01*
X117214285Y-122964285D01*
X116928571Y-122892857D01*
X116785714Y-122821428D01*
X116714285Y-122750000D01*
X116642857Y-122607142D01*
X116642857Y-122464285D01*
X116714285Y-122321428D01*
X116785714Y-122250000D01*
X116928571Y-122178571D01*
X117285714Y-122178571D01*
X117500000Y-122250000D01*
X118785714Y-122678571D02*
X118785714Y-123678571D01*
X118142857Y-122678571D02*
X118142857Y-123464285D01*
X118214285Y-123607142D01*
X118357142Y-123678571D01*
X118571428Y-123678571D01*
X118714285Y-123607142D01*
X118785714Y-123535714D01*
X119428571Y-123607142D02*
X119571428Y-123678571D01*
X119857142Y-123678571D01*
X120000000Y-123607142D01*
X120071428Y-123464285D01*
X120071428Y-123392857D01*
X120000000Y-123250000D01*
X119857142Y-123178571D01*
X119642857Y-123178571D01*
X119500000Y-123107142D01*
X119428571Y-122964285D01*
X119428571Y-122892857D01*
X119500000Y-122750000D01*
X119642857Y-122678571D01*
X119857142Y-122678571D01*
X120000000Y-122750000D01*
X120500000Y-122678571D02*
X121071428Y-122678571D01*
X120714285Y-122178571D02*
X120714285Y-123464285D01*
X120785714Y-123607142D01*
X120928571Y-123678571D01*
X121071428Y-123678571D01*
X122214285Y-123678571D02*
X122214285Y-122892857D01*
X122142857Y-122750000D01*
X122000000Y-122678571D01*
X121714285Y-122678571D01*
X121571428Y-122750000D01*
X122214285Y-123607142D02*
X122071428Y-123678571D01*
X121714285Y-123678571D01*
X121571428Y-123607142D01*
X121500000Y-123464285D01*
X121500000Y-123321428D01*
X121571428Y-123178571D01*
X121714285Y-123107142D01*
X122071428Y-123107142D01*
X122214285Y-123035714D01*
X122928571Y-123678571D02*
X122928571Y-122678571D01*
X122928571Y-122178571D02*
X122857142Y-122250000D01*
X122928571Y-122321428D01*
X123000000Y-122250000D01*
X122928571Y-122178571D01*
X122928571Y-122321428D01*
X123642857Y-122678571D02*
X123642857Y-123678571D01*
X123642857Y-122821428D02*
X123714285Y-122750000D01*
X123857142Y-122678571D01*
X124071428Y-122678571D01*
X124214285Y-122750000D01*
X124285714Y-122892857D01*
X124285714Y-123678571D01*
X100571428Y-123678571D02*
X100571428Y-122178571D01*
X100928571Y-122178571D01*
X101142857Y-122250000D01*
X101285714Y-122392857D01*
X101357142Y-122535714D01*
X101428571Y-122821428D01*
X101428571Y-123035714D01*
X101357142Y-123321428D01*
X101285714Y-123464285D01*
X101142857Y-123607142D01*
X100928571Y-123678571D01*
X100571428Y-123678571D01*
X102642857Y-123607142D02*
X102500000Y-123678571D01*
X102214285Y-123678571D01*
X102071428Y-123607142D01*
X102000000Y-123464285D01*
X102000000Y-122892857D01*
X102071428Y-122750000D01*
X102214285Y-122678571D01*
X102500000Y-122678571D01*
X102642857Y-122750000D01*
X102714285Y-122892857D01*
X102714285Y-123035714D01*
X102000000Y-123178571D01*
X104000000Y-123607142D02*
X103857142Y-123678571D01*
X103571428Y-123678571D01*
X103428571Y-123607142D01*
X103357142Y-123535714D01*
X103285714Y-123392857D01*
X103285714Y-122964285D01*
X103357142Y-122821428D01*
X103428571Y-122750000D01*
X103571428Y-122678571D01*
X103857142Y-122678571D01*
X104000000Y-122750000D01*
X105285714Y-123678571D02*
X105285714Y-122892857D01*
X105214285Y-122750000D01*
X105071428Y-122678571D01*
X104785714Y-122678571D01*
X104642857Y-122750000D01*
X105285714Y-123607142D02*
X105142857Y-123678571D01*
X104785714Y-123678571D01*
X104642857Y-123607142D01*
X104571428Y-123464285D01*
X104571428Y-123321428D01*
X104642857Y-123178571D01*
X104785714Y-123107142D01*
X105142857Y-123107142D01*
X105285714Y-123035714D01*
X105857142Y-122678571D02*
X106214285Y-123678571D01*
X106571428Y-122678571D02*
X106214285Y-123678571D01*
X106071428Y-124035714D01*
X106000000Y-124107142D01*
X105857142Y-124178571D01*
X83357142Y-123250000D02*
X84071428Y-123250000D01*
X83214285Y-123678571D02*
X83714285Y-122178571D01*
X84214285Y-123678571D01*
X84500000Y-122678571D02*
X85071428Y-122678571D01*
X84714285Y-122178571D02*
X84714285Y-123464285D01*
X84785714Y-123607142D01*
X84928571Y-123678571D01*
X85071428Y-123678571D01*
X85357142Y-122678571D02*
X85928571Y-122678571D01*
X85571428Y-122178571D02*
X85571428Y-123464285D01*
X85642857Y-123607142D01*
X85785714Y-123678571D01*
X85928571Y-123678571D01*
X87071428Y-123678571D02*
X87071428Y-122892857D01*
X87000000Y-122750000D01*
X86857142Y-122678571D01*
X86571428Y-122678571D01*
X86428571Y-122750000D01*
X87071428Y-123607142D02*
X86928571Y-123678571D01*
X86571428Y-123678571D01*
X86428571Y-123607142D01*
X86357142Y-123464285D01*
X86357142Y-123321428D01*
X86428571Y-123178571D01*
X86571428Y-123107142D01*
X86928571Y-123107142D01*
X87071428Y-123035714D01*
X88428571Y-123607142D02*
X88285714Y-123678571D01*
X88000000Y-123678571D01*
X87857142Y-123607142D01*
X87785714Y-123535714D01*
X87714285Y-123392857D01*
X87714285Y-122964285D01*
X87785714Y-122821428D01*
X87857142Y-122750000D01*
X88000000Y-122678571D01*
X88285714Y-122678571D01*
X88428571Y-122750000D01*
X89071428Y-123678571D02*
X89071428Y-122178571D01*
X89214285Y-123107142D02*
X89642857Y-123678571D01*
X89642857Y-122678571D02*
X89071428Y-123250000D01*
X64714285Y-123678571D02*
X64214285Y-122964285D01*
X63857142Y-123678571D02*
X63857142Y-122178571D01*
X64428571Y-122178571D01*
X64571428Y-122250000D01*
X64642857Y-122321428D01*
X64714285Y-122464285D01*
X64714285Y-122678571D01*
X64642857Y-122821428D01*
X64571428Y-122892857D01*
X64428571Y-122964285D01*
X63857142Y-122964285D01*
X65928571Y-123607142D02*
X65785714Y-123678571D01*
X65500000Y-123678571D01*
X65357142Y-123607142D01*
X65285714Y-123464285D01*
X65285714Y-122892857D01*
X65357142Y-122750000D01*
X65500000Y-122678571D01*
X65785714Y-122678571D01*
X65928571Y-122750000D01*
X66000000Y-122892857D01*
X66000000Y-123035714D01*
X65285714Y-123178571D01*
X66571428Y-123607142D02*
X66714285Y-123678571D01*
X67000000Y-123678571D01*
X67142857Y-123607142D01*
X67214285Y-123464285D01*
X67214285Y-123392857D01*
X67142857Y-123250000D01*
X67000000Y-123178571D01*
X66785714Y-123178571D01*
X66642857Y-123107142D01*
X66571428Y-122964285D01*
X66571428Y-122892857D01*
X66642857Y-122750000D01*
X66785714Y-122678571D01*
X67000000Y-122678571D01*
X67142857Y-122750000D01*
X68071428Y-123678571D02*
X67928571Y-123607142D01*
X67857142Y-123535714D01*
X67785714Y-123392857D01*
X67785714Y-122964285D01*
X67857142Y-122821428D01*
X67928571Y-122750000D01*
X68071428Y-122678571D01*
X68285714Y-122678571D01*
X68428571Y-122750000D01*
X68500000Y-122821428D01*
X68571428Y-122964285D01*
X68571428Y-123392857D01*
X68500000Y-123535714D01*
X68428571Y-123607142D01*
X68285714Y-123678571D01*
X68071428Y-123678571D01*
X69214285Y-122678571D02*
X69214285Y-123678571D01*
X69214285Y-122821428D02*
X69285714Y-122750000D01*
X69428571Y-122678571D01*
X69642857Y-122678571D01*
X69785714Y-122750000D01*
X69857142Y-122892857D01*
X69857142Y-123678571D01*
X71214285Y-123678571D02*
X71214285Y-122892857D01*
X71142857Y-122750000D01*
X71000000Y-122678571D01*
X70714285Y-122678571D01*
X70571428Y-122750000D01*
X71214285Y-123607142D02*
X71071428Y-123678571D01*
X70714285Y-123678571D01*
X70571428Y-123607142D01*
X70500000Y-123464285D01*
X70500000Y-123321428D01*
X70571428Y-123178571D01*
X70714285Y-123107142D01*
X71071428Y-123107142D01*
X71214285Y-123035714D01*
X71928571Y-122678571D02*
X71928571Y-123678571D01*
X71928571Y-122821428D02*
X72000000Y-122750000D01*
X72142857Y-122678571D01*
X72357142Y-122678571D01*
X72500000Y-122750000D01*
X72571428Y-122892857D01*
X72571428Y-123678571D01*
X73928571Y-123607142D02*
X73785714Y-123678571D01*
X73500000Y-123678571D01*
X73357142Y-123607142D01*
X73285714Y-123535714D01*
X73214285Y-123392857D01*
X73214285Y-122964285D01*
X73285714Y-122821428D01*
X73357142Y-122750000D01*
X73500000Y-122678571D01*
X73785714Y-122678571D01*
X73928571Y-122750000D01*
X75142857Y-123607142D02*
X75000000Y-123678571D01*
X74714285Y-123678571D01*
X74571428Y-123607142D01*
X74500000Y-123464285D01*
X74500000Y-122892857D01*
X74571428Y-122750000D01*
X74714285Y-122678571D01*
X75000000Y-122678571D01*
X75142857Y-122750000D01*
X75214285Y-122892857D01*
X75214285Y-123035714D01*
X74500000Y-123178571D01*
X48021428Y-123607142D02*
X48235714Y-123678571D01*
X48592857Y-123678571D01*
X48735714Y-123607142D01*
X48807142Y-123535714D01*
X48878571Y-123392857D01*
X48878571Y-123250000D01*
X48807142Y-123107142D01*
X48735714Y-123035714D01*
X48592857Y-122964285D01*
X48307142Y-122892857D01*
X48164285Y-122821428D01*
X48092857Y-122750000D01*
X48021428Y-122607142D01*
X48021428Y-122464285D01*
X48092857Y-122321428D01*
X48164285Y-122250000D01*
X48307142Y-122178571D01*
X48664285Y-122178571D01*
X48878571Y-122250000D01*
X50164285Y-123678571D02*
X50164285Y-122892857D01*
X50092857Y-122750000D01*
X49950000Y-122678571D01*
X49664285Y-122678571D01*
X49521428Y-122750000D01*
X50164285Y-123607142D02*
X50021428Y-123678571D01*
X49664285Y-123678571D01*
X49521428Y-123607142D01*
X49450000Y-123464285D01*
X49450000Y-123321428D01*
X49521428Y-123178571D01*
X49664285Y-123107142D01*
X50021428Y-123107142D01*
X50164285Y-123035714D01*
X50735714Y-122678571D02*
X51021428Y-123678571D01*
X51307142Y-122964285D01*
X51592857Y-123678571D01*
X51878571Y-122678571D01*
X53378571Y-122678571D02*
X53950000Y-122678571D01*
X53592857Y-123678571D02*
X53592857Y-122392857D01*
X53664285Y-122250000D01*
X53807142Y-122178571D01*
X53950000Y-122178571D01*
X54450000Y-123678571D02*
X54450000Y-122678571D01*
X54450000Y-122964285D02*
X54521428Y-122821428D01*
X54592857Y-122750000D01*
X54735714Y-122678571D01*
X54878571Y-122678571D01*
X55950000Y-123607142D02*
X55807142Y-123678571D01*
X55521428Y-123678571D01*
X55378571Y-123607142D01*
X55307142Y-123464285D01*
X55307142Y-122892857D01*
X55378571Y-122750000D01*
X55521428Y-122678571D01*
X55807142Y-122678571D01*
X55950000Y-122750000D01*
X56021428Y-122892857D01*
X56021428Y-123035714D01*
X55307142Y-123178571D01*
X57307142Y-122678571D02*
X57307142Y-124178571D01*
X57307142Y-123607142D02*
X57164285Y-123678571D01*
X56878571Y-123678571D01*
X56735714Y-123607142D01*
X56664285Y-123535714D01*
X56592857Y-123392857D01*
X56592857Y-122964285D01*
X56664285Y-122821428D01*
X56735714Y-122750000D01*
X56878571Y-122678571D01*
X57164285Y-122678571D01*
X57307142Y-122750000D01*
X46378571Y-103278571D02*
X46378571Y-101778571D01*
X46735714Y-101778571D01*
X46949999Y-101850000D01*
X47092857Y-101992857D01*
X47164285Y-102135714D01*
X47235714Y-102421428D01*
X47235714Y-102635714D01*
X47164285Y-102921428D01*
X47092857Y-103064285D01*
X46949999Y-103207142D01*
X46735714Y-103278571D01*
X46378571Y-103278571D01*
X47807142Y-102850000D02*
X48521428Y-102850000D01*
X47664285Y-103278571D02*
X48164285Y-101778571D01*
X48664285Y-103278571D01*
X50021428Y-103135714D02*
X49949999Y-103207142D01*
X49735714Y-103278571D01*
X49592857Y-103278571D01*
X49378571Y-103207142D01*
X49235714Y-103064285D01*
X49164285Y-102921428D01*
X49092857Y-102635714D01*
X49092857Y-102421428D01*
X49164285Y-102135714D01*
X49235714Y-101992857D01*
X49378571Y-101850000D01*
X49592857Y-101778571D01*
X49735714Y-101778571D01*
X49949999Y-101850000D01*
X50021428Y-101921428D01*
X51664285Y-102278571D02*
X52021428Y-103278571D01*
X52378571Y-102278571D01*
X53164285Y-103278571D02*
X53021428Y-103207142D01*
X52949999Y-103135714D01*
X52878571Y-102992857D01*
X52878571Y-102564285D01*
X52949999Y-102421428D01*
X53021428Y-102350000D01*
X53164285Y-102278571D01*
X53378571Y-102278571D01*
X53521428Y-102350000D01*
X53592857Y-102421428D01*
X53664285Y-102564285D01*
X53664285Y-102992857D01*
X53592857Y-103135714D01*
X53521428Y-103207142D01*
X53378571Y-103278571D01*
X53164285Y-103278571D01*
X54521428Y-103278571D02*
X54378571Y-103207142D01*
X54307142Y-103064285D01*
X54307142Y-101778571D01*
X55735714Y-102278571D02*
X55735714Y-103278571D01*
X55092857Y-102278571D02*
X55092857Y-103064285D01*
X55164285Y-103207142D01*
X55307142Y-103278571D01*
X55521428Y-103278571D01*
X55664285Y-103207142D01*
X55735714Y-103135714D01*
X56449999Y-103278571D02*
X56449999Y-102278571D01*
X56449999Y-102421428D02*
X56521428Y-102350000D01*
X56664285Y-102278571D01*
X56878571Y-102278571D01*
X57021428Y-102350000D01*
X57092857Y-102492857D01*
X57092857Y-103278571D01*
X57092857Y-102492857D02*
X57164285Y-102350000D01*
X57307142Y-102278571D01*
X57521428Y-102278571D01*
X57664285Y-102350000D01*
X57735714Y-102492857D01*
X57735714Y-103278571D01*
X59021428Y-103207142D02*
X58878571Y-103278571D01*
X58592857Y-103278571D01*
X58449999Y-103207142D01*
X58378571Y-103064285D01*
X58378571Y-102492857D01*
X58449999Y-102350000D01*
X58592857Y-102278571D01*
X58878571Y-102278571D01*
X59021428Y-102350000D01*
X59092857Y-102492857D01*
X59092857Y-102635714D01*
X58378571Y-102778571D01*
X79966428Y-29553571D02*
X79252142Y-29553571D01*
X79252142Y-28053571D01*
X80966428Y-28767857D02*
X80466428Y-28767857D01*
X80466428Y-29553571D02*
X80466428Y-28053571D01*
X81180714Y-28053571D01*
X82037857Y-28053571D02*
X82323571Y-28053571D01*
X82466428Y-28125000D01*
X82609285Y-28267857D01*
X82680714Y-28553571D01*
X82680714Y-29053571D01*
X82609285Y-29339285D01*
X82466428Y-29482142D01*
X82323571Y-29553571D01*
X82037857Y-29553571D01*
X81895000Y-29482142D01*
X81752142Y-29339285D01*
X81680714Y-29053571D01*
X81680714Y-28553571D01*
X81752142Y-28267857D01*
X81895000Y-28125000D01*
X82037857Y-28053571D01*
X84895000Y-30125000D02*
X84823571Y-30053571D01*
X84680714Y-29839285D01*
X84609285Y-29696428D01*
X84537857Y-29482142D01*
X84466428Y-29125000D01*
X84466428Y-28839285D01*
X84537857Y-28482142D01*
X84609285Y-28267857D01*
X84680714Y-28125000D01*
X84823571Y-27910714D01*
X84895000Y-27839285D01*
X85680714Y-29553571D02*
X85537857Y-29482142D01*
X85466428Y-29410714D01*
X85395000Y-29267857D01*
X85395000Y-28839285D01*
X85466428Y-28696428D01*
X85537857Y-28625000D01*
X85680714Y-28553571D01*
X85895000Y-28553571D01*
X86037857Y-28625000D01*
X86109285Y-28696428D01*
X86180714Y-28839285D01*
X86180714Y-29267857D01*
X86109285Y-29410714D01*
X86037857Y-29482142D01*
X85895000Y-29553571D01*
X85680714Y-29553571D01*
X87466428Y-28553571D02*
X87466428Y-29553571D01*
X86823571Y-28553571D02*
X86823571Y-29339285D01*
X86895000Y-29482142D01*
X87037857Y-29553571D01*
X87252142Y-29553571D01*
X87395000Y-29482142D01*
X87466428Y-29410714D01*
X87966428Y-28553571D02*
X88537857Y-28553571D01*
X88180714Y-28053571D02*
X88180714Y-29339285D01*
X88252142Y-29482142D01*
X88395000Y-29553571D01*
X88537857Y-29553571D01*
X88895000Y-30125000D02*
X88966428Y-30053571D01*
X89109285Y-29839285D01*
X89180714Y-29696428D01*
X89252142Y-29482142D01*
X89323571Y-29125000D01*
X89323571Y-28839285D01*
X89252142Y-28482142D01*
X89180714Y-28267857D01*
X89109285Y-28125000D01*
X88966428Y-27910714D01*
X88895000Y-27839285D01*
X79180714Y-32032142D02*
X79395000Y-32103571D01*
X79752142Y-32103571D01*
X79895000Y-32032142D01*
X79966428Y-31960714D01*
X80037857Y-31817857D01*
X80037857Y-31675000D01*
X79966428Y-31532142D01*
X79895000Y-31460714D01*
X79752142Y-31389285D01*
X79466428Y-31317857D01*
X79323571Y-31246428D01*
X79252142Y-31175000D01*
X79180714Y-31032142D01*
X79180714Y-30889285D01*
X79252142Y-30746428D01*
X79323571Y-30675000D01*
X79466428Y-30603571D01*
X79823571Y-30603571D01*
X80037857Y-30675000D01*
X81323571Y-32103571D02*
X81323571Y-31317857D01*
X81252142Y-31175000D01*
X81109285Y-31103571D01*
X80823571Y-31103571D01*
X80680714Y-31175000D01*
X81323571Y-32032142D02*
X81180714Y-32103571D01*
X80823571Y-32103571D01*
X80680714Y-32032142D01*
X80609285Y-31889285D01*
X80609285Y-31746428D01*
X80680714Y-31603571D01*
X80823571Y-31532142D01*
X81180714Y-31532142D01*
X81323571Y-31460714D01*
X81895000Y-31103571D02*
X82180714Y-32103571D01*
X82466428Y-31389285D01*
X82752142Y-32103571D01*
X83037857Y-31103571D01*
X85180714Y-32675000D02*
X85109285Y-32603571D01*
X84966428Y-32389285D01*
X84895000Y-32246428D01*
X84823571Y-32032142D01*
X84752142Y-31675000D01*
X84752142Y-31389285D01*
X84823571Y-31032142D01*
X84895000Y-30817857D01*
X84966428Y-30675000D01*
X85109285Y-30460714D01*
X85180714Y-30389285D01*
X85966428Y-32103571D02*
X85823571Y-32032142D01*
X85752142Y-31960714D01*
X85680714Y-31817857D01*
X85680714Y-31389285D01*
X85752142Y-31246428D01*
X85823571Y-31175000D01*
X85966428Y-31103571D01*
X86180714Y-31103571D01*
X86323571Y-31175000D01*
X86395000Y-31246428D01*
X86466428Y-31389285D01*
X86466428Y-31817857D01*
X86395000Y-31960714D01*
X86323571Y-32032142D01*
X86180714Y-32103571D01*
X85966428Y-32103571D01*
X87752142Y-31103571D02*
X87752142Y-32103571D01*
X87109285Y-31103571D02*
X87109285Y-31889285D01*
X87180714Y-32032142D01*
X87323571Y-32103571D01*
X87537857Y-32103571D01*
X87680714Y-32032142D01*
X87752142Y-31960714D01*
X88252142Y-31103571D02*
X88823571Y-31103571D01*
X88466428Y-30603571D02*
X88466428Y-31889285D01*
X88537857Y-32032142D01*
X88680714Y-32103571D01*
X88823571Y-32103571D01*
X89180714Y-32675000D02*
X89252142Y-32603571D01*
X89395000Y-32389285D01*
X89466428Y-32246428D01*
X89537857Y-32032142D01*
X89609285Y-31675000D01*
X89609285Y-31389285D01*
X89537857Y-31032142D01*
X89466428Y-30817857D01*
X89395000Y-30675000D01*
X89252142Y-30460714D01*
X89180714Y-30389285D01*
X79180714Y-34582142D02*
X79395000Y-34653571D01*
X79752142Y-34653571D01*
X79895000Y-34582142D01*
X79966428Y-34510714D01*
X80037857Y-34367857D01*
X80037857Y-34225000D01*
X79966428Y-34082142D01*
X79895000Y-34010714D01*
X79752142Y-33939285D01*
X79466428Y-33867857D01*
X79323571Y-33796428D01*
X79252142Y-33725000D01*
X79180714Y-33582142D01*
X79180714Y-33439285D01*
X79252142Y-33296428D01*
X79323571Y-33225000D01*
X79466428Y-33153571D01*
X79823571Y-33153571D01*
X80037857Y-33225000D01*
X81323571Y-33653571D02*
X81323571Y-35153571D01*
X81323571Y-34582142D02*
X81180714Y-34653571D01*
X80895000Y-34653571D01*
X80752142Y-34582142D01*
X80680714Y-34510714D01*
X80609285Y-34367857D01*
X80609285Y-33939285D01*
X80680714Y-33796428D01*
X80752142Y-33725000D01*
X80895000Y-33653571D01*
X81180714Y-33653571D01*
X81323571Y-33725000D01*
X82680714Y-33653571D02*
X82680714Y-34653571D01*
X82037857Y-33653571D02*
X82037857Y-34439285D01*
X82109285Y-34582142D01*
X82252142Y-34653571D01*
X82466428Y-34653571D01*
X82609285Y-34582142D01*
X82680714Y-34510714D01*
X84037857Y-34653571D02*
X84037857Y-33867857D01*
X83966428Y-33725000D01*
X83823571Y-33653571D01*
X83537857Y-33653571D01*
X83395000Y-33725000D01*
X84037857Y-34582142D02*
X83895000Y-34653571D01*
X83537857Y-34653571D01*
X83395000Y-34582142D01*
X83323571Y-34439285D01*
X83323571Y-34296428D01*
X83395000Y-34153571D01*
X83537857Y-34082142D01*
X83895000Y-34082142D01*
X84037857Y-34010714D01*
X84752142Y-34653571D02*
X84752142Y-33653571D01*
X84752142Y-33939285D02*
X84823571Y-33796428D01*
X84895000Y-33725000D01*
X85037857Y-33653571D01*
X85180714Y-33653571D01*
X86252142Y-34582142D02*
X86109285Y-34653571D01*
X85823571Y-34653571D01*
X85680714Y-34582142D01*
X85609285Y-34439285D01*
X85609285Y-33867857D01*
X85680714Y-33725000D01*
X85823571Y-33653571D01*
X86109285Y-33653571D01*
X86252142Y-33725000D01*
X86323571Y-33867857D01*
X86323571Y-34010714D01*
X85609285Y-34153571D01*
X88537857Y-35225000D02*
X88466428Y-35153571D01*
X88323571Y-34939285D01*
X88252142Y-34796428D01*
X88180714Y-34582142D01*
X88109285Y-34225000D01*
X88109285Y-33939285D01*
X88180714Y-33582142D01*
X88252142Y-33367857D01*
X88323571Y-33225000D01*
X88466428Y-33010714D01*
X88537857Y-32939285D01*
X89323571Y-34653571D02*
X89180714Y-34582142D01*
X89109285Y-34510714D01*
X89037857Y-34367857D01*
X89037857Y-33939285D01*
X89109285Y-33796428D01*
X89180714Y-33725000D01*
X89323571Y-33653571D01*
X89537857Y-33653571D01*
X89680714Y-33725000D01*
X89752142Y-33796428D01*
X89823571Y-33939285D01*
X89823571Y-34367857D01*
X89752142Y-34510714D01*
X89680714Y-34582142D01*
X89537857Y-34653571D01*
X89323571Y-34653571D01*
X91109285Y-33653571D02*
X91109285Y-34653571D01*
X90466428Y-33653571D02*
X90466428Y-34439285D01*
X90537857Y-34582142D01*
X90680714Y-34653571D01*
X90895000Y-34653571D01*
X91037857Y-34582142D01*
X91109285Y-34510714D01*
X91609285Y-33653571D02*
X92180714Y-33653571D01*
X91823571Y-33153571D02*
X91823571Y-34439285D01*
X91895000Y-34582142D01*
X92037857Y-34653571D01*
X92180714Y-34653571D01*
X92537857Y-35225000D02*
X92609285Y-35153571D01*
X92752142Y-34939285D01*
X92823571Y-34796428D01*
X92895000Y-34582142D01*
X92966428Y-34225000D01*
X92966428Y-33939285D01*
X92895000Y-33582142D01*
X92823571Y-33367857D01*
X92752142Y-33225000D01*
X92609285Y-33010714D01*
X92537857Y-32939285D01*
X79752142Y-36417857D02*
X79252142Y-36417857D01*
X79252142Y-37203571D02*
X79252142Y-35703571D01*
X79966428Y-35703571D01*
X80537857Y-37203571D02*
X80537857Y-36203571D01*
X80537857Y-35703571D02*
X80466428Y-35775000D01*
X80537857Y-35846428D01*
X80609285Y-35775000D01*
X80537857Y-35703571D01*
X80537857Y-35846428D01*
X81466428Y-37203571D02*
X81323571Y-37132142D01*
X81252142Y-36989285D01*
X81252142Y-35703571D01*
X81823571Y-36203571D02*
X82395000Y-36203571D01*
X82037857Y-35703571D02*
X82037857Y-36989285D01*
X82109285Y-37132142D01*
X82252142Y-37203571D01*
X82395000Y-37203571D01*
X83466428Y-37132142D02*
X83323571Y-37203571D01*
X83037857Y-37203571D01*
X82895000Y-37132142D01*
X82823571Y-36989285D01*
X82823571Y-36417857D01*
X82895000Y-36275000D01*
X83037857Y-36203571D01*
X83323571Y-36203571D01*
X83466428Y-36275000D01*
X83537857Y-36417857D01*
X83537857Y-36560714D01*
X82823571Y-36703571D01*
X84180714Y-37203571D02*
X84180714Y-36203571D01*
X84180714Y-36489285D02*
X84252142Y-36346428D01*
X84323571Y-36275000D01*
X84466428Y-36203571D01*
X84609285Y-36203571D01*
X86680714Y-37775000D02*
X86609285Y-37703571D01*
X86466428Y-37489285D01*
X86395000Y-37346428D01*
X86323571Y-37132142D01*
X86252142Y-36775000D01*
X86252142Y-36489285D01*
X86323571Y-36132142D01*
X86395000Y-35917857D01*
X86466428Y-35775000D01*
X86609285Y-35560714D01*
X86680714Y-35489285D01*
X87466428Y-37203571D02*
X87323571Y-37132142D01*
X87252142Y-37060714D01*
X87180714Y-36917857D01*
X87180714Y-36489285D01*
X87252142Y-36346428D01*
X87323571Y-36275000D01*
X87466428Y-36203571D01*
X87680714Y-36203571D01*
X87823571Y-36275000D01*
X87895000Y-36346428D01*
X87966428Y-36489285D01*
X87966428Y-36917857D01*
X87895000Y-37060714D01*
X87823571Y-37132142D01*
X87680714Y-37203571D01*
X87466428Y-37203571D01*
X89252142Y-36203571D02*
X89252142Y-37203571D01*
X88609285Y-36203571D02*
X88609285Y-36989285D01*
X88680714Y-37132142D01*
X88823571Y-37203571D01*
X89037857Y-37203571D01*
X89180714Y-37132142D01*
X89252142Y-37060714D01*
X89752142Y-36203571D02*
X90323571Y-36203571D01*
X89966428Y-35703571D02*
X89966428Y-36989285D01*
X90037857Y-37132142D01*
X90180714Y-37203571D01*
X90323571Y-37203571D01*
X90680714Y-37775000D02*
X90752142Y-37703571D01*
X90895000Y-37489285D01*
X90966428Y-37346428D01*
X91037857Y-37132142D01*
X91109285Y-36775000D01*
X91109285Y-36489285D01*
X91037857Y-36132142D01*
X90966428Y-35917857D01*
X90895000Y-35775000D01*
X90752142Y-35560714D01*
X90680714Y-35489285D01*
X79180714Y-39325000D02*
X79895000Y-39325000D01*
X79037857Y-39753571D02*
X79537857Y-38253571D01*
X80037857Y-39753571D01*
X80537857Y-39753571D02*
X80537857Y-38253571D01*
X80895000Y-38253571D01*
X81109285Y-38325000D01*
X81252142Y-38467857D01*
X81323571Y-38610714D01*
X81395000Y-38896428D01*
X81395000Y-39110714D01*
X81323571Y-39396428D01*
X81252142Y-39539285D01*
X81109285Y-39682142D01*
X80895000Y-39753571D01*
X80537857Y-39753571D01*
X81966428Y-39682142D02*
X82180714Y-39753571D01*
X82537857Y-39753571D01*
X82680714Y-39682142D01*
X82752142Y-39610714D01*
X82823571Y-39467857D01*
X82823571Y-39325000D01*
X82752142Y-39182142D01*
X82680714Y-39110714D01*
X82537857Y-39039285D01*
X82252142Y-38967857D01*
X82109285Y-38896428D01*
X82037857Y-38825000D01*
X81966428Y-38682142D01*
X81966428Y-38539285D01*
X82037857Y-38396428D01*
X82109285Y-38325000D01*
X82252142Y-38253571D01*
X82609285Y-38253571D01*
X82823571Y-38325000D01*
X84323571Y-39753571D02*
X83823571Y-39039285D01*
X83466428Y-39753571D02*
X83466428Y-38253571D01*
X84037857Y-38253571D01*
X84180714Y-38325000D01*
X84252142Y-38396428D01*
X84323571Y-38539285D01*
X84323571Y-38753571D01*
X84252142Y-38896428D01*
X84180714Y-38967857D01*
X84037857Y-39039285D01*
X83466428Y-39039285D01*
X86537857Y-40325000D02*
X86466428Y-40253571D01*
X86323571Y-40039285D01*
X86252142Y-39896428D01*
X86180714Y-39682142D01*
X86109285Y-39325000D01*
X86109285Y-39039285D01*
X86180714Y-38682142D01*
X86252142Y-38467857D01*
X86323571Y-38325000D01*
X86466428Y-38110714D01*
X86537857Y-38039285D01*
X87323571Y-39753571D02*
X87180714Y-39682142D01*
X87109285Y-39610714D01*
X87037857Y-39467857D01*
X87037857Y-39039285D01*
X87109285Y-38896428D01*
X87180714Y-38825000D01*
X87323571Y-38753571D01*
X87537857Y-38753571D01*
X87680714Y-38825000D01*
X87752142Y-38896428D01*
X87823571Y-39039285D01*
X87823571Y-39467857D01*
X87752142Y-39610714D01*
X87680714Y-39682142D01*
X87537857Y-39753571D01*
X87323571Y-39753571D01*
X89109285Y-38753571D02*
X89109285Y-39753571D01*
X88466428Y-38753571D02*
X88466428Y-39539285D01*
X88537857Y-39682142D01*
X88680714Y-39753571D01*
X88895000Y-39753571D01*
X89037857Y-39682142D01*
X89109285Y-39610714D01*
X89609285Y-38753571D02*
X90180714Y-38753571D01*
X89823571Y-38253571D02*
X89823571Y-39539285D01*
X89895000Y-39682142D01*
X90037857Y-39753571D01*
X90180714Y-39753571D01*
X90537857Y-40325000D02*
X90609285Y-40253571D01*
X90752142Y-40039285D01*
X90823571Y-39896428D01*
X90895000Y-39682142D01*
X90966428Y-39325000D01*
X90966428Y-39039285D01*
X90895000Y-38682142D01*
X90823571Y-38467857D01*
X90752142Y-38325000D01*
X90609285Y-38110714D01*
X90537857Y-38039285D01*
X79037857Y-40803571D02*
X79537857Y-42303571D01*
X80037857Y-40803571D01*
X81395000Y-42160714D02*
X81323571Y-42232142D01*
X81109285Y-42303571D01*
X80966428Y-42303571D01*
X80752142Y-42232142D01*
X80609285Y-42089285D01*
X80537857Y-41946428D01*
X80466428Y-41660714D01*
X80466428Y-41446428D01*
X80537857Y-41160714D01*
X80609285Y-41017857D01*
X80752142Y-40875000D01*
X80966428Y-40803571D01*
X81109285Y-40803571D01*
X81323571Y-40875000D01*
X81395000Y-40946428D01*
X81966428Y-41875000D02*
X82680714Y-41875000D01*
X81823571Y-42303571D02*
X82323571Y-40803571D01*
X82823571Y-42303571D01*
X84895000Y-42875000D02*
X84823571Y-42803571D01*
X84680714Y-42589285D01*
X84609285Y-42446428D01*
X84537857Y-42232142D01*
X84466428Y-41875000D01*
X84466428Y-41589285D01*
X84537857Y-41232142D01*
X84609285Y-41017857D01*
X84680714Y-40875000D01*
X84823571Y-40660714D01*
X84895000Y-40589285D01*
X85680714Y-42303571D02*
X85537857Y-42232142D01*
X85466428Y-42160714D01*
X85395000Y-42017857D01*
X85395000Y-41589285D01*
X85466428Y-41446428D01*
X85537857Y-41375000D01*
X85680714Y-41303571D01*
X85895000Y-41303571D01*
X86037857Y-41375000D01*
X86109285Y-41446428D01*
X86180714Y-41589285D01*
X86180714Y-42017857D01*
X86109285Y-42160714D01*
X86037857Y-42232142D01*
X85895000Y-42303571D01*
X85680714Y-42303571D01*
X87466428Y-41303571D02*
X87466428Y-42303571D01*
X86823571Y-41303571D02*
X86823571Y-42089285D01*
X86895000Y-42232142D01*
X87037857Y-42303571D01*
X87252142Y-42303571D01*
X87395000Y-42232142D01*
X87466428Y-42160714D01*
X87966428Y-41303571D02*
X88537857Y-41303571D01*
X88180714Y-40803571D02*
X88180714Y-42089285D01*
X88252142Y-42232142D01*
X88395000Y-42303571D01*
X88537857Y-42303571D01*
X88895000Y-42875000D02*
X88966428Y-42803571D01*
X89109285Y-42589285D01*
X89180714Y-42446428D01*
X89252142Y-42232142D01*
X89323571Y-41875000D01*
X89323571Y-41589285D01*
X89252142Y-41232142D01*
X89180714Y-41017857D01*
X89109285Y-40875000D01*
X88966428Y-40660714D01*
X88895000Y-40589285D01*
X79252142Y-44853571D02*
X79252142Y-43353571D01*
X79752142Y-44425000D01*
X80252142Y-43353571D01*
X80252142Y-44853571D01*
X80966428Y-44853571D02*
X80966428Y-43353571D01*
X81680714Y-44853571D02*
X81680714Y-43353571D01*
X82037857Y-43353571D01*
X82252142Y-43425000D01*
X82395000Y-43567857D01*
X82466428Y-43710714D01*
X82537857Y-43996428D01*
X82537857Y-44210714D01*
X82466428Y-44496428D01*
X82395000Y-44639285D01*
X82252142Y-44782142D01*
X82037857Y-44853571D01*
X81680714Y-44853571D01*
X83180714Y-44853571D02*
X83180714Y-43353571D01*
X85037857Y-43853571D02*
X85037857Y-44853571D01*
X85037857Y-43996428D02*
X85109285Y-43925000D01*
X85252142Y-43853571D01*
X85466428Y-43853571D01*
X85609285Y-43925000D01*
X85680714Y-44067857D01*
X85680714Y-44853571D01*
X86609285Y-44853571D02*
X86466428Y-44782142D01*
X86395000Y-44710714D01*
X86323571Y-44567857D01*
X86323571Y-44139285D01*
X86395000Y-43996428D01*
X86466428Y-43925000D01*
X86609285Y-43853571D01*
X86823571Y-43853571D01*
X86966428Y-43925000D01*
X87037857Y-43996428D01*
X87109285Y-44139285D01*
X87109285Y-44567857D01*
X87037857Y-44710714D01*
X86966428Y-44782142D01*
X86823571Y-44853571D01*
X86609285Y-44853571D01*
X87537857Y-43853571D02*
X88109285Y-43853571D01*
X87752142Y-43353571D02*
X87752142Y-44639285D01*
X87823571Y-44782142D01*
X87966428Y-44853571D01*
X88109285Y-44853571D01*
X89180714Y-44782142D02*
X89037857Y-44853571D01*
X88752142Y-44853571D01*
X88609285Y-44782142D01*
X88537857Y-44639285D01*
X88537857Y-44067857D01*
X88609285Y-43925000D01*
X88752142Y-43853571D01*
X89037857Y-43853571D01*
X89180714Y-43925000D01*
X89252142Y-44067857D01*
X89252142Y-44210714D01*
X88537857Y-44353571D01*
X91466428Y-45425000D02*
X91395000Y-45353571D01*
X91252142Y-45139285D01*
X91180714Y-44996428D01*
X91109285Y-44782142D01*
X91037857Y-44425000D01*
X91037857Y-44139285D01*
X91109285Y-43782142D01*
X91180714Y-43567857D01*
X91252142Y-43425000D01*
X91395000Y-43210714D01*
X91466428Y-43139285D01*
X92252142Y-44853571D02*
X92109285Y-44782142D01*
X92037857Y-44710714D01*
X91966428Y-44567857D01*
X91966428Y-44139285D01*
X92037857Y-43996428D01*
X92109285Y-43925000D01*
X92252142Y-43853571D01*
X92466428Y-43853571D01*
X92609285Y-43925000D01*
X92680714Y-43996428D01*
X92752142Y-44139285D01*
X92752142Y-44567857D01*
X92680714Y-44710714D01*
X92609285Y-44782142D01*
X92466428Y-44853571D01*
X92252142Y-44853571D01*
X94037857Y-43853571D02*
X94037857Y-44853571D01*
X93395000Y-43853571D02*
X93395000Y-44639285D01*
X93466428Y-44782142D01*
X93609285Y-44853571D01*
X93823571Y-44853571D01*
X93966428Y-44782142D01*
X94037857Y-44710714D01*
X94537857Y-43853571D02*
X95109285Y-43853571D01*
X94752142Y-43353571D02*
X94752142Y-44639285D01*
X94823571Y-44782142D01*
X94966428Y-44853571D01*
X95109285Y-44853571D01*
X95466428Y-45425000D02*
X95537857Y-45353571D01*
X95680714Y-45139285D01*
X95752142Y-44996428D01*
X95823571Y-44782142D01*
X95895000Y-44425000D01*
X95895000Y-44139285D01*
X95823571Y-43782142D01*
X95752142Y-43567857D01*
X95680714Y-43425000D01*
X95537857Y-43210714D01*
X95466428Y-43139285D01*
X79252142Y-47403571D02*
X79252142Y-45903571D01*
X79752142Y-46975000D01*
X80252142Y-45903571D01*
X80252142Y-47403571D01*
X80966428Y-47403571D02*
X80966428Y-45903571D01*
X81680714Y-47403571D02*
X81680714Y-45903571D01*
X82037857Y-45903571D01*
X82252142Y-45975000D01*
X82395000Y-46117857D01*
X82466428Y-46260714D01*
X82537857Y-46546428D01*
X82537857Y-46760714D01*
X82466428Y-47046428D01*
X82395000Y-47189285D01*
X82252142Y-47332142D01*
X82037857Y-47403571D01*
X81680714Y-47403571D01*
X83180714Y-47403571D02*
X83180714Y-45903571D01*
X85680714Y-46403571D02*
X85680714Y-47617857D01*
X85609285Y-47760714D01*
X85537857Y-47832142D01*
X85395000Y-47903571D01*
X85180714Y-47903571D01*
X85037857Y-47832142D01*
X85680714Y-47332142D02*
X85537857Y-47403571D01*
X85252142Y-47403571D01*
X85109285Y-47332142D01*
X85037857Y-47260714D01*
X84966428Y-47117857D01*
X84966428Y-46689285D01*
X85037857Y-46546428D01*
X85109285Y-46475000D01*
X85252142Y-46403571D01*
X85537857Y-46403571D01*
X85680714Y-46475000D01*
X87037857Y-47403571D02*
X87037857Y-46617857D01*
X86966428Y-46475000D01*
X86823571Y-46403571D01*
X86537857Y-46403571D01*
X86395000Y-46475000D01*
X87037857Y-47332142D02*
X86895000Y-47403571D01*
X86537857Y-47403571D01*
X86395000Y-47332142D01*
X86323571Y-47189285D01*
X86323571Y-47046428D01*
X86395000Y-46903571D01*
X86537857Y-46832142D01*
X86895000Y-46832142D01*
X87037857Y-46760714D01*
X87537857Y-46403571D02*
X88109285Y-46403571D01*
X87752142Y-45903571D02*
X87752142Y-47189285D01*
X87823571Y-47332142D01*
X87966428Y-47403571D01*
X88109285Y-47403571D01*
X89180714Y-47332142D02*
X89037857Y-47403571D01*
X88752142Y-47403571D01*
X88609285Y-47332142D01*
X88537857Y-47189285D01*
X88537857Y-46617857D01*
X88609285Y-46475000D01*
X88752142Y-46403571D01*
X89037857Y-46403571D01*
X89180714Y-46475000D01*
X89252142Y-46617857D01*
X89252142Y-46760714D01*
X88537857Y-46903571D01*
X91466428Y-47975000D02*
X91395000Y-47903571D01*
X91252142Y-47689285D01*
X91180714Y-47546428D01*
X91109285Y-47332142D01*
X91037857Y-46975000D01*
X91037857Y-46689285D01*
X91109285Y-46332142D01*
X91180714Y-46117857D01*
X91252142Y-45975000D01*
X91395000Y-45760714D01*
X91466428Y-45689285D01*
X92252142Y-47403571D02*
X92109285Y-47332142D01*
X92037857Y-47260714D01*
X91966428Y-47117857D01*
X91966428Y-46689285D01*
X92037857Y-46546428D01*
X92109285Y-46475000D01*
X92252142Y-46403571D01*
X92466428Y-46403571D01*
X92609285Y-46475000D01*
X92680714Y-46546428D01*
X92752142Y-46689285D01*
X92752142Y-47117857D01*
X92680714Y-47260714D01*
X92609285Y-47332142D01*
X92466428Y-47403571D01*
X92252142Y-47403571D01*
X94037857Y-46403571D02*
X94037857Y-47403571D01*
X93395000Y-46403571D02*
X93395000Y-47189285D01*
X93466428Y-47332142D01*
X93609285Y-47403571D01*
X93823571Y-47403571D01*
X93966428Y-47332142D01*
X94037857Y-47260714D01*
X94537857Y-46403571D02*
X95109285Y-46403571D01*
X94752142Y-45903571D02*
X94752142Y-47189285D01*
X94823571Y-47332142D01*
X94966428Y-47403571D01*
X95109285Y-47403571D01*
X95466428Y-47975000D02*
X95537857Y-47903571D01*
X95680714Y-47689285D01*
X95752142Y-47546428D01*
X95823571Y-47332142D01*
X95895000Y-46975000D01*
X95895000Y-46689285D01*
X95823571Y-46332142D01*
X95752142Y-46117857D01*
X95680714Y-45975000D01*
X95537857Y-45760714D01*
X95466428Y-45689285D01*
X79180714Y-49882142D02*
X79395000Y-49953571D01*
X79752142Y-49953571D01*
X79895000Y-49882142D01*
X79966428Y-49810714D01*
X80037857Y-49667857D01*
X80037857Y-49525000D01*
X79966428Y-49382142D01*
X79895000Y-49310714D01*
X79752142Y-49239285D01*
X79466428Y-49167857D01*
X79323571Y-49096428D01*
X79252142Y-49025000D01*
X79180714Y-48882142D01*
X79180714Y-48739285D01*
X79252142Y-48596428D01*
X79323571Y-48525000D01*
X79466428Y-48453571D01*
X79823571Y-48453571D01*
X80037857Y-48525000D01*
X81323571Y-49953571D02*
X81323571Y-49167857D01*
X81252142Y-49025000D01*
X81109285Y-48953571D01*
X80823571Y-48953571D01*
X80680714Y-49025000D01*
X81323571Y-49882142D02*
X81180714Y-49953571D01*
X80823571Y-49953571D01*
X80680714Y-49882142D01*
X80609285Y-49739285D01*
X80609285Y-49596428D01*
X80680714Y-49453571D01*
X80823571Y-49382142D01*
X81180714Y-49382142D01*
X81323571Y-49310714D01*
X81895000Y-48953571D02*
X82180714Y-49953571D01*
X82466428Y-49239285D01*
X82752142Y-49953571D01*
X83037857Y-48953571D01*
X84537857Y-48953571D02*
X85109285Y-48953571D01*
X84752142Y-49953571D02*
X84752142Y-48667857D01*
X84823571Y-48525000D01*
X84966428Y-48453571D01*
X85109285Y-48453571D01*
X85609285Y-49953571D02*
X85609285Y-48953571D01*
X85609285Y-49239285D02*
X85680714Y-49096428D01*
X85752142Y-49025000D01*
X85895000Y-48953571D01*
X86037857Y-48953571D01*
X87109285Y-49882142D02*
X86966428Y-49953571D01*
X86680714Y-49953571D01*
X86537857Y-49882142D01*
X86466428Y-49739285D01*
X86466428Y-49167857D01*
X86537857Y-49025000D01*
X86680714Y-48953571D01*
X86966428Y-48953571D01*
X87109285Y-49025000D01*
X87180714Y-49167857D01*
X87180714Y-49310714D01*
X86466428Y-49453571D01*
X88466428Y-48953571D02*
X88466428Y-50453571D01*
X88466428Y-49882142D02*
X88323571Y-49953571D01*
X88037857Y-49953571D01*
X87895000Y-49882142D01*
X87823571Y-49810714D01*
X87752142Y-49667857D01*
X87752142Y-49239285D01*
X87823571Y-49096428D01*
X87895000Y-49025000D01*
X88037857Y-48953571D01*
X88323571Y-48953571D01*
X88466428Y-49025000D01*
X90752142Y-50525000D02*
X90680714Y-50453571D01*
X90537857Y-50239285D01*
X90466428Y-50096428D01*
X90395000Y-49882142D01*
X90323571Y-49525000D01*
X90323571Y-49239285D01*
X90395000Y-48882142D01*
X90466428Y-48667857D01*
X90537857Y-48525000D01*
X90680714Y-48310714D01*
X90752142Y-48239285D01*
X91323571Y-49953571D02*
X91323571Y-48953571D01*
X91323571Y-48453571D02*
X91252142Y-48525000D01*
X91323571Y-48596428D01*
X91395000Y-48525000D01*
X91323571Y-48453571D01*
X91323571Y-48596428D01*
X92037857Y-48953571D02*
X92037857Y-49953571D01*
X92037857Y-49096428D02*
X92109285Y-49025000D01*
X92252142Y-48953571D01*
X92466428Y-48953571D01*
X92609285Y-49025000D01*
X92680714Y-49167857D01*
X92680714Y-49953571D01*
X93252142Y-50525000D02*
X93323571Y-50453571D01*
X93466428Y-50239285D01*
X93537857Y-50096428D01*
X93609285Y-49882142D01*
X93680714Y-49525000D01*
X93680714Y-49239285D01*
X93609285Y-48882142D01*
X93537857Y-48667857D01*
X93466428Y-48525000D01*
X93323571Y-48310714D01*
X93252142Y-48239285D01*
X79180714Y-52432142D02*
X79395000Y-52503571D01*
X79752142Y-52503571D01*
X79895000Y-52432142D01*
X79966428Y-52360714D01*
X80037857Y-52217857D01*
X80037857Y-52075000D01*
X79966428Y-51932142D01*
X79895000Y-51860714D01*
X79752142Y-51789285D01*
X79466428Y-51717857D01*
X79323571Y-51646428D01*
X79252142Y-51575000D01*
X79180714Y-51432142D01*
X79180714Y-51289285D01*
X79252142Y-51146428D01*
X79323571Y-51075000D01*
X79466428Y-51003571D01*
X79823571Y-51003571D01*
X80037857Y-51075000D01*
X81323571Y-51503571D02*
X81323571Y-53003571D01*
X81323571Y-52432142D02*
X81180714Y-52503571D01*
X80895000Y-52503571D01*
X80752142Y-52432142D01*
X80680714Y-52360714D01*
X80609285Y-52217857D01*
X80609285Y-51789285D01*
X80680714Y-51646428D01*
X80752142Y-51575000D01*
X80895000Y-51503571D01*
X81180714Y-51503571D01*
X81323571Y-51575000D01*
X82680714Y-51503571D02*
X82680714Y-52503571D01*
X82037857Y-51503571D02*
X82037857Y-52289285D01*
X82109285Y-52432142D01*
X82252142Y-52503571D01*
X82466428Y-52503571D01*
X82609285Y-52432142D01*
X82680714Y-52360714D01*
X84037857Y-52503571D02*
X84037857Y-51717857D01*
X83966428Y-51575000D01*
X83823571Y-51503571D01*
X83537857Y-51503571D01*
X83395000Y-51575000D01*
X84037857Y-52432142D02*
X83895000Y-52503571D01*
X83537857Y-52503571D01*
X83395000Y-52432142D01*
X83323571Y-52289285D01*
X83323571Y-52146428D01*
X83395000Y-52003571D01*
X83537857Y-51932142D01*
X83895000Y-51932142D01*
X84037857Y-51860714D01*
X84752142Y-52503571D02*
X84752142Y-51503571D01*
X84752142Y-51789285D02*
X84823571Y-51646428D01*
X84895000Y-51575000D01*
X85037857Y-51503571D01*
X85180714Y-51503571D01*
X86252142Y-52432142D02*
X86109285Y-52503571D01*
X85823571Y-52503571D01*
X85680714Y-52432142D01*
X85609285Y-52289285D01*
X85609285Y-51717857D01*
X85680714Y-51575000D01*
X85823571Y-51503571D01*
X86109285Y-51503571D01*
X86252142Y-51575000D01*
X86323571Y-51717857D01*
X86323571Y-51860714D01*
X85609285Y-52003571D01*
X87895000Y-51503571D02*
X88466428Y-51503571D01*
X88109285Y-52503571D02*
X88109285Y-51217857D01*
X88180714Y-51075000D01*
X88323571Y-51003571D01*
X88466428Y-51003571D01*
X88966428Y-52503571D02*
X88966428Y-51503571D01*
X88966428Y-51789285D02*
X89037857Y-51646428D01*
X89109285Y-51575000D01*
X89252142Y-51503571D01*
X89395000Y-51503571D01*
X90466428Y-52432142D02*
X90323571Y-52503571D01*
X90037857Y-52503571D01*
X89895000Y-52432142D01*
X89823571Y-52289285D01*
X89823571Y-51717857D01*
X89895000Y-51575000D01*
X90037857Y-51503571D01*
X90323571Y-51503571D01*
X90466428Y-51575000D01*
X90537857Y-51717857D01*
X90537857Y-51860714D01*
X89823571Y-52003571D01*
X91823571Y-51503571D02*
X91823571Y-53003571D01*
X91823571Y-52432142D02*
X91680714Y-52503571D01*
X91395000Y-52503571D01*
X91252142Y-52432142D01*
X91180714Y-52360714D01*
X91109285Y-52217857D01*
X91109285Y-51789285D01*
X91180714Y-51646428D01*
X91252142Y-51575000D01*
X91395000Y-51503571D01*
X91680714Y-51503571D01*
X91823571Y-51575000D01*
X94109285Y-53075000D02*
X94037857Y-53003571D01*
X93895000Y-52789285D01*
X93823571Y-52646428D01*
X93752142Y-52432142D01*
X93680714Y-52075000D01*
X93680714Y-51789285D01*
X93752142Y-51432142D01*
X93823571Y-51217857D01*
X93895000Y-51075000D01*
X94037857Y-50860714D01*
X94109285Y-50789285D01*
X94680714Y-52503571D02*
X94680714Y-51503571D01*
X94680714Y-51003571D02*
X94609285Y-51075000D01*
X94680714Y-51146428D01*
X94752142Y-51075000D01*
X94680714Y-51003571D01*
X94680714Y-51146428D01*
X95395000Y-51503571D02*
X95395000Y-52503571D01*
X95395000Y-51646428D02*
X95466428Y-51575000D01*
X95609285Y-51503571D01*
X95823571Y-51503571D01*
X95966428Y-51575000D01*
X96037857Y-51717857D01*
X96037857Y-52503571D01*
X96609285Y-53075000D02*
X96680714Y-53003571D01*
X96823571Y-52789285D01*
X96895000Y-52646428D01*
X96966428Y-52432142D01*
X97037857Y-52075000D01*
X97037857Y-51789285D01*
X96966428Y-51432142D01*
X96895000Y-51217857D01*
X96823571Y-51075000D01*
X96680714Y-50860714D01*
X96609285Y-50789285D01*
X79752142Y-54267857D02*
X79252142Y-54267857D01*
X79252142Y-55053571D02*
X79252142Y-53553571D01*
X79966428Y-53553571D01*
X80537857Y-55053571D02*
X80537857Y-54053571D01*
X80537857Y-53553571D02*
X80466428Y-53625000D01*
X80537857Y-53696428D01*
X80609285Y-53625000D01*
X80537857Y-53553571D01*
X80537857Y-53696428D01*
X81466428Y-55053571D02*
X81323571Y-54982142D01*
X81252142Y-54839285D01*
X81252142Y-53553571D01*
X81823571Y-54053571D02*
X82395000Y-54053571D01*
X82037857Y-53553571D02*
X82037857Y-54839285D01*
X82109285Y-54982142D01*
X82252142Y-55053571D01*
X82395000Y-55053571D01*
X83466428Y-54982142D02*
X83323571Y-55053571D01*
X83037857Y-55053571D01*
X82895000Y-54982142D01*
X82823571Y-54839285D01*
X82823571Y-54267857D01*
X82895000Y-54125000D01*
X83037857Y-54053571D01*
X83323571Y-54053571D01*
X83466428Y-54125000D01*
X83537857Y-54267857D01*
X83537857Y-54410714D01*
X82823571Y-54553571D01*
X84180714Y-55053571D02*
X84180714Y-54053571D01*
X84180714Y-54339285D02*
X84252142Y-54196428D01*
X84323571Y-54125000D01*
X84466428Y-54053571D01*
X84609285Y-54053571D01*
X86680714Y-55625000D02*
X86609285Y-55553571D01*
X86466428Y-55339285D01*
X86395000Y-55196428D01*
X86323571Y-54982142D01*
X86252142Y-54625000D01*
X86252142Y-54339285D01*
X86323571Y-53982142D01*
X86395000Y-53767857D01*
X86466428Y-53625000D01*
X86609285Y-53410714D01*
X86680714Y-53339285D01*
X87252142Y-55053571D02*
X87252142Y-54053571D01*
X87252142Y-53553571D02*
X87180714Y-53625000D01*
X87252142Y-53696428D01*
X87323571Y-53625000D01*
X87252142Y-53553571D01*
X87252142Y-53696428D01*
X87966428Y-54053571D02*
X87966428Y-55053571D01*
X87966428Y-54196428D02*
X88037857Y-54125000D01*
X88180714Y-54053571D01*
X88395000Y-54053571D01*
X88537857Y-54125000D01*
X88609285Y-54267857D01*
X88609285Y-55053571D01*
X89180714Y-55625000D02*
X89252142Y-55553571D01*
X89395000Y-55339285D01*
X89466428Y-55196428D01*
X89537857Y-54982142D01*
X89609285Y-54625000D01*
X89609285Y-54339285D01*
X89537857Y-53982142D01*
X89466428Y-53767857D01*
X89395000Y-53625000D01*
X89252142Y-53410714D01*
X89180714Y-53339285D01*
X79752142Y-56817857D02*
X79252142Y-56817857D01*
X79252142Y-57603571D02*
X79252142Y-56103571D01*
X79966428Y-56103571D01*
X80537857Y-57603571D02*
X80537857Y-56603571D01*
X80537857Y-56103571D02*
X80466428Y-56175000D01*
X80537857Y-56246428D01*
X80609285Y-56175000D01*
X80537857Y-56103571D01*
X80537857Y-56246428D01*
X81466428Y-57603571D02*
X81323571Y-57532142D01*
X81252142Y-57389285D01*
X81252142Y-56103571D01*
X81823571Y-56603571D02*
X82395000Y-56603571D01*
X82037857Y-56103571D02*
X82037857Y-57389285D01*
X82109285Y-57532142D01*
X82252142Y-57603571D01*
X82395000Y-57603571D01*
X83466428Y-57532142D02*
X83323571Y-57603571D01*
X83037857Y-57603571D01*
X82895000Y-57532142D01*
X82823571Y-57389285D01*
X82823571Y-56817857D01*
X82895000Y-56675000D01*
X83037857Y-56603571D01*
X83323571Y-56603571D01*
X83466428Y-56675000D01*
X83537857Y-56817857D01*
X83537857Y-56960714D01*
X82823571Y-57103571D01*
X84180714Y-57603571D02*
X84180714Y-56603571D01*
X84180714Y-56889285D02*
X84252142Y-56746428D01*
X84323571Y-56675000D01*
X84466428Y-56603571D01*
X84609285Y-56603571D01*
X86895000Y-57532142D02*
X86752142Y-57603571D01*
X86466428Y-57603571D01*
X86323571Y-57532142D01*
X86252142Y-57460714D01*
X86180714Y-57317857D01*
X86180714Y-56889285D01*
X86252142Y-56746428D01*
X86323571Y-56675000D01*
X86466428Y-56603571D01*
X86752142Y-56603571D01*
X86895000Y-56675000D01*
X88180714Y-56603571D02*
X88180714Y-57603571D01*
X87537857Y-56603571D02*
X87537857Y-57389285D01*
X87609285Y-57532142D01*
X87752142Y-57603571D01*
X87966428Y-57603571D01*
X88109285Y-57532142D01*
X88180714Y-57460714D01*
X88680714Y-56603571D02*
X89252142Y-56603571D01*
X88895000Y-56103571D02*
X88895000Y-57389285D01*
X88966428Y-57532142D01*
X89109285Y-57603571D01*
X89252142Y-57603571D01*
X89966428Y-57603571D02*
X89823571Y-57532142D01*
X89752142Y-57460714D01*
X89680714Y-57317857D01*
X89680714Y-56889285D01*
X89752142Y-56746428D01*
X89823571Y-56675000D01*
X89966428Y-56603571D01*
X90180714Y-56603571D01*
X90323571Y-56675000D01*
X90395000Y-56746428D01*
X90466428Y-56889285D01*
X90466428Y-57317857D01*
X90395000Y-57460714D01*
X90323571Y-57532142D01*
X90180714Y-57603571D01*
X89966428Y-57603571D01*
X90895000Y-56603571D02*
X91466428Y-56603571D01*
X91109285Y-57603571D02*
X91109285Y-56317857D01*
X91180714Y-56175000D01*
X91323571Y-56103571D01*
X91466428Y-56103571D01*
X91752142Y-56603571D02*
X92323571Y-56603571D01*
X91966428Y-57603571D02*
X91966428Y-56317857D01*
X92037857Y-56175000D01*
X92180714Y-56103571D01*
X92323571Y-56103571D01*
X94395000Y-58175000D02*
X94323571Y-58103571D01*
X94180714Y-57889285D01*
X94109285Y-57746428D01*
X94037857Y-57532142D01*
X93966428Y-57175000D01*
X93966428Y-56889285D01*
X94037857Y-56532142D01*
X94109285Y-56317857D01*
X94180714Y-56175000D01*
X94323571Y-55960714D01*
X94395000Y-55889285D01*
X94966428Y-57603571D02*
X94966428Y-56603571D01*
X94966428Y-56103571D02*
X94895000Y-56175000D01*
X94966428Y-56246428D01*
X95037857Y-56175000D01*
X94966428Y-56103571D01*
X94966428Y-56246428D01*
X95680714Y-56603571D02*
X95680714Y-57603571D01*
X95680714Y-56746428D02*
X95752142Y-56675000D01*
X95895000Y-56603571D01*
X96109285Y-56603571D01*
X96252142Y-56675000D01*
X96323571Y-56817857D01*
X96323571Y-57603571D01*
X96895000Y-58175000D02*
X96966428Y-58103571D01*
X97109285Y-57889285D01*
X97180714Y-57746428D01*
X97252142Y-57532142D01*
X97323571Y-57175000D01*
X97323571Y-56889285D01*
X97252142Y-56532142D01*
X97180714Y-56317857D01*
X97109285Y-56175000D01*
X96966428Y-55960714D01*
X96895000Y-55889285D01*
X79037857Y-58653571D02*
X79537857Y-60153571D01*
X80037857Y-58653571D01*
X81395000Y-60010714D02*
X81323571Y-60082142D01*
X81109285Y-60153571D01*
X80966428Y-60153571D01*
X80752142Y-60082142D01*
X80609285Y-59939285D01*
X80537857Y-59796428D01*
X80466428Y-59510714D01*
X80466428Y-59296428D01*
X80537857Y-59010714D01*
X80609285Y-58867857D01*
X80752142Y-58725000D01*
X80966428Y-58653571D01*
X81109285Y-58653571D01*
X81323571Y-58725000D01*
X81395000Y-58796428D01*
X81966428Y-59725000D02*
X82680714Y-59725000D01*
X81823571Y-60153571D02*
X82323571Y-58653571D01*
X82823571Y-60153571D01*
X84895000Y-60725000D02*
X84823571Y-60653571D01*
X84680714Y-60439285D01*
X84609285Y-60296428D01*
X84537857Y-60082142D01*
X84466428Y-59725000D01*
X84466428Y-59439285D01*
X84537857Y-59082142D01*
X84609285Y-58867857D01*
X84680714Y-58725000D01*
X84823571Y-58510714D01*
X84895000Y-58439285D01*
X85466428Y-60153571D02*
X85466428Y-59153571D01*
X85466428Y-58653571D02*
X85395000Y-58725000D01*
X85466428Y-58796428D01*
X85537857Y-58725000D01*
X85466428Y-58653571D01*
X85466428Y-58796428D01*
X86180714Y-59153571D02*
X86180714Y-60153571D01*
X86180714Y-59296428D02*
X86252142Y-59225000D01*
X86395000Y-59153571D01*
X86609285Y-59153571D01*
X86752142Y-59225000D01*
X86823571Y-59367857D01*
X86823571Y-60153571D01*
X87395000Y-60725000D02*
X87466428Y-60653571D01*
X87609285Y-60439285D01*
X87680714Y-60296428D01*
X87752142Y-60082142D01*
X87823571Y-59725000D01*
X87823571Y-59439285D01*
X87752142Y-59082142D01*
X87680714Y-58867857D01*
X87609285Y-58725000D01*
X87466428Y-58510714D01*
X87395000Y-58439285D01*
X79037857Y-61203571D02*
X79537857Y-62703571D01*
X80037857Y-61203571D01*
X81395000Y-62560714D02*
X81323571Y-62632142D01*
X81109285Y-62703571D01*
X80966428Y-62703571D01*
X80752142Y-62632142D01*
X80609285Y-62489285D01*
X80537857Y-62346428D01*
X80466428Y-62060714D01*
X80466428Y-61846428D01*
X80537857Y-61560714D01*
X80609285Y-61417857D01*
X80752142Y-61275000D01*
X80966428Y-61203571D01*
X81109285Y-61203571D01*
X81323571Y-61275000D01*
X81395000Y-61346428D01*
X81966428Y-62275000D02*
X82680714Y-62275000D01*
X81823571Y-62703571D02*
X82323571Y-61203571D01*
X82823571Y-62703571D01*
X85323571Y-62560714D02*
X85252142Y-62632142D01*
X85037857Y-62703571D01*
X84895000Y-62703571D01*
X84680714Y-62632142D01*
X84537857Y-62489285D01*
X84466428Y-62346428D01*
X84395000Y-62060714D01*
X84395000Y-61846428D01*
X84466428Y-61560714D01*
X84537857Y-61417857D01*
X84680714Y-61275000D01*
X84895000Y-61203571D01*
X85037857Y-61203571D01*
X85252142Y-61275000D01*
X85323571Y-61346428D01*
X85752142Y-61203571D02*
X86252142Y-62703571D01*
X86752142Y-61203571D01*
X88823571Y-63275000D02*
X88752142Y-63203571D01*
X88609285Y-62989285D01*
X88537857Y-62846428D01*
X88466428Y-62632142D01*
X88395000Y-62275000D01*
X88395000Y-61989285D01*
X88466428Y-61632142D01*
X88537857Y-61417857D01*
X88609285Y-61275000D01*
X88752142Y-61060714D01*
X88823571Y-60989285D01*
X89395000Y-62703571D02*
X89395000Y-61703571D01*
X89395000Y-61203571D02*
X89323571Y-61275000D01*
X89395000Y-61346428D01*
X89466428Y-61275000D01*
X89395000Y-61203571D01*
X89395000Y-61346428D01*
X90109285Y-61703571D02*
X90109285Y-62703571D01*
X90109285Y-61846428D02*
X90180714Y-61775000D01*
X90323571Y-61703571D01*
X90537857Y-61703571D01*
X90680714Y-61775000D01*
X90752142Y-61917857D01*
X90752142Y-62703571D01*
X91323571Y-63275000D02*
X91395000Y-63203571D01*
X91537857Y-62989285D01*
X91609285Y-62846428D01*
X91680714Y-62632142D01*
X91752142Y-62275000D01*
X91752142Y-61989285D01*
X91680714Y-61632142D01*
X91609285Y-61417857D01*
X91537857Y-61275000D01*
X91395000Y-61060714D01*
X91323571Y-60989285D01*
X79180714Y-64825000D02*
X79895000Y-64825000D01*
X79037857Y-65253571D02*
X79537857Y-63753571D01*
X80037857Y-65253571D01*
X80537857Y-65253571D02*
X80537857Y-63753571D01*
X80895000Y-63753571D01*
X81109285Y-63825000D01*
X81252142Y-63967857D01*
X81323571Y-64110714D01*
X81395000Y-64396428D01*
X81395000Y-64610714D01*
X81323571Y-64896428D01*
X81252142Y-65039285D01*
X81109285Y-65182142D01*
X80895000Y-65253571D01*
X80537857Y-65253571D01*
X81966428Y-65182142D02*
X82180714Y-65253571D01*
X82537857Y-65253571D01*
X82680714Y-65182142D01*
X82752142Y-65110714D01*
X82823571Y-64967857D01*
X82823571Y-64825000D01*
X82752142Y-64682142D01*
X82680714Y-64610714D01*
X82537857Y-64539285D01*
X82252142Y-64467857D01*
X82109285Y-64396428D01*
X82037857Y-64325000D01*
X81966428Y-64182142D01*
X81966428Y-64039285D01*
X82037857Y-63896428D01*
X82109285Y-63825000D01*
X82252142Y-63753571D01*
X82609285Y-63753571D01*
X82823571Y-63825000D01*
X84323571Y-65253571D02*
X83823571Y-64539285D01*
X83466428Y-65253571D02*
X83466428Y-63753571D01*
X84037857Y-63753571D01*
X84180714Y-63825000D01*
X84252142Y-63896428D01*
X84323571Y-64039285D01*
X84323571Y-64253571D01*
X84252142Y-64396428D01*
X84180714Y-64467857D01*
X84037857Y-64539285D01*
X83466428Y-64539285D01*
X86752142Y-64253571D02*
X86752142Y-65467857D01*
X86680714Y-65610714D01*
X86609285Y-65682142D01*
X86466428Y-65753571D01*
X86252142Y-65753571D01*
X86109285Y-65682142D01*
X86752142Y-65182142D02*
X86609285Y-65253571D01*
X86323571Y-65253571D01*
X86180714Y-65182142D01*
X86109285Y-65110714D01*
X86037857Y-64967857D01*
X86037857Y-64539285D01*
X86109285Y-64396428D01*
X86180714Y-64325000D01*
X86323571Y-64253571D01*
X86609285Y-64253571D01*
X86752142Y-64325000D01*
X88109285Y-65253571D02*
X88109285Y-64467857D01*
X88037857Y-64325000D01*
X87895000Y-64253571D01*
X87609285Y-64253571D01*
X87466428Y-64325000D01*
X88109285Y-65182142D02*
X87966428Y-65253571D01*
X87609285Y-65253571D01*
X87466428Y-65182142D01*
X87395000Y-65039285D01*
X87395000Y-64896428D01*
X87466428Y-64753571D01*
X87609285Y-64682142D01*
X87966428Y-64682142D01*
X88109285Y-64610714D01*
X88609285Y-64253571D02*
X89180714Y-64253571D01*
X88823571Y-63753571D02*
X88823571Y-65039285D01*
X88895000Y-65182142D01*
X89037857Y-65253571D01*
X89180714Y-65253571D01*
X90252142Y-65182142D02*
X90109285Y-65253571D01*
X89823571Y-65253571D01*
X89680714Y-65182142D01*
X89609285Y-65039285D01*
X89609285Y-64467857D01*
X89680714Y-64325000D01*
X89823571Y-64253571D01*
X90109285Y-64253571D01*
X90252142Y-64325000D01*
X90323571Y-64467857D01*
X90323571Y-64610714D01*
X89609285Y-64753571D01*
X92537857Y-65825000D02*
X92466428Y-65753571D01*
X92323571Y-65539285D01*
X92252142Y-65396428D01*
X92180714Y-65182142D01*
X92109285Y-64825000D01*
X92109285Y-64539285D01*
X92180714Y-64182142D01*
X92252142Y-63967857D01*
X92323571Y-63825000D01*
X92466428Y-63610714D01*
X92537857Y-63539285D01*
X93109285Y-65253571D02*
X93109285Y-64253571D01*
X93109285Y-63753571D02*
X93037857Y-63825000D01*
X93109285Y-63896428D01*
X93180714Y-63825000D01*
X93109285Y-63753571D01*
X93109285Y-63896428D01*
X93823571Y-64253571D02*
X93823571Y-65253571D01*
X93823571Y-64396428D02*
X93895000Y-64325000D01*
X94037857Y-64253571D01*
X94252142Y-64253571D01*
X94395000Y-64325000D01*
X94466428Y-64467857D01*
X94466428Y-65253571D01*
X95037857Y-65825000D02*
X95109285Y-65753571D01*
X95252142Y-65539285D01*
X95323571Y-65396428D01*
X95395000Y-65182142D01*
X95466428Y-64825000D01*
X95466428Y-64539285D01*
X95395000Y-64182142D01*
X95323571Y-63967857D01*
X95252142Y-63825000D01*
X95109285Y-63610714D01*
X95037857Y-63539285D01*
X79252142Y-67803571D02*
X79252142Y-66303571D01*
X79752142Y-67375000D01*
X80252142Y-66303571D01*
X80252142Y-67803571D01*
X81609285Y-67803571D02*
X81609285Y-67017857D01*
X81537857Y-66875000D01*
X81395000Y-66803571D01*
X81109285Y-66803571D01*
X80966428Y-66875000D01*
X81609285Y-67732142D02*
X81466428Y-67803571D01*
X81109285Y-67803571D01*
X80966428Y-67732142D01*
X80895000Y-67589285D01*
X80895000Y-67446428D01*
X80966428Y-67303571D01*
X81109285Y-67232142D01*
X81466428Y-67232142D01*
X81609285Y-67160714D01*
X82323571Y-67803571D02*
X82323571Y-66803571D01*
X82323571Y-66303571D02*
X82252142Y-66375000D01*
X82323571Y-66446428D01*
X82395000Y-66375000D01*
X82323571Y-66303571D01*
X82323571Y-66446428D01*
X83037857Y-66803571D02*
X83037857Y-67803571D01*
X83037857Y-66946428D02*
X83109285Y-66875000D01*
X83252142Y-66803571D01*
X83466428Y-66803571D01*
X83609285Y-66875000D01*
X83680714Y-67017857D01*
X83680714Y-67803571D01*
X85752142Y-67803571D02*
X85609285Y-67732142D01*
X85537857Y-67660714D01*
X85466428Y-67517857D01*
X85466428Y-67089285D01*
X85537857Y-66946428D01*
X85609285Y-66875000D01*
X85752142Y-66803571D01*
X85966428Y-66803571D01*
X86109285Y-66875000D01*
X86180714Y-66946428D01*
X86252142Y-67089285D01*
X86252142Y-67517857D01*
X86180714Y-67660714D01*
X86109285Y-67732142D01*
X85966428Y-67803571D01*
X85752142Y-67803571D01*
X87537857Y-66803571D02*
X87537857Y-67803571D01*
X86895000Y-66803571D02*
X86895000Y-67589285D01*
X86966428Y-67732142D01*
X87109285Y-67803571D01*
X87323571Y-67803571D01*
X87466428Y-67732142D01*
X87537857Y-67660714D01*
X88037857Y-66803571D02*
X88609285Y-66803571D01*
X88252142Y-66303571D02*
X88252142Y-67589285D01*
X88323571Y-67732142D01*
X88466428Y-67803571D01*
X88609285Y-67803571D01*
X90680714Y-68375000D02*
X90609285Y-68303571D01*
X90466428Y-68089285D01*
X90395000Y-67946428D01*
X90323571Y-67732142D01*
X90252142Y-67375000D01*
X90252142Y-67089285D01*
X90323571Y-66732142D01*
X90395000Y-66517857D01*
X90466428Y-66375000D01*
X90609285Y-66160714D01*
X90680714Y-66089285D01*
X91252142Y-67803571D02*
X91252142Y-66803571D01*
X91252142Y-66303571D02*
X91180714Y-66375000D01*
X91252142Y-66446428D01*
X91323571Y-66375000D01*
X91252142Y-66303571D01*
X91252142Y-66446428D01*
X91966428Y-66803571D02*
X91966428Y-67803571D01*
X91966428Y-66946428D02*
X92037857Y-66875000D01*
X92180714Y-66803571D01*
X92395000Y-66803571D01*
X92537857Y-66875000D01*
X92609285Y-67017857D01*
X92609285Y-67803571D01*
X93180714Y-68375000D02*
X93252142Y-68303571D01*
X93395000Y-68089285D01*
X93466428Y-67946428D01*
X93537857Y-67732142D01*
X93609285Y-67375000D01*
X93609285Y-67089285D01*
X93537857Y-66732142D01*
X93466428Y-66517857D01*
X93395000Y-66375000D01*
X93252142Y-66160714D01*
X93180714Y-66089285D01*
D12*
G04 #@! TO.C,R6*
X101670000Y-52330000D02*
X101670000Y-51000000D01*
X103000000Y-52330000D02*
X101670000Y-52330000D01*
X104270000Y-52330000D02*
X104270000Y-49670000D01*
X104270000Y-49670000D02*
X106870000Y-49670000D01*
X104270000Y-52330000D02*
X106870000Y-52330000D01*
X106870000Y-52330000D02*
X106870000Y-49670000D01*
G04 #@! TO.C,C1*
X123021422Y-95290000D02*
X123538578Y-95290000D01*
X123021422Y-96710000D02*
X123538578Y-96710000D01*
G04 #@! TO.C,C2*
X62065000Y-97050000D02*
X62065000Y-100960000D01*
X62065000Y-100960000D02*
X63935000Y-100960000D01*
X63935000Y-100960000D02*
X63935000Y-97050000D01*
G04 #@! TO.C,R4*
X76130000Y-82670000D02*
X76130000Y-85330000D01*
X78730000Y-82670000D02*
X76130000Y-82670000D01*
X78730000Y-85330000D02*
X76130000Y-85330000D01*
X78730000Y-82670000D02*
X78730000Y-85330000D01*
X80000000Y-82670000D02*
X81330000Y-82670000D01*
X81330000Y-82670000D02*
X81330000Y-84000000D01*
G04 #@! TO.C,J2*
X69385001Y-27515001D02*
X70715001Y-27515001D01*
X70715001Y-27515001D02*
X70715001Y-28845001D01*
X70715001Y-30115001D02*
X70715001Y-68275001D01*
X68055001Y-68275001D02*
X70715001Y-68275001D01*
X68055001Y-30115001D02*
X68055001Y-68275001D01*
X68055001Y-30115001D02*
X70715001Y-30115001D01*
G04 #@! TO.C,J3*
X71655001Y-30115001D02*
X74315001Y-30115001D01*
X71655001Y-30115001D02*
X71655001Y-68275001D01*
X71655001Y-68275001D02*
X74315001Y-68275001D01*
X74315001Y-30115001D02*
X74315001Y-68275001D01*
X74315001Y-27515001D02*
X74315001Y-28845001D01*
X72985001Y-27515001D02*
X74315001Y-27515001D01*
G04 #@! TO.C,J4*
X76585001Y-27515001D02*
X77915001Y-27515001D01*
X77915001Y-27515001D02*
X77915001Y-28845001D01*
X77915001Y-30115001D02*
X77915001Y-68275001D01*
X75255001Y-68275001D02*
X77915001Y-68275001D01*
X75255001Y-30115001D02*
X75255001Y-68275001D01*
X75255001Y-30115001D02*
X77915001Y-30115001D01*
G04 #@! TO.C,D2*
X104000000Y-100100000D02*
X102000000Y-100100000D01*
X102000000Y-100100000D02*
X102000000Y-104000000D01*
X104000000Y-100100000D02*
X104000000Y-104000000D01*
G04 #@! TO.C,D5*
X139300000Y-51037500D02*
X141985000Y-51037500D01*
X141985000Y-51037500D02*
X141985000Y-49117500D01*
X141985000Y-49117500D02*
X139300000Y-49117500D01*
G04 #@! TO.C,D3*
X141985000Y-40957500D02*
X139300000Y-40957500D01*
X141985000Y-42877500D02*
X141985000Y-40957500D01*
X139300000Y-42877500D02*
X141985000Y-42877500D01*
G04 #@! TO.C,D4*
X139300000Y-46897500D02*
X141985000Y-46897500D01*
X141985000Y-46897500D02*
X141985000Y-44977500D01*
X141985000Y-44977500D02*
X139300000Y-44977500D01*
G04 #@! TO.C,D6*
X141985000Y-53197500D02*
X139300000Y-53197500D01*
X141985000Y-55117500D02*
X141985000Y-53197500D01*
X139300000Y-55117500D02*
X141985000Y-55117500D01*
G04 #@! TO.C,D7*
X139300000Y-59197500D02*
X141985000Y-59197500D01*
X141985000Y-59197500D02*
X141985000Y-57277500D01*
X141985000Y-57277500D02*
X139300000Y-57277500D01*
G04 #@! TO.C,D8*
X141985000Y-61357500D02*
X139300000Y-61357500D01*
X141985000Y-63277500D02*
X141985000Y-61357500D01*
X139300000Y-63277500D02*
X141985000Y-63277500D01*
G04 #@! TO.C,D10*
X139300000Y-71437500D02*
X141985000Y-71437500D01*
X141985000Y-71437500D02*
X141985000Y-69517500D01*
X141985000Y-69517500D02*
X139300000Y-69517500D01*
G04 #@! TO.C,D1*
X130747500Y-67040000D02*
X128062500Y-67040000D01*
X130747500Y-68960000D02*
X130747500Y-67040000D01*
X128062500Y-68960000D02*
X130747500Y-68960000D01*
G04 #@! TO.C,D9*
X139300000Y-67357500D02*
X141985000Y-67357500D01*
X141985000Y-67357500D02*
X141985000Y-65437500D01*
X141985000Y-65437500D02*
X139300000Y-65437500D01*
G04 #@! TO.C,U1*
X114000000Y-94860000D02*
G75*
G02X112000000Y-94860000I-1000000J0D01*
G01*
X112000000Y-94860000D02*
X109765000Y-94860000D01*
X109765000Y-94860000D02*
X109765000Y-105140000D01*
X109765000Y-105140000D02*
X116235000Y-105140000D01*
X116235000Y-105140000D02*
X116235000Y-94860000D01*
X116235000Y-94860000D02*
X114000000Y-94860000D01*
D13*
G04 #@! TO.C,U4*
X51925000Y-28950000D02*
X50550000Y-28950000D01*
X51925000Y-39075000D02*
X56075000Y-39075000D01*
X51925000Y-28925000D02*
X56075000Y-28925000D01*
X51925000Y-39075000D02*
X51925000Y-38970000D01*
X56075000Y-39075000D02*
X56075000Y-38970000D01*
X56075000Y-28925000D02*
X56075000Y-29030000D01*
X51925000Y-28925000D02*
X51925000Y-28950000D01*
G04 #@! TO.C,U7*
X76925000Y-92925000D02*
X76925000Y-92950000D01*
X81075000Y-92925000D02*
X81075000Y-93030000D01*
X81075000Y-103075000D02*
X81075000Y-102970000D01*
X76925000Y-103075000D02*
X76925000Y-102970000D01*
X76925000Y-92925000D02*
X81075000Y-92925000D01*
X76925000Y-103075000D02*
X81075000Y-103075000D01*
X76925000Y-92950000D02*
X75550000Y-92950000D01*
G04 #@! TO.C,U6*
X51925000Y-56950000D02*
X50550000Y-56950000D01*
X51925000Y-67075000D02*
X56075000Y-67075000D01*
X51925000Y-56925000D02*
X56075000Y-56925000D01*
X51925000Y-67075000D02*
X51925000Y-66970000D01*
X56075000Y-67075000D02*
X56075000Y-66970000D01*
X56075000Y-56925000D02*
X56075000Y-57030000D01*
X51925000Y-56925000D02*
X51925000Y-56950000D01*
G04 #@! TO.C,U3*
X51925000Y-42925000D02*
X51925000Y-42950000D01*
X56075000Y-42925000D02*
X56075000Y-43030000D01*
X56075000Y-53075000D02*
X56075000Y-52970000D01*
X51925000Y-53075000D02*
X51925000Y-52970000D01*
X51925000Y-42925000D02*
X56075000Y-42925000D01*
X51925000Y-53075000D02*
X56075000Y-53075000D01*
X51925000Y-42950000D02*
X50550000Y-42950000D01*
G04 #@! TO.C,U5*
X51925000Y-71950000D02*
X50550000Y-71950000D01*
X51925000Y-82075000D02*
X56075000Y-82075000D01*
X51925000Y-71925000D02*
X56075000Y-71925000D01*
X51925000Y-82075000D02*
X51925000Y-81970000D01*
X56075000Y-82075000D02*
X56075000Y-81970000D01*
X56075000Y-71925000D02*
X56075000Y-72030000D01*
X51925000Y-71925000D02*
X51925000Y-71950000D01*
G04 #@! TO.C,U8*
X135925000Y-27925000D02*
X135925000Y-27950000D01*
X140075000Y-27925000D02*
X140075000Y-28030000D01*
X140075000Y-38075000D02*
X140075000Y-37970000D01*
X135925000Y-38075000D02*
X135925000Y-37970000D01*
X135925000Y-27925000D02*
X140075000Y-27925000D01*
X135925000Y-38075000D02*
X140075000Y-38075000D01*
X135925000Y-27950000D02*
X134550000Y-27950000D01*
D12*
G04 #@! TO.C,R14*
X135478578Y-67107500D02*
X134961422Y-67107500D01*
X135478578Y-65687500D02*
X134961422Y-65687500D01*
G04 #@! TO.C,R12*
X135478578Y-57527500D02*
X134961422Y-57527500D01*
X135478578Y-58947500D02*
X134961422Y-58947500D01*
G04 #@! TO.C,R11*
X135478578Y-54867500D02*
X134961422Y-54867500D01*
X135478578Y-53447500D02*
X134961422Y-53447500D01*
G04 #@! TO.C,R10*
X135478578Y-49367500D02*
X134961422Y-49367500D01*
X135478578Y-50787500D02*
X134961422Y-50787500D01*
G04 #@! TO.C,R9*
X135478578Y-46707500D02*
X134961422Y-46707500D01*
X135478578Y-45287500D02*
X134961422Y-45287500D01*
G04 #@! TO.C,R8*
X135478578Y-41207500D02*
X134961422Y-41207500D01*
X135478578Y-42627500D02*
X134961422Y-42627500D01*
G04 #@! TO.C,R7*
X72710000Y-99803922D02*
X72710000Y-100321078D01*
X71290000Y-99803922D02*
X71290000Y-100321078D01*
G04 #@! TO.C,R3*
X122678922Y-101710000D02*
X123196078Y-101710000D01*
X122678922Y-100290000D02*
X123196078Y-100290000D01*
G04 #@! TO.C,R2*
X103678922Y-95290000D02*
X104196078Y-95290000D01*
X103678922Y-96710000D02*
X104196078Y-96710000D01*
G04 #@! TO.C,R13*
X135478578Y-61607500D02*
X134961422Y-61607500D01*
X135478578Y-63027500D02*
X134961422Y-63027500D01*
G04 #@! TO.C,R15*
X135478578Y-71187500D02*
X134961422Y-71187500D01*
X135478578Y-69767500D02*
X134961422Y-69767500D01*
G04 #@! TO.C,R5*
X71290000Y-94741422D02*
X71290000Y-95258578D01*
X72710000Y-94741422D02*
X72710000Y-95258578D01*
G04 #@! TO.C,R1*
X124321078Y-68710000D02*
X123803922Y-68710000D01*
X124321078Y-67290000D02*
X123803922Y-67290000D01*
D13*
G04 #@! TO.C,U2*
X116190000Y-28220000D02*
X116190000Y-26950000D01*
X116190000Y-26950000D02*
X123810000Y-26950000D01*
X123810000Y-26950000D02*
X123810000Y-28220000D01*
X114920000Y-39650000D02*
X114920000Y-43460000D01*
X114920000Y-43460000D02*
X117460000Y-43460000D01*
X117460000Y-43460000D02*
X117460000Y-39650000D01*
X117460000Y-39650000D02*
X114920000Y-39650000D01*
X116190000Y-33300000D02*
X123810000Y-33300000D01*
X123810000Y-33300000D02*
X123810000Y-28220000D01*
X116190000Y-33300000D02*
X116190000Y-28220000D01*
X114920000Y-34570000D02*
X114920000Y-37110000D01*
X114920000Y-37110000D02*
X117460000Y-37110000D01*
X117460000Y-37110000D02*
X117460000Y-34570000D01*
X117460000Y-34570000D02*
X114920000Y-34570000D01*
X122540000Y-61240000D02*
X117460000Y-61240000D01*
X117460000Y-61240000D02*
X117460000Y-58700000D01*
X117460000Y-58700000D02*
X122540000Y-58700000D01*
X122540000Y-58700000D02*
X122540000Y-61240000D01*
X114920000Y-54890000D02*
X125080000Y-54890000D01*
X125080000Y-46000000D02*
X114920000Y-46000000D01*
X125080000Y-54890000D02*
X125080000Y-46000000D01*
X114920000Y-54890000D02*
X114920000Y-46000000D01*
X128890000Y-28220000D02*
X128890000Y-63780000D01*
X128890000Y-63780000D02*
X111110000Y-63780000D01*
X111110000Y-63780000D02*
X111110000Y-28220000D01*
X111110000Y-28220000D02*
X128890000Y-28220000D01*
G04 #@! TO.C,R6*
X101122380Y-51166666D02*
X100646190Y-51500000D01*
X101122380Y-51738095D02*
X100122380Y-51738095D01*
X100122380Y-51357142D01*
X100170000Y-51261904D01*
X100217619Y-51214285D01*
X100312857Y-51166666D01*
X100455714Y-51166666D01*
X100550952Y-51214285D01*
X100598571Y-51261904D01*
X100646190Y-51357142D01*
X100646190Y-51738095D01*
X100122380Y-50309523D02*
X100122380Y-50500000D01*
X100170000Y-50595238D01*
X100217619Y-50642857D01*
X100360476Y-50738095D01*
X100550952Y-50785714D01*
X100931904Y-50785714D01*
X101027142Y-50738095D01*
X101074761Y-50690476D01*
X101122380Y-50595238D01*
X101122380Y-50404761D01*
X101074761Y-50309523D01*
X101027142Y-50261904D01*
X100931904Y-50214285D01*
X100693809Y-50214285D01*
X100598571Y-50261904D01*
X100550952Y-50309523D01*
X100503333Y-50404761D01*
X100503333Y-50595238D01*
X100550952Y-50690476D01*
X100598571Y-50738095D01*
X100693809Y-50785714D01*
G04 #@! TO.C,C1*
X123113333Y-94707142D02*
X123065714Y-94754761D01*
X122922857Y-94802380D01*
X122827619Y-94802380D01*
X122684761Y-94754761D01*
X122589523Y-94659523D01*
X122541904Y-94564285D01*
X122494285Y-94373809D01*
X122494285Y-94230952D01*
X122541904Y-94040476D01*
X122589523Y-93945238D01*
X122684761Y-93850000D01*
X122827619Y-93802380D01*
X122922857Y-93802380D01*
X123065714Y-93850000D01*
X123113333Y-93897619D01*
X124065714Y-94802380D02*
X123494285Y-94802380D01*
X123780000Y-94802380D02*
X123780000Y-93802380D01*
X123684761Y-93945238D01*
X123589523Y-94040476D01*
X123494285Y-94088095D01*
G04 #@! TO.C,C2*
X61607142Y-98816666D02*
X61654761Y-98864285D01*
X61702380Y-99007142D01*
X61702380Y-99102380D01*
X61654761Y-99245238D01*
X61559523Y-99340476D01*
X61464285Y-99388095D01*
X61273809Y-99435714D01*
X61130952Y-99435714D01*
X60940476Y-99388095D01*
X60845238Y-99340476D01*
X60750000Y-99245238D01*
X60702380Y-99102380D01*
X60702380Y-99007142D01*
X60750000Y-98864285D01*
X60797619Y-98816666D01*
X60797619Y-98435714D02*
X60750000Y-98388095D01*
X60702380Y-98292857D01*
X60702380Y-98054761D01*
X60750000Y-97959523D01*
X60797619Y-97911904D01*
X60892857Y-97864285D01*
X60988095Y-97864285D01*
X61130952Y-97911904D01*
X61702380Y-98483333D01*
X61702380Y-97864285D01*
G04 #@! TO.C,R4*
X82782380Y-84166666D02*
X82306190Y-84500000D01*
X82782380Y-84738095D02*
X81782380Y-84738095D01*
X81782380Y-84357142D01*
X81830000Y-84261904D01*
X81877619Y-84214285D01*
X81972857Y-84166666D01*
X82115714Y-84166666D01*
X82210952Y-84214285D01*
X82258571Y-84261904D01*
X82306190Y-84357142D01*
X82306190Y-84738095D01*
X82115714Y-83309523D02*
X82782380Y-83309523D01*
X81734761Y-83547619D02*
X82449047Y-83785714D01*
X82449047Y-83166666D01*
G04 #@! TO.C,J2*
X69051667Y-25527381D02*
X69051667Y-26241667D01*
X69004048Y-26384524D01*
X68908810Y-26479762D01*
X68765953Y-26527381D01*
X68670715Y-26527381D01*
X69480239Y-25622620D02*
X69527858Y-25575001D01*
X69623096Y-25527381D01*
X69861191Y-25527381D01*
X69956429Y-25575001D01*
X70004048Y-25622620D01*
X70051667Y-25717858D01*
X70051667Y-25813096D01*
X70004048Y-25955953D01*
X69432620Y-26527381D01*
X70051667Y-26527381D01*
G04 #@! TO.C,J3*
X72651667Y-25527381D02*
X72651667Y-26241667D01*
X72604048Y-26384524D01*
X72508810Y-26479762D01*
X72365953Y-26527381D01*
X72270715Y-26527381D01*
X73032620Y-25527381D02*
X73651667Y-25527381D01*
X73318334Y-25908334D01*
X73461191Y-25908334D01*
X73556429Y-25955953D01*
X73604048Y-26003572D01*
X73651667Y-26098810D01*
X73651667Y-26336905D01*
X73604048Y-26432143D01*
X73556429Y-26479762D01*
X73461191Y-26527381D01*
X73175477Y-26527381D01*
X73080239Y-26479762D01*
X73032620Y-26432143D01*
G04 #@! TO.C,J4*
X76251667Y-25527381D02*
X76251667Y-26241667D01*
X76204048Y-26384524D01*
X76108810Y-26479762D01*
X75965953Y-26527381D01*
X75870715Y-26527381D01*
X77156429Y-25860715D02*
X77156429Y-26527381D01*
X76918334Y-25479762D02*
X76680239Y-26194048D01*
X77299286Y-26194048D01*
G04 #@! TO.C,D2*
X105452380Y-103088095D02*
X104452380Y-103088095D01*
X104452380Y-102850000D01*
X104500000Y-102707142D01*
X104595238Y-102611904D01*
X104690476Y-102564285D01*
X104880952Y-102516666D01*
X105023809Y-102516666D01*
X105214285Y-102564285D01*
X105309523Y-102611904D01*
X105404761Y-102707142D01*
X105452380Y-102850000D01*
X105452380Y-103088095D01*
X104547619Y-102135714D02*
X104500000Y-102088095D01*
X104452380Y-101992857D01*
X104452380Y-101754761D01*
X104500000Y-101659523D01*
X104547619Y-101611904D01*
X104642857Y-101564285D01*
X104738095Y-101564285D01*
X104880952Y-101611904D01*
X105452380Y-102183333D01*
X105452380Y-101564285D01*
G04 #@! TO.C,D5*
X139561904Y-52179880D02*
X139561904Y-51179880D01*
X139800000Y-51179880D01*
X139942857Y-51227500D01*
X140038095Y-51322738D01*
X140085714Y-51417976D01*
X140133333Y-51608452D01*
X140133333Y-51751309D01*
X140085714Y-51941785D01*
X140038095Y-52037023D01*
X139942857Y-52132261D01*
X139800000Y-52179880D01*
X139561904Y-52179880D01*
X141038095Y-51179880D02*
X140561904Y-51179880D01*
X140514285Y-51656071D01*
X140561904Y-51608452D01*
X140657142Y-51560833D01*
X140895238Y-51560833D01*
X140990476Y-51608452D01*
X141038095Y-51656071D01*
X141085714Y-51751309D01*
X141085714Y-51989404D01*
X141038095Y-52084642D01*
X140990476Y-52132261D01*
X140895238Y-52179880D01*
X140657142Y-52179880D01*
X140561904Y-52132261D01*
X140514285Y-52084642D01*
G04 #@! TO.C,D3*
X139561904Y-44019880D02*
X139561904Y-43019880D01*
X139800000Y-43019880D01*
X139942857Y-43067500D01*
X140038095Y-43162738D01*
X140085714Y-43257976D01*
X140133333Y-43448452D01*
X140133333Y-43591309D01*
X140085714Y-43781785D01*
X140038095Y-43877023D01*
X139942857Y-43972261D01*
X139800000Y-44019880D01*
X139561904Y-44019880D01*
X140466666Y-43019880D02*
X141085714Y-43019880D01*
X140752380Y-43400833D01*
X140895238Y-43400833D01*
X140990476Y-43448452D01*
X141038095Y-43496071D01*
X141085714Y-43591309D01*
X141085714Y-43829404D01*
X141038095Y-43924642D01*
X140990476Y-43972261D01*
X140895238Y-44019880D01*
X140609523Y-44019880D01*
X140514285Y-43972261D01*
X140466666Y-43924642D01*
G04 #@! TO.C,D4*
X139561904Y-48039880D02*
X139561904Y-47039880D01*
X139800000Y-47039880D01*
X139942857Y-47087500D01*
X140038095Y-47182738D01*
X140085714Y-47277976D01*
X140133333Y-47468452D01*
X140133333Y-47611309D01*
X140085714Y-47801785D01*
X140038095Y-47897023D01*
X139942857Y-47992261D01*
X139800000Y-48039880D01*
X139561904Y-48039880D01*
X140990476Y-47373214D02*
X140990476Y-48039880D01*
X140752380Y-46992261D02*
X140514285Y-47706547D01*
X141133333Y-47706547D01*
G04 #@! TO.C,D6*
X139561904Y-56259880D02*
X139561904Y-55259880D01*
X139800000Y-55259880D01*
X139942857Y-55307500D01*
X140038095Y-55402738D01*
X140085714Y-55497976D01*
X140133333Y-55688452D01*
X140133333Y-55831309D01*
X140085714Y-56021785D01*
X140038095Y-56117023D01*
X139942857Y-56212261D01*
X139800000Y-56259880D01*
X139561904Y-56259880D01*
X140990476Y-55259880D02*
X140800000Y-55259880D01*
X140704761Y-55307500D01*
X140657142Y-55355119D01*
X140561904Y-55497976D01*
X140514285Y-55688452D01*
X140514285Y-56069404D01*
X140561904Y-56164642D01*
X140609523Y-56212261D01*
X140704761Y-56259880D01*
X140895238Y-56259880D01*
X140990476Y-56212261D01*
X141038095Y-56164642D01*
X141085714Y-56069404D01*
X141085714Y-55831309D01*
X141038095Y-55736071D01*
X140990476Y-55688452D01*
X140895238Y-55640833D01*
X140704761Y-55640833D01*
X140609523Y-55688452D01*
X140561904Y-55736071D01*
X140514285Y-55831309D01*
G04 #@! TO.C,D7*
X139561904Y-60339880D02*
X139561904Y-59339880D01*
X139800000Y-59339880D01*
X139942857Y-59387500D01*
X140038095Y-59482738D01*
X140085714Y-59577976D01*
X140133333Y-59768452D01*
X140133333Y-59911309D01*
X140085714Y-60101785D01*
X140038095Y-60197023D01*
X139942857Y-60292261D01*
X139800000Y-60339880D01*
X139561904Y-60339880D01*
X140466666Y-59339880D02*
X141133333Y-59339880D01*
X140704761Y-60339880D01*
G04 #@! TO.C,D8*
X139561904Y-64419880D02*
X139561904Y-63419880D01*
X139800000Y-63419880D01*
X139942857Y-63467500D01*
X140038095Y-63562738D01*
X140085714Y-63657976D01*
X140133333Y-63848452D01*
X140133333Y-63991309D01*
X140085714Y-64181785D01*
X140038095Y-64277023D01*
X139942857Y-64372261D01*
X139800000Y-64419880D01*
X139561904Y-64419880D01*
X140704761Y-63848452D02*
X140609523Y-63800833D01*
X140561904Y-63753214D01*
X140514285Y-63657976D01*
X140514285Y-63610357D01*
X140561904Y-63515119D01*
X140609523Y-63467500D01*
X140704761Y-63419880D01*
X140895238Y-63419880D01*
X140990476Y-63467500D01*
X141038095Y-63515119D01*
X141085714Y-63610357D01*
X141085714Y-63657976D01*
X141038095Y-63753214D01*
X140990476Y-63800833D01*
X140895238Y-63848452D01*
X140704761Y-63848452D01*
X140609523Y-63896071D01*
X140561904Y-63943690D01*
X140514285Y-64038928D01*
X140514285Y-64229404D01*
X140561904Y-64324642D01*
X140609523Y-64372261D01*
X140704761Y-64419880D01*
X140895238Y-64419880D01*
X140990476Y-64372261D01*
X141038095Y-64324642D01*
X141085714Y-64229404D01*
X141085714Y-64038928D01*
X141038095Y-63943690D01*
X140990476Y-63896071D01*
X140895238Y-63848452D01*
G04 #@! TO.C,D10*
X139085714Y-72579880D02*
X139085714Y-71579880D01*
X139323809Y-71579880D01*
X139466666Y-71627500D01*
X139561904Y-71722738D01*
X139609523Y-71817976D01*
X139657142Y-72008452D01*
X139657142Y-72151309D01*
X139609523Y-72341785D01*
X139561904Y-72437023D01*
X139466666Y-72532261D01*
X139323809Y-72579880D01*
X139085714Y-72579880D01*
X140609523Y-72579880D02*
X140038095Y-72579880D01*
X140323809Y-72579880D02*
X140323809Y-71579880D01*
X140228571Y-71722738D01*
X140133333Y-71817976D01*
X140038095Y-71865595D01*
X141228571Y-71579880D02*
X141323809Y-71579880D01*
X141419047Y-71627500D01*
X141466666Y-71675119D01*
X141514285Y-71770357D01*
X141561904Y-71960833D01*
X141561904Y-72198928D01*
X141514285Y-72389404D01*
X141466666Y-72484642D01*
X141419047Y-72532261D01*
X141323809Y-72579880D01*
X141228571Y-72579880D01*
X141133333Y-72532261D01*
X141085714Y-72484642D01*
X141038095Y-72389404D01*
X140990476Y-72198928D01*
X140990476Y-71960833D01*
X141038095Y-71770357D01*
X141085714Y-71675119D01*
X141133333Y-71627500D01*
X141228571Y-71579880D01*
G04 #@! TO.C,D1*
X128324404Y-70102380D02*
X128324404Y-69102380D01*
X128562500Y-69102380D01*
X128705357Y-69150000D01*
X128800595Y-69245238D01*
X128848214Y-69340476D01*
X128895833Y-69530952D01*
X128895833Y-69673809D01*
X128848214Y-69864285D01*
X128800595Y-69959523D01*
X128705357Y-70054761D01*
X128562500Y-70102380D01*
X128324404Y-70102380D01*
X129848214Y-70102380D02*
X129276785Y-70102380D01*
X129562500Y-70102380D02*
X129562500Y-69102380D01*
X129467261Y-69245238D01*
X129372023Y-69340476D01*
X129276785Y-69388095D01*
G04 #@! TO.C,D9*
X139561904Y-68499880D02*
X139561904Y-67499880D01*
X139800000Y-67499880D01*
X139942857Y-67547500D01*
X140038095Y-67642738D01*
X140085714Y-67737976D01*
X140133333Y-67928452D01*
X140133333Y-68071309D01*
X140085714Y-68261785D01*
X140038095Y-68357023D01*
X139942857Y-68452261D01*
X139800000Y-68499880D01*
X139561904Y-68499880D01*
X140609523Y-68499880D02*
X140800000Y-68499880D01*
X140895238Y-68452261D01*
X140942857Y-68404642D01*
X141038095Y-68261785D01*
X141085714Y-68071309D01*
X141085714Y-67690357D01*
X141038095Y-67595119D01*
X140990476Y-67547500D01*
X140895238Y-67499880D01*
X140704761Y-67499880D01*
X140609523Y-67547500D01*
X140561904Y-67595119D01*
X140514285Y-67690357D01*
X140514285Y-67928452D01*
X140561904Y-68023690D01*
X140609523Y-68071309D01*
X140704761Y-68118928D01*
X140895238Y-68118928D01*
X140990476Y-68071309D01*
X141038095Y-68023690D01*
X141085714Y-67928452D01*
G04 #@! TO.C,U1*
X112238095Y-93312380D02*
X112238095Y-94121904D01*
X112285714Y-94217142D01*
X112333333Y-94264761D01*
X112428571Y-94312380D01*
X112619047Y-94312380D01*
X112714285Y-94264761D01*
X112761904Y-94217142D01*
X112809523Y-94121904D01*
X112809523Y-93312380D01*
X113809523Y-94312380D02*
X113238095Y-94312380D01*
X113523809Y-94312380D02*
X113523809Y-93312380D01*
X113428571Y-93455238D01*
X113333333Y-93550476D01*
X113238095Y-93598095D01*
G04 #@! TO.C,U4*
X53238095Y-27452380D02*
X53238095Y-28261904D01*
X53285714Y-28357142D01*
X53333333Y-28404761D01*
X53428571Y-28452380D01*
X53619047Y-28452380D01*
X53714285Y-28404761D01*
X53761904Y-28357142D01*
X53809523Y-28261904D01*
X53809523Y-27452380D01*
X54714285Y-27785714D02*
X54714285Y-28452380D01*
X54476190Y-27404761D02*
X54238095Y-28119047D01*
X54857142Y-28119047D01*
G04 #@! TO.C,U7*
X78238095Y-91452380D02*
X78238095Y-92261904D01*
X78285714Y-92357142D01*
X78333333Y-92404761D01*
X78428571Y-92452380D01*
X78619047Y-92452380D01*
X78714285Y-92404761D01*
X78761904Y-92357142D01*
X78809523Y-92261904D01*
X78809523Y-91452380D01*
X79190476Y-91452380D02*
X79857142Y-91452380D01*
X79428571Y-92452380D01*
G04 #@! TO.C,U6*
X53238095Y-55452380D02*
X53238095Y-56261904D01*
X53285714Y-56357142D01*
X53333333Y-56404761D01*
X53428571Y-56452380D01*
X53619047Y-56452380D01*
X53714285Y-56404761D01*
X53761904Y-56357142D01*
X53809523Y-56261904D01*
X53809523Y-55452380D01*
X54714285Y-55452380D02*
X54523809Y-55452380D01*
X54428571Y-55500000D01*
X54380952Y-55547619D01*
X54285714Y-55690476D01*
X54238095Y-55880952D01*
X54238095Y-56261904D01*
X54285714Y-56357142D01*
X54333333Y-56404761D01*
X54428571Y-56452380D01*
X54619047Y-56452380D01*
X54714285Y-56404761D01*
X54761904Y-56357142D01*
X54809523Y-56261904D01*
X54809523Y-56023809D01*
X54761904Y-55928571D01*
X54714285Y-55880952D01*
X54619047Y-55833333D01*
X54428571Y-55833333D01*
X54333333Y-55880952D01*
X54285714Y-55928571D01*
X54238095Y-56023809D01*
G04 #@! TO.C,U3*
X53238095Y-41452380D02*
X53238095Y-42261904D01*
X53285714Y-42357142D01*
X53333333Y-42404761D01*
X53428571Y-42452380D01*
X53619047Y-42452380D01*
X53714285Y-42404761D01*
X53761904Y-42357142D01*
X53809523Y-42261904D01*
X53809523Y-41452380D01*
X54190476Y-41452380D02*
X54809523Y-41452380D01*
X54476190Y-41833333D01*
X54619047Y-41833333D01*
X54714285Y-41880952D01*
X54761904Y-41928571D01*
X54809523Y-42023809D01*
X54809523Y-42261904D01*
X54761904Y-42357142D01*
X54714285Y-42404761D01*
X54619047Y-42452380D01*
X54333333Y-42452380D01*
X54238095Y-42404761D01*
X54190476Y-42357142D01*
G04 #@! TO.C,U5*
X53238095Y-70452380D02*
X53238095Y-71261904D01*
X53285714Y-71357142D01*
X53333333Y-71404761D01*
X53428571Y-71452380D01*
X53619047Y-71452380D01*
X53714285Y-71404761D01*
X53761904Y-71357142D01*
X53809523Y-71261904D01*
X53809523Y-70452380D01*
X54761904Y-70452380D02*
X54285714Y-70452380D01*
X54238095Y-70928571D01*
X54285714Y-70880952D01*
X54380952Y-70833333D01*
X54619047Y-70833333D01*
X54714285Y-70880952D01*
X54761904Y-70928571D01*
X54809523Y-71023809D01*
X54809523Y-71261904D01*
X54761904Y-71357142D01*
X54714285Y-71404761D01*
X54619047Y-71452380D01*
X54380952Y-71452380D01*
X54285714Y-71404761D01*
X54238095Y-71357142D01*
G04 #@! TO.C,U8*
X137238095Y-26452380D02*
X137238095Y-27261904D01*
X137285714Y-27357142D01*
X137333333Y-27404761D01*
X137428571Y-27452380D01*
X137619047Y-27452380D01*
X137714285Y-27404761D01*
X137761904Y-27357142D01*
X137809523Y-27261904D01*
X137809523Y-26452380D01*
X138428571Y-26880952D02*
X138333333Y-26833333D01*
X138285714Y-26785714D01*
X138238095Y-26690476D01*
X138238095Y-26642857D01*
X138285714Y-26547619D01*
X138333333Y-26500000D01*
X138428571Y-26452380D01*
X138619047Y-26452380D01*
X138714285Y-26500000D01*
X138761904Y-26547619D01*
X138809523Y-26642857D01*
X138809523Y-26690476D01*
X138761904Y-26785714D01*
X138714285Y-26833333D01*
X138619047Y-26880952D01*
X138428571Y-26880952D01*
X138333333Y-26928571D01*
X138285714Y-26976190D01*
X138238095Y-27071428D01*
X138238095Y-27261904D01*
X138285714Y-27357142D01*
X138333333Y-27404761D01*
X138428571Y-27452380D01*
X138619047Y-27452380D01*
X138714285Y-27404761D01*
X138761904Y-27357142D01*
X138809523Y-27261904D01*
X138809523Y-27071428D01*
X138761904Y-26976190D01*
X138714285Y-26928571D01*
X138619047Y-26880952D01*
G04 #@! TO.C,R14*
X134577142Y-68499880D02*
X134243809Y-68023690D01*
X134005714Y-68499880D02*
X134005714Y-67499880D01*
X134386666Y-67499880D01*
X134481904Y-67547500D01*
X134529523Y-67595119D01*
X134577142Y-67690357D01*
X134577142Y-67833214D01*
X134529523Y-67928452D01*
X134481904Y-67976071D01*
X134386666Y-68023690D01*
X134005714Y-68023690D01*
X135529523Y-68499880D02*
X134958095Y-68499880D01*
X135243809Y-68499880D02*
X135243809Y-67499880D01*
X135148571Y-67642738D01*
X135053333Y-67737976D01*
X134958095Y-67785595D01*
X136386666Y-67833214D02*
X136386666Y-68499880D01*
X136148571Y-67452261D02*
X135910476Y-68166547D01*
X136529523Y-68166547D01*
G04 #@! TO.C,R12*
X134577142Y-60339880D02*
X134243809Y-59863690D01*
X134005714Y-60339880D02*
X134005714Y-59339880D01*
X134386666Y-59339880D01*
X134481904Y-59387500D01*
X134529523Y-59435119D01*
X134577142Y-59530357D01*
X134577142Y-59673214D01*
X134529523Y-59768452D01*
X134481904Y-59816071D01*
X134386666Y-59863690D01*
X134005714Y-59863690D01*
X135529523Y-60339880D02*
X134958095Y-60339880D01*
X135243809Y-60339880D02*
X135243809Y-59339880D01*
X135148571Y-59482738D01*
X135053333Y-59577976D01*
X134958095Y-59625595D01*
X135910476Y-59435119D02*
X135958095Y-59387500D01*
X136053333Y-59339880D01*
X136291428Y-59339880D01*
X136386666Y-59387500D01*
X136434285Y-59435119D01*
X136481904Y-59530357D01*
X136481904Y-59625595D01*
X136434285Y-59768452D01*
X135862857Y-60339880D01*
X136481904Y-60339880D01*
G04 #@! TO.C,R11*
X134577142Y-56259880D02*
X134243809Y-55783690D01*
X134005714Y-56259880D02*
X134005714Y-55259880D01*
X134386666Y-55259880D01*
X134481904Y-55307500D01*
X134529523Y-55355119D01*
X134577142Y-55450357D01*
X134577142Y-55593214D01*
X134529523Y-55688452D01*
X134481904Y-55736071D01*
X134386666Y-55783690D01*
X134005714Y-55783690D01*
X135529523Y-56259880D02*
X134958095Y-56259880D01*
X135243809Y-56259880D02*
X135243809Y-55259880D01*
X135148571Y-55402738D01*
X135053333Y-55497976D01*
X134958095Y-55545595D01*
X136481904Y-56259880D02*
X135910476Y-56259880D01*
X136196190Y-56259880D02*
X136196190Y-55259880D01*
X136100952Y-55402738D01*
X136005714Y-55497976D01*
X135910476Y-55545595D01*
G04 #@! TO.C,R10*
X134577142Y-52179880D02*
X134243809Y-51703690D01*
X134005714Y-52179880D02*
X134005714Y-51179880D01*
X134386666Y-51179880D01*
X134481904Y-51227500D01*
X134529523Y-51275119D01*
X134577142Y-51370357D01*
X134577142Y-51513214D01*
X134529523Y-51608452D01*
X134481904Y-51656071D01*
X134386666Y-51703690D01*
X134005714Y-51703690D01*
X135529523Y-52179880D02*
X134958095Y-52179880D01*
X135243809Y-52179880D02*
X135243809Y-51179880D01*
X135148571Y-51322738D01*
X135053333Y-51417976D01*
X134958095Y-51465595D01*
X136148571Y-51179880D02*
X136243809Y-51179880D01*
X136339047Y-51227500D01*
X136386666Y-51275119D01*
X136434285Y-51370357D01*
X136481904Y-51560833D01*
X136481904Y-51798928D01*
X136434285Y-51989404D01*
X136386666Y-52084642D01*
X136339047Y-52132261D01*
X136243809Y-52179880D01*
X136148571Y-52179880D01*
X136053333Y-52132261D01*
X136005714Y-52084642D01*
X135958095Y-51989404D01*
X135910476Y-51798928D01*
X135910476Y-51560833D01*
X135958095Y-51370357D01*
X136005714Y-51275119D01*
X136053333Y-51227500D01*
X136148571Y-51179880D01*
G04 #@! TO.C,R9*
X135053333Y-48099880D02*
X134720000Y-47623690D01*
X134481904Y-48099880D02*
X134481904Y-47099880D01*
X134862857Y-47099880D01*
X134958095Y-47147500D01*
X135005714Y-47195119D01*
X135053333Y-47290357D01*
X135053333Y-47433214D01*
X135005714Y-47528452D01*
X134958095Y-47576071D01*
X134862857Y-47623690D01*
X134481904Y-47623690D01*
X135529523Y-48099880D02*
X135720000Y-48099880D01*
X135815238Y-48052261D01*
X135862857Y-48004642D01*
X135958095Y-47861785D01*
X136005714Y-47671309D01*
X136005714Y-47290357D01*
X135958095Y-47195119D01*
X135910476Y-47147500D01*
X135815238Y-47099880D01*
X135624761Y-47099880D01*
X135529523Y-47147500D01*
X135481904Y-47195119D01*
X135434285Y-47290357D01*
X135434285Y-47528452D01*
X135481904Y-47623690D01*
X135529523Y-47671309D01*
X135624761Y-47718928D01*
X135815238Y-47718928D01*
X135910476Y-47671309D01*
X135958095Y-47623690D01*
X136005714Y-47528452D01*
G04 #@! TO.C,R8*
X135053333Y-44019880D02*
X134720000Y-43543690D01*
X134481904Y-44019880D02*
X134481904Y-43019880D01*
X134862857Y-43019880D01*
X134958095Y-43067500D01*
X135005714Y-43115119D01*
X135053333Y-43210357D01*
X135053333Y-43353214D01*
X135005714Y-43448452D01*
X134958095Y-43496071D01*
X134862857Y-43543690D01*
X134481904Y-43543690D01*
X135624761Y-43448452D02*
X135529523Y-43400833D01*
X135481904Y-43353214D01*
X135434285Y-43257976D01*
X135434285Y-43210357D01*
X135481904Y-43115119D01*
X135529523Y-43067500D01*
X135624761Y-43019880D01*
X135815238Y-43019880D01*
X135910476Y-43067500D01*
X135958095Y-43115119D01*
X136005714Y-43210357D01*
X136005714Y-43257976D01*
X135958095Y-43353214D01*
X135910476Y-43400833D01*
X135815238Y-43448452D01*
X135624761Y-43448452D01*
X135529523Y-43496071D01*
X135481904Y-43543690D01*
X135434285Y-43638928D01*
X135434285Y-43829404D01*
X135481904Y-43924642D01*
X135529523Y-43972261D01*
X135624761Y-44019880D01*
X135815238Y-44019880D01*
X135910476Y-43972261D01*
X135958095Y-43924642D01*
X136005714Y-43829404D01*
X136005714Y-43638928D01*
X135958095Y-43543690D01*
X135910476Y-43496071D01*
X135815238Y-43448452D01*
G04 #@! TO.C,R7*
X74102380Y-100229166D02*
X73626190Y-100562500D01*
X74102380Y-100800595D02*
X73102380Y-100800595D01*
X73102380Y-100419642D01*
X73150000Y-100324404D01*
X73197619Y-100276785D01*
X73292857Y-100229166D01*
X73435714Y-100229166D01*
X73530952Y-100276785D01*
X73578571Y-100324404D01*
X73626190Y-100419642D01*
X73626190Y-100800595D01*
X73102380Y-99895833D02*
X73102380Y-99229166D01*
X74102380Y-99657738D01*
G04 #@! TO.C,R3*
X122770833Y-99802380D02*
X122437500Y-99326190D01*
X122199404Y-99802380D02*
X122199404Y-98802380D01*
X122580357Y-98802380D01*
X122675595Y-98850000D01*
X122723214Y-98897619D01*
X122770833Y-98992857D01*
X122770833Y-99135714D01*
X122723214Y-99230952D01*
X122675595Y-99278571D01*
X122580357Y-99326190D01*
X122199404Y-99326190D01*
X123104166Y-98802380D02*
X123723214Y-98802380D01*
X123389880Y-99183333D01*
X123532738Y-99183333D01*
X123627976Y-99230952D01*
X123675595Y-99278571D01*
X123723214Y-99373809D01*
X123723214Y-99611904D01*
X123675595Y-99707142D01*
X123627976Y-99754761D01*
X123532738Y-99802380D01*
X123247023Y-99802380D01*
X123151785Y-99754761D01*
X123104166Y-99707142D01*
G04 #@! TO.C,R2*
X103770833Y-94802380D02*
X103437500Y-94326190D01*
X103199404Y-94802380D02*
X103199404Y-93802380D01*
X103580357Y-93802380D01*
X103675595Y-93850000D01*
X103723214Y-93897619D01*
X103770833Y-93992857D01*
X103770833Y-94135714D01*
X103723214Y-94230952D01*
X103675595Y-94278571D01*
X103580357Y-94326190D01*
X103199404Y-94326190D01*
X104151785Y-93897619D02*
X104199404Y-93850000D01*
X104294642Y-93802380D01*
X104532738Y-93802380D01*
X104627976Y-93850000D01*
X104675595Y-93897619D01*
X104723214Y-93992857D01*
X104723214Y-94088095D01*
X104675595Y-94230952D01*
X104104166Y-94802380D01*
X104723214Y-94802380D01*
G04 #@! TO.C,R13*
X134577142Y-64419880D02*
X134243809Y-63943690D01*
X134005714Y-64419880D02*
X134005714Y-63419880D01*
X134386666Y-63419880D01*
X134481904Y-63467500D01*
X134529523Y-63515119D01*
X134577142Y-63610357D01*
X134577142Y-63753214D01*
X134529523Y-63848452D01*
X134481904Y-63896071D01*
X134386666Y-63943690D01*
X134005714Y-63943690D01*
X135529523Y-64419880D02*
X134958095Y-64419880D01*
X135243809Y-64419880D02*
X135243809Y-63419880D01*
X135148571Y-63562738D01*
X135053333Y-63657976D01*
X134958095Y-63705595D01*
X135862857Y-63419880D02*
X136481904Y-63419880D01*
X136148571Y-63800833D01*
X136291428Y-63800833D01*
X136386666Y-63848452D01*
X136434285Y-63896071D01*
X136481904Y-63991309D01*
X136481904Y-64229404D01*
X136434285Y-64324642D01*
X136386666Y-64372261D01*
X136291428Y-64419880D01*
X136005714Y-64419880D01*
X135910476Y-64372261D01*
X135862857Y-64324642D01*
G04 #@! TO.C,R15*
X134577142Y-72579880D02*
X134243809Y-72103690D01*
X134005714Y-72579880D02*
X134005714Y-71579880D01*
X134386666Y-71579880D01*
X134481904Y-71627500D01*
X134529523Y-71675119D01*
X134577142Y-71770357D01*
X134577142Y-71913214D01*
X134529523Y-72008452D01*
X134481904Y-72056071D01*
X134386666Y-72103690D01*
X134005714Y-72103690D01*
X135529523Y-72579880D02*
X134958095Y-72579880D01*
X135243809Y-72579880D02*
X135243809Y-71579880D01*
X135148571Y-71722738D01*
X135053333Y-71817976D01*
X134958095Y-71865595D01*
X136434285Y-71579880D02*
X135958095Y-71579880D01*
X135910476Y-72056071D01*
X135958095Y-72008452D01*
X136053333Y-71960833D01*
X136291428Y-71960833D01*
X136386666Y-72008452D01*
X136434285Y-72056071D01*
X136481904Y-72151309D01*
X136481904Y-72389404D01*
X136434285Y-72484642D01*
X136386666Y-72532261D01*
X136291428Y-72579880D01*
X136053333Y-72579880D01*
X135958095Y-72532261D01*
X135910476Y-72484642D01*
G04 #@! TO.C,R5*
X74102380Y-95166666D02*
X73626190Y-95500000D01*
X74102380Y-95738095D02*
X73102380Y-95738095D01*
X73102380Y-95357142D01*
X73150000Y-95261904D01*
X73197619Y-95214285D01*
X73292857Y-95166666D01*
X73435714Y-95166666D01*
X73530952Y-95214285D01*
X73578571Y-95261904D01*
X73626190Y-95357142D01*
X73626190Y-95738095D01*
X73102380Y-94261904D02*
X73102380Y-94738095D01*
X73578571Y-94785714D01*
X73530952Y-94738095D01*
X73483333Y-94642857D01*
X73483333Y-94404761D01*
X73530952Y-94309523D01*
X73578571Y-94261904D01*
X73673809Y-94214285D01*
X73911904Y-94214285D01*
X74007142Y-94261904D01*
X74054761Y-94309523D01*
X74102380Y-94404761D01*
X74102380Y-94642857D01*
X74054761Y-94738095D01*
X74007142Y-94785714D01*
G04 #@! TO.C,R1*
X123895833Y-70102380D02*
X123562500Y-69626190D01*
X123324404Y-70102380D02*
X123324404Y-69102380D01*
X123705357Y-69102380D01*
X123800595Y-69150000D01*
X123848214Y-69197619D01*
X123895833Y-69292857D01*
X123895833Y-69435714D01*
X123848214Y-69530952D01*
X123800595Y-69578571D01*
X123705357Y-69626190D01*
X123324404Y-69626190D01*
X124848214Y-70102380D02*
X124276785Y-70102380D01*
X124562500Y-70102380D02*
X124562500Y-69102380D01*
X124467261Y-69245238D01*
X124372023Y-69340476D01*
X124276785Y-69388095D01*
G04 #@! TO.C,U2*
X129612380Y-46761904D02*
X130421904Y-46761904D01*
X130517142Y-46714285D01*
X130564761Y-46666666D01*
X130612380Y-46571428D01*
X130612380Y-46380952D01*
X130564761Y-46285714D01*
X130517142Y-46238095D01*
X130421904Y-46190476D01*
X129612380Y-46190476D01*
X129707619Y-45761904D02*
X129660000Y-45714285D01*
X129612380Y-45619047D01*
X129612380Y-45380952D01*
X129660000Y-45285714D01*
X129707619Y-45238095D01*
X129802857Y-45190476D01*
X129898095Y-45190476D01*
X130040952Y-45238095D01*
X130612380Y-45809523D01*
X130612380Y-45190476D01*
X121063809Y-35292380D02*
X121635238Y-35292380D01*
X121349523Y-36292380D02*
X121349523Y-35292380D01*
X121873333Y-35292380D02*
X122492380Y-35292380D01*
X122159047Y-35673333D01*
X122301904Y-35673333D01*
X122397142Y-35720952D01*
X122444761Y-35768571D01*
X122492380Y-35863809D01*
X122492380Y-36101904D01*
X122444761Y-36197142D01*
X122397142Y-36244761D01*
X122301904Y-36292380D01*
X122016190Y-36292380D01*
X121920952Y-36244761D01*
X121873333Y-36197142D01*
X122920952Y-36197142D02*
X122968571Y-36244761D01*
X122920952Y-36292380D01*
X122873333Y-36244761D01*
X122920952Y-36197142D01*
X122920952Y-36292380D01*
X123349523Y-35387619D02*
X123397142Y-35340000D01*
X123492380Y-35292380D01*
X123730476Y-35292380D01*
X123825714Y-35340000D01*
X123873333Y-35387619D01*
X123920952Y-35482857D01*
X123920952Y-35578095D01*
X123873333Y-35720952D01*
X123301904Y-36292380D01*
X123920952Y-36292380D01*
X121063809Y-39102380D02*
X121635238Y-39102380D01*
X121349523Y-40102380D02*
X121349523Y-39102380D01*
X121873333Y-39102380D02*
X122492380Y-39102380D01*
X122159047Y-39483333D01*
X122301904Y-39483333D01*
X122397142Y-39530952D01*
X122444761Y-39578571D01*
X122492380Y-39673809D01*
X122492380Y-39911904D01*
X122444761Y-40007142D01*
X122397142Y-40054761D01*
X122301904Y-40102380D01*
X122016190Y-40102380D01*
X121920952Y-40054761D01*
X121873333Y-40007142D01*
X122920952Y-40007142D02*
X122968571Y-40054761D01*
X122920952Y-40102380D01*
X122873333Y-40054761D01*
X122920952Y-40007142D01*
X122920952Y-40102380D01*
X123920952Y-40102380D02*
X123349523Y-40102380D01*
X123635238Y-40102380D02*
X123635238Y-39102380D01*
X123540000Y-39245238D01*
X123444761Y-39340476D01*
X123349523Y-39388095D01*
G04 #@! TD*
M02*
