G04 #@! TF.GenerationSoftware,KiCad,Pcbnew,(5.0.1)-3*
G04 #@! TF.CreationDate,2020-04-01T16:59:10+01:00*
G04 #@! TF.ProjectId,testsmt,74657374736D742E6B696361645F7063,rev?*
G04 #@! TF.SameCoordinates,Original*
G04 #@! TF.FileFunction,Copper,L2,Bot,Signal*
G04 #@! TF.FilePolarity,Positive*
%FSLAX46Y46*%
G04 Gerber Fmt 4.6, Leading zero omitted, Abs format (unit mm)*
G04 Created by KiCad (PCBNEW (5.0.1)-3) date 01/04/2020 16:59:10*
%MOMM*%
%LPD*%
G01*
G04 APERTURE LIST*
G04 #@! TA.AperFunction,WasherPad*
%ADD10C,4.000000*%
G04 #@! TD*
G04 #@! TA.AperFunction,ComponentPad*
%ADD11C,1.800000*%
G04 #@! TD*
G04 #@! TA.AperFunction,ComponentPad*
%ADD12O,1.700000X1.700000*%
G04 #@! TD*
G04 #@! TA.AperFunction,ComponentPad*
%ADD13R,1.700000X1.700000*%
G04 #@! TD*
G04 #@! TA.AperFunction,WasherPad*
%ADD14C,2.499360*%
G04 #@! TD*
G04 #@! TA.AperFunction,ComponentPad*
%ADD15C,2.499360*%
G04 #@! TD*
G04 #@! TA.AperFunction,ComponentPad*
%ADD16R,2.500000X3.500000*%
G04 #@! TD*
G04 #@! TA.AperFunction,ComponentPad*
%ADD17O,3.500000X1.750000*%
G04 #@! TD*
G04 #@! TA.AperFunction,ComponentPad*
%ADD18C,1.600000*%
G04 #@! TD*
G04 #@! TA.AperFunction,ComponentPad*
%ADD19R,1.600000X1.600000*%
G04 #@! TD*
G04 #@! TA.AperFunction,ComponentPad*
%ADD20C,1.900000*%
G04 #@! TD*
G04 #@! TA.AperFunction,ViaPad*
%ADD21C,0.800000*%
G04 #@! TD*
G04 #@! TA.AperFunction,Conductor*
%ADD22C,0.250000*%
G04 #@! TD*
G04 #@! TA.AperFunction,Conductor*
%ADD23C,0.254000*%
G04 #@! TD*
G04 APERTURE END LIST*
D10*
G04 #@! TO.P,RV1,*
G04 #@! TO.N,*
X56900000Y-114000000D03*
X48100000Y-114015000D03*
D11*
G04 #@! TO.P,RV1,1*
G04 #@! TO.N,+3V3*
X55000000Y-121000000D03*
G04 #@! TO.P,RV1,2*
G04 #@! TO.N,/KNOB_1*
X52500000Y-121000000D03*
G04 #@! TO.P,RV1,3*
G04 #@! TO.N,GND*
X50000000Y-121000000D03*
G04 #@! TD*
G04 #@! TO.P,RV7,3*
G04 #@! TO.N,/DAC_OUTPUT*
X50000000Y-100000000D03*
G04 #@! TO.P,RV7,2*
G04 #@! TO.N,Net-(C2-Pad1)*
X52500000Y-100000000D03*
G04 #@! TO.P,RV7,1*
G04 #@! TO.N,GND*
X55000000Y-100000000D03*
D10*
G04 #@! TO.P,RV7,*
G04 #@! TO.N,*
X48100000Y-93015000D03*
X56900000Y-93000000D03*
G04 #@! TD*
G04 #@! TO.P,RV6,*
G04 #@! TO.N,*
X141900000Y-114000000D03*
X133100000Y-114015000D03*
D11*
G04 #@! TO.P,RV6,1*
G04 #@! TO.N,+3V3*
X140000000Y-121000000D03*
G04 #@! TO.P,RV6,2*
G04 #@! TO.N,/KNOB_6*
X137500000Y-121000000D03*
G04 #@! TO.P,RV6,3*
G04 #@! TO.N,GND*
X135000000Y-121000000D03*
G04 #@! TD*
G04 #@! TO.P,RV4,3*
G04 #@! TO.N,GND*
X101000000Y-121000000D03*
G04 #@! TO.P,RV4,2*
G04 #@! TO.N,/KNOB_4*
X103500000Y-121000000D03*
G04 #@! TO.P,RV4,1*
G04 #@! TO.N,+3V3*
X106000000Y-121000000D03*
D10*
G04 #@! TO.P,RV4,*
G04 #@! TO.N,*
X99100000Y-114015000D03*
X107900000Y-114000000D03*
G04 #@! TD*
G04 #@! TO.P,RV3,*
G04 #@! TO.N,*
X90900000Y-114000000D03*
X82100000Y-114015000D03*
D11*
G04 #@! TO.P,RV3,1*
G04 #@! TO.N,+3V3*
X89000000Y-121000000D03*
G04 #@! TO.P,RV3,2*
G04 #@! TO.N,/KNOB_3*
X86500000Y-121000000D03*
G04 #@! TO.P,RV3,3*
G04 #@! TO.N,GND*
X84000000Y-121000000D03*
G04 #@! TD*
G04 #@! TO.P,RV2,3*
G04 #@! TO.N,GND*
X67000000Y-121000000D03*
G04 #@! TO.P,RV2,2*
G04 #@! TO.N,/KNOB_2*
X69500000Y-121000000D03*
G04 #@! TO.P,RV2,1*
G04 #@! TO.N,+3V3*
X72000000Y-121000000D03*
D10*
G04 #@! TO.P,RV2,*
G04 #@! TO.N,*
X65100000Y-114015000D03*
X73900000Y-114000000D03*
G04 #@! TD*
G04 #@! TO.P,RV5,*
G04 #@! TO.N,*
X124900000Y-114000000D03*
X116100000Y-114015000D03*
D11*
G04 #@! TO.P,RV5,1*
G04 #@! TO.N,+3V3*
X123000000Y-121000000D03*
G04 #@! TO.P,RV5,2*
G04 #@! TO.N,/KNOB_5*
X120500000Y-121000000D03*
G04 #@! TO.P,RV5,3*
G04 #@! TO.N,GND*
X118000000Y-121000000D03*
G04 #@! TD*
D12*
G04 #@! TO.P,R6,2*
G04 #@! TO.N,/FSR*
X105540000Y-51000000D03*
D13*
G04 #@! TO.P,R6,1*
G04 #@! TO.N,+3V3*
X103000000Y-51000000D03*
G04 #@! TD*
G04 #@! TO.P,R4,1*
G04 #@! TO.N,+3V3*
X80000000Y-84000000D03*
D12*
G04 #@! TO.P,R4,2*
G04 #@! TO.N,/LDR*
X77460000Y-84000000D03*
G04 #@! TD*
G04 #@! TO.P,J2,16*
G04 #@! TO.N,/CHANNEL_15*
X69385001Y-66945001D03*
G04 #@! TO.P,J2,15*
G04 #@! TO.N,/CHANNEL_14*
X69385001Y-64405001D03*
G04 #@! TO.P,J2,14*
G04 #@! TO.N,/CHANNEL_13*
X69385001Y-61865001D03*
G04 #@! TO.P,J2,13*
G04 #@! TO.N,/CHANNEL_12*
X69385001Y-59325001D03*
G04 #@! TO.P,J2,12*
G04 #@! TO.N,/CHANNEL_11*
X69385001Y-56785001D03*
G04 #@! TO.P,J2,11*
G04 #@! TO.N,/CHANNEL_10*
X69385001Y-54245001D03*
G04 #@! TO.P,J2,10*
G04 #@! TO.N,/CHANNEL_9*
X69385001Y-51705001D03*
G04 #@! TO.P,J2,9*
G04 #@! TO.N,/CHANNEL_8*
X69385001Y-49165001D03*
G04 #@! TO.P,J2,8*
G04 #@! TO.N,/CHANNEL_7*
X69385001Y-46625001D03*
G04 #@! TO.P,J2,7*
G04 #@! TO.N,/CHANNEL_6*
X69385001Y-44085001D03*
G04 #@! TO.P,J2,6*
G04 #@! TO.N,/CHANNEL_5*
X69385001Y-41545001D03*
G04 #@! TO.P,J2,5*
G04 #@! TO.N,/CHANNEL_4*
X69385001Y-39005001D03*
G04 #@! TO.P,J2,4*
G04 #@! TO.N,/CHANNEL_3*
X69385001Y-36465001D03*
G04 #@! TO.P,J2,3*
G04 #@! TO.N,/CHANNEL_2*
X69385001Y-33925001D03*
G04 #@! TO.P,J2,2*
G04 #@! TO.N,/CHANNEL_1*
X69385001Y-31385001D03*
D13*
G04 #@! TO.P,J2,1*
G04 #@! TO.N,/CHANNEL_0*
X69385001Y-28845001D03*
G04 #@! TD*
G04 #@! TO.P,J3,1*
G04 #@! TO.N,/CHANNEL_0*
X72985001Y-28845001D03*
D12*
G04 #@! TO.P,J3,2*
G04 #@! TO.N,/CHANNEL_1*
X72985001Y-31385001D03*
G04 #@! TO.P,J3,3*
G04 #@! TO.N,/CHANNEL_2*
X72985001Y-33925001D03*
G04 #@! TO.P,J3,4*
G04 #@! TO.N,/CHANNEL_3*
X72985001Y-36465001D03*
G04 #@! TO.P,J3,5*
G04 #@! TO.N,/CHANNEL_4*
X72985001Y-39005001D03*
G04 #@! TO.P,J3,6*
G04 #@! TO.N,/CHANNEL_5*
X72985001Y-41545001D03*
G04 #@! TO.P,J3,7*
G04 #@! TO.N,/CHANNEL_6*
X72985001Y-44085001D03*
G04 #@! TO.P,J3,8*
G04 #@! TO.N,/CHANNEL_7*
X72985001Y-46625001D03*
G04 #@! TO.P,J3,9*
G04 #@! TO.N,/CHANNEL_8*
X72985001Y-49165001D03*
G04 #@! TO.P,J3,10*
G04 #@! TO.N,/CHANNEL_9*
X72985001Y-51705001D03*
G04 #@! TO.P,J3,11*
G04 #@! TO.N,/CHANNEL_10*
X72985001Y-54245001D03*
G04 #@! TO.P,J3,12*
G04 #@! TO.N,/CHANNEL_11*
X72985001Y-56785001D03*
G04 #@! TO.P,J3,13*
G04 #@! TO.N,/CHANNEL_12*
X72985001Y-59325001D03*
G04 #@! TO.P,J3,14*
G04 #@! TO.N,/CHANNEL_13*
X72985001Y-61865001D03*
G04 #@! TO.P,J3,15*
G04 #@! TO.N,/CHANNEL_14*
X72985001Y-64405001D03*
G04 #@! TO.P,J3,16*
G04 #@! TO.N,/CHANNEL_15*
X72985001Y-66945001D03*
G04 #@! TD*
G04 #@! TO.P,J4,16*
G04 #@! TO.N,/CHANNEL_15*
X76585001Y-66945001D03*
G04 #@! TO.P,J4,15*
G04 #@! TO.N,/CHANNEL_14*
X76585001Y-64405001D03*
G04 #@! TO.P,J4,14*
G04 #@! TO.N,/CHANNEL_13*
X76585001Y-61865001D03*
G04 #@! TO.P,J4,13*
G04 #@! TO.N,/CHANNEL_12*
X76585001Y-59325001D03*
G04 #@! TO.P,J4,12*
G04 #@! TO.N,/CHANNEL_11*
X76585001Y-56785001D03*
G04 #@! TO.P,J4,11*
G04 #@! TO.N,/CHANNEL_10*
X76585001Y-54245001D03*
G04 #@! TO.P,J4,10*
G04 #@! TO.N,/CHANNEL_9*
X76585001Y-51705001D03*
G04 #@! TO.P,J4,9*
G04 #@! TO.N,/CHANNEL_8*
X76585001Y-49165001D03*
G04 #@! TO.P,J4,8*
G04 #@! TO.N,/CHANNEL_7*
X76585001Y-46625001D03*
G04 #@! TO.P,J4,7*
G04 #@! TO.N,/CHANNEL_6*
X76585001Y-44085001D03*
G04 #@! TO.P,J4,6*
G04 #@! TO.N,/CHANNEL_5*
X76585001Y-41545001D03*
G04 #@! TO.P,J4,5*
G04 #@! TO.N,/CHANNEL_4*
X76585001Y-39005001D03*
G04 #@! TO.P,J4,4*
G04 #@! TO.N,/CHANNEL_3*
X76585001Y-36465001D03*
G04 #@! TO.P,J4,3*
G04 #@! TO.N,/CHANNEL_2*
X76585001Y-33925001D03*
G04 #@! TO.P,J4,2*
G04 #@! TO.N,/CHANNEL_1*
X76585001Y-31385001D03*
D13*
G04 #@! TO.P,J4,1*
G04 #@! TO.N,/CHANNEL_0*
X76585001Y-28845001D03*
G04 #@! TD*
D14*
G04 #@! TO.P,J1,*
G04 #@! TO.N,*
X141997700Y-89001260D03*
X141997700Y-78998740D03*
D15*
G04 #@! TO.P,J1,5*
G04 #@! TO.N,Net-(D2-Pad2)*
X129500900Y-88996180D03*
G04 #@! TO.P,J1,1*
G04 #@! TO.N,Net-(J1-Pad1)*
X132002800Y-76501920D03*
G04 #@! TO.P,J1,2*
G04 #@! TO.N,Net-(J1-Pad2)*
X132000260Y-84000000D03*
G04 #@! TO.P,J1,4*
G04 #@! TO.N,Net-(J1-Pad4)*
X129500900Y-79003820D03*
G04 #@! TO.P,J1,3*
G04 #@! TO.N,Net-(J1-Pad3)*
X132002800Y-91498080D03*
G04 #@! TD*
D16*
G04 #@! TO.P,J5,S*
G04 #@! TO.N,GND*
X142596000Y-101000000D03*
D17*
G04 #@! TO.P,J5,TN*
G04 #@! TO.N,Net-(J5-PadTN)*
X137590000Y-98500000D03*
G04 #@! TO.P,J5,RN*
G04 #@! TO.N,Net-(J5-PadRN)*
X137590000Y-103500000D03*
G04 #@! TO.P,J5,T*
G04 #@! TO.N,Net-(C2-Pad2)*
X137590000Y-96000000D03*
G04 #@! TO.P,J5,R*
X137590000Y-106000000D03*
G04 #@! TD*
D18*
G04 #@! TO.P,U2,17*
G04 #@! TO.N,GND*
X120000000Y-62510000D03*
G04 #@! TO.P,U2,18*
G04 #@! TO.N,Net-(U2-Pad18)*
X122540000Y-62510000D03*
G04 #@! TO.P,U2,19*
G04 #@! TO.N,/DAC_OUTPUT*
X125080000Y-62510000D03*
G04 #@! TO.P,U2,20*
G04 #@! TO.N,Net-(U2-Pad20)*
X127620000Y-62510000D03*
G04 #@! TO.P,U2,16*
G04 #@! TO.N,+3V3*
X117460000Y-62510000D03*
G04 #@! TO.P,U2,15*
G04 #@! TO.N,Net-(U2-Pad15)*
X114920000Y-62510000D03*
G04 #@! TO.P,U2,14*
G04 #@! TO.N,/CONNECTION_SEND_A*
X112380000Y-62510000D03*
G04 #@! TO.P,U2,21*
G04 #@! TO.N,Net-(R1-Pad2)*
X127620000Y-59970000D03*
G04 #@! TO.P,U2,22*
G04 #@! TO.N,Net-(U2-Pad22)*
X127620000Y-57430000D03*
G04 #@! TO.P,U2,23*
G04 #@! TO.N,/KNOB_READ*
X127620000Y-54890000D03*
G04 #@! TO.P,U2,24*
G04 #@! TO.N,/CONNECTION_READ_A*
X127620000Y-52350000D03*
G04 #@! TO.P,U2,25*
G04 #@! TO.N,Net-(U2-Pad25)*
X127620000Y-49810000D03*
G04 #@! TO.P,U2,26*
G04 #@! TO.N,Net-(U2-Pad26)*
X127620000Y-47270000D03*
G04 #@! TO.P,U2,27*
G04 #@! TO.N,/SHIFT_REG_LATCH*
X127620000Y-44730000D03*
G04 #@! TO.P,U2,28*
G04 #@! TO.N,/SHIFT_REG_CLOCK*
X127620000Y-42190000D03*
G04 #@! TO.P,U2,29*
G04 #@! TO.N,Net-(U2-Pad29)*
X127620000Y-39650000D03*
G04 #@! TO.P,U2,30*
G04 #@! TO.N,Net-(U2-Pad30)*
X127620000Y-37110000D03*
G04 #@! TO.P,U2,31*
G04 #@! TO.N,Net-(U2-Pad31)*
X127620000Y-34570000D03*
G04 #@! TO.P,U2,32*
G04 #@! TO.N,Net-(U2-Pad32)*
X127620000Y-32030000D03*
G04 #@! TO.P,U2,33*
G04 #@! TO.N,+5V*
X127620000Y-29490000D03*
G04 #@! TO.P,U2,34*
G04 #@! TO.N,Net-(U2-Pad34)*
X125080000Y-32030000D03*
G04 #@! TO.P,U2,35*
G04 #@! TO.N,Net-(U2-Pad35)*
X125080000Y-37110000D03*
G04 #@! TO.P,U2,36*
G04 #@! TO.N,Net-(U2-Pad36)*
X125080000Y-39650000D03*
G04 #@! TO.P,U2,37*
G04 #@! TO.N,Net-(U2-Pad37)*
X125080000Y-42190000D03*
G04 #@! TO.P,U2,13*
G04 #@! TO.N,Net-(U2-Pad13)*
X112380000Y-59970000D03*
G04 #@! TO.P,U2,12*
G04 #@! TO.N,/CONNECTION_SEND_B*
X112380000Y-57430000D03*
G04 #@! TO.P,U2,11*
G04 #@! TO.N,Net-(U2-Pad11)*
X112380000Y-54890000D03*
G04 #@! TO.P,U2,10*
G04 #@! TO.N,/CONNECTION_READ_B*
X112380000Y-52350000D03*
G04 #@! TO.P,U2,9*
G04 #@! TO.N,/ADDRESS_READ_C*
X112380000Y-49810000D03*
G04 #@! TO.P,U2,8*
G04 #@! TO.N,/ADDRESS_READ_B*
X112380000Y-47270000D03*
G04 #@! TO.P,U2,7*
G04 #@! TO.N,/ADDRESS_READ_A*
X112380000Y-44730000D03*
G04 #@! TO.P,U2,6*
G04 #@! TO.N,/ADDRESS_SEND_C*
X112380000Y-42190000D03*
G04 #@! TO.P,U2,5*
G04 #@! TO.N,/ADDRESS_SEND_B*
X112380000Y-39650000D03*
G04 #@! TO.P,U2,4*
G04 #@! TO.N,/ADDRESS_SEND_A*
X112380000Y-37110000D03*
G04 #@! TO.P,U2,3*
G04 #@! TO.N,/SHIFT_REG_DATA*
X112380000Y-34570000D03*
G04 #@! TO.P,U2,2*
G04 #@! TO.N,/SERIAL_RX*
X112380000Y-32030000D03*
D19*
G04 #@! TO.P,U2,1*
G04 #@! TO.N,GND*
X112380000Y-29490000D03*
D18*
G04 #@! TO.P,U2,38*
G04 #@! TO.N,Net-(U2-Pad38)*
X120000000Y-44730000D03*
G04 #@! TO.P,U2,39*
G04 #@! TO.N,GND*
X120000000Y-47270000D03*
G04 #@! TO.P,U2,40*
G04 #@! TO.N,Net-(U2-Pad40)*
X120000000Y-49810000D03*
G04 #@! TO.P,U2,41*
G04 #@! TO.N,Net-(U2-Pad41)*
X120000000Y-52350000D03*
G04 #@! TO.P,U2,42*
G04 #@! TO.N,Net-(U2-Pad42)*
X120000000Y-54890000D03*
G04 #@! TO.P,U2,43*
G04 #@! TO.N,Net-(U2-Pad43)*
X120000000Y-57430000D03*
G04 #@! TO.P,U2,44*
G04 #@! TO.N,Net-(U2-Pad44)*
X120000000Y-59970000D03*
G04 #@! TO.P,U2,45*
G04 #@! TO.N,Net-(U2-Pad45)*
X122540000Y-59970000D03*
G04 #@! TO.P,U2,46*
G04 #@! TO.N,Net-(U2-Pad46)*
X122540000Y-57430000D03*
G04 #@! TO.P,U2,47*
G04 #@! TO.N,Net-(U2-Pad47)*
X122540000Y-54890000D03*
G04 #@! TO.P,U2,48*
G04 #@! TO.N,Net-(U2-Pad48)*
X122540000Y-52350000D03*
G04 #@! TO.P,U2,49*
G04 #@! TO.N,Net-(U2-Pad49)*
X122540000Y-49810000D03*
G04 #@! TO.P,U2,50*
G04 #@! TO.N,Net-(U2-Pad50)*
X122540000Y-47270000D03*
G04 #@! TO.P,U2,51*
G04 #@! TO.N,Net-(U2-Pad51)*
X122540000Y-44730000D03*
D20*
G04 #@! TO.P,U2,52*
G04 #@! TO.N,Net-(U2-Pad52)*
X120000000Y-39650000D03*
X120000000Y-35840000D03*
G04 #@! TD*
D21*
G04 #@! TO.N,GND*
X49200000Y-65100000D03*
X49000000Y-52600000D03*
X50300000Y-39900000D03*
X139100000Y-32284999D03*
X135000011Y-38400000D03*
X74100000Y-103100000D03*
G04 #@! TO.N,/DAC_OUTPUT*
X94600000Y-98700000D03*
G04 #@! TO.N,+3V3*
X46300000Y-60300000D03*
X56800000Y-56500000D03*
X60200000Y-50800000D03*
X62400000Y-29600000D03*
X117200000Y-26800000D03*
X87900000Y-74300000D03*
G04 #@! TO.N,/KNOB_READ*
X79300000Y-94100000D03*
G04 #@! TO.N,+5V*
X118500000Y-71100000D03*
G04 #@! TO.N,/CONNECTION_READ_B*
X108800000Y-57500000D03*
G04 #@! TO.N,/ADDRESS_READ_C*
X70000000Y-104600000D03*
G04 #@! TO.N,/ADDRESS_READ_B*
X68400000Y-105300000D03*
G04 #@! TO.N,/ADDRESS_READ_A*
X48100000Y-78300000D03*
X54500000Y-68500000D03*
G04 #@! TO.N,/ADDRESS_SEND_C*
X122700000Y-42500000D03*
X124700000Y-51200000D03*
G04 #@! TO.N,/SHIFT_REG_DATA*
X118600000Y-28900000D03*
X118100000Y-34600000D03*
X114600000Y-34700000D03*
G04 #@! TO.N,/SERIAL_RX*
X119300000Y-33300000D03*
X124900000Y-98900000D03*
G04 #@! TO.N,Net-(C2-Pad2)*
X69300000Y-107700000D03*
G04 #@! TO.N,Net-(R13-Pad2)*
X137900000Y-34100000D03*
X132800000Y-61900000D03*
G04 #@! TO.N,/FSR*
X74000000Y-97000000D03*
G04 #@! TO.N,Net-(R8-Pad2)*
X142300000Y-31000000D03*
X135600000Y-39900000D03*
G04 #@! TO.N,Net-(R9-Pad2)*
X131800000Y-33100000D03*
X133100000Y-45100000D03*
G04 #@! TO.N,Net-(R10-Pad2)*
X132700000Y-32200000D03*
X133000000Y-49400000D03*
G04 #@! TO.N,Net-(R11-Pad2)*
X130700000Y-35100000D03*
X132800000Y-54000000D03*
G04 #@! TO.N,Net-(R12-Pad2)*
X129600000Y-36000000D03*
X132800000Y-57800000D03*
G04 #@! TO.N,Net-(R14-Pad2)*
X137900000Y-40900000D03*
X135100000Y-65000000D03*
G04 #@! TO.N,/KNOB_5*
X82300000Y-91800000D03*
X76800000Y-92200000D03*
G04 #@! TO.N,/KNOB_6*
X89862653Y-98337347D03*
X77800000Y-98500000D03*
G04 #@! TO.N,/CHANNEL_10*
X61100000Y-58800000D03*
X70900000Y-74200000D03*
G04 #@! TO.N,/CHANNEL_9*
X58800000Y-60100000D03*
X69700000Y-74900000D03*
G04 #@! TO.N,/CHANNEL_8*
X59600000Y-61400000D03*
X69600000Y-76600000D03*
G04 #@! TO.N,/CHANNEL_11*
X68100000Y-77500000D03*
G04 #@! TO.N,/CHANNEL_13*
X53099960Y-62700000D03*
X74300000Y-73600000D03*
G04 #@! TO.N,/CHANNEL_15*
X49800000Y-62200000D03*
X73000000Y-73500000D03*
G04 #@! TO.N,/CHANNEL_14*
X53000000Y-58900000D03*
X53084847Y-73284847D03*
G04 #@! TO.N,/CHANNEL_12*
X53099960Y-57700000D03*
X54000000Y-71200000D03*
G04 #@! TO.N,/CHANNEL_6*
X53300000Y-31000000D03*
X53700000Y-36200000D03*
G04 #@! TO.N,/CHANNEL_7*
X54300000Y-33500000D03*
X47500000Y-36500000D03*
X49400000Y-34900000D03*
G04 #@! TO.N,/CHANNEL_5*
X49700000Y-48300000D03*
X49300000Y-36400000D03*
G04 #@! TO.N,/CHANNEL_3*
X55449980Y-48100000D03*
X59000000Y-34090000D03*
G04 #@! TO.N,/CHANNEL_0*
X55449980Y-46800000D03*
X58300000Y-32820000D03*
G04 #@! TO.N,/CHANNEL_1*
X55449980Y-45500000D03*
X55400000Y-31800000D03*
G04 #@! TO.N,/CHANNEL_2*
X55600000Y-41900000D03*
X54700000Y-30100000D03*
G04 #@! TD*
D22*
G04 #@! TO.N,GND*
X139100000Y-32284999D02*
X139100000Y-34300011D01*
X139100000Y-34300011D02*
X135000011Y-38400000D01*
G04 #@! TO.N,/DAC_OUTPUT*
X50899999Y-100899999D02*
X50000000Y-100000000D01*
X56025001Y-106025001D02*
X50899999Y-100899999D01*
X87274999Y-106025001D02*
X56025001Y-106025001D01*
X94600000Y-98700000D02*
X87274999Y-106025001D01*
G04 #@! TO.N,+3V3*
X46300000Y-60300000D02*
X50800000Y-55800000D01*
X50800000Y-55800000D02*
X56100000Y-55800000D01*
X56100000Y-55800000D02*
X56800000Y-56500000D01*
X60200000Y-53100000D02*
X56800000Y-56500000D01*
X60200000Y-50800000D02*
X60200000Y-53100000D01*
X65550000Y-32750000D02*
X77149002Y-32750000D01*
X62400000Y-29600000D02*
X65550000Y-32750000D01*
X106104001Y-49824999D02*
X108000000Y-51720998D01*
X103075001Y-49824999D02*
X106104001Y-49824999D01*
X103000000Y-51000000D02*
X103000000Y-49900000D01*
X103000000Y-49900000D02*
X103075001Y-49824999D01*
X108000000Y-51720998D02*
X108000000Y-63000000D01*
X108000000Y-63000000D02*
X111000000Y-66000000D01*
X113970000Y-66000000D02*
X117460000Y-62510000D01*
X111000000Y-66000000D02*
X113970000Y-66000000D01*
X117460000Y-61378630D02*
X117000000Y-60918630D01*
X117460000Y-62510000D02*
X117460000Y-61378630D01*
X117000000Y-60918630D02*
X117000000Y-31200000D01*
X81534003Y-28364999D02*
X77149002Y-32750000D01*
X114164999Y-28364999D02*
X81534003Y-28364999D01*
X117000000Y-31200000D02*
X114164999Y-28364999D01*
X115069316Y-28364999D02*
X114164999Y-28364999D01*
X116634315Y-26800000D02*
X115069316Y-28364999D01*
X117200000Y-26800000D02*
X116634315Y-26800000D01*
X80000000Y-84000000D02*
X80000000Y-82200000D01*
X80000000Y-82200000D02*
X87900000Y-74300000D01*
G04 #@! TO.N,/KNOB_READ*
X97695002Y-94100000D02*
X129800000Y-61995002D01*
X79300000Y-94100000D02*
X97695002Y-94100000D01*
X129800000Y-57070000D02*
X127620000Y-54890000D01*
X129800000Y-61995002D02*
X129800000Y-57070000D01*
G04 #@! TO.N,+5V*
X126494999Y-63105001D02*
X118500000Y-71100000D01*
X127620000Y-29490000D02*
X126494999Y-30615001D01*
X126494999Y-30615001D02*
X126494999Y-63105001D01*
G04 #@! TO.N,/CONNECTION_READ_B*
X112380000Y-52350000D02*
X108800000Y-55930000D01*
X108800000Y-55930000D02*
X108800000Y-57500000D01*
G04 #@! TO.N,/ADDRESS_READ_C*
X73274999Y-93088591D02*
X91000000Y-75363590D01*
X73274999Y-97348001D02*
X73274999Y-93088591D01*
X73651999Y-97725001D02*
X73274999Y-97348001D01*
X70000000Y-104600000D02*
X76874999Y-97725001D01*
X76874999Y-97725001D02*
X73651999Y-97725001D01*
X91000000Y-75363590D02*
X91000000Y-58400000D01*
X91000000Y-58400000D02*
X101400000Y-48000000D01*
X110570000Y-48000000D02*
X112380000Y-49810000D01*
X101400000Y-48000000D02*
X110570000Y-48000000D01*
G04 #@! TO.N,/ADDRESS_READ_B*
X68400000Y-91320998D02*
X74200000Y-85520998D01*
X68400000Y-105300000D02*
X68400000Y-91320998D01*
X74200000Y-85520998D02*
X74200000Y-84000000D01*
X90549990Y-67650010D02*
X90549990Y-57550010D01*
X74200000Y-84000000D02*
X90549990Y-67650010D01*
X100830000Y-47270000D02*
X112380000Y-47270000D01*
X90549990Y-57550010D02*
X100830000Y-47270000D01*
G04 #@! TO.N,/ADDRESS_READ_A*
X48100000Y-76026998D02*
X49500000Y-74626998D01*
X48100000Y-78300000D02*
X48100000Y-76026998D01*
X49500000Y-74626998D02*
X49500000Y-71800000D01*
X49500000Y-71800000D02*
X52800000Y-68500000D01*
X52800000Y-68500000D02*
X54500000Y-68500000D01*
G04 #@! TO.N,/ADDRESS_SEND_C*
X122700000Y-42500000D02*
X124700000Y-44500000D01*
X124700000Y-44500000D02*
X124700000Y-51200000D01*
G04 #@! TO.N,/SHIFT_REG_DATA*
X118600000Y-28900000D02*
X118100000Y-29400000D01*
X118100000Y-29400000D02*
X118100000Y-34600000D01*
X112510000Y-34700000D02*
X112380000Y-34570000D01*
X114600000Y-34700000D02*
X112510000Y-34700000D01*
G04 #@! TO.N,/SERIAL_RX*
X119300000Y-33300000D02*
X120000000Y-33300000D01*
X120000000Y-33300000D02*
X127000000Y-26300000D01*
X127000000Y-26300000D02*
X141400000Y-26300000D01*
X141400000Y-26300000D02*
X143500000Y-28400000D01*
X143500000Y-28400000D02*
X143500000Y-72100000D01*
X140800000Y-72100000D02*
X125900000Y-87000000D01*
X143500000Y-72100000D02*
X140800000Y-72100000D01*
X125900000Y-87000000D02*
X125900000Y-97900000D01*
X125900000Y-97900000D02*
X124900000Y-98900000D01*
G04 #@! TO.N,Net-(C2-Pad2)*
X137590000Y-107125000D02*
X137590000Y-106000000D01*
X137015000Y-107700000D02*
X137590000Y-107125000D01*
X69300000Y-107700000D02*
X137015000Y-107700000D01*
G04 #@! TO.N,Net-(R13-Pad2)*
X134275011Y-60424989D02*
X132800000Y-61900000D01*
X137900000Y-34100000D02*
X134275011Y-37724989D01*
X134275011Y-37724989D02*
X134275011Y-60424989D01*
G04 #@! TO.N,/FSR*
X105540000Y-51000000D02*
X105540000Y-66460000D01*
X105540000Y-66460000D02*
X81000000Y-91000000D01*
X81000000Y-91000000D02*
X76000000Y-91000000D01*
X76000000Y-91000000D02*
X74000000Y-93000000D01*
X74000000Y-93000000D02*
X74000000Y-97000000D01*
G04 #@! TO.N,Net-(R8-Pad2)*
X142300000Y-31565685D02*
X142500000Y-31765685D01*
X142300000Y-31000000D02*
X142300000Y-31565685D01*
X142500000Y-31765685D02*
X142500000Y-38800000D01*
X142500000Y-38800000D02*
X141400000Y-39900000D01*
X141400000Y-39900000D02*
X135600000Y-39900000D01*
G04 #@! TO.N,Net-(R9-Pad2)*
X131800000Y-33100000D02*
X131800000Y-43800000D01*
X131800000Y-43800000D02*
X133100000Y-45100000D01*
G04 #@! TO.N,Net-(R10-Pad2)*
X133825001Y-48574999D02*
X133000000Y-49400000D01*
X132700000Y-32200000D02*
X133825001Y-33325001D01*
X133825001Y-33325001D02*
X133825001Y-48574999D01*
G04 #@! TO.N,Net-(R11-Pad2)*
X130700000Y-35100000D02*
X130700000Y-51900000D01*
X130700000Y-51900000D02*
X132800000Y-54000000D01*
G04 #@! TO.N,Net-(R12-Pad2)*
X129600000Y-36000000D02*
X129600000Y-54600000D01*
X129600000Y-54600000D02*
X132800000Y-57800000D01*
G04 #@! TO.N,Net-(R14-Pad2)*
X137900000Y-40900000D02*
X137900000Y-62200000D01*
X137900000Y-62200000D02*
X135100000Y-65000000D01*
G04 #@! TO.N,/KNOB_5*
X82300000Y-91800000D02*
X81900000Y-92200000D01*
X81900000Y-92200000D02*
X76800000Y-92200000D01*
G04 #@! TO.N,/KNOB_6*
X89862653Y-98337347D02*
X77962653Y-98337347D01*
X77962653Y-98337347D02*
X77800000Y-98500000D01*
G04 #@! TO.N,/CHANNEL_10*
X69385001Y-54245001D02*
X65654999Y-54245001D01*
X65654999Y-54245001D02*
X61100000Y-58800000D01*
X70235000Y-55095000D02*
X69385001Y-54245001D01*
X70560002Y-55420002D02*
X70235000Y-55095000D01*
X70560002Y-58639004D02*
X70560002Y-55420002D01*
X72520998Y-60600000D02*
X70560002Y-58639004D01*
X73459002Y-60600000D02*
X72520998Y-60600000D01*
X75025001Y-73948001D02*
X75025001Y-62165999D01*
X75025001Y-62165999D02*
X73459002Y-60600000D01*
X74648001Y-74325001D02*
X75025001Y-73948001D01*
X71465685Y-74200000D02*
X71590686Y-74325001D01*
X71590686Y-74325001D02*
X74648001Y-74325001D01*
X70900000Y-74200000D02*
X71465685Y-74200000D01*
X74187082Y-54245001D02*
X76585001Y-54245001D01*
X72985001Y-54245001D02*
X74187082Y-54245001D01*
G04 #@! TO.N,/CHANNEL_9*
X70560002Y-50530000D02*
X70560002Y-48411002D01*
X69385001Y-51705001D02*
X70560002Y-50530000D01*
X70560002Y-48411002D02*
X69949002Y-47800002D01*
X69949002Y-47800002D02*
X69010998Y-47800002D01*
X69010998Y-47800002D02*
X58800000Y-58011000D01*
X58800000Y-58011000D02*
X58800000Y-60100000D01*
X71010012Y-56549014D02*
X71010012Y-53330012D01*
X72421000Y-57960002D02*
X71010012Y-56549014D01*
X73359004Y-57960002D02*
X72421000Y-57960002D01*
X71010012Y-53330012D02*
X70235000Y-52555000D01*
X75899004Y-60500002D02*
X73359004Y-57960002D01*
X70235000Y-52555000D02*
X69385001Y-51705001D01*
X76959004Y-60500002D02*
X75899004Y-60500002D01*
X77760002Y-61301000D02*
X76959004Y-60500002D01*
X77760002Y-71849410D02*
X77760002Y-61301000D01*
X74309413Y-75299999D02*
X77760002Y-71849410D01*
X70099999Y-75299999D02*
X74309413Y-75299999D01*
X69700000Y-74900000D02*
X70099999Y-75299999D01*
X72985001Y-51705001D02*
X76585001Y-51705001D01*
G04 #@! TO.N,/CHANNEL_8*
X69385001Y-49165001D02*
X59600000Y-58950002D01*
X59600000Y-58950002D02*
X59600000Y-61400000D01*
X72135002Y-50015000D02*
X72985001Y-49165001D01*
X71810000Y-50340002D02*
X72135002Y-50015000D01*
X71810000Y-54809002D02*
X71810000Y-50340002D01*
X72421000Y-55420002D02*
X71810000Y-54809002D01*
X73359004Y-55420002D02*
X72421000Y-55420002D01*
X75899004Y-57960002D02*
X73359004Y-55420002D01*
X76959004Y-57960002D02*
X75899004Y-57960002D01*
X78210012Y-59211010D02*
X76959004Y-57960002D01*
X78210012Y-72035810D02*
X78210012Y-59211010D01*
X73645822Y-76600000D02*
X78210012Y-72035810D01*
X69600000Y-76600000D02*
X73645822Y-76600000D01*
X74187082Y-49165001D02*
X76585001Y-49165001D01*
X72985001Y-49165001D02*
X74187082Y-49165001D01*
G04 #@! TO.N,/CHANNEL_11*
X77435000Y-57635000D02*
X76585001Y-56785001D01*
X78660022Y-58860022D02*
X77435000Y-57635000D01*
X78660022Y-72222210D02*
X78660022Y-58860022D01*
X73382232Y-77500000D02*
X78660022Y-72222210D01*
X68100000Y-77500000D02*
X73382232Y-77500000D01*
G04 #@! TO.N,/CHANNEL_13*
X53199960Y-62800000D02*
X53099960Y-62700000D01*
X69385001Y-61865001D02*
X68450002Y-62800000D01*
X68450002Y-62800000D02*
X53199960Y-62800000D01*
X73835000Y-62715000D02*
X72985001Y-61865001D01*
X74160002Y-63040002D02*
X73835000Y-62715000D01*
X74160002Y-66381000D02*
X74160002Y-63040002D01*
X74300000Y-66520998D02*
X74160002Y-66381000D01*
X74300000Y-73600000D02*
X74300000Y-66520998D01*
G04 #@! TO.N,/CHANNEL_15*
X69385001Y-66945001D02*
X54545001Y-66945001D01*
X54545001Y-66945001D02*
X49800000Y-62200000D01*
X73000000Y-66960000D02*
X72985001Y-66945001D01*
X73000000Y-73500000D02*
X73000000Y-66960000D01*
G04 #@! TO.N,/CHANNEL_14*
X52374959Y-59525041D02*
X53000000Y-58900000D01*
X52374959Y-63048001D02*
X52374959Y-59525041D01*
X69385001Y-64405001D02*
X53731959Y-64405001D01*
X53731959Y-64405001D02*
X52374959Y-63048001D01*
X72135002Y-65255000D02*
X72985001Y-64405001D01*
X71810000Y-65580002D02*
X72135002Y-65255000D01*
X71810000Y-66990000D02*
X71810000Y-65580002D01*
X65515153Y-73284847D02*
X71810000Y-66990000D01*
X53084847Y-73284847D02*
X65515153Y-73284847D01*
G04 #@! TO.N,/CHANNEL_12*
X57524961Y-62125001D02*
X53099960Y-57700000D01*
X69385001Y-59325001D02*
X66585001Y-62125001D01*
X66585001Y-62125001D02*
X57524961Y-62125001D01*
X70235000Y-60175000D02*
X69385001Y-59325001D01*
X70560002Y-60500002D02*
X70235000Y-60175000D01*
X70560002Y-67509002D02*
X70560002Y-60500002D01*
X66869004Y-71200000D02*
X70560002Y-67509002D01*
X54000000Y-71200000D02*
X66869004Y-71200000D01*
G04 #@! TO.N,/CHANNEL_4*
X69385001Y-39005001D02*
X72985001Y-39005001D01*
X74187082Y-39005001D02*
X76585001Y-39005001D01*
X72985001Y-39005001D02*
X74187082Y-39005001D01*
G04 #@! TO.N,/CHANNEL_6*
X70587082Y-44085001D02*
X72985001Y-44085001D01*
X69385001Y-44085001D02*
X70587082Y-44085001D01*
X69385001Y-44085001D02*
X66385001Y-44085001D01*
X66385001Y-44085001D02*
X53300000Y-31000000D01*
X53300000Y-31565685D02*
X53300000Y-31000000D01*
X53300000Y-35234315D02*
X53300000Y-31565685D01*
X53700000Y-35634315D02*
X53300000Y-35234315D01*
X53700000Y-36200000D02*
X53700000Y-35634315D01*
X74187082Y-44085001D02*
X76585001Y-44085001D01*
X72985001Y-44085001D02*
X74187082Y-44085001D01*
G04 #@! TO.N,/CHANNEL_7*
X69385001Y-46625001D02*
X72985001Y-46625001D01*
X69385001Y-46625001D02*
X67425001Y-46625001D01*
X67425001Y-46625001D02*
X54300000Y-33500000D01*
X47500000Y-36500000D02*
X49100000Y-34900000D01*
X49100000Y-34900000D02*
X49400000Y-34900000D01*
X74187082Y-46625001D02*
X76585001Y-46625001D01*
X72985001Y-46625001D02*
X74187082Y-46625001D01*
G04 #@! TO.N,/CHANNEL_5*
X69385001Y-41545001D02*
X72985001Y-41545001D01*
X49700000Y-48300000D02*
X49300000Y-47900000D01*
X49300000Y-47900000D02*
X49300000Y-36400000D01*
X72985001Y-41545001D02*
X76585001Y-41545001D01*
G04 #@! TO.N,/CHANNEL_3*
X70587082Y-36465001D02*
X72985001Y-36465001D01*
X69385001Y-36465001D02*
X70587082Y-36465001D01*
X51224972Y-30092796D02*
X53117768Y-28200000D01*
X55449980Y-48100000D02*
X51224971Y-43874991D01*
X51224971Y-43874991D02*
X51224972Y-30092796D01*
X59025001Y-34064999D02*
X59000000Y-34090000D01*
X59025001Y-32079179D02*
X59025001Y-34064999D01*
X53117768Y-28200000D02*
X55145822Y-28200000D01*
X55145822Y-28200000D02*
X59025001Y-32079179D01*
X72985001Y-36465001D02*
X76585001Y-36465001D01*
G04 #@! TO.N,/CHANNEL_0*
X69385001Y-28845001D02*
X72985001Y-28845001D01*
X51674981Y-30279197D02*
X53254178Y-28700000D01*
X55449980Y-46800000D02*
X51674981Y-43025001D01*
X51674981Y-43025001D02*
X51674981Y-30279197D01*
X58300000Y-31990588D02*
X58300000Y-32820000D01*
X53254178Y-28700000D02*
X55009412Y-28700000D01*
X55009412Y-28700000D02*
X58300000Y-31990588D01*
X74085001Y-28845001D02*
X76585001Y-28845001D01*
X72985001Y-28845001D02*
X74085001Y-28845001D01*
G04 #@! TO.N,/CHANNEL_1*
X70587082Y-31385001D02*
X72985001Y-31385001D01*
X69385001Y-31385001D02*
X70587082Y-31385001D01*
X55425001Y-31774999D02*
X55400000Y-31800000D01*
X52124990Y-42124990D02*
X52124990Y-30465598D01*
X55400000Y-45400000D02*
X52124990Y-42124990D01*
X52124990Y-30465598D02*
X53215589Y-29374999D01*
X53215589Y-29374999D02*
X55048001Y-29374999D01*
X55048001Y-29374999D02*
X55425001Y-29751999D01*
X55425001Y-29751999D02*
X55425001Y-31774999D01*
X74187082Y-31385001D02*
X76585001Y-31385001D01*
X72985001Y-31385001D02*
X74187082Y-31385001D01*
G04 #@! TO.N,/CHANNEL_2*
X70587082Y-33925001D02*
X72985001Y-33925001D01*
X69385001Y-33925001D02*
X70587082Y-33925001D01*
X53126998Y-30100000D02*
X54700000Y-30100000D01*
X52574999Y-30651999D02*
X53126998Y-30100000D01*
X55600000Y-41900000D02*
X52574999Y-38874999D01*
X52574999Y-38874999D02*
X52574999Y-30651999D01*
X74187082Y-33925001D02*
X76585001Y-33925001D01*
X72985001Y-33925001D02*
X74187082Y-33925001D01*
G04 #@! TD*
D23*
G04 #@! TO.N,GND*
G36*
X126452071Y-25752071D02*
X126409671Y-25815527D01*
X119827130Y-32398069D01*
X119505874Y-32265000D01*
X119094126Y-32265000D01*
X118860000Y-32361978D01*
X118860000Y-29912580D01*
X119186280Y-29777431D01*
X119477431Y-29486280D01*
X119635000Y-29105874D01*
X119635000Y-28694126D01*
X119477431Y-28313720D01*
X119186280Y-28022569D01*
X118805874Y-27865000D01*
X118394126Y-27865000D01*
X118013720Y-28022569D01*
X117722569Y-28313720D01*
X117565000Y-28694126D01*
X117565000Y-28843432D01*
X117552071Y-28852071D01*
X117384096Y-29103464D01*
X117340000Y-29325149D01*
X117340000Y-29325153D01*
X117325112Y-29400000D01*
X117340000Y-29474847D01*
X117340000Y-30465198D01*
X115691959Y-28817157D01*
X116767845Y-27741272D01*
X116994126Y-27835000D01*
X117405874Y-27835000D01*
X117786280Y-27677431D01*
X118077431Y-27386280D01*
X118235000Y-27005874D01*
X118235000Y-26594126D01*
X118077431Y-26213720D01*
X117786280Y-25922569D01*
X117405874Y-25765000D01*
X116994126Y-25765000D01*
X116613720Y-25922569D01*
X116480603Y-26055686D01*
X116385920Y-26074520D01*
X116337777Y-26084096D01*
X116150733Y-26209076D01*
X116086386Y-26252071D01*
X116043986Y-26315527D01*
X114754515Y-27604999D01*
X114239846Y-27604999D01*
X114164999Y-27590111D01*
X114090152Y-27604999D01*
X81608850Y-27604999D01*
X81534003Y-27590111D01*
X81459156Y-27604999D01*
X81459151Y-27604999D01*
X81237466Y-27649095D01*
X80986074Y-27817070D01*
X80943674Y-27880526D01*
X77989610Y-30834591D01*
X77983840Y-30805583D01*
X77655626Y-30314376D01*
X77637382Y-30302185D01*
X77682766Y-30293158D01*
X77892810Y-30152810D01*
X78033158Y-29942766D01*
X78082441Y-29695001D01*
X78082441Y-27995001D01*
X78033158Y-27747236D01*
X77892810Y-27537192D01*
X77682766Y-27396844D01*
X77435001Y-27347561D01*
X75735001Y-27347561D01*
X75487236Y-27396844D01*
X75277192Y-27537192D01*
X75136844Y-27747236D01*
X75087561Y-27995001D01*
X75087561Y-28085001D01*
X74482441Y-28085001D01*
X74482441Y-27995001D01*
X74433158Y-27747236D01*
X74292810Y-27537192D01*
X74082766Y-27396844D01*
X73835001Y-27347561D01*
X72135001Y-27347561D01*
X71887236Y-27396844D01*
X71677192Y-27537192D01*
X71536844Y-27747236D01*
X71487561Y-27995001D01*
X71487561Y-28085001D01*
X70882441Y-28085001D01*
X70882441Y-27995001D01*
X70833158Y-27747236D01*
X70692810Y-27537192D01*
X70482766Y-27396844D01*
X70235001Y-27347561D01*
X68535001Y-27347561D01*
X68287236Y-27396844D01*
X68077192Y-27537192D01*
X67936844Y-27747236D01*
X67887561Y-27995001D01*
X67887561Y-29695001D01*
X67936844Y-29942766D01*
X68077192Y-30152810D01*
X68287236Y-30293158D01*
X68332620Y-30302185D01*
X68314376Y-30314376D01*
X67986162Y-30805583D01*
X67870909Y-31385001D01*
X67986162Y-31964419D01*
X68003255Y-31990000D01*
X65864802Y-31990000D01*
X63435000Y-29560199D01*
X63435000Y-29394126D01*
X63277431Y-29013720D01*
X62986280Y-28722569D01*
X62605874Y-28565000D01*
X62194126Y-28565000D01*
X61813720Y-28722569D01*
X61522569Y-29013720D01*
X61365000Y-29394126D01*
X61365000Y-29805874D01*
X61522569Y-30186280D01*
X61813720Y-30477431D01*
X62194126Y-30635000D01*
X62360199Y-30635000D01*
X64959671Y-33234473D01*
X65002071Y-33297929D01*
X65065527Y-33340329D01*
X65253462Y-33465904D01*
X65301605Y-33475480D01*
X65475148Y-33510000D01*
X65475152Y-33510000D01*
X65550000Y-33524888D01*
X65624848Y-33510000D01*
X67953458Y-33510000D01*
X67870909Y-33925001D01*
X67986162Y-34504419D01*
X68314376Y-34995626D01*
X68612762Y-35195001D01*
X68314376Y-35394376D01*
X67986162Y-35885583D01*
X67870909Y-36465001D01*
X67986162Y-37044419D01*
X68314376Y-37535626D01*
X68612762Y-37735001D01*
X68314376Y-37934376D01*
X67986162Y-38425583D01*
X67870909Y-39005001D01*
X67986162Y-39584419D01*
X68314376Y-40075626D01*
X68612762Y-40275001D01*
X68314376Y-40474376D01*
X67986162Y-40965583D01*
X67870909Y-41545001D01*
X67986162Y-42124419D01*
X68314376Y-42615626D01*
X68612762Y-42815001D01*
X68314376Y-43014376D01*
X68106823Y-43325001D01*
X66699803Y-43325001D01*
X56019256Y-32644455D01*
X56277431Y-32386280D01*
X56435000Y-32005874D01*
X56435000Y-31594126D01*
X56277431Y-31213720D01*
X56185001Y-31121290D01*
X56185001Y-30950391D01*
X57445450Y-32210839D01*
X57422569Y-32233720D01*
X57265000Y-32614126D01*
X57265000Y-33025874D01*
X57422569Y-33406280D01*
X57713720Y-33697431D01*
X57994208Y-33813613D01*
X57965000Y-33884126D01*
X57965000Y-34295874D01*
X58122569Y-34676280D01*
X58413720Y-34967431D01*
X58794126Y-35125000D01*
X59205874Y-35125000D01*
X59586280Y-34967431D01*
X59877431Y-34676280D01*
X60035000Y-34295874D01*
X60035000Y-33884126D01*
X59877431Y-33503720D01*
X59785001Y-33411290D01*
X59785001Y-32154027D01*
X59799889Y-32079179D01*
X59785001Y-32004331D01*
X59785001Y-32004327D01*
X59740905Y-31782642D01*
X59572930Y-31531250D01*
X59509474Y-31488850D01*
X55736153Y-27715530D01*
X55693751Y-27652071D01*
X55442359Y-27484096D01*
X55220674Y-27440000D01*
X55220669Y-27440000D01*
X55145822Y-27425112D01*
X55070975Y-27440000D01*
X53192616Y-27440000D01*
X53117768Y-27425112D01*
X53042920Y-27440000D01*
X53042916Y-27440000D01*
X52869373Y-27474520D01*
X52821230Y-27484096D01*
X52640287Y-27604999D01*
X52569839Y-27652071D01*
X52527439Y-27715527D01*
X50740500Y-29502467D01*
X50677044Y-29544867D01*
X50634644Y-29608323D01*
X50634643Y-29608324D01*
X50509069Y-29796259D01*
X50450084Y-30092796D01*
X50464973Y-30167648D01*
X50464971Y-43800144D01*
X50450083Y-43874991D01*
X50464971Y-43949838D01*
X50464971Y-43949842D01*
X50509067Y-44171527D01*
X50677042Y-44422919D01*
X50740498Y-44465319D01*
X54414980Y-48139802D01*
X54414980Y-48305874D01*
X54572549Y-48686280D01*
X54863700Y-48977431D01*
X55244106Y-49135000D01*
X55655854Y-49135000D01*
X56036260Y-48977431D01*
X56327411Y-48686280D01*
X56484980Y-48305874D01*
X56484980Y-47894126D01*
X56327411Y-47513720D01*
X56263691Y-47450000D01*
X56327411Y-47386280D01*
X56484980Y-47005874D01*
X56484980Y-46594126D01*
X56327411Y-46213720D01*
X56263691Y-46150000D01*
X56327411Y-46086280D01*
X56484980Y-45705874D01*
X56484980Y-45294126D01*
X56327411Y-44913720D01*
X56036260Y-44622569D01*
X55655854Y-44465000D01*
X55539802Y-44465000D01*
X52884990Y-41810189D01*
X52884990Y-40259792D01*
X54565000Y-41939803D01*
X54565000Y-42105874D01*
X54722569Y-42486280D01*
X55013720Y-42777431D01*
X55394126Y-42935000D01*
X55805874Y-42935000D01*
X56186280Y-42777431D01*
X56477431Y-42486280D01*
X56635000Y-42105874D01*
X56635000Y-41694126D01*
X56477431Y-41313720D01*
X56186280Y-41022569D01*
X55805874Y-40865000D01*
X55639803Y-40865000D01*
X53334999Y-38560198D01*
X53334999Y-37169088D01*
X53494126Y-37235000D01*
X53905874Y-37235000D01*
X54286280Y-37077431D01*
X54577431Y-36786280D01*
X54735000Y-36405874D01*
X54735000Y-35994126D01*
X54577431Y-35613720D01*
X54444314Y-35480603D01*
X54415904Y-35337778D01*
X54247929Y-35086386D01*
X54184472Y-35043986D01*
X54060000Y-34919513D01*
X54060000Y-34520865D01*
X54094126Y-34535000D01*
X54260199Y-34535000D01*
X66834674Y-47109477D01*
X66877072Y-47172930D01*
X66940525Y-47215328D01*
X66940527Y-47215330D01*
X67014864Y-47265000D01*
X67128464Y-47340905D01*
X67350149Y-47385001D01*
X67350153Y-47385001D01*
X67425000Y-47399889D01*
X67499847Y-47385001D01*
X68106823Y-47385001D01*
X68204706Y-47531493D01*
X58315530Y-57420669D01*
X58252071Y-57463071D01*
X58084096Y-57714464D01*
X58040000Y-57936149D01*
X58040000Y-57936153D01*
X58025112Y-58011000D01*
X58040000Y-58085847D01*
X58040001Y-59396288D01*
X57922569Y-59513720D01*
X57765000Y-59894126D01*
X57765000Y-60305874D01*
X57922569Y-60686280D01*
X58213720Y-60977431D01*
X58590170Y-61133361D01*
X58565000Y-61194126D01*
X58565000Y-61365001D01*
X57839764Y-61365001D01*
X54134960Y-57660199D01*
X54134960Y-57494126D01*
X53977391Y-57113720D01*
X53686240Y-56822569D01*
X53305834Y-56665000D01*
X52894086Y-56665000D01*
X52513680Y-56822569D01*
X52222529Y-57113720D01*
X52064960Y-57494126D01*
X52064960Y-57905874D01*
X52201288Y-58235001D01*
X52122569Y-58313720D01*
X51965000Y-58694126D01*
X51965000Y-58860199D01*
X51890486Y-58934713D01*
X51827031Y-58977112D01*
X51784631Y-59040568D01*
X51784630Y-59040569D01*
X51659056Y-59228504D01*
X51600071Y-59525041D01*
X51614960Y-59599893D01*
X51614959Y-62940158D01*
X50835000Y-62160199D01*
X50835000Y-61994126D01*
X50677431Y-61613720D01*
X50386280Y-61322569D01*
X50005874Y-61165000D01*
X49594126Y-61165000D01*
X49213720Y-61322569D01*
X48922569Y-61613720D01*
X48765000Y-61994126D01*
X48765000Y-62405874D01*
X48922569Y-62786280D01*
X49213720Y-63077431D01*
X49594126Y-63235000D01*
X49760199Y-63235000D01*
X53954671Y-67429473D01*
X53997072Y-67492930D01*
X54060528Y-67535330D01*
X54084945Y-67551645D01*
X53913720Y-67622569D01*
X53796289Y-67740000D01*
X52874848Y-67740000D01*
X52800000Y-67725112D01*
X52725152Y-67740000D01*
X52725148Y-67740000D01*
X52551605Y-67774520D01*
X52503462Y-67784096D01*
X52316418Y-67909076D01*
X52252071Y-67952071D01*
X52209671Y-68015527D01*
X49015528Y-71209671D01*
X48952072Y-71252071D01*
X48909672Y-71315527D01*
X48909671Y-71315528D01*
X48784097Y-71503463D01*
X48725112Y-71800000D01*
X48740001Y-71874852D01*
X48740000Y-74312196D01*
X47615528Y-75436669D01*
X47552072Y-75479069D01*
X47509672Y-75542525D01*
X47509671Y-75542526D01*
X47384097Y-75730461D01*
X47325112Y-76026998D01*
X47340001Y-76101850D01*
X47340000Y-77596289D01*
X47222569Y-77713720D01*
X47065000Y-78094126D01*
X47065000Y-78505874D01*
X47222569Y-78886280D01*
X47513720Y-79177431D01*
X47894126Y-79335000D01*
X48305874Y-79335000D01*
X48686280Y-79177431D01*
X48977431Y-78886280D01*
X49135000Y-78505874D01*
X49135000Y-78094126D01*
X48977431Y-77713720D01*
X48860000Y-77596289D01*
X48860000Y-76341799D01*
X49984473Y-75217327D01*
X50047929Y-75174927D01*
X50215904Y-74923535D01*
X50260000Y-74701850D01*
X50260000Y-74701845D01*
X50274888Y-74626998D01*
X50260000Y-74552151D01*
X50260000Y-72114801D01*
X53114802Y-69260000D01*
X53796289Y-69260000D01*
X53913720Y-69377431D01*
X54294126Y-69535000D01*
X54705874Y-69535000D01*
X55086280Y-69377431D01*
X55377431Y-69086280D01*
X55535000Y-68705874D01*
X55535000Y-68294126D01*
X55377431Y-67913720D01*
X55168712Y-67705001D01*
X68106823Y-67705001D01*
X68314376Y-68015626D01*
X68712535Y-68281667D01*
X66554203Y-70440000D01*
X54703711Y-70440000D01*
X54586280Y-70322569D01*
X54205874Y-70165000D01*
X53794126Y-70165000D01*
X53413720Y-70322569D01*
X53122569Y-70613720D01*
X52965000Y-70994126D01*
X52965000Y-71405874D01*
X53122569Y-71786280D01*
X53413720Y-72077431D01*
X53794126Y-72235000D01*
X54205874Y-72235000D01*
X54586280Y-72077431D01*
X54703711Y-71960000D01*
X65765199Y-71960000D01*
X65200352Y-72524847D01*
X53788558Y-72524847D01*
X53671127Y-72407416D01*
X53290721Y-72249847D01*
X52878973Y-72249847D01*
X52498567Y-72407416D01*
X52207416Y-72698567D01*
X52049847Y-73078973D01*
X52049847Y-73490721D01*
X52207416Y-73871127D01*
X52498567Y-74162278D01*
X52878973Y-74319847D01*
X53290721Y-74319847D01*
X53671127Y-74162278D01*
X53788558Y-74044847D01*
X65440306Y-74044847D01*
X65515153Y-74059735D01*
X65590000Y-74044847D01*
X65590005Y-74044847D01*
X65811690Y-74000751D01*
X66063082Y-73832776D01*
X66105484Y-73769317D01*
X71892266Y-67982536D01*
X71914376Y-68015626D01*
X72240001Y-68233202D01*
X72240000Y-72796289D01*
X72122569Y-72913720D01*
X71965000Y-73294126D01*
X71965000Y-73565001D01*
X71883305Y-73565001D01*
X71762222Y-73484096D01*
X71619397Y-73455686D01*
X71486280Y-73322569D01*
X71105874Y-73165000D01*
X70694126Y-73165000D01*
X70313720Y-73322569D01*
X70022569Y-73613720D01*
X69916639Y-73869459D01*
X69905874Y-73865000D01*
X69494126Y-73865000D01*
X69113720Y-74022569D01*
X68822569Y-74313720D01*
X68665000Y-74694126D01*
X68665000Y-75105874D01*
X68822569Y-75486280D01*
X69045637Y-75709348D01*
X69013720Y-75722569D01*
X68722569Y-76013720D01*
X68565000Y-76394126D01*
X68565000Y-76572333D01*
X68305874Y-76465000D01*
X67894126Y-76465000D01*
X67513720Y-76622569D01*
X67222569Y-76913720D01*
X67065000Y-77294126D01*
X67065000Y-77705874D01*
X67222569Y-78086280D01*
X67513720Y-78377431D01*
X67894126Y-78535000D01*
X68305874Y-78535000D01*
X68686280Y-78377431D01*
X68803711Y-78260000D01*
X73307385Y-78260000D01*
X73382232Y-78274888D01*
X73457079Y-78260000D01*
X73457084Y-78260000D01*
X73678769Y-78215904D01*
X73930161Y-78047929D01*
X73972563Y-77984470D01*
X79144495Y-72812539D01*
X79207951Y-72770139D01*
X79375926Y-72518747D01*
X79420022Y-72297062D01*
X79420022Y-72297058D01*
X79434910Y-72222211D01*
X79420022Y-72147364D01*
X79420022Y-58934870D01*
X79434910Y-58860022D01*
X79420022Y-58785174D01*
X79420022Y-58785170D01*
X79375926Y-58563485D01*
X79375926Y-58563484D01*
X79250351Y-58375549D01*
X79207951Y-58312093D01*
X79144495Y-58269693D01*
X78026210Y-57151409D01*
X78099093Y-56785001D01*
X77983840Y-56205583D01*
X77655626Y-55714376D01*
X77357240Y-55515001D01*
X77655626Y-55315626D01*
X77983840Y-54824419D01*
X78099093Y-54245001D01*
X77983840Y-53665583D01*
X77655626Y-53174376D01*
X77357240Y-52975001D01*
X77655626Y-52775626D01*
X77983840Y-52284419D01*
X78099093Y-51705001D01*
X77983840Y-51125583D01*
X77655626Y-50634376D01*
X77357240Y-50435001D01*
X77655626Y-50235626D01*
X77983840Y-49744419D01*
X78099093Y-49165001D01*
X77983840Y-48585583D01*
X77655626Y-48094376D01*
X77357240Y-47895001D01*
X77655626Y-47695626D01*
X77983840Y-47204419D01*
X78099093Y-46625001D01*
X77983840Y-46045583D01*
X77655626Y-45554376D01*
X77357240Y-45355001D01*
X77655626Y-45155626D01*
X77983840Y-44664419D01*
X78099093Y-44085001D01*
X77983840Y-43505583D01*
X77655626Y-43014376D01*
X77357240Y-42815001D01*
X77655626Y-42615626D01*
X77983840Y-42124419D01*
X78099093Y-41545001D01*
X77983840Y-40965583D01*
X77655626Y-40474376D01*
X77357240Y-40275001D01*
X77655626Y-40075626D01*
X77983840Y-39584419D01*
X78099093Y-39005001D01*
X77983840Y-38425583D01*
X77655626Y-37934376D01*
X77357240Y-37735001D01*
X77655626Y-37535626D01*
X77983840Y-37044419D01*
X78099093Y-36465001D01*
X77983840Y-35885583D01*
X77655626Y-35394376D01*
X77357240Y-35195001D01*
X77655626Y-34995626D01*
X77983840Y-34504419D01*
X78099093Y-33925001D01*
X78025582Y-33555431D01*
X103765000Y-33555431D01*
X103765000Y-34444569D01*
X104105259Y-35266026D01*
X104733974Y-35894741D01*
X105555431Y-36235000D01*
X106444569Y-36235000D01*
X107266026Y-35894741D01*
X107894741Y-35266026D01*
X108235000Y-34444569D01*
X108235000Y-33555431D01*
X107894741Y-32733974D01*
X107266026Y-32105259D01*
X106444569Y-31765000D01*
X105555431Y-31765000D01*
X104733974Y-32105259D01*
X104105259Y-32733974D01*
X103765000Y-33555431D01*
X78025582Y-33555431D01*
X77983840Y-33345583D01*
X77841399Y-33132404D01*
X81848805Y-29124999D01*
X110945000Y-29124999D01*
X110945000Y-29204250D01*
X111103750Y-29363000D01*
X112253000Y-29363000D01*
X112253000Y-29343000D01*
X112507000Y-29343000D01*
X112507000Y-29363000D01*
X113656250Y-29363000D01*
X113815000Y-29204250D01*
X113815000Y-29124999D01*
X113850198Y-29124999D01*
X116240001Y-31514803D01*
X116240000Y-60843783D01*
X116225112Y-60918630D01*
X116240000Y-60993477D01*
X116240000Y-60993481D01*
X116284096Y-61215166D01*
X116452071Y-61466559D01*
X116465243Y-61475361D01*
X116243466Y-61697138D01*
X116190000Y-61826216D01*
X116136534Y-61697138D01*
X115732862Y-61293466D01*
X115205439Y-61075000D01*
X114634561Y-61075000D01*
X114107138Y-61293466D01*
X113703466Y-61697138D01*
X113650000Y-61826216D01*
X113596534Y-61697138D01*
X113192862Y-61293466D01*
X113063784Y-61240000D01*
X113192862Y-61186534D01*
X113596534Y-60782862D01*
X113815000Y-60255439D01*
X113815000Y-59684561D01*
X113596534Y-59157138D01*
X113192862Y-58753466D01*
X113063784Y-58700000D01*
X113192862Y-58646534D01*
X113596534Y-58242862D01*
X113815000Y-57715439D01*
X113815000Y-57144561D01*
X113596534Y-56617138D01*
X113192862Y-56213466D01*
X113063784Y-56160000D01*
X113192862Y-56106534D01*
X113596534Y-55702862D01*
X113815000Y-55175439D01*
X113815000Y-54604561D01*
X113596534Y-54077138D01*
X113192862Y-53673466D01*
X113063784Y-53620000D01*
X113192862Y-53566534D01*
X113596534Y-53162862D01*
X113815000Y-52635439D01*
X113815000Y-52064561D01*
X113596534Y-51537138D01*
X113192862Y-51133466D01*
X113063784Y-51080000D01*
X113192862Y-51026534D01*
X113596534Y-50622862D01*
X113815000Y-50095439D01*
X113815000Y-49524561D01*
X113596534Y-48997138D01*
X113192862Y-48593466D01*
X113063784Y-48540000D01*
X113192862Y-48486534D01*
X113596534Y-48082862D01*
X113815000Y-47555439D01*
X113815000Y-46984561D01*
X113596534Y-46457138D01*
X113192862Y-46053466D01*
X113063784Y-46000000D01*
X113192862Y-45946534D01*
X113596534Y-45542862D01*
X113815000Y-45015439D01*
X113815000Y-44444561D01*
X113596534Y-43917138D01*
X113192862Y-43513466D01*
X113063784Y-43460000D01*
X113192862Y-43406534D01*
X113596534Y-43002862D01*
X113815000Y-42475439D01*
X113815000Y-41904561D01*
X113596534Y-41377138D01*
X113192862Y-40973466D01*
X113063784Y-40920000D01*
X113192862Y-40866534D01*
X113596534Y-40462862D01*
X113815000Y-39935439D01*
X113815000Y-39364561D01*
X113596534Y-38837138D01*
X113192862Y-38433466D01*
X113063784Y-38380000D01*
X113192862Y-38326534D01*
X113596534Y-37922862D01*
X113815000Y-37395439D01*
X113815000Y-36824561D01*
X113596534Y-36297138D01*
X113192862Y-35893466D01*
X113063784Y-35840000D01*
X113192862Y-35786534D01*
X113519396Y-35460000D01*
X113896289Y-35460000D01*
X114013720Y-35577431D01*
X114394126Y-35735000D01*
X114805874Y-35735000D01*
X115186280Y-35577431D01*
X115477431Y-35286280D01*
X115635000Y-34905874D01*
X115635000Y-34494126D01*
X115477431Y-34113720D01*
X115186280Y-33822569D01*
X114805874Y-33665000D01*
X114394126Y-33665000D01*
X114013720Y-33822569D01*
X113896289Y-33940000D01*
X113672278Y-33940000D01*
X113596534Y-33757138D01*
X113192862Y-33353466D01*
X113063784Y-33300000D01*
X113192862Y-33246534D01*
X113596534Y-32842862D01*
X113815000Y-32315439D01*
X113815000Y-31744561D01*
X113596534Y-31217138D01*
X113304396Y-30925000D01*
X113306310Y-30925000D01*
X113539699Y-30828327D01*
X113718327Y-30649698D01*
X113815000Y-30416309D01*
X113815000Y-29775750D01*
X113656250Y-29617000D01*
X112507000Y-29617000D01*
X112507000Y-29637000D01*
X112253000Y-29637000D01*
X112253000Y-29617000D01*
X111103750Y-29617000D01*
X110945000Y-29775750D01*
X110945000Y-30416309D01*
X111041673Y-30649698D01*
X111220301Y-30828327D01*
X111453690Y-30925000D01*
X111455604Y-30925000D01*
X111163466Y-31217138D01*
X110945000Y-31744561D01*
X110945000Y-32315439D01*
X111163466Y-32842862D01*
X111567138Y-33246534D01*
X111696216Y-33300000D01*
X111567138Y-33353466D01*
X111163466Y-33757138D01*
X110945000Y-34284561D01*
X110945000Y-34855439D01*
X111163466Y-35382862D01*
X111567138Y-35786534D01*
X111696216Y-35840000D01*
X111567138Y-35893466D01*
X111163466Y-36297138D01*
X110945000Y-36824561D01*
X110945000Y-37395439D01*
X111163466Y-37922862D01*
X111567138Y-38326534D01*
X111696216Y-38380000D01*
X111567138Y-38433466D01*
X111163466Y-38837138D01*
X110945000Y-39364561D01*
X110945000Y-39935439D01*
X111163466Y-40462862D01*
X111567138Y-40866534D01*
X111696216Y-40920000D01*
X111567138Y-40973466D01*
X111163466Y-41377138D01*
X110945000Y-41904561D01*
X110945000Y-42475439D01*
X111163466Y-43002862D01*
X111567138Y-43406534D01*
X111696216Y-43460000D01*
X111567138Y-43513466D01*
X111163466Y-43917138D01*
X110945000Y-44444561D01*
X110945000Y-45015439D01*
X111163466Y-45542862D01*
X111567138Y-45946534D01*
X111696216Y-46000000D01*
X111567138Y-46053466D01*
X111163466Y-46457138D01*
X111141570Y-46510000D01*
X100904848Y-46510000D01*
X100830000Y-46495112D01*
X100755152Y-46510000D01*
X100755148Y-46510000D01*
X100533463Y-46554096D01*
X100282071Y-46722071D01*
X100239671Y-46785527D01*
X90065518Y-56959681D01*
X90002062Y-57002081D01*
X89959662Y-57065537D01*
X89959661Y-57065538D01*
X89834087Y-57253473D01*
X89775102Y-57550010D01*
X89789991Y-57624862D01*
X89789990Y-67335208D01*
X73715528Y-83409671D01*
X73652072Y-83452071D01*
X73609672Y-83515527D01*
X73609671Y-83515528D01*
X73484097Y-83703463D01*
X73425112Y-84000000D01*
X73440001Y-84074851D01*
X73440000Y-85206196D01*
X67915528Y-90730669D01*
X67852072Y-90773069D01*
X67809672Y-90836525D01*
X67809671Y-90836526D01*
X67684097Y-91024461D01*
X67625112Y-91320998D01*
X67640001Y-91395850D01*
X67640000Y-104596289D01*
X67522569Y-104713720D01*
X67365000Y-105094126D01*
X67365000Y-105265001D01*
X56339804Y-105265001D01*
X52609801Y-101535000D01*
X52805330Y-101535000D01*
X53369507Y-101301310D01*
X53590658Y-101080159D01*
X54099446Y-101080159D01*
X54185852Y-101336643D01*
X54759336Y-101546458D01*
X55369460Y-101520839D01*
X55814148Y-101336643D01*
X55900554Y-101080159D01*
X55000000Y-100179605D01*
X54099446Y-101080159D01*
X53590658Y-101080159D01*
X53801310Y-100869507D01*
X53804539Y-100861710D01*
X53919841Y-100900554D01*
X54820395Y-100000000D01*
X55179605Y-100000000D01*
X56080159Y-100900554D01*
X56336643Y-100814148D01*
X56546458Y-100240664D01*
X56520839Y-99630540D01*
X56336643Y-99185852D01*
X56080159Y-99099446D01*
X55179605Y-100000000D01*
X54820395Y-100000000D01*
X53919841Y-99099446D01*
X53804539Y-99138290D01*
X53801310Y-99130493D01*
X53590658Y-98919841D01*
X54099446Y-98919841D01*
X55000000Y-99820395D01*
X55900554Y-98919841D01*
X55814148Y-98663357D01*
X55240664Y-98453542D01*
X54630540Y-98479161D01*
X54185852Y-98663357D01*
X54099446Y-98919841D01*
X53590658Y-98919841D01*
X53369507Y-98698690D01*
X52805330Y-98465000D01*
X52194670Y-98465000D01*
X51630493Y-98698690D01*
X51250000Y-99079183D01*
X50869507Y-98698690D01*
X50305330Y-98465000D01*
X49694670Y-98465000D01*
X49130493Y-98698690D01*
X48698690Y-99130493D01*
X48465000Y-99694670D01*
X48465000Y-100305330D01*
X48698690Y-100869507D01*
X49130493Y-101301310D01*
X49694670Y-101535000D01*
X50305330Y-101535000D01*
X50414838Y-101489640D01*
X50415526Y-101490328D01*
X50415529Y-101490330D01*
X55434674Y-106509477D01*
X55477072Y-106572930D01*
X55540525Y-106615328D01*
X55540527Y-106615330D01*
X55614864Y-106665000D01*
X55728464Y-106740905D01*
X55950149Y-106785001D01*
X55950153Y-106785001D01*
X56025000Y-106799889D01*
X56099847Y-106785001D01*
X68804417Y-106785001D01*
X68713720Y-106822569D01*
X68422569Y-107113720D01*
X68265000Y-107494126D01*
X68265000Y-107905874D01*
X68422569Y-108286280D01*
X68713720Y-108577431D01*
X69094126Y-108735000D01*
X69505874Y-108735000D01*
X69886280Y-108577431D01*
X70003711Y-108460000D01*
X136940153Y-108460000D01*
X137015000Y-108474888D01*
X137089847Y-108460000D01*
X137089852Y-108460000D01*
X137311537Y-108415904D01*
X137562929Y-108247929D01*
X137605331Y-108184470D01*
X138074473Y-107715329D01*
X138137929Y-107672929D01*
X138246795Y-107510000D01*
X138613718Y-107510000D01*
X139054173Y-107422388D01*
X139553649Y-107088649D01*
X139887388Y-106589173D01*
X140004582Y-106000000D01*
X139887388Y-105410827D01*
X139553649Y-104911351D01*
X139312170Y-104750000D01*
X139553649Y-104588649D01*
X139887388Y-104089173D01*
X140004582Y-103500000D01*
X139887388Y-102910827D01*
X139553649Y-102411351D01*
X139054173Y-102077612D01*
X138613718Y-101990000D01*
X136566282Y-101990000D01*
X136125827Y-102077612D01*
X135626351Y-102411351D01*
X135292612Y-102910827D01*
X135175418Y-103500000D01*
X135292612Y-104089173D01*
X135626351Y-104588649D01*
X135867830Y-104750000D01*
X135626351Y-104911351D01*
X135292612Y-105410827D01*
X135175418Y-106000000D01*
X135292612Y-106589173D01*
X135527027Y-106940000D01*
X70003711Y-106940000D01*
X69886280Y-106822569D01*
X69795583Y-106785001D01*
X87200152Y-106785001D01*
X87274999Y-106799889D01*
X87349846Y-106785001D01*
X87349851Y-106785001D01*
X87571536Y-106740905D01*
X87822928Y-106572930D01*
X87865330Y-106509471D01*
X93819370Y-100555431D01*
X127765000Y-100555431D01*
X127765000Y-101444569D01*
X128105259Y-102266026D01*
X128733974Y-102894741D01*
X129555431Y-103235000D01*
X130444569Y-103235000D01*
X131266026Y-102894741D01*
X131894741Y-102266026D01*
X132235000Y-101444569D01*
X132235000Y-101285750D01*
X140711000Y-101285750D01*
X140711000Y-102876309D01*
X140807673Y-103109698D01*
X140986301Y-103288327D01*
X141219690Y-103385000D01*
X142310250Y-103385000D01*
X142469000Y-103226250D01*
X142469000Y-101127000D01*
X140869750Y-101127000D01*
X140711000Y-101285750D01*
X132235000Y-101285750D01*
X132235000Y-100555431D01*
X131894741Y-99733974D01*
X131266026Y-99105259D01*
X130444569Y-98765000D01*
X129555431Y-98765000D01*
X128733974Y-99105259D01*
X128105259Y-99733974D01*
X127765000Y-100555431D01*
X93819370Y-100555431D01*
X94639802Y-99735000D01*
X94805874Y-99735000D01*
X95186280Y-99577431D01*
X95477431Y-99286280D01*
X95635000Y-98905874D01*
X95635000Y-98494126D01*
X95477431Y-98113720D01*
X95186280Y-97822569D01*
X94805874Y-97665000D01*
X94394126Y-97665000D01*
X94013720Y-97822569D01*
X93722569Y-98113720D01*
X93565000Y-98494126D01*
X93565000Y-98660198D01*
X86960198Y-105265001D01*
X70798710Y-105265001D01*
X70877431Y-105186280D01*
X71035000Y-104805874D01*
X71035000Y-104639801D01*
X76824729Y-98850073D01*
X76922569Y-99086280D01*
X77213720Y-99377431D01*
X77594126Y-99535000D01*
X78005874Y-99535000D01*
X78386280Y-99377431D01*
X78666364Y-99097347D01*
X89158942Y-99097347D01*
X89276373Y-99214778D01*
X89656779Y-99372347D01*
X90068527Y-99372347D01*
X90448933Y-99214778D01*
X90740084Y-98923627D01*
X90897653Y-98543221D01*
X90897653Y-98131473D01*
X90740084Y-97751067D01*
X90448933Y-97459916D01*
X90068527Y-97302347D01*
X89656779Y-97302347D01*
X89276373Y-97459916D01*
X89158942Y-97577347D01*
X78277104Y-97577347D01*
X78005874Y-97465000D01*
X77598170Y-97465000D01*
X77590903Y-97428464D01*
X77422928Y-97177072D01*
X77171536Y-97009097D01*
X76949851Y-96965001D01*
X76949847Y-96965001D01*
X76874999Y-96950113D01*
X76800151Y-96965001D01*
X75035000Y-96965001D01*
X75035000Y-96794126D01*
X74877431Y-96413720D01*
X74760000Y-96296289D01*
X74760000Y-93314801D01*
X75765000Y-92309802D01*
X75765000Y-92405874D01*
X75922569Y-92786280D01*
X76213720Y-93077431D01*
X76594126Y-93235000D01*
X77005874Y-93235000D01*
X77386280Y-93077431D01*
X77503711Y-92960000D01*
X81825153Y-92960000D01*
X81900000Y-92974888D01*
X81974847Y-92960000D01*
X81974852Y-92960000D01*
X82196537Y-92915904D01*
X82317618Y-92835000D01*
X82505874Y-92835000D01*
X82886280Y-92677431D01*
X83177431Y-92386280D01*
X83335000Y-92005874D01*
X83335000Y-91594126D01*
X83177431Y-91213720D01*
X82886280Y-90922569D01*
X82505874Y-90765000D01*
X82309801Y-90765000D01*
X84519370Y-88555431D01*
X86765000Y-88555431D01*
X86765000Y-89444569D01*
X87105259Y-90266026D01*
X87733974Y-90894741D01*
X88555431Y-91235000D01*
X89444569Y-91235000D01*
X90266026Y-90894741D01*
X90894741Y-90266026D01*
X91235000Y-89444569D01*
X91235000Y-88555431D01*
X90894741Y-87733974D01*
X90266026Y-87105259D01*
X89444569Y-86765000D01*
X88555431Y-86765000D01*
X87733974Y-87105259D01*
X87105259Y-87733974D01*
X86765000Y-88555431D01*
X84519370Y-88555431D01*
X106024473Y-67050329D01*
X106087929Y-67007929D01*
X106183116Y-66865472D01*
X106255904Y-66756538D01*
X106271618Y-66677536D01*
X106300000Y-66534852D01*
X106300000Y-66534848D01*
X106314888Y-66460000D01*
X106300000Y-66385152D01*
X106300000Y-52278178D01*
X106610625Y-52070625D01*
X106876666Y-51672466D01*
X107240000Y-52035800D01*
X107240001Y-62925148D01*
X107225112Y-63000000D01*
X107240001Y-63074852D01*
X107277412Y-63262929D01*
X107284097Y-63296537D01*
X107373878Y-63430903D01*
X107452072Y-63547929D01*
X107515528Y-63590329D01*
X110409671Y-66484473D01*
X110452071Y-66547929D01*
X110515527Y-66590329D01*
X110703462Y-66715904D01*
X110751605Y-66725480D01*
X110925148Y-66760000D01*
X110925152Y-66760000D01*
X111000000Y-66774888D01*
X111074848Y-66760000D01*
X113895153Y-66760000D01*
X113970000Y-66774888D01*
X114044847Y-66760000D01*
X114044852Y-66760000D01*
X114266537Y-66715904D01*
X114517929Y-66547929D01*
X114560331Y-66484470D01*
X117121699Y-63923104D01*
X117174561Y-63945000D01*
X117745439Y-63945000D01*
X118272862Y-63726534D01*
X118481651Y-63517745D01*
X119171861Y-63517745D01*
X119245995Y-63763864D01*
X119783223Y-63956965D01*
X120353454Y-63929778D01*
X120754005Y-63763864D01*
X120828139Y-63517745D01*
X120000000Y-62689605D01*
X119171861Y-63517745D01*
X118481651Y-63517745D01*
X118676534Y-63322862D01*
X118723525Y-63209417D01*
X118746136Y-63264005D01*
X118992255Y-63338139D01*
X119820395Y-62510000D01*
X118992255Y-61681861D01*
X118746136Y-61755995D01*
X118725126Y-61814448D01*
X118676534Y-61697138D01*
X118272862Y-61293466D01*
X118213018Y-61268678D01*
X118175904Y-61082093D01*
X118007929Y-60830701D01*
X117944470Y-60788299D01*
X117760000Y-60603829D01*
X117760000Y-47053223D01*
X118553035Y-47053223D01*
X118580222Y-47623454D01*
X118746136Y-48024005D01*
X118992255Y-48098139D01*
X119820395Y-47270000D01*
X118992255Y-46441861D01*
X118746136Y-46515995D01*
X118553035Y-47053223D01*
X117760000Y-47053223D01*
X117760000Y-39334724D01*
X118415000Y-39334724D01*
X118415000Y-39965276D01*
X118656302Y-40547830D01*
X119102170Y-40993698D01*
X119684724Y-41235000D01*
X120315276Y-41235000D01*
X120897830Y-40993698D01*
X121343698Y-40547830D01*
X121585000Y-39965276D01*
X121585000Y-39334724D01*
X121343698Y-38752170D01*
X120897830Y-38306302D01*
X120315276Y-38065000D01*
X119684724Y-38065000D01*
X119102170Y-38306302D01*
X118656302Y-38752170D01*
X118415000Y-39334724D01*
X117760000Y-39334724D01*
X117760000Y-35579443D01*
X117894126Y-35635000D01*
X118305874Y-35635000D01*
X118415000Y-35589799D01*
X118415000Y-36155276D01*
X118656302Y-36737830D01*
X119102170Y-37183698D01*
X119684724Y-37425000D01*
X120315276Y-37425000D01*
X120897830Y-37183698D01*
X121343698Y-36737830D01*
X121585000Y-36155276D01*
X121585000Y-35524724D01*
X121343698Y-34942170D01*
X120897830Y-34496302D01*
X120315276Y-34255000D01*
X119699011Y-34255000D01*
X119886280Y-34177431D01*
X119990677Y-34073034D01*
X120000000Y-34074888D01*
X120074847Y-34060000D01*
X120074852Y-34060000D01*
X120296537Y-34015904D01*
X120547929Y-33847929D01*
X120590331Y-33784470D01*
X127314802Y-27060000D01*
X141085199Y-27060000D01*
X142740000Y-28714803D01*
X142740000Y-30061978D01*
X142505874Y-29965000D01*
X142094126Y-29965000D01*
X141713720Y-30122569D01*
X141422569Y-30413720D01*
X141265000Y-30794126D01*
X141265000Y-31205874D01*
X141422569Y-31586280D01*
X141555686Y-31719397D01*
X141584096Y-31862222D01*
X141740000Y-32095547D01*
X141740001Y-38485197D01*
X141085199Y-39140000D01*
X136303711Y-39140000D01*
X136186280Y-39022569D01*
X135805874Y-38865000D01*
X135394126Y-38865000D01*
X135035011Y-39013750D01*
X135035011Y-38039790D01*
X137939802Y-35135000D01*
X138105874Y-35135000D01*
X138486280Y-34977431D01*
X138777431Y-34686280D01*
X138935000Y-34305874D01*
X138935000Y-33894126D01*
X138777431Y-33513720D01*
X138486280Y-33222569D01*
X138105874Y-33065000D01*
X137694126Y-33065000D01*
X137313720Y-33222569D01*
X137022569Y-33513720D01*
X136865000Y-33894126D01*
X136865000Y-34060198D01*
X134585001Y-36340198D01*
X134585001Y-33399849D01*
X134599889Y-33325001D01*
X134585001Y-33250153D01*
X134585001Y-33250149D01*
X134550481Y-33076606D01*
X134540905Y-33028463D01*
X134415330Y-32840528D01*
X134372930Y-32777072D01*
X134309474Y-32734672D01*
X133735000Y-32160199D01*
X133735000Y-31994126D01*
X133577431Y-31613720D01*
X133286280Y-31322569D01*
X132905874Y-31165000D01*
X132494126Y-31165000D01*
X132113720Y-31322569D01*
X131822569Y-31613720D01*
X131665000Y-31994126D01*
X131665000Y-32065000D01*
X131594126Y-32065000D01*
X131213720Y-32222569D01*
X130922569Y-32513720D01*
X130765000Y-32894126D01*
X130765000Y-33305874D01*
X130922569Y-33686280D01*
X131040000Y-33803711D01*
X131040000Y-34120557D01*
X130905874Y-34065000D01*
X130494126Y-34065000D01*
X130113720Y-34222569D01*
X129822569Y-34513720D01*
X129665000Y-34894126D01*
X129665000Y-34965000D01*
X129394126Y-34965000D01*
X129013720Y-35122569D01*
X128895300Y-35240989D01*
X129055000Y-34855439D01*
X129055000Y-34284561D01*
X128836534Y-33757138D01*
X128432862Y-33353466D01*
X128303784Y-33300000D01*
X128432862Y-33246534D01*
X128836534Y-32842862D01*
X129055000Y-32315439D01*
X129055000Y-31744561D01*
X128836534Y-31217138D01*
X128432862Y-30813466D01*
X128303784Y-30760000D01*
X128432862Y-30706534D01*
X128836534Y-30302862D01*
X129055000Y-29775439D01*
X129055000Y-29204561D01*
X128836534Y-28677138D01*
X128432862Y-28273466D01*
X127905439Y-28055000D01*
X127334561Y-28055000D01*
X126807138Y-28273466D01*
X126403466Y-28677138D01*
X126185000Y-29204561D01*
X126185000Y-29775439D01*
X126206897Y-29828302D01*
X126010529Y-30024670D01*
X125947070Y-30067072D01*
X125779095Y-30318465D01*
X125734999Y-30540150D01*
X125734999Y-30540154D01*
X125720111Y-30615001D01*
X125734999Y-30689848D01*
X125734999Y-30748077D01*
X125365439Y-30595000D01*
X124794561Y-30595000D01*
X124267138Y-30813466D01*
X123863466Y-31217138D01*
X123645000Y-31744561D01*
X123645000Y-32315439D01*
X123863466Y-32842862D01*
X124267138Y-33246534D01*
X124794561Y-33465000D01*
X125365439Y-33465000D01*
X125734999Y-33311923D01*
X125734999Y-35828077D01*
X125365439Y-35675000D01*
X124794561Y-35675000D01*
X124267138Y-35893466D01*
X123863466Y-36297138D01*
X123645000Y-36824561D01*
X123645000Y-37395439D01*
X123863466Y-37922862D01*
X124267138Y-38326534D01*
X124396216Y-38380000D01*
X124267138Y-38433466D01*
X123863466Y-38837138D01*
X123645000Y-39364561D01*
X123645000Y-39935439D01*
X123863466Y-40462862D01*
X124267138Y-40866534D01*
X124396216Y-40920000D01*
X124267138Y-40973466D01*
X123863466Y-41377138D01*
X123645000Y-41904561D01*
X123645000Y-42076846D01*
X123577431Y-41913720D01*
X123286280Y-41622569D01*
X122905874Y-41465000D01*
X122494126Y-41465000D01*
X122113720Y-41622569D01*
X121822569Y-41913720D01*
X121665000Y-42294126D01*
X121665000Y-42705874D01*
X121822569Y-43086280D01*
X122096684Y-43360395D01*
X121727138Y-43513466D01*
X121323466Y-43917138D01*
X121270000Y-44046216D01*
X121216534Y-43917138D01*
X120812862Y-43513466D01*
X120285439Y-43295000D01*
X119714561Y-43295000D01*
X119187138Y-43513466D01*
X118783466Y-43917138D01*
X118565000Y-44444561D01*
X118565000Y-45015439D01*
X118783466Y-45542862D01*
X119187138Y-45946534D01*
X119300583Y-45993525D01*
X119245995Y-46016136D01*
X119171861Y-46262255D01*
X120000000Y-47090395D01*
X120828139Y-46262255D01*
X120754005Y-46016136D01*
X120695552Y-45995126D01*
X120812862Y-45946534D01*
X121216534Y-45542862D01*
X121270000Y-45413784D01*
X121323466Y-45542862D01*
X121727138Y-45946534D01*
X121856216Y-46000000D01*
X121727138Y-46053466D01*
X121323466Y-46457138D01*
X121276475Y-46570583D01*
X121253864Y-46515995D01*
X121007745Y-46441861D01*
X120179605Y-47270000D01*
X121007745Y-48098139D01*
X121253864Y-48024005D01*
X121274874Y-47965552D01*
X121323466Y-48082862D01*
X121727138Y-48486534D01*
X121856216Y-48540000D01*
X121727138Y-48593466D01*
X121323466Y-48997138D01*
X121270000Y-49126216D01*
X121216534Y-48997138D01*
X120812862Y-48593466D01*
X120699417Y-48546475D01*
X120754005Y-48523864D01*
X120828139Y-48277745D01*
X120000000Y-47449605D01*
X119171861Y-48277745D01*
X119245995Y-48523864D01*
X119304448Y-48544874D01*
X119187138Y-48593466D01*
X118783466Y-48997138D01*
X118565000Y-49524561D01*
X118565000Y-50095439D01*
X118783466Y-50622862D01*
X119187138Y-51026534D01*
X119316216Y-51080000D01*
X119187138Y-51133466D01*
X118783466Y-51537138D01*
X118565000Y-52064561D01*
X118565000Y-52635439D01*
X118783466Y-53162862D01*
X119187138Y-53566534D01*
X119316216Y-53620000D01*
X119187138Y-53673466D01*
X118783466Y-54077138D01*
X118565000Y-54604561D01*
X118565000Y-55175439D01*
X118783466Y-55702862D01*
X119187138Y-56106534D01*
X119316216Y-56160000D01*
X119187138Y-56213466D01*
X118783466Y-56617138D01*
X118565000Y-57144561D01*
X118565000Y-57715439D01*
X118783466Y-58242862D01*
X119187138Y-58646534D01*
X119316216Y-58700000D01*
X119187138Y-58753466D01*
X118783466Y-59157138D01*
X118565000Y-59684561D01*
X118565000Y-60255439D01*
X118783466Y-60782862D01*
X119187138Y-61186534D01*
X119300583Y-61233525D01*
X119245995Y-61256136D01*
X119171861Y-61502255D01*
X120000000Y-62330395D01*
X120828139Y-61502255D01*
X120754005Y-61256136D01*
X120695552Y-61235126D01*
X120812862Y-61186534D01*
X121216534Y-60782862D01*
X121270000Y-60653784D01*
X121323466Y-60782862D01*
X121727138Y-61186534D01*
X121856216Y-61240000D01*
X121727138Y-61293466D01*
X121323466Y-61697138D01*
X121276475Y-61810583D01*
X121253864Y-61755995D01*
X121007745Y-61681861D01*
X120179605Y-62510000D01*
X121007745Y-63338139D01*
X121253864Y-63264005D01*
X121274874Y-63205552D01*
X121323466Y-63322862D01*
X121727138Y-63726534D01*
X122254561Y-63945000D01*
X122825439Y-63945000D01*
X123352862Y-63726534D01*
X123756534Y-63322862D01*
X123810000Y-63193784D01*
X123863466Y-63322862D01*
X124267138Y-63726534D01*
X124642984Y-63882215D01*
X118460199Y-70065000D01*
X118294126Y-70065000D01*
X117913720Y-70222569D01*
X117622569Y-70513720D01*
X117465000Y-70894126D01*
X117465000Y-71305874D01*
X117622569Y-71686280D01*
X117913720Y-71977431D01*
X118294126Y-72135000D01*
X118585200Y-72135000D01*
X97380201Y-93340000D01*
X80003711Y-93340000D01*
X79886280Y-93222569D01*
X79505874Y-93065000D01*
X79094126Y-93065000D01*
X78713720Y-93222569D01*
X78422569Y-93513720D01*
X78265000Y-93894126D01*
X78265000Y-94305874D01*
X78422569Y-94686280D01*
X78713720Y-94977431D01*
X79094126Y-95135000D01*
X79505874Y-95135000D01*
X79886280Y-94977431D01*
X80003711Y-94860000D01*
X97620155Y-94860000D01*
X97695002Y-94874888D01*
X97769849Y-94860000D01*
X97769854Y-94860000D01*
X97991539Y-94815904D01*
X98242931Y-94647929D01*
X98285333Y-94584470D01*
X114240869Y-78628934D01*
X127616220Y-78628934D01*
X127616220Y-79378706D01*
X127903145Y-80071405D01*
X128433315Y-80601575D01*
X129126014Y-80888500D01*
X129875786Y-80888500D01*
X130568485Y-80601575D01*
X131098655Y-80071405D01*
X131385580Y-79378706D01*
X131385580Y-78628934D01*
X131214224Y-78215244D01*
X131627914Y-78386600D01*
X132377686Y-78386600D01*
X133070385Y-78099675D01*
X133600555Y-77569505D01*
X133887480Y-76876806D01*
X133887480Y-76127034D01*
X133600555Y-75434335D01*
X133070385Y-74904165D01*
X132377686Y-74617240D01*
X131627914Y-74617240D01*
X130935215Y-74904165D01*
X130405045Y-75434335D01*
X130118120Y-76127034D01*
X130118120Y-76876806D01*
X130289476Y-77290496D01*
X129875786Y-77119140D01*
X129126014Y-77119140D01*
X128433315Y-77406065D01*
X127903145Y-77936235D01*
X127616220Y-78628934D01*
X114240869Y-78628934D01*
X130284473Y-62585331D01*
X130347929Y-62542931D01*
X130515904Y-62291539D01*
X130560000Y-62069854D01*
X130560000Y-62069850D01*
X130574888Y-61995002D01*
X130560000Y-61920154D01*
X130560000Y-57144848D01*
X130574888Y-57070000D01*
X130560000Y-56995152D01*
X130560000Y-56995148D01*
X130515904Y-56773463D01*
X130347929Y-56522071D01*
X130284473Y-56479671D01*
X129033103Y-55228302D01*
X129055000Y-55175439D01*
X129055000Y-55149885D01*
X129115528Y-55190329D01*
X131765000Y-57839803D01*
X131765000Y-58005874D01*
X131922569Y-58386280D01*
X132213720Y-58677431D01*
X132594126Y-58835000D01*
X133005874Y-58835000D01*
X133386280Y-58677431D01*
X133515012Y-58548699D01*
X133515012Y-60110186D01*
X132760199Y-60865000D01*
X132594126Y-60865000D01*
X132213720Y-61022569D01*
X131922569Y-61313720D01*
X131765000Y-61694126D01*
X131765000Y-62105874D01*
X131922569Y-62486280D01*
X132213720Y-62777431D01*
X132594126Y-62935000D01*
X133005874Y-62935000D01*
X133386280Y-62777431D01*
X133677431Y-62486280D01*
X133835000Y-62105874D01*
X133835000Y-61939801D01*
X134759484Y-61015318D01*
X134822940Y-60972918D01*
X134990915Y-60721526D01*
X135035011Y-60499841D01*
X135035011Y-60499837D01*
X135049899Y-60424989D01*
X135035011Y-60350141D01*
X135035011Y-40786250D01*
X135394126Y-40935000D01*
X135805874Y-40935000D01*
X136186280Y-40777431D01*
X136303711Y-40660000D01*
X136879135Y-40660000D01*
X136865000Y-40694126D01*
X136865000Y-41105874D01*
X137022569Y-41486280D01*
X137140000Y-41603711D01*
X137140001Y-61885197D01*
X135060199Y-63965000D01*
X134894126Y-63965000D01*
X134513720Y-64122569D01*
X134222569Y-64413720D01*
X134065000Y-64794126D01*
X134065000Y-65205874D01*
X134222569Y-65586280D01*
X134513720Y-65877431D01*
X134894126Y-66035000D01*
X135305874Y-66035000D01*
X135686280Y-65877431D01*
X135977431Y-65586280D01*
X136135000Y-65205874D01*
X136135000Y-65039801D01*
X138384473Y-62790329D01*
X138447929Y-62747929D01*
X138615904Y-62496537D01*
X138660000Y-62274852D01*
X138660000Y-62274847D01*
X138674888Y-62200000D01*
X138660000Y-62125153D01*
X138660000Y-41603711D01*
X138777431Y-41486280D01*
X138935000Y-41105874D01*
X138935000Y-40694126D01*
X138920865Y-40660000D01*
X141325153Y-40660000D01*
X141400000Y-40674888D01*
X141474847Y-40660000D01*
X141474852Y-40660000D01*
X141696537Y-40615904D01*
X141947929Y-40447929D01*
X141990331Y-40384470D01*
X142740000Y-39634801D01*
X142740001Y-71340000D01*
X140874846Y-71340000D01*
X140799999Y-71325112D01*
X140725152Y-71340000D01*
X140725148Y-71340000D01*
X140503463Y-71384096D01*
X140252071Y-71552071D01*
X140209671Y-71615527D01*
X125415530Y-86409669D01*
X125352071Y-86452071D01*
X125184096Y-86703464D01*
X125140000Y-86925149D01*
X125140000Y-86925153D01*
X125125112Y-87000000D01*
X125140000Y-87074847D01*
X125140001Y-97585197D01*
X124860199Y-97865000D01*
X124694126Y-97865000D01*
X124313720Y-98022569D01*
X124022569Y-98313720D01*
X123865000Y-98694126D01*
X123865000Y-99105874D01*
X124022569Y-99486280D01*
X124313720Y-99777431D01*
X124694126Y-99935000D01*
X125105874Y-99935000D01*
X125486280Y-99777431D01*
X125777431Y-99486280D01*
X125935000Y-99105874D01*
X125935000Y-98939801D01*
X126384473Y-98490329D01*
X126447929Y-98447929D01*
X126615904Y-98196537D01*
X126660000Y-97974852D01*
X126660000Y-97974848D01*
X126674888Y-97900000D01*
X126660000Y-97825152D01*
X126660000Y-96000000D01*
X135175418Y-96000000D01*
X135292612Y-96589173D01*
X135626351Y-97088649D01*
X135867830Y-97250000D01*
X135626351Y-97411351D01*
X135292612Y-97910827D01*
X135175418Y-98500000D01*
X135292612Y-99089173D01*
X135626351Y-99588649D01*
X136125827Y-99922388D01*
X136566282Y-100010000D01*
X138613718Y-100010000D01*
X139054173Y-99922388D01*
X139553649Y-99588649D01*
X139864323Y-99123691D01*
X140711000Y-99123691D01*
X140711000Y-100714250D01*
X140869750Y-100873000D01*
X142469000Y-100873000D01*
X142469000Y-98773750D01*
X142310250Y-98615000D01*
X141219690Y-98615000D01*
X140986301Y-98711673D01*
X140807673Y-98890302D01*
X140711000Y-99123691D01*
X139864323Y-99123691D01*
X139887388Y-99089173D01*
X140004582Y-98500000D01*
X139887388Y-97910827D01*
X139553649Y-97411351D01*
X139312170Y-97250000D01*
X139553649Y-97088649D01*
X139887388Y-96589173D01*
X140004582Y-96000000D01*
X139887388Y-95410827D01*
X139553649Y-94911351D01*
X139054173Y-94577612D01*
X138613718Y-94490000D01*
X136566282Y-94490000D01*
X136125827Y-94577612D01*
X135626351Y-94911351D01*
X135292612Y-95410827D01*
X135175418Y-96000000D01*
X126660000Y-96000000D01*
X126660000Y-88621294D01*
X127616220Y-88621294D01*
X127616220Y-89371066D01*
X127903145Y-90063765D01*
X128433315Y-90593935D01*
X129126014Y-90880860D01*
X129875786Y-90880860D01*
X130289476Y-90709504D01*
X130118120Y-91123194D01*
X130118120Y-91872966D01*
X130405045Y-92565665D01*
X130935215Y-93095835D01*
X131627914Y-93382760D01*
X132377686Y-93382760D01*
X133070385Y-93095835D01*
X133600555Y-92565665D01*
X133887480Y-91872966D01*
X133887480Y-91123194D01*
X133600555Y-90430495D01*
X133070385Y-89900325D01*
X132377686Y-89613400D01*
X131627914Y-89613400D01*
X131214224Y-89784756D01*
X131385580Y-89371066D01*
X131385580Y-88626374D01*
X140113020Y-88626374D01*
X140113020Y-89376146D01*
X140399945Y-90068845D01*
X140930115Y-90599015D01*
X141622814Y-90885940D01*
X142372586Y-90885940D01*
X143065285Y-90599015D01*
X143595455Y-90068845D01*
X143882380Y-89376146D01*
X143882380Y-88626374D01*
X143595455Y-87933675D01*
X143065285Y-87403505D01*
X142372586Y-87116580D01*
X141622814Y-87116580D01*
X140930115Y-87403505D01*
X140399945Y-87933675D01*
X140113020Y-88626374D01*
X131385580Y-88626374D01*
X131385580Y-88621294D01*
X131098655Y-87928595D01*
X130568485Y-87398425D01*
X129875786Y-87111500D01*
X129126014Y-87111500D01*
X128433315Y-87398425D01*
X127903145Y-87928595D01*
X127616220Y-88621294D01*
X126660000Y-88621294D01*
X126660000Y-87314801D01*
X130115580Y-83859221D01*
X130115580Y-84374886D01*
X130402505Y-85067585D01*
X130932675Y-85597755D01*
X131625374Y-85884680D01*
X132375146Y-85884680D01*
X133067845Y-85597755D01*
X133598015Y-85067585D01*
X133884940Y-84374886D01*
X133884940Y-83625114D01*
X133598015Y-82932415D01*
X133067845Y-82402245D01*
X132375146Y-82115320D01*
X131859481Y-82115320D01*
X135350947Y-78623854D01*
X140113020Y-78623854D01*
X140113020Y-79373626D01*
X140399945Y-80066325D01*
X140930115Y-80596495D01*
X141622814Y-80883420D01*
X142372586Y-80883420D01*
X143065285Y-80596495D01*
X143595455Y-80066325D01*
X143882380Y-79373626D01*
X143882380Y-78623854D01*
X143595455Y-77931155D01*
X143065285Y-77400985D01*
X142372586Y-77114060D01*
X141622814Y-77114060D01*
X140930115Y-77400985D01*
X140399945Y-77931155D01*
X140113020Y-78623854D01*
X135350947Y-78623854D01*
X141114802Y-72860000D01*
X143425148Y-72860000D01*
X143500000Y-72874889D01*
X143796537Y-72815904D01*
X144047929Y-72647929D01*
X144215904Y-72396537D01*
X144260000Y-72174852D01*
X144265000Y-72149713D01*
X144265001Y-98770975D01*
X144205699Y-98711673D01*
X143972310Y-98615000D01*
X142881750Y-98615000D01*
X142723000Y-98773750D01*
X142723000Y-100873000D01*
X142743000Y-100873000D01*
X142743000Y-101127000D01*
X142723000Y-101127000D01*
X142723000Y-103226250D01*
X142881750Y-103385000D01*
X143972310Y-103385000D01*
X144205699Y-103288327D01*
X144265001Y-103229025D01*
X144265001Y-112824030D01*
X144133845Y-112507392D01*
X143392608Y-111766155D01*
X142424134Y-111365000D01*
X141375866Y-111365000D01*
X140407392Y-111766155D01*
X139666155Y-112507392D01*
X139265000Y-113475866D01*
X139265000Y-114524134D01*
X139666155Y-115492608D01*
X140407392Y-116233845D01*
X141375866Y-116635000D01*
X142424134Y-116635000D01*
X143392608Y-116233845D01*
X144133845Y-115492608D01*
X144265001Y-115175970D01*
X144265001Y-124265000D01*
X45735000Y-124265000D01*
X45735000Y-122080159D01*
X49099446Y-122080159D01*
X49185852Y-122336643D01*
X49759336Y-122546458D01*
X50369460Y-122520839D01*
X50814148Y-122336643D01*
X50900554Y-122080159D01*
X50000000Y-121179605D01*
X49099446Y-122080159D01*
X45735000Y-122080159D01*
X45735000Y-120759336D01*
X48453542Y-120759336D01*
X48479161Y-121369460D01*
X48663357Y-121814148D01*
X48919841Y-121900554D01*
X49820395Y-121000000D01*
X50179605Y-121000000D01*
X51080159Y-121900554D01*
X51195461Y-121861710D01*
X51198690Y-121869507D01*
X51630493Y-122301310D01*
X52194670Y-122535000D01*
X52805330Y-122535000D01*
X53369507Y-122301310D01*
X53750000Y-121920817D01*
X54130493Y-122301310D01*
X54694670Y-122535000D01*
X55305330Y-122535000D01*
X55869507Y-122301310D01*
X56090658Y-122080159D01*
X66099446Y-122080159D01*
X66185852Y-122336643D01*
X66759336Y-122546458D01*
X67369460Y-122520839D01*
X67814148Y-122336643D01*
X67900554Y-122080159D01*
X67000000Y-121179605D01*
X66099446Y-122080159D01*
X56090658Y-122080159D01*
X56301310Y-121869507D01*
X56535000Y-121305330D01*
X56535000Y-120759336D01*
X65453542Y-120759336D01*
X65479161Y-121369460D01*
X65663357Y-121814148D01*
X65919841Y-121900554D01*
X66820395Y-121000000D01*
X67179605Y-121000000D01*
X68080159Y-121900554D01*
X68195461Y-121861710D01*
X68198690Y-121869507D01*
X68630493Y-122301310D01*
X69194670Y-122535000D01*
X69805330Y-122535000D01*
X70369507Y-122301310D01*
X70750000Y-121920817D01*
X71130493Y-122301310D01*
X71694670Y-122535000D01*
X72305330Y-122535000D01*
X72869507Y-122301310D01*
X73090658Y-122080159D01*
X83099446Y-122080159D01*
X83185852Y-122336643D01*
X83759336Y-122546458D01*
X84369460Y-122520839D01*
X84814148Y-122336643D01*
X84900554Y-122080159D01*
X84000000Y-121179605D01*
X83099446Y-122080159D01*
X73090658Y-122080159D01*
X73301310Y-121869507D01*
X73535000Y-121305330D01*
X73535000Y-120759336D01*
X82453542Y-120759336D01*
X82479161Y-121369460D01*
X82663357Y-121814148D01*
X82919841Y-121900554D01*
X83820395Y-121000000D01*
X84179605Y-121000000D01*
X85080159Y-121900554D01*
X85195461Y-121861710D01*
X85198690Y-121869507D01*
X85630493Y-122301310D01*
X86194670Y-122535000D01*
X86805330Y-122535000D01*
X87369507Y-122301310D01*
X87750000Y-121920817D01*
X88130493Y-122301310D01*
X88694670Y-122535000D01*
X89305330Y-122535000D01*
X89869507Y-122301310D01*
X90090658Y-122080159D01*
X100099446Y-122080159D01*
X100185852Y-122336643D01*
X100759336Y-122546458D01*
X101369460Y-122520839D01*
X101814148Y-122336643D01*
X101900554Y-122080159D01*
X101000000Y-121179605D01*
X100099446Y-122080159D01*
X90090658Y-122080159D01*
X90301310Y-121869507D01*
X90535000Y-121305330D01*
X90535000Y-120759336D01*
X99453542Y-120759336D01*
X99479161Y-121369460D01*
X99663357Y-121814148D01*
X99919841Y-121900554D01*
X100820395Y-121000000D01*
X101179605Y-121000000D01*
X102080159Y-121900554D01*
X102195461Y-121861710D01*
X102198690Y-121869507D01*
X102630493Y-122301310D01*
X103194670Y-122535000D01*
X103805330Y-122535000D01*
X104369507Y-122301310D01*
X104750000Y-121920817D01*
X105130493Y-122301310D01*
X105694670Y-122535000D01*
X106305330Y-122535000D01*
X106869507Y-122301310D01*
X107090658Y-122080159D01*
X117099446Y-122080159D01*
X117185852Y-122336643D01*
X117759336Y-122546458D01*
X118369460Y-122520839D01*
X118814148Y-122336643D01*
X118900554Y-122080159D01*
X118000000Y-121179605D01*
X117099446Y-122080159D01*
X107090658Y-122080159D01*
X107301310Y-121869507D01*
X107535000Y-121305330D01*
X107535000Y-120759336D01*
X116453542Y-120759336D01*
X116479161Y-121369460D01*
X116663357Y-121814148D01*
X116919841Y-121900554D01*
X117820395Y-121000000D01*
X118179605Y-121000000D01*
X119080159Y-121900554D01*
X119195461Y-121861710D01*
X119198690Y-121869507D01*
X119630493Y-122301310D01*
X120194670Y-122535000D01*
X120805330Y-122535000D01*
X121369507Y-122301310D01*
X121750000Y-121920817D01*
X122130493Y-122301310D01*
X122694670Y-122535000D01*
X123305330Y-122535000D01*
X123869507Y-122301310D01*
X124090658Y-122080159D01*
X134099446Y-122080159D01*
X134185852Y-122336643D01*
X134759336Y-122546458D01*
X135369460Y-122520839D01*
X135814148Y-122336643D01*
X135900554Y-122080159D01*
X135000000Y-121179605D01*
X134099446Y-122080159D01*
X124090658Y-122080159D01*
X124301310Y-121869507D01*
X124535000Y-121305330D01*
X124535000Y-120759336D01*
X133453542Y-120759336D01*
X133479161Y-121369460D01*
X133663357Y-121814148D01*
X133919841Y-121900554D01*
X134820395Y-121000000D01*
X135179605Y-121000000D01*
X136080159Y-121900554D01*
X136195461Y-121861710D01*
X136198690Y-121869507D01*
X136630493Y-122301310D01*
X137194670Y-122535000D01*
X137805330Y-122535000D01*
X138369507Y-122301310D01*
X138750000Y-121920817D01*
X139130493Y-122301310D01*
X139694670Y-122535000D01*
X140305330Y-122535000D01*
X140869507Y-122301310D01*
X141301310Y-121869507D01*
X141535000Y-121305330D01*
X141535000Y-120694670D01*
X141301310Y-120130493D01*
X140869507Y-119698690D01*
X140305330Y-119465000D01*
X139694670Y-119465000D01*
X139130493Y-119698690D01*
X138750000Y-120079183D01*
X138369507Y-119698690D01*
X137805330Y-119465000D01*
X137194670Y-119465000D01*
X136630493Y-119698690D01*
X136198690Y-120130493D01*
X136195461Y-120138290D01*
X136080159Y-120099446D01*
X135179605Y-121000000D01*
X134820395Y-121000000D01*
X133919841Y-120099446D01*
X133663357Y-120185852D01*
X133453542Y-120759336D01*
X124535000Y-120759336D01*
X124535000Y-120694670D01*
X124301310Y-120130493D01*
X124090658Y-119919841D01*
X134099446Y-119919841D01*
X135000000Y-120820395D01*
X135900554Y-119919841D01*
X135814148Y-119663357D01*
X135240664Y-119453542D01*
X134630540Y-119479161D01*
X134185852Y-119663357D01*
X134099446Y-119919841D01*
X124090658Y-119919841D01*
X123869507Y-119698690D01*
X123305330Y-119465000D01*
X122694670Y-119465000D01*
X122130493Y-119698690D01*
X121750000Y-120079183D01*
X121369507Y-119698690D01*
X120805330Y-119465000D01*
X120194670Y-119465000D01*
X119630493Y-119698690D01*
X119198690Y-120130493D01*
X119195461Y-120138290D01*
X119080159Y-120099446D01*
X118179605Y-121000000D01*
X117820395Y-121000000D01*
X116919841Y-120099446D01*
X116663357Y-120185852D01*
X116453542Y-120759336D01*
X107535000Y-120759336D01*
X107535000Y-120694670D01*
X107301310Y-120130493D01*
X107090658Y-119919841D01*
X117099446Y-119919841D01*
X118000000Y-120820395D01*
X118900554Y-119919841D01*
X118814148Y-119663357D01*
X118240664Y-119453542D01*
X117630540Y-119479161D01*
X117185852Y-119663357D01*
X117099446Y-119919841D01*
X107090658Y-119919841D01*
X106869507Y-119698690D01*
X106305330Y-119465000D01*
X105694670Y-119465000D01*
X105130493Y-119698690D01*
X104750000Y-120079183D01*
X104369507Y-119698690D01*
X103805330Y-119465000D01*
X103194670Y-119465000D01*
X102630493Y-119698690D01*
X102198690Y-120130493D01*
X102195461Y-120138290D01*
X102080159Y-120099446D01*
X101179605Y-121000000D01*
X100820395Y-121000000D01*
X99919841Y-120099446D01*
X99663357Y-120185852D01*
X99453542Y-120759336D01*
X90535000Y-120759336D01*
X90535000Y-120694670D01*
X90301310Y-120130493D01*
X90090658Y-119919841D01*
X100099446Y-119919841D01*
X101000000Y-120820395D01*
X101900554Y-119919841D01*
X101814148Y-119663357D01*
X101240664Y-119453542D01*
X100630540Y-119479161D01*
X100185852Y-119663357D01*
X100099446Y-119919841D01*
X90090658Y-119919841D01*
X89869507Y-119698690D01*
X89305330Y-119465000D01*
X88694670Y-119465000D01*
X88130493Y-119698690D01*
X87750000Y-120079183D01*
X87369507Y-119698690D01*
X86805330Y-119465000D01*
X86194670Y-119465000D01*
X85630493Y-119698690D01*
X85198690Y-120130493D01*
X85195461Y-120138290D01*
X85080159Y-120099446D01*
X84179605Y-121000000D01*
X83820395Y-121000000D01*
X82919841Y-120099446D01*
X82663357Y-120185852D01*
X82453542Y-120759336D01*
X73535000Y-120759336D01*
X73535000Y-120694670D01*
X73301310Y-120130493D01*
X73090658Y-119919841D01*
X83099446Y-119919841D01*
X84000000Y-120820395D01*
X84900554Y-119919841D01*
X84814148Y-119663357D01*
X84240664Y-119453542D01*
X83630540Y-119479161D01*
X83185852Y-119663357D01*
X83099446Y-119919841D01*
X73090658Y-119919841D01*
X72869507Y-119698690D01*
X72305330Y-119465000D01*
X71694670Y-119465000D01*
X71130493Y-119698690D01*
X70750000Y-120079183D01*
X70369507Y-119698690D01*
X69805330Y-119465000D01*
X69194670Y-119465000D01*
X68630493Y-119698690D01*
X68198690Y-120130493D01*
X68195461Y-120138290D01*
X68080159Y-120099446D01*
X67179605Y-121000000D01*
X66820395Y-121000000D01*
X65919841Y-120099446D01*
X65663357Y-120185852D01*
X65453542Y-120759336D01*
X56535000Y-120759336D01*
X56535000Y-120694670D01*
X56301310Y-120130493D01*
X56090658Y-119919841D01*
X66099446Y-119919841D01*
X67000000Y-120820395D01*
X67900554Y-119919841D01*
X67814148Y-119663357D01*
X67240664Y-119453542D01*
X66630540Y-119479161D01*
X66185852Y-119663357D01*
X66099446Y-119919841D01*
X56090658Y-119919841D01*
X55869507Y-119698690D01*
X55305330Y-119465000D01*
X54694670Y-119465000D01*
X54130493Y-119698690D01*
X53750000Y-120079183D01*
X53369507Y-119698690D01*
X52805330Y-119465000D01*
X52194670Y-119465000D01*
X51630493Y-119698690D01*
X51198690Y-120130493D01*
X51195461Y-120138290D01*
X51080159Y-120099446D01*
X50179605Y-121000000D01*
X49820395Y-121000000D01*
X48919841Y-120099446D01*
X48663357Y-120185852D01*
X48453542Y-120759336D01*
X45735000Y-120759336D01*
X45735000Y-119919841D01*
X49099446Y-119919841D01*
X50000000Y-120820395D01*
X50900554Y-119919841D01*
X50814148Y-119663357D01*
X50240664Y-119453542D01*
X49630540Y-119479161D01*
X49185852Y-119663357D01*
X49099446Y-119919841D01*
X45735000Y-119919841D01*
X45735000Y-115190972D01*
X45866155Y-115507608D01*
X46607392Y-116248845D01*
X47575866Y-116650000D01*
X48624134Y-116650000D01*
X49592608Y-116248845D01*
X50333845Y-115507608D01*
X50735000Y-114539134D01*
X50735000Y-113490866D01*
X50728787Y-113475866D01*
X54265000Y-113475866D01*
X54265000Y-114524134D01*
X54666155Y-115492608D01*
X55407392Y-116233845D01*
X56375866Y-116635000D01*
X57424134Y-116635000D01*
X58392608Y-116233845D01*
X59133845Y-115492608D01*
X59535000Y-114524134D01*
X59535000Y-113490866D01*
X62465000Y-113490866D01*
X62465000Y-114539134D01*
X62866155Y-115507608D01*
X63607392Y-116248845D01*
X64575866Y-116650000D01*
X65624134Y-116650000D01*
X66592608Y-116248845D01*
X67333845Y-115507608D01*
X67735000Y-114539134D01*
X67735000Y-113490866D01*
X67728787Y-113475866D01*
X71265000Y-113475866D01*
X71265000Y-114524134D01*
X71666155Y-115492608D01*
X72407392Y-116233845D01*
X73375866Y-116635000D01*
X74424134Y-116635000D01*
X75392608Y-116233845D01*
X76133845Y-115492608D01*
X76535000Y-114524134D01*
X76535000Y-113490866D01*
X79465000Y-113490866D01*
X79465000Y-114539134D01*
X79866155Y-115507608D01*
X80607392Y-116248845D01*
X81575866Y-116650000D01*
X82624134Y-116650000D01*
X83592608Y-116248845D01*
X84333845Y-115507608D01*
X84735000Y-114539134D01*
X84735000Y-113490866D01*
X84728787Y-113475866D01*
X88265000Y-113475866D01*
X88265000Y-114524134D01*
X88666155Y-115492608D01*
X89407392Y-116233845D01*
X90375866Y-116635000D01*
X91424134Y-116635000D01*
X92392608Y-116233845D01*
X93133845Y-115492608D01*
X93535000Y-114524134D01*
X93535000Y-113490866D01*
X96465000Y-113490866D01*
X96465000Y-114539134D01*
X96866155Y-115507608D01*
X97607392Y-116248845D01*
X98575866Y-116650000D01*
X99624134Y-116650000D01*
X100592608Y-116248845D01*
X101333845Y-115507608D01*
X101735000Y-114539134D01*
X101735000Y-113490866D01*
X101728787Y-113475866D01*
X105265000Y-113475866D01*
X105265000Y-114524134D01*
X105666155Y-115492608D01*
X106407392Y-116233845D01*
X107375866Y-116635000D01*
X108424134Y-116635000D01*
X109392608Y-116233845D01*
X110133845Y-115492608D01*
X110535000Y-114524134D01*
X110535000Y-113490866D01*
X113465000Y-113490866D01*
X113465000Y-114539134D01*
X113866155Y-115507608D01*
X114607392Y-116248845D01*
X115575866Y-116650000D01*
X116624134Y-116650000D01*
X117592608Y-116248845D01*
X118333845Y-115507608D01*
X118735000Y-114539134D01*
X118735000Y-113490866D01*
X118728787Y-113475866D01*
X122265000Y-113475866D01*
X122265000Y-114524134D01*
X122666155Y-115492608D01*
X123407392Y-116233845D01*
X124375866Y-116635000D01*
X125424134Y-116635000D01*
X126392608Y-116233845D01*
X127133845Y-115492608D01*
X127535000Y-114524134D01*
X127535000Y-113490866D01*
X130465000Y-113490866D01*
X130465000Y-114539134D01*
X130866155Y-115507608D01*
X131607392Y-116248845D01*
X132575866Y-116650000D01*
X133624134Y-116650000D01*
X134592608Y-116248845D01*
X135333845Y-115507608D01*
X135735000Y-114539134D01*
X135735000Y-113490866D01*
X135333845Y-112522392D01*
X134592608Y-111781155D01*
X133624134Y-111380000D01*
X132575866Y-111380000D01*
X131607392Y-111781155D01*
X130866155Y-112522392D01*
X130465000Y-113490866D01*
X127535000Y-113490866D01*
X127535000Y-113475866D01*
X127133845Y-112507392D01*
X126392608Y-111766155D01*
X125424134Y-111365000D01*
X124375866Y-111365000D01*
X123407392Y-111766155D01*
X122666155Y-112507392D01*
X122265000Y-113475866D01*
X118728787Y-113475866D01*
X118333845Y-112522392D01*
X117592608Y-111781155D01*
X116624134Y-111380000D01*
X115575866Y-111380000D01*
X114607392Y-111781155D01*
X113866155Y-112522392D01*
X113465000Y-113490866D01*
X110535000Y-113490866D01*
X110535000Y-113475866D01*
X110133845Y-112507392D01*
X109392608Y-111766155D01*
X108424134Y-111365000D01*
X107375866Y-111365000D01*
X106407392Y-111766155D01*
X105666155Y-112507392D01*
X105265000Y-113475866D01*
X101728787Y-113475866D01*
X101333845Y-112522392D01*
X100592608Y-111781155D01*
X99624134Y-111380000D01*
X98575866Y-111380000D01*
X97607392Y-111781155D01*
X96866155Y-112522392D01*
X96465000Y-113490866D01*
X93535000Y-113490866D01*
X93535000Y-113475866D01*
X93133845Y-112507392D01*
X92392608Y-111766155D01*
X91424134Y-111365000D01*
X90375866Y-111365000D01*
X89407392Y-111766155D01*
X88666155Y-112507392D01*
X88265000Y-113475866D01*
X84728787Y-113475866D01*
X84333845Y-112522392D01*
X83592608Y-111781155D01*
X82624134Y-111380000D01*
X81575866Y-111380000D01*
X80607392Y-111781155D01*
X79866155Y-112522392D01*
X79465000Y-113490866D01*
X76535000Y-113490866D01*
X76535000Y-113475866D01*
X76133845Y-112507392D01*
X75392608Y-111766155D01*
X74424134Y-111365000D01*
X73375866Y-111365000D01*
X72407392Y-111766155D01*
X71666155Y-112507392D01*
X71265000Y-113475866D01*
X67728787Y-113475866D01*
X67333845Y-112522392D01*
X66592608Y-111781155D01*
X65624134Y-111380000D01*
X64575866Y-111380000D01*
X63607392Y-111781155D01*
X62866155Y-112522392D01*
X62465000Y-113490866D01*
X59535000Y-113490866D01*
X59535000Y-113475866D01*
X59133845Y-112507392D01*
X58392608Y-111766155D01*
X57424134Y-111365000D01*
X56375866Y-111365000D01*
X55407392Y-111766155D01*
X54666155Y-112507392D01*
X54265000Y-113475866D01*
X50728787Y-113475866D01*
X50333845Y-112522392D01*
X49592608Y-111781155D01*
X48624134Y-111380000D01*
X47575866Y-111380000D01*
X46607392Y-111781155D01*
X45866155Y-112522392D01*
X45735000Y-112839028D01*
X45735000Y-94190972D01*
X45866155Y-94507608D01*
X46607392Y-95248845D01*
X47575866Y-95650000D01*
X48624134Y-95650000D01*
X49592608Y-95248845D01*
X50333845Y-94507608D01*
X50735000Y-93539134D01*
X50735000Y-92490866D01*
X50728787Y-92475866D01*
X54265000Y-92475866D01*
X54265000Y-93524134D01*
X54666155Y-94492608D01*
X55407392Y-95233845D01*
X56375866Y-95635000D01*
X57424134Y-95635000D01*
X58392608Y-95233845D01*
X59133845Y-94492608D01*
X59535000Y-93524134D01*
X59535000Y-92475866D01*
X59133845Y-91507392D01*
X58392608Y-90766155D01*
X57883876Y-90555431D01*
X62265000Y-90555431D01*
X62265000Y-91444569D01*
X62605259Y-92266026D01*
X63233974Y-92894741D01*
X64055431Y-93235000D01*
X64944569Y-93235000D01*
X65766026Y-92894741D01*
X66394741Y-92266026D01*
X66735000Y-91444569D01*
X66735000Y-90555431D01*
X66394741Y-89733974D01*
X65766026Y-89105259D01*
X64944569Y-88765000D01*
X64055431Y-88765000D01*
X63233974Y-89105259D01*
X62605259Y-89733974D01*
X62265000Y-90555431D01*
X57883876Y-90555431D01*
X57424134Y-90365000D01*
X56375866Y-90365000D01*
X55407392Y-90766155D01*
X54666155Y-91507392D01*
X54265000Y-92475866D01*
X50728787Y-92475866D01*
X50333845Y-91522392D01*
X49592608Y-90781155D01*
X48624134Y-90380000D01*
X47575866Y-90380000D01*
X46607392Y-90781155D01*
X45866155Y-91522392D01*
X45735000Y-91839028D01*
X45735000Y-61186245D01*
X46094126Y-61335000D01*
X46505874Y-61335000D01*
X46886280Y-61177431D01*
X47177431Y-60886280D01*
X47335000Y-60505874D01*
X47335000Y-60339801D01*
X51114802Y-56560000D01*
X55765000Y-56560000D01*
X55765000Y-56705874D01*
X55922569Y-57086280D01*
X56213720Y-57377431D01*
X56594126Y-57535000D01*
X57005874Y-57535000D01*
X57386280Y-57377431D01*
X57677431Y-57086280D01*
X57835000Y-56705874D01*
X57835000Y-56539801D01*
X60684473Y-53690329D01*
X60747929Y-53647929D01*
X60915904Y-53396537D01*
X60960000Y-53174852D01*
X60960000Y-53174848D01*
X60974888Y-53100001D01*
X60960000Y-53025154D01*
X60960000Y-51503711D01*
X61077431Y-51386280D01*
X61235000Y-51005874D01*
X61235000Y-50594126D01*
X61077431Y-50213720D01*
X60786280Y-49922569D01*
X60405874Y-49765000D01*
X59994126Y-49765000D01*
X59613720Y-49922569D01*
X59322569Y-50213720D01*
X59165000Y-50594126D01*
X59165000Y-51005874D01*
X59322569Y-51386280D01*
X59440000Y-51503711D01*
X59440001Y-52785197D01*
X56800000Y-55425199D01*
X56690330Y-55315529D01*
X56647929Y-55252071D01*
X56396537Y-55084096D01*
X56174852Y-55040000D01*
X56174847Y-55040000D01*
X56100000Y-55025112D01*
X56025153Y-55040000D01*
X50874846Y-55040000D01*
X50799999Y-55025112D01*
X50725152Y-55040000D01*
X50725148Y-55040000D01*
X50503463Y-55084096D01*
X50252071Y-55252071D01*
X50209671Y-55315527D01*
X46260199Y-59265000D01*
X46094126Y-59265000D01*
X45735000Y-59413755D01*
X45735000Y-36294126D01*
X46465000Y-36294126D01*
X46465000Y-36705874D01*
X46622569Y-37086280D01*
X46913720Y-37377431D01*
X47294126Y-37535000D01*
X47705874Y-37535000D01*
X48086280Y-37377431D01*
X48377431Y-37086280D01*
X48420711Y-36981794D01*
X48422569Y-36986280D01*
X48540001Y-37103712D01*
X48540000Y-47825153D01*
X48525112Y-47900000D01*
X48540000Y-47974847D01*
X48540000Y-47974851D01*
X48584096Y-48196536D01*
X48665000Y-48317618D01*
X48665000Y-48505874D01*
X48822569Y-48886280D01*
X49113720Y-49177431D01*
X49494126Y-49335000D01*
X49905874Y-49335000D01*
X50286280Y-49177431D01*
X50577431Y-48886280D01*
X50735000Y-48505874D01*
X50735000Y-48094126D01*
X50577431Y-47713720D01*
X50286280Y-47422569D01*
X50060000Y-47328841D01*
X50060000Y-37103711D01*
X50177431Y-36986280D01*
X50335000Y-36605874D01*
X50335000Y-36194126D01*
X50177431Y-35813720D01*
X50063711Y-35700000D01*
X50277431Y-35486280D01*
X50435000Y-35105874D01*
X50435000Y-34694126D01*
X50277431Y-34313720D01*
X49986280Y-34022569D01*
X49605874Y-33865000D01*
X49194126Y-33865000D01*
X48813720Y-34022569D01*
X48522569Y-34313720D01*
X48459701Y-34465497D01*
X47460199Y-35465000D01*
X47294126Y-35465000D01*
X46913720Y-35622569D01*
X46622569Y-35913720D01*
X46465000Y-36294126D01*
X45735000Y-36294126D01*
X45735000Y-25735000D01*
X126477620Y-25735000D01*
X126452071Y-25752071D01*
X126452071Y-25752071D01*
G37*
X126452071Y-25752071D02*
X126409671Y-25815527D01*
X119827130Y-32398069D01*
X119505874Y-32265000D01*
X119094126Y-32265000D01*
X118860000Y-32361978D01*
X118860000Y-29912580D01*
X119186280Y-29777431D01*
X119477431Y-29486280D01*
X119635000Y-29105874D01*
X119635000Y-28694126D01*
X119477431Y-28313720D01*
X119186280Y-28022569D01*
X118805874Y-27865000D01*
X118394126Y-27865000D01*
X118013720Y-28022569D01*
X117722569Y-28313720D01*
X117565000Y-28694126D01*
X117565000Y-28843432D01*
X117552071Y-28852071D01*
X117384096Y-29103464D01*
X117340000Y-29325149D01*
X117340000Y-29325153D01*
X117325112Y-29400000D01*
X117340000Y-29474847D01*
X117340000Y-30465198D01*
X115691959Y-28817157D01*
X116767845Y-27741272D01*
X116994126Y-27835000D01*
X117405874Y-27835000D01*
X117786280Y-27677431D01*
X118077431Y-27386280D01*
X118235000Y-27005874D01*
X118235000Y-26594126D01*
X118077431Y-26213720D01*
X117786280Y-25922569D01*
X117405874Y-25765000D01*
X116994126Y-25765000D01*
X116613720Y-25922569D01*
X116480603Y-26055686D01*
X116385920Y-26074520D01*
X116337777Y-26084096D01*
X116150733Y-26209076D01*
X116086386Y-26252071D01*
X116043986Y-26315527D01*
X114754515Y-27604999D01*
X114239846Y-27604999D01*
X114164999Y-27590111D01*
X114090152Y-27604999D01*
X81608850Y-27604999D01*
X81534003Y-27590111D01*
X81459156Y-27604999D01*
X81459151Y-27604999D01*
X81237466Y-27649095D01*
X80986074Y-27817070D01*
X80943674Y-27880526D01*
X77989610Y-30834591D01*
X77983840Y-30805583D01*
X77655626Y-30314376D01*
X77637382Y-30302185D01*
X77682766Y-30293158D01*
X77892810Y-30152810D01*
X78033158Y-29942766D01*
X78082441Y-29695001D01*
X78082441Y-27995001D01*
X78033158Y-27747236D01*
X77892810Y-27537192D01*
X77682766Y-27396844D01*
X77435001Y-27347561D01*
X75735001Y-27347561D01*
X75487236Y-27396844D01*
X75277192Y-27537192D01*
X75136844Y-27747236D01*
X75087561Y-27995001D01*
X75087561Y-28085001D01*
X74482441Y-28085001D01*
X74482441Y-27995001D01*
X74433158Y-27747236D01*
X74292810Y-27537192D01*
X74082766Y-27396844D01*
X73835001Y-27347561D01*
X72135001Y-27347561D01*
X71887236Y-27396844D01*
X71677192Y-27537192D01*
X71536844Y-27747236D01*
X71487561Y-27995001D01*
X71487561Y-28085001D01*
X70882441Y-28085001D01*
X70882441Y-27995001D01*
X70833158Y-27747236D01*
X70692810Y-27537192D01*
X70482766Y-27396844D01*
X70235001Y-27347561D01*
X68535001Y-27347561D01*
X68287236Y-27396844D01*
X68077192Y-27537192D01*
X67936844Y-27747236D01*
X67887561Y-27995001D01*
X67887561Y-29695001D01*
X67936844Y-29942766D01*
X68077192Y-30152810D01*
X68287236Y-30293158D01*
X68332620Y-30302185D01*
X68314376Y-30314376D01*
X67986162Y-30805583D01*
X67870909Y-31385001D01*
X67986162Y-31964419D01*
X68003255Y-31990000D01*
X65864802Y-31990000D01*
X63435000Y-29560199D01*
X63435000Y-29394126D01*
X63277431Y-29013720D01*
X62986280Y-28722569D01*
X62605874Y-28565000D01*
X62194126Y-28565000D01*
X61813720Y-28722569D01*
X61522569Y-29013720D01*
X61365000Y-29394126D01*
X61365000Y-29805874D01*
X61522569Y-30186280D01*
X61813720Y-30477431D01*
X62194126Y-30635000D01*
X62360199Y-30635000D01*
X64959671Y-33234473D01*
X65002071Y-33297929D01*
X65065527Y-33340329D01*
X65253462Y-33465904D01*
X65301605Y-33475480D01*
X65475148Y-33510000D01*
X65475152Y-33510000D01*
X65550000Y-33524888D01*
X65624848Y-33510000D01*
X67953458Y-33510000D01*
X67870909Y-33925001D01*
X67986162Y-34504419D01*
X68314376Y-34995626D01*
X68612762Y-35195001D01*
X68314376Y-35394376D01*
X67986162Y-35885583D01*
X67870909Y-36465001D01*
X67986162Y-37044419D01*
X68314376Y-37535626D01*
X68612762Y-37735001D01*
X68314376Y-37934376D01*
X67986162Y-38425583D01*
X67870909Y-39005001D01*
X67986162Y-39584419D01*
X68314376Y-40075626D01*
X68612762Y-40275001D01*
X68314376Y-40474376D01*
X67986162Y-40965583D01*
X67870909Y-41545001D01*
X67986162Y-42124419D01*
X68314376Y-42615626D01*
X68612762Y-42815001D01*
X68314376Y-43014376D01*
X68106823Y-43325001D01*
X66699803Y-43325001D01*
X56019256Y-32644455D01*
X56277431Y-32386280D01*
X56435000Y-32005874D01*
X56435000Y-31594126D01*
X56277431Y-31213720D01*
X56185001Y-31121290D01*
X56185001Y-30950391D01*
X57445450Y-32210839D01*
X57422569Y-32233720D01*
X57265000Y-32614126D01*
X57265000Y-33025874D01*
X57422569Y-33406280D01*
X57713720Y-33697431D01*
X57994208Y-33813613D01*
X57965000Y-33884126D01*
X57965000Y-34295874D01*
X58122569Y-34676280D01*
X58413720Y-34967431D01*
X58794126Y-35125000D01*
X59205874Y-35125000D01*
X59586280Y-34967431D01*
X59877431Y-34676280D01*
X60035000Y-34295874D01*
X60035000Y-33884126D01*
X59877431Y-33503720D01*
X59785001Y-33411290D01*
X59785001Y-32154027D01*
X59799889Y-32079179D01*
X59785001Y-32004331D01*
X59785001Y-32004327D01*
X59740905Y-31782642D01*
X59572930Y-31531250D01*
X59509474Y-31488850D01*
X55736153Y-27715530D01*
X55693751Y-27652071D01*
X55442359Y-27484096D01*
X55220674Y-27440000D01*
X55220669Y-27440000D01*
X55145822Y-27425112D01*
X55070975Y-27440000D01*
X53192616Y-27440000D01*
X53117768Y-27425112D01*
X53042920Y-27440000D01*
X53042916Y-27440000D01*
X52869373Y-27474520D01*
X52821230Y-27484096D01*
X52640287Y-27604999D01*
X52569839Y-27652071D01*
X52527439Y-27715527D01*
X50740500Y-29502467D01*
X50677044Y-29544867D01*
X50634644Y-29608323D01*
X50634643Y-29608324D01*
X50509069Y-29796259D01*
X50450084Y-30092796D01*
X50464973Y-30167648D01*
X50464971Y-43800144D01*
X50450083Y-43874991D01*
X50464971Y-43949838D01*
X50464971Y-43949842D01*
X50509067Y-44171527D01*
X50677042Y-44422919D01*
X50740498Y-44465319D01*
X54414980Y-48139802D01*
X54414980Y-48305874D01*
X54572549Y-48686280D01*
X54863700Y-48977431D01*
X55244106Y-49135000D01*
X55655854Y-49135000D01*
X56036260Y-48977431D01*
X56327411Y-48686280D01*
X56484980Y-48305874D01*
X56484980Y-47894126D01*
X56327411Y-47513720D01*
X56263691Y-47450000D01*
X56327411Y-47386280D01*
X56484980Y-47005874D01*
X56484980Y-46594126D01*
X56327411Y-46213720D01*
X56263691Y-46150000D01*
X56327411Y-46086280D01*
X56484980Y-45705874D01*
X56484980Y-45294126D01*
X56327411Y-44913720D01*
X56036260Y-44622569D01*
X55655854Y-44465000D01*
X55539802Y-44465000D01*
X52884990Y-41810189D01*
X52884990Y-40259792D01*
X54565000Y-41939803D01*
X54565000Y-42105874D01*
X54722569Y-42486280D01*
X55013720Y-42777431D01*
X55394126Y-42935000D01*
X55805874Y-42935000D01*
X56186280Y-42777431D01*
X56477431Y-42486280D01*
X56635000Y-42105874D01*
X56635000Y-41694126D01*
X56477431Y-41313720D01*
X56186280Y-41022569D01*
X55805874Y-40865000D01*
X55639803Y-40865000D01*
X53334999Y-38560198D01*
X53334999Y-37169088D01*
X53494126Y-37235000D01*
X53905874Y-37235000D01*
X54286280Y-37077431D01*
X54577431Y-36786280D01*
X54735000Y-36405874D01*
X54735000Y-35994126D01*
X54577431Y-35613720D01*
X54444314Y-35480603D01*
X54415904Y-35337778D01*
X54247929Y-35086386D01*
X54184472Y-35043986D01*
X54060000Y-34919513D01*
X54060000Y-34520865D01*
X54094126Y-34535000D01*
X54260199Y-34535000D01*
X66834674Y-47109477D01*
X66877072Y-47172930D01*
X66940525Y-47215328D01*
X66940527Y-47215330D01*
X67014864Y-47265000D01*
X67128464Y-47340905D01*
X67350149Y-47385001D01*
X67350153Y-47385001D01*
X67425000Y-47399889D01*
X67499847Y-47385001D01*
X68106823Y-47385001D01*
X68204706Y-47531493D01*
X58315530Y-57420669D01*
X58252071Y-57463071D01*
X58084096Y-57714464D01*
X58040000Y-57936149D01*
X58040000Y-57936153D01*
X58025112Y-58011000D01*
X58040000Y-58085847D01*
X58040001Y-59396288D01*
X57922569Y-59513720D01*
X57765000Y-59894126D01*
X57765000Y-60305874D01*
X57922569Y-60686280D01*
X58213720Y-60977431D01*
X58590170Y-61133361D01*
X58565000Y-61194126D01*
X58565000Y-61365001D01*
X57839764Y-61365001D01*
X54134960Y-57660199D01*
X54134960Y-57494126D01*
X53977391Y-57113720D01*
X53686240Y-56822569D01*
X53305834Y-56665000D01*
X52894086Y-56665000D01*
X52513680Y-56822569D01*
X52222529Y-57113720D01*
X52064960Y-57494126D01*
X52064960Y-57905874D01*
X52201288Y-58235001D01*
X52122569Y-58313720D01*
X51965000Y-58694126D01*
X51965000Y-58860199D01*
X51890486Y-58934713D01*
X51827031Y-58977112D01*
X51784631Y-59040568D01*
X51784630Y-59040569D01*
X51659056Y-59228504D01*
X51600071Y-59525041D01*
X51614960Y-59599893D01*
X51614959Y-62940158D01*
X50835000Y-62160199D01*
X50835000Y-61994126D01*
X50677431Y-61613720D01*
X50386280Y-61322569D01*
X50005874Y-61165000D01*
X49594126Y-61165000D01*
X49213720Y-61322569D01*
X48922569Y-61613720D01*
X48765000Y-61994126D01*
X48765000Y-62405874D01*
X48922569Y-62786280D01*
X49213720Y-63077431D01*
X49594126Y-63235000D01*
X49760199Y-63235000D01*
X53954671Y-67429473D01*
X53997072Y-67492930D01*
X54060528Y-67535330D01*
X54084945Y-67551645D01*
X53913720Y-67622569D01*
X53796289Y-67740000D01*
X52874848Y-67740000D01*
X52800000Y-67725112D01*
X52725152Y-67740000D01*
X52725148Y-67740000D01*
X52551605Y-67774520D01*
X52503462Y-67784096D01*
X52316418Y-67909076D01*
X52252071Y-67952071D01*
X52209671Y-68015527D01*
X49015528Y-71209671D01*
X48952072Y-71252071D01*
X48909672Y-71315527D01*
X48909671Y-71315528D01*
X48784097Y-71503463D01*
X48725112Y-71800000D01*
X48740001Y-71874852D01*
X48740000Y-74312196D01*
X47615528Y-75436669D01*
X47552072Y-75479069D01*
X47509672Y-75542525D01*
X47509671Y-75542526D01*
X47384097Y-75730461D01*
X47325112Y-76026998D01*
X47340001Y-76101850D01*
X47340000Y-77596289D01*
X47222569Y-77713720D01*
X47065000Y-78094126D01*
X47065000Y-78505874D01*
X47222569Y-78886280D01*
X47513720Y-79177431D01*
X47894126Y-79335000D01*
X48305874Y-79335000D01*
X48686280Y-79177431D01*
X48977431Y-78886280D01*
X49135000Y-78505874D01*
X49135000Y-78094126D01*
X48977431Y-77713720D01*
X48860000Y-77596289D01*
X48860000Y-76341799D01*
X49984473Y-75217327D01*
X50047929Y-75174927D01*
X50215904Y-74923535D01*
X50260000Y-74701850D01*
X50260000Y-74701845D01*
X50274888Y-74626998D01*
X50260000Y-74552151D01*
X50260000Y-72114801D01*
X53114802Y-69260000D01*
X53796289Y-69260000D01*
X53913720Y-69377431D01*
X54294126Y-69535000D01*
X54705874Y-69535000D01*
X55086280Y-69377431D01*
X55377431Y-69086280D01*
X55535000Y-68705874D01*
X55535000Y-68294126D01*
X55377431Y-67913720D01*
X55168712Y-67705001D01*
X68106823Y-67705001D01*
X68314376Y-68015626D01*
X68712535Y-68281667D01*
X66554203Y-70440000D01*
X54703711Y-70440000D01*
X54586280Y-70322569D01*
X54205874Y-70165000D01*
X53794126Y-70165000D01*
X53413720Y-70322569D01*
X53122569Y-70613720D01*
X52965000Y-70994126D01*
X52965000Y-71405874D01*
X53122569Y-71786280D01*
X53413720Y-72077431D01*
X53794126Y-72235000D01*
X54205874Y-72235000D01*
X54586280Y-72077431D01*
X54703711Y-71960000D01*
X65765199Y-71960000D01*
X65200352Y-72524847D01*
X53788558Y-72524847D01*
X53671127Y-72407416D01*
X53290721Y-72249847D01*
X52878973Y-72249847D01*
X52498567Y-72407416D01*
X52207416Y-72698567D01*
X52049847Y-73078973D01*
X52049847Y-73490721D01*
X52207416Y-73871127D01*
X52498567Y-74162278D01*
X52878973Y-74319847D01*
X53290721Y-74319847D01*
X53671127Y-74162278D01*
X53788558Y-74044847D01*
X65440306Y-74044847D01*
X65515153Y-74059735D01*
X65590000Y-74044847D01*
X65590005Y-74044847D01*
X65811690Y-74000751D01*
X66063082Y-73832776D01*
X66105484Y-73769317D01*
X71892266Y-67982536D01*
X71914376Y-68015626D01*
X72240001Y-68233202D01*
X72240000Y-72796289D01*
X72122569Y-72913720D01*
X71965000Y-73294126D01*
X71965000Y-73565001D01*
X71883305Y-73565001D01*
X71762222Y-73484096D01*
X71619397Y-73455686D01*
X71486280Y-73322569D01*
X71105874Y-73165000D01*
X70694126Y-73165000D01*
X70313720Y-73322569D01*
X70022569Y-73613720D01*
X69916639Y-73869459D01*
X69905874Y-73865000D01*
X69494126Y-73865000D01*
X69113720Y-74022569D01*
X68822569Y-74313720D01*
X68665000Y-74694126D01*
X68665000Y-75105874D01*
X68822569Y-75486280D01*
X69045637Y-75709348D01*
X69013720Y-75722569D01*
X68722569Y-76013720D01*
X68565000Y-76394126D01*
X68565000Y-76572333D01*
X68305874Y-76465000D01*
X67894126Y-76465000D01*
X67513720Y-76622569D01*
X67222569Y-76913720D01*
X67065000Y-77294126D01*
X67065000Y-77705874D01*
X67222569Y-78086280D01*
X67513720Y-78377431D01*
X67894126Y-78535000D01*
X68305874Y-78535000D01*
X68686280Y-78377431D01*
X68803711Y-78260000D01*
X73307385Y-78260000D01*
X73382232Y-78274888D01*
X73457079Y-78260000D01*
X73457084Y-78260000D01*
X73678769Y-78215904D01*
X73930161Y-78047929D01*
X73972563Y-77984470D01*
X79144495Y-72812539D01*
X79207951Y-72770139D01*
X79375926Y-72518747D01*
X79420022Y-72297062D01*
X79420022Y-72297058D01*
X79434910Y-72222211D01*
X79420022Y-72147364D01*
X79420022Y-58934870D01*
X79434910Y-58860022D01*
X79420022Y-58785174D01*
X79420022Y-58785170D01*
X79375926Y-58563485D01*
X79375926Y-58563484D01*
X79250351Y-58375549D01*
X79207951Y-58312093D01*
X79144495Y-58269693D01*
X78026210Y-57151409D01*
X78099093Y-56785001D01*
X77983840Y-56205583D01*
X77655626Y-55714376D01*
X77357240Y-55515001D01*
X77655626Y-55315626D01*
X77983840Y-54824419D01*
X78099093Y-54245001D01*
X77983840Y-53665583D01*
X77655626Y-53174376D01*
X77357240Y-52975001D01*
X77655626Y-52775626D01*
X77983840Y-52284419D01*
X78099093Y-51705001D01*
X77983840Y-51125583D01*
X77655626Y-50634376D01*
X77357240Y-50435001D01*
X77655626Y-50235626D01*
X77983840Y-49744419D01*
X78099093Y-49165001D01*
X77983840Y-48585583D01*
X77655626Y-48094376D01*
X77357240Y-47895001D01*
X77655626Y-47695626D01*
X77983840Y-47204419D01*
X78099093Y-46625001D01*
X77983840Y-46045583D01*
X77655626Y-45554376D01*
X77357240Y-45355001D01*
X77655626Y-45155626D01*
X77983840Y-44664419D01*
X78099093Y-44085001D01*
X77983840Y-43505583D01*
X77655626Y-43014376D01*
X77357240Y-42815001D01*
X77655626Y-42615626D01*
X77983840Y-42124419D01*
X78099093Y-41545001D01*
X77983840Y-40965583D01*
X77655626Y-40474376D01*
X77357240Y-40275001D01*
X77655626Y-40075626D01*
X77983840Y-39584419D01*
X78099093Y-39005001D01*
X77983840Y-38425583D01*
X77655626Y-37934376D01*
X77357240Y-37735001D01*
X77655626Y-37535626D01*
X77983840Y-37044419D01*
X78099093Y-36465001D01*
X77983840Y-35885583D01*
X77655626Y-35394376D01*
X77357240Y-35195001D01*
X77655626Y-34995626D01*
X77983840Y-34504419D01*
X78099093Y-33925001D01*
X78025582Y-33555431D01*
X103765000Y-33555431D01*
X103765000Y-34444569D01*
X104105259Y-35266026D01*
X104733974Y-35894741D01*
X105555431Y-36235000D01*
X106444569Y-36235000D01*
X107266026Y-35894741D01*
X107894741Y-35266026D01*
X108235000Y-34444569D01*
X108235000Y-33555431D01*
X107894741Y-32733974D01*
X107266026Y-32105259D01*
X106444569Y-31765000D01*
X105555431Y-31765000D01*
X104733974Y-32105259D01*
X104105259Y-32733974D01*
X103765000Y-33555431D01*
X78025582Y-33555431D01*
X77983840Y-33345583D01*
X77841399Y-33132404D01*
X81848805Y-29124999D01*
X110945000Y-29124999D01*
X110945000Y-29204250D01*
X111103750Y-29363000D01*
X112253000Y-29363000D01*
X112253000Y-29343000D01*
X112507000Y-29343000D01*
X112507000Y-29363000D01*
X113656250Y-29363000D01*
X113815000Y-29204250D01*
X113815000Y-29124999D01*
X113850198Y-29124999D01*
X116240001Y-31514803D01*
X116240000Y-60843783D01*
X116225112Y-60918630D01*
X116240000Y-60993477D01*
X116240000Y-60993481D01*
X116284096Y-61215166D01*
X116452071Y-61466559D01*
X116465243Y-61475361D01*
X116243466Y-61697138D01*
X116190000Y-61826216D01*
X116136534Y-61697138D01*
X115732862Y-61293466D01*
X115205439Y-61075000D01*
X114634561Y-61075000D01*
X114107138Y-61293466D01*
X113703466Y-61697138D01*
X113650000Y-61826216D01*
X113596534Y-61697138D01*
X113192862Y-61293466D01*
X113063784Y-61240000D01*
X113192862Y-61186534D01*
X113596534Y-60782862D01*
X113815000Y-60255439D01*
X113815000Y-59684561D01*
X113596534Y-59157138D01*
X113192862Y-58753466D01*
X113063784Y-58700000D01*
X113192862Y-58646534D01*
X113596534Y-58242862D01*
X113815000Y-57715439D01*
X113815000Y-57144561D01*
X113596534Y-56617138D01*
X113192862Y-56213466D01*
X113063784Y-56160000D01*
X113192862Y-56106534D01*
X113596534Y-55702862D01*
X113815000Y-55175439D01*
X113815000Y-54604561D01*
X113596534Y-54077138D01*
X113192862Y-53673466D01*
X113063784Y-53620000D01*
X113192862Y-53566534D01*
X113596534Y-53162862D01*
X113815000Y-52635439D01*
X113815000Y-52064561D01*
X113596534Y-51537138D01*
X113192862Y-51133466D01*
X113063784Y-51080000D01*
X113192862Y-51026534D01*
X113596534Y-50622862D01*
X113815000Y-50095439D01*
X113815000Y-49524561D01*
X113596534Y-48997138D01*
X113192862Y-48593466D01*
X113063784Y-48540000D01*
X113192862Y-48486534D01*
X113596534Y-48082862D01*
X113815000Y-47555439D01*
X113815000Y-46984561D01*
X113596534Y-46457138D01*
X113192862Y-46053466D01*
X113063784Y-46000000D01*
X113192862Y-45946534D01*
X113596534Y-45542862D01*
X113815000Y-45015439D01*
X113815000Y-44444561D01*
X113596534Y-43917138D01*
X113192862Y-43513466D01*
X113063784Y-43460000D01*
X113192862Y-43406534D01*
X113596534Y-43002862D01*
X113815000Y-42475439D01*
X113815000Y-41904561D01*
X113596534Y-41377138D01*
X113192862Y-40973466D01*
X113063784Y-40920000D01*
X113192862Y-40866534D01*
X113596534Y-40462862D01*
X113815000Y-39935439D01*
X113815000Y-39364561D01*
X113596534Y-38837138D01*
X113192862Y-38433466D01*
X113063784Y-38380000D01*
X113192862Y-38326534D01*
X113596534Y-37922862D01*
X113815000Y-37395439D01*
X113815000Y-36824561D01*
X113596534Y-36297138D01*
X113192862Y-35893466D01*
X113063784Y-35840000D01*
X113192862Y-35786534D01*
X113519396Y-35460000D01*
X113896289Y-35460000D01*
X114013720Y-35577431D01*
X114394126Y-35735000D01*
X114805874Y-35735000D01*
X115186280Y-35577431D01*
X115477431Y-35286280D01*
X115635000Y-34905874D01*
X115635000Y-34494126D01*
X115477431Y-34113720D01*
X115186280Y-33822569D01*
X114805874Y-33665000D01*
X114394126Y-33665000D01*
X114013720Y-33822569D01*
X113896289Y-33940000D01*
X113672278Y-33940000D01*
X113596534Y-33757138D01*
X113192862Y-33353466D01*
X113063784Y-33300000D01*
X113192862Y-33246534D01*
X113596534Y-32842862D01*
X113815000Y-32315439D01*
X113815000Y-31744561D01*
X113596534Y-31217138D01*
X113304396Y-30925000D01*
X113306310Y-30925000D01*
X113539699Y-30828327D01*
X113718327Y-30649698D01*
X113815000Y-30416309D01*
X113815000Y-29775750D01*
X113656250Y-29617000D01*
X112507000Y-29617000D01*
X112507000Y-29637000D01*
X112253000Y-29637000D01*
X112253000Y-29617000D01*
X111103750Y-29617000D01*
X110945000Y-29775750D01*
X110945000Y-30416309D01*
X111041673Y-30649698D01*
X111220301Y-30828327D01*
X111453690Y-30925000D01*
X111455604Y-30925000D01*
X111163466Y-31217138D01*
X110945000Y-31744561D01*
X110945000Y-32315439D01*
X111163466Y-32842862D01*
X111567138Y-33246534D01*
X111696216Y-33300000D01*
X111567138Y-33353466D01*
X111163466Y-33757138D01*
X110945000Y-34284561D01*
X110945000Y-34855439D01*
X111163466Y-35382862D01*
X111567138Y-35786534D01*
X111696216Y-35840000D01*
X111567138Y-35893466D01*
X111163466Y-36297138D01*
X110945000Y-36824561D01*
X110945000Y-37395439D01*
X111163466Y-37922862D01*
X111567138Y-38326534D01*
X111696216Y-38380000D01*
X111567138Y-38433466D01*
X111163466Y-38837138D01*
X110945000Y-39364561D01*
X110945000Y-39935439D01*
X111163466Y-40462862D01*
X111567138Y-40866534D01*
X111696216Y-40920000D01*
X111567138Y-40973466D01*
X111163466Y-41377138D01*
X110945000Y-41904561D01*
X110945000Y-42475439D01*
X111163466Y-43002862D01*
X111567138Y-43406534D01*
X111696216Y-43460000D01*
X111567138Y-43513466D01*
X111163466Y-43917138D01*
X110945000Y-44444561D01*
X110945000Y-45015439D01*
X111163466Y-45542862D01*
X111567138Y-45946534D01*
X111696216Y-46000000D01*
X111567138Y-46053466D01*
X111163466Y-46457138D01*
X111141570Y-46510000D01*
X100904848Y-46510000D01*
X100830000Y-46495112D01*
X100755152Y-46510000D01*
X100755148Y-46510000D01*
X100533463Y-46554096D01*
X100282071Y-46722071D01*
X100239671Y-46785527D01*
X90065518Y-56959681D01*
X90002062Y-57002081D01*
X89959662Y-57065537D01*
X89959661Y-57065538D01*
X89834087Y-57253473D01*
X89775102Y-57550010D01*
X89789991Y-57624862D01*
X89789990Y-67335208D01*
X73715528Y-83409671D01*
X73652072Y-83452071D01*
X73609672Y-83515527D01*
X73609671Y-83515528D01*
X73484097Y-83703463D01*
X73425112Y-84000000D01*
X73440001Y-84074851D01*
X73440000Y-85206196D01*
X67915528Y-90730669D01*
X67852072Y-90773069D01*
X67809672Y-90836525D01*
X67809671Y-90836526D01*
X67684097Y-91024461D01*
X67625112Y-91320998D01*
X67640001Y-91395850D01*
X67640000Y-104596289D01*
X67522569Y-104713720D01*
X67365000Y-105094126D01*
X67365000Y-105265001D01*
X56339804Y-105265001D01*
X52609801Y-101535000D01*
X52805330Y-101535000D01*
X53369507Y-101301310D01*
X53590658Y-101080159D01*
X54099446Y-101080159D01*
X54185852Y-101336643D01*
X54759336Y-101546458D01*
X55369460Y-101520839D01*
X55814148Y-101336643D01*
X55900554Y-101080159D01*
X55000000Y-100179605D01*
X54099446Y-101080159D01*
X53590658Y-101080159D01*
X53801310Y-100869507D01*
X53804539Y-100861710D01*
X53919841Y-100900554D01*
X54820395Y-100000000D01*
X55179605Y-100000000D01*
X56080159Y-100900554D01*
X56336643Y-100814148D01*
X56546458Y-100240664D01*
X56520839Y-99630540D01*
X56336643Y-99185852D01*
X56080159Y-99099446D01*
X55179605Y-100000000D01*
X54820395Y-100000000D01*
X53919841Y-99099446D01*
X53804539Y-99138290D01*
X53801310Y-99130493D01*
X53590658Y-98919841D01*
X54099446Y-98919841D01*
X55000000Y-99820395D01*
X55900554Y-98919841D01*
X55814148Y-98663357D01*
X55240664Y-98453542D01*
X54630540Y-98479161D01*
X54185852Y-98663357D01*
X54099446Y-98919841D01*
X53590658Y-98919841D01*
X53369507Y-98698690D01*
X52805330Y-98465000D01*
X52194670Y-98465000D01*
X51630493Y-98698690D01*
X51250000Y-99079183D01*
X50869507Y-98698690D01*
X50305330Y-98465000D01*
X49694670Y-98465000D01*
X49130493Y-98698690D01*
X48698690Y-99130493D01*
X48465000Y-99694670D01*
X48465000Y-100305330D01*
X48698690Y-100869507D01*
X49130493Y-101301310D01*
X49694670Y-101535000D01*
X50305330Y-101535000D01*
X50414838Y-101489640D01*
X50415526Y-101490328D01*
X50415529Y-101490330D01*
X55434674Y-106509477D01*
X55477072Y-106572930D01*
X55540525Y-106615328D01*
X55540527Y-106615330D01*
X55614864Y-106665000D01*
X55728464Y-106740905D01*
X55950149Y-106785001D01*
X55950153Y-106785001D01*
X56025000Y-106799889D01*
X56099847Y-106785001D01*
X68804417Y-106785001D01*
X68713720Y-106822569D01*
X68422569Y-107113720D01*
X68265000Y-107494126D01*
X68265000Y-107905874D01*
X68422569Y-108286280D01*
X68713720Y-108577431D01*
X69094126Y-108735000D01*
X69505874Y-108735000D01*
X69886280Y-108577431D01*
X70003711Y-108460000D01*
X136940153Y-108460000D01*
X137015000Y-108474888D01*
X137089847Y-108460000D01*
X137089852Y-108460000D01*
X137311537Y-108415904D01*
X137562929Y-108247929D01*
X137605331Y-108184470D01*
X138074473Y-107715329D01*
X138137929Y-107672929D01*
X138246795Y-107510000D01*
X138613718Y-107510000D01*
X139054173Y-107422388D01*
X139553649Y-107088649D01*
X139887388Y-106589173D01*
X140004582Y-106000000D01*
X139887388Y-105410827D01*
X139553649Y-104911351D01*
X139312170Y-104750000D01*
X139553649Y-104588649D01*
X139887388Y-104089173D01*
X140004582Y-103500000D01*
X139887388Y-102910827D01*
X139553649Y-102411351D01*
X139054173Y-102077612D01*
X138613718Y-101990000D01*
X136566282Y-101990000D01*
X136125827Y-102077612D01*
X135626351Y-102411351D01*
X135292612Y-102910827D01*
X135175418Y-103500000D01*
X135292612Y-104089173D01*
X135626351Y-104588649D01*
X135867830Y-104750000D01*
X135626351Y-104911351D01*
X135292612Y-105410827D01*
X135175418Y-106000000D01*
X135292612Y-106589173D01*
X135527027Y-106940000D01*
X70003711Y-106940000D01*
X69886280Y-106822569D01*
X69795583Y-106785001D01*
X87200152Y-106785001D01*
X87274999Y-106799889D01*
X87349846Y-106785001D01*
X87349851Y-106785001D01*
X87571536Y-106740905D01*
X87822928Y-106572930D01*
X87865330Y-106509471D01*
X93819370Y-100555431D01*
X127765000Y-100555431D01*
X127765000Y-101444569D01*
X128105259Y-102266026D01*
X128733974Y-102894741D01*
X129555431Y-103235000D01*
X130444569Y-103235000D01*
X131266026Y-102894741D01*
X131894741Y-102266026D01*
X132235000Y-101444569D01*
X132235000Y-101285750D01*
X140711000Y-101285750D01*
X140711000Y-102876309D01*
X140807673Y-103109698D01*
X140986301Y-103288327D01*
X141219690Y-103385000D01*
X142310250Y-103385000D01*
X142469000Y-103226250D01*
X142469000Y-101127000D01*
X140869750Y-101127000D01*
X140711000Y-101285750D01*
X132235000Y-101285750D01*
X132235000Y-100555431D01*
X131894741Y-99733974D01*
X131266026Y-99105259D01*
X130444569Y-98765000D01*
X129555431Y-98765000D01*
X128733974Y-99105259D01*
X128105259Y-99733974D01*
X127765000Y-100555431D01*
X93819370Y-100555431D01*
X94639802Y-99735000D01*
X94805874Y-99735000D01*
X95186280Y-99577431D01*
X95477431Y-99286280D01*
X95635000Y-98905874D01*
X95635000Y-98494126D01*
X95477431Y-98113720D01*
X95186280Y-97822569D01*
X94805874Y-97665000D01*
X94394126Y-97665000D01*
X94013720Y-97822569D01*
X93722569Y-98113720D01*
X93565000Y-98494126D01*
X93565000Y-98660198D01*
X86960198Y-105265001D01*
X70798710Y-105265001D01*
X70877431Y-105186280D01*
X71035000Y-104805874D01*
X71035000Y-104639801D01*
X76824729Y-98850073D01*
X76922569Y-99086280D01*
X77213720Y-99377431D01*
X77594126Y-99535000D01*
X78005874Y-99535000D01*
X78386280Y-99377431D01*
X78666364Y-99097347D01*
X89158942Y-99097347D01*
X89276373Y-99214778D01*
X89656779Y-99372347D01*
X90068527Y-99372347D01*
X90448933Y-99214778D01*
X90740084Y-98923627D01*
X90897653Y-98543221D01*
X90897653Y-98131473D01*
X90740084Y-97751067D01*
X90448933Y-97459916D01*
X90068527Y-97302347D01*
X89656779Y-97302347D01*
X89276373Y-97459916D01*
X89158942Y-97577347D01*
X78277104Y-97577347D01*
X78005874Y-97465000D01*
X77598170Y-97465000D01*
X77590903Y-97428464D01*
X77422928Y-97177072D01*
X77171536Y-97009097D01*
X76949851Y-96965001D01*
X76949847Y-96965001D01*
X76874999Y-96950113D01*
X76800151Y-96965001D01*
X75035000Y-96965001D01*
X75035000Y-96794126D01*
X74877431Y-96413720D01*
X74760000Y-96296289D01*
X74760000Y-93314801D01*
X75765000Y-92309802D01*
X75765000Y-92405874D01*
X75922569Y-92786280D01*
X76213720Y-93077431D01*
X76594126Y-93235000D01*
X77005874Y-93235000D01*
X77386280Y-93077431D01*
X77503711Y-92960000D01*
X81825153Y-92960000D01*
X81900000Y-92974888D01*
X81974847Y-92960000D01*
X81974852Y-92960000D01*
X82196537Y-92915904D01*
X82317618Y-92835000D01*
X82505874Y-92835000D01*
X82886280Y-92677431D01*
X83177431Y-92386280D01*
X83335000Y-92005874D01*
X83335000Y-91594126D01*
X83177431Y-91213720D01*
X82886280Y-90922569D01*
X82505874Y-90765000D01*
X82309801Y-90765000D01*
X84519370Y-88555431D01*
X86765000Y-88555431D01*
X86765000Y-89444569D01*
X87105259Y-90266026D01*
X87733974Y-90894741D01*
X88555431Y-91235000D01*
X89444569Y-91235000D01*
X90266026Y-90894741D01*
X90894741Y-90266026D01*
X91235000Y-89444569D01*
X91235000Y-88555431D01*
X90894741Y-87733974D01*
X90266026Y-87105259D01*
X89444569Y-86765000D01*
X88555431Y-86765000D01*
X87733974Y-87105259D01*
X87105259Y-87733974D01*
X86765000Y-88555431D01*
X84519370Y-88555431D01*
X106024473Y-67050329D01*
X106087929Y-67007929D01*
X106183116Y-66865472D01*
X106255904Y-66756538D01*
X106271618Y-66677536D01*
X106300000Y-66534852D01*
X106300000Y-66534848D01*
X106314888Y-66460000D01*
X106300000Y-66385152D01*
X106300000Y-52278178D01*
X106610625Y-52070625D01*
X106876666Y-51672466D01*
X107240000Y-52035800D01*
X107240001Y-62925148D01*
X107225112Y-63000000D01*
X107240001Y-63074852D01*
X107277412Y-63262929D01*
X107284097Y-63296537D01*
X107373878Y-63430903D01*
X107452072Y-63547929D01*
X107515528Y-63590329D01*
X110409671Y-66484473D01*
X110452071Y-66547929D01*
X110515527Y-66590329D01*
X110703462Y-66715904D01*
X110751605Y-66725480D01*
X110925148Y-66760000D01*
X110925152Y-66760000D01*
X111000000Y-66774888D01*
X111074848Y-66760000D01*
X113895153Y-66760000D01*
X113970000Y-66774888D01*
X114044847Y-66760000D01*
X114044852Y-66760000D01*
X114266537Y-66715904D01*
X114517929Y-66547929D01*
X114560331Y-66484470D01*
X117121699Y-63923104D01*
X117174561Y-63945000D01*
X117745439Y-63945000D01*
X118272862Y-63726534D01*
X118481651Y-63517745D01*
X119171861Y-63517745D01*
X119245995Y-63763864D01*
X119783223Y-63956965D01*
X120353454Y-63929778D01*
X120754005Y-63763864D01*
X120828139Y-63517745D01*
X120000000Y-62689605D01*
X119171861Y-63517745D01*
X118481651Y-63517745D01*
X118676534Y-63322862D01*
X118723525Y-63209417D01*
X118746136Y-63264005D01*
X118992255Y-63338139D01*
X119820395Y-62510000D01*
X118992255Y-61681861D01*
X118746136Y-61755995D01*
X118725126Y-61814448D01*
X118676534Y-61697138D01*
X118272862Y-61293466D01*
X118213018Y-61268678D01*
X118175904Y-61082093D01*
X118007929Y-60830701D01*
X117944470Y-60788299D01*
X117760000Y-60603829D01*
X117760000Y-47053223D01*
X118553035Y-47053223D01*
X118580222Y-47623454D01*
X118746136Y-48024005D01*
X118992255Y-48098139D01*
X119820395Y-47270000D01*
X118992255Y-46441861D01*
X118746136Y-46515995D01*
X118553035Y-47053223D01*
X117760000Y-47053223D01*
X117760000Y-39334724D01*
X118415000Y-39334724D01*
X118415000Y-39965276D01*
X118656302Y-40547830D01*
X119102170Y-40993698D01*
X119684724Y-41235000D01*
X120315276Y-41235000D01*
X120897830Y-40993698D01*
X121343698Y-40547830D01*
X121585000Y-39965276D01*
X121585000Y-39334724D01*
X121343698Y-38752170D01*
X120897830Y-38306302D01*
X120315276Y-38065000D01*
X119684724Y-38065000D01*
X119102170Y-38306302D01*
X118656302Y-38752170D01*
X118415000Y-39334724D01*
X117760000Y-39334724D01*
X117760000Y-35579443D01*
X117894126Y-35635000D01*
X118305874Y-35635000D01*
X118415000Y-35589799D01*
X118415000Y-36155276D01*
X118656302Y-36737830D01*
X119102170Y-37183698D01*
X119684724Y-37425000D01*
X120315276Y-37425000D01*
X120897830Y-37183698D01*
X121343698Y-36737830D01*
X121585000Y-36155276D01*
X121585000Y-35524724D01*
X121343698Y-34942170D01*
X120897830Y-34496302D01*
X120315276Y-34255000D01*
X119699011Y-34255000D01*
X119886280Y-34177431D01*
X119990677Y-34073034D01*
X120000000Y-34074888D01*
X120074847Y-34060000D01*
X120074852Y-34060000D01*
X120296537Y-34015904D01*
X120547929Y-33847929D01*
X120590331Y-33784470D01*
X127314802Y-27060000D01*
X141085199Y-27060000D01*
X142740000Y-28714803D01*
X142740000Y-30061978D01*
X142505874Y-29965000D01*
X142094126Y-29965000D01*
X141713720Y-30122569D01*
X141422569Y-30413720D01*
X141265000Y-30794126D01*
X141265000Y-31205874D01*
X141422569Y-31586280D01*
X141555686Y-31719397D01*
X141584096Y-31862222D01*
X141740000Y-32095547D01*
X141740001Y-38485197D01*
X141085199Y-39140000D01*
X136303711Y-39140000D01*
X136186280Y-39022569D01*
X135805874Y-38865000D01*
X135394126Y-38865000D01*
X135035011Y-39013750D01*
X135035011Y-38039790D01*
X137939802Y-35135000D01*
X138105874Y-35135000D01*
X138486280Y-34977431D01*
X138777431Y-34686280D01*
X138935000Y-34305874D01*
X138935000Y-33894126D01*
X138777431Y-33513720D01*
X138486280Y-33222569D01*
X138105874Y-33065000D01*
X137694126Y-33065000D01*
X137313720Y-33222569D01*
X137022569Y-33513720D01*
X136865000Y-33894126D01*
X136865000Y-34060198D01*
X134585001Y-36340198D01*
X134585001Y-33399849D01*
X134599889Y-33325001D01*
X134585001Y-33250153D01*
X134585001Y-33250149D01*
X134550481Y-33076606D01*
X134540905Y-33028463D01*
X134415330Y-32840528D01*
X134372930Y-32777072D01*
X134309474Y-32734672D01*
X133735000Y-32160199D01*
X133735000Y-31994126D01*
X133577431Y-31613720D01*
X133286280Y-31322569D01*
X132905874Y-31165000D01*
X132494126Y-31165000D01*
X132113720Y-31322569D01*
X131822569Y-31613720D01*
X131665000Y-31994126D01*
X131665000Y-32065000D01*
X131594126Y-32065000D01*
X131213720Y-32222569D01*
X130922569Y-32513720D01*
X130765000Y-32894126D01*
X130765000Y-33305874D01*
X130922569Y-33686280D01*
X131040000Y-33803711D01*
X131040000Y-34120557D01*
X130905874Y-34065000D01*
X130494126Y-34065000D01*
X130113720Y-34222569D01*
X129822569Y-34513720D01*
X129665000Y-34894126D01*
X129665000Y-34965000D01*
X129394126Y-34965000D01*
X129013720Y-35122569D01*
X128895300Y-35240989D01*
X129055000Y-34855439D01*
X129055000Y-34284561D01*
X128836534Y-33757138D01*
X128432862Y-33353466D01*
X128303784Y-33300000D01*
X128432862Y-33246534D01*
X128836534Y-32842862D01*
X129055000Y-32315439D01*
X129055000Y-31744561D01*
X128836534Y-31217138D01*
X128432862Y-30813466D01*
X128303784Y-30760000D01*
X128432862Y-30706534D01*
X128836534Y-30302862D01*
X129055000Y-29775439D01*
X129055000Y-29204561D01*
X128836534Y-28677138D01*
X128432862Y-28273466D01*
X127905439Y-28055000D01*
X127334561Y-28055000D01*
X126807138Y-28273466D01*
X126403466Y-28677138D01*
X126185000Y-29204561D01*
X126185000Y-29775439D01*
X126206897Y-29828302D01*
X126010529Y-30024670D01*
X125947070Y-30067072D01*
X125779095Y-30318465D01*
X125734999Y-30540150D01*
X125734999Y-30540154D01*
X125720111Y-30615001D01*
X125734999Y-30689848D01*
X125734999Y-30748077D01*
X125365439Y-30595000D01*
X124794561Y-30595000D01*
X124267138Y-30813466D01*
X123863466Y-31217138D01*
X123645000Y-31744561D01*
X123645000Y-32315439D01*
X123863466Y-32842862D01*
X124267138Y-33246534D01*
X124794561Y-33465000D01*
X125365439Y-33465000D01*
X125734999Y-33311923D01*
X125734999Y-35828077D01*
X125365439Y-35675000D01*
X124794561Y-35675000D01*
X124267138Y-35893466D01*
X123863466Y-36297138D01*
X123645000Y-36824561D01*
X123645000Y-37395439D01*
X123863466Y-37922862D01*
X124267138Y-38326534D01*
X124396216Y-38380000D01*
X124267138Y-38433466D01*
X123863466Y-38837138D01*
X123645000Y-39364561D01*
X123645000Y-39935439D01*
X123863466Y-40462862D01*
X124267138Y-40866534D01*
X124396216Y-40920000D01*
X124267138Y-40973466D01*
X123863466Y-41377138D01*
X123645000Y-41904561D01*
X123645000Y-42076846D01*
X123577431Y-41913720D01*
X123286280Y-41622569D01*
X122905874Y-41465000D01*
X122494126Y-41465000D01*
X122113720Y-41622569D01*
X121822569Y-41913720D01*
X121665000Y-42294126D01*
X121665000Y-42705874D01*
X121822569Y-43086280D01*
X122096684Y-43360395D01*
X121727138Y-43513466D01*
X121323466Y-43917138D01*
X121270000Y-44046216D01*
X121216534Y-43917138D01*
X120812862Y-43513466D01*
X120285439Y-43295000D01*
X119714561Y-43295000D01*
X119187138Y-43513466D01*
X118783466Y-43917138D01*
X118565000Y-44444561D01*
X118565000Y-45015439D01*
X118783466Y-45542862D01*
X119187138Y-45946534D01*
X119300583Y-45993525D01*
X119245995Y-46016136D01*
X119171861Y-46262255D01*
X120000000Y-47090395D01*
X120828139Y-46262255D01*
X120754005Y-46016136D01*
X120695552Y-45995126D01*
X120812862Y-45946534D01*
X121216534Y-45542862D01*
X121270000Y-45413784D01*
X121323466Y-45542862D01*
X121727138Y-45946534D01*
X121856216Y-46000000D01*
X121727138Y-46053466D01*
X121323466Y-46457138D01*
X121276475Y-46570583D01*
X121253864Y-46515995D01*
X121007745Y-46441861D01*
X120179605Y-47270000D01*
X121007745Y-48098139D01*
X121253864Y-48024005D01*
X121274874Y-47965552D01*
X121323466Y-48082862D01*
X121727138Y-48486534D01*
X121856216Y-48540000D01*
X121727138Y-48593466D01*
X121323466Y-48997138D01*
X121270000Y-49126216D01*
X121216534Y-48997138D01*
X120812862Y-48593466D01*
X120699417Y-48546475D01*
X120754005Y-48523864D01*
X120828139Y-48277745D01*
X120000000Y-47449605D01*
X119171861Y-48277745D01*
X119245995Y-48523864D01*
X119304448Y-48544874D01*
X119187138Y-48593466D01*
X118783466Y-48997138D01*
X118565000Y-49524561D01*
X118565000Y-50095439D01*
X118783466Y-50622862D01*
X119187138Y-51026534D01*
X119316216Y-51080000D01*
X119187138Y-51133466D01*
X118783466Y-51537138D01*
X118565000Y-52064561D01*
X118565000Y-52635439D01*
X118783466Y-53162862D01*
X119187138Y-53566534D01*
X119316216Y-53620000D01*
X119187138Y-53673466D01*
X118783466Y-54077138D01*
X118565000Y-54604561D01*
X118565000Y-55175439D01*
X118783466Y-55702862D01*
X119187138Y-56106534D01*
X119316216Y-56160000D01*
X119187138Y-56213466D01*
X118783466Y-56617138D01*
X118565000Y-57144561D01*
X118565000Y-57715439D01*
X118783466Y-58242862D01*
X119187138Y-58646534D01*
X119316216Y-58700000D01*
X119187138Y-58753466D01*
X118783466Y-59157138D01*
X118565000Y-59684561D01*
X118565000Y-60255439D01*
X118783466Y-60782862D01*
X119187138Y-61186534D01*
X119300583Y-61233525D01*
X119245995Y-61256136D01*
X119171861Y-61502255D01*
X120000000Y-62330395D01*
X120828139Y-61502255D01*
X120754005Y-61256136D01*
X120695552Y-61235126D01*
X120812862Y-61186534D01*
X121216534Y-60782862D01*
X121270000Y-60653784D01*
X121323466Y-60782862D01*
X121727138Y-61186534D01*
X121856216Y-61240000D01*
X121727138Y-61293466D01*
X121323466Y-61697138D01*
X121276475Y-61810583D01*
X121253864Y-61755995D01*
X121007745Y-61681861D01*
X120179605Y-62510000D01*
X121007745Y-63338139D01*
X121253864Y-63264005D01*
X121274874Y-63205552D01*
X121323466Y-63322862D01*
X121727138Y-63726534D01*
X122254561Y-63945000D01*
X122825439Y-63945000D01*
X123352862Y-63726534D01*
X123756534Y-63322862D01*
X123810000Y-63193784D01*
X123863466Y-63322862D01*
X124267138Y-63726534D01*
X124642984Y-63882215D01*
X118460199Y-70065000D01*
X118294126Y-70065000D01*
X117913720Y-70222569D01*
X117622569Y-70513720D01*
X117465000Y-70894126D01*
X117465000Y-71305874D01*
X117622569Y-71686280D01*
X117913720Y-71977431D01*
X118294126Y-72135000D01*
X118585200Y-72135000D01*
X97380201Y-93340000D01*
X80003711Y-93340000D01*
X79886280Y-93222569D01*
X79505874Y-93065000D01*
X79094126Y-93065000D01*
X78713720Y-93222569D01*
X78422569Y-93513720D01*
X78265000Y-93894126D01*
X78265000Y-94305874D01*
X78422569Y-94686280D01*
X78713720Y-94977431D01*
X79094126Y-95135000D01*
X79505874Y-95135000D01*
X79886280Y-94977431D01*
X80003711Y-94860000D01*
X97620155Y-94860000D01*
X97695002Y-94874888D01*
X97769849Y-94860000D01*
X97769854Y-94860000D01*
X97991539Y-94815904D01*
X98242931Y-94647929D01*
X98285333Y-94584470D01*
X114240869Y-78628934D01*
X127616220Y-78628934D01*
X127616220Y-79378706D01*
X127903145Y-80071405D01*
X128433315Y-80601575D01*
X129126014Y-80888500D01*
X129875786Y-80888500D01*
X130568485Y-80601575D01*
X131098655Y-80071405D01*
X131385580Y-79378706D01*
X131385580Y-78628934D01*
X131214224Y-78215244D01*
X131627914Y-78386600D01*
X132377686Y-78386600D01*
X133070385Y-78099675D01*
X133600555Y-77569505D01*
X133887480Y-76876806D01*
X133887480Y-76127034D01*
X133600555Y-75434335D01*
X133070385Y-74904165D01*
X132377686Y-74617240D01*
X131627914Y-74617240D01*
X130935215Y-74904165D01*
X130405045Y-75434335D01*
X130118120Y-76127034D01*
X130118120Y-76876806D01*
X130289476Y-77290496D01*
X129875786Y-77119140D01*
X129126014Y-77119140D01*
X128433315Y-77406065D01*
X127903145Y-77936235D01*
X127616220Y-78628934D01*
X114240869Y-78628934D01*
X130284473Y-62585331D01*
X130347929Y-62542931D01*
X130515904Y-62291539D01*
X130560000Y-62069854D01*
X130560000Y-62069850D01*
X130574888Y-61995002D01*
X130560000Y-61920154D01*
X130560000Y-57144848D01*
X130574888Y-57070000D01*
X130560000Y-56995152D01*
X130560000Y-56995148D01*
X130515904Y-56773463D01*
X130347929Y-56522071D01*
X130284473Y-56479671D01*
X129033103Y-55228302D01*
X129055000Y-55175439D01*
X129055000Y-55149885D01*
X129115528Y-55190329D01*
X131765000Y-57839803D01*
X131765000Y-58005874D01*
X131922569Y-58386280D01*
X132213720Y-58677431D01*
X132594126Y-58835000D01*
X133005874Y-58835000D01*
X133386280Y-58677431D01*
X133515012Y-58548699D01*
X133515012Y-60110186D01*
X132760199Y-60865000D01*
X132594126Y-60865000D01*
X132213720Y-61022569D01*
X131922569Y-61313720D01*
X131765000Y-61694126D01*
X131765000Y-62105874D01*
X131922569Y-62486280D01*
X132213720Y-62777431D01*
X132594126Y-62935000D01*
X133005874Y-62935000D01*
X133386280Y-62777431D01*
X133677431Y-62486280D01*
X133835000Y-62105874D01*
X133835000Y-61939801D01*
X134759484Y-61015318D01*
X134822940Y-60972918D01*
X134990915Y-60721526D01*
X135035011Y-60499841D01*
X135035011Y-60499837D01*
X135049899Y-60424989D01*
X135035011Y-60350141D01*
X135035011Y-40786250D01*
X135394126Y-40935000D01*
X135805874Y-40935000D01*
X136186280Y-40777431D01*
X136303711Y-40660000D01*
X136879135Y-40660000D01*
X136865000Y-40694126D01*
X136865000Y-41105874D01*
X137022569Y-41486280D01*
X137140000Y-41603711D01*
X137140001Y-61885197D01*
X135060199Y-63965000D01*
X134894126Y-63965000D01*
X134513720Y-64122569D01*
X134222569Y-64413720D01*
X134065000Y-64794126D01*
X134065000Y-65205874D01*
X134222569Y-65586280D01*
X134513720Y-65877431D01*
X134894126Y-66035000D01*
X135305874Y-66035000D01*
X135686280Y-65877431D01*
X135977431Y-65586280D01*
X136135000Y-65205874D01*
X136135000Y-65039801D01*
X138384473Y-62790329D01*
X138447929Y-62747929D01*
X138615904Y-62496537D01*
X138660000Y-62274852D01*
X138660000Y-62274847D01*
X138674888Y-62200000D01*
X138660000Y-62125153D01*
X138660000Y-41603711D01*
X138777431Y-41486280D01*
X138935000Y-41105874D01*
X138935000Y-40694126D01*
X138920865Y-40660000D01*
X141325153Y-40660000D01*
X141400000Y-40674888D01*
X141474847Y-40660000D01*
X141474852Y-40660000D01*
X141696537Y-40615904D01*
X141947929Y-40447929D01*
X141990331Y-40384470D01*
X142740000Y-39634801D01*
X142740001Y-71340000D01*
X140874846Y-71340000D01*
X140799999Y-71325112D01*
X140725152Y-71340000D01*
X140725148Y-71340000D01*
X140503463Y-71384096D01*
X140252071Y-71552071D01*
X140209671Y-71615527D01*
X125415530Y-86409669D01*
X125352071Y-86452071D01*
X125184096Y-86703464D01*
X125140000Y-86925149D01*
X125140000Y-86925153D01*
X125125112Y-87000000D01*
X125140000Y-87074847D01*
X125140001Y-97585197D01*
X124860199Y-97865000D01*
X124694126Y-97865000D01*
X124313720Y-98022569D01*
X124022569Y-98313720D01*
X123865000Y-98694126D01*
X123865000Y-99105874D01*
X124022569Y-99486280D01*
X124313720Y-99777431D01*
X124694126Y-99935000D01*
X125105874Y-99935000D01*
X125486280Y-99777431D01*
X125777431Y-99486280D01*
X125935000Y-99105874D01*
X125935000Y-98939801D01*
X126384473Y-98490329D01*
X126447929Y-98447929D01*
X126615904Y-98196537D01*
X126660000Y-97974852D01*
X126660000Y-97974848D01*
X126674888Y-97900000D01*
X126660000Y-97825152D01*
X126660000Y-96000000D01*
X135175418Y-96000000D01*
X135292612Y-96589173D01*
X135626351Y-97088649D01*
X135867830Y-97250000D01*
X135626351Y-97411351D01*
X135292612Y-97910827D01*
X135175418Y-98500000D01*
X135292612Y-99089173D01*
X135626351Y-99588649D01*
X136125827Y-99922388D01*
X136566282Y-100010000D01*
X138613718Y-100010000D01*
X139054173Y-99922388D01*
X139553649Y-99588649D01*
X139864323Y-99123691D01*
X140711000Y-99123691D01*
X140711000Y-100714250D01*
X140869750Y-100873000D01*
X142469000Y-100873000D01*
X142469000Y-98773750D01*
X142310250Y-98615000D01*
X141219690Y-98615000D01*
X140986301Y-98711673D01*
X140807673Y-98890302D01*
X140711000Y-99123691D01*
X139864323Y-99123691D01*
X139887388Y-99089173D01*
X140004582Y-98500000D01*
X139887388Y-97910827D01*
X139553649Y-97411351D01*
X139312170Y-97250000D01*
X139553649Y-97088649D01*
X139887388Y-96589173D01*
X140004582Y-96000000D01*
X139887388Y-95410827D01*
X139553649Y-94911351D01*
X139054173Y-94577612D01*
X138613718Y-94490000D01*
X136566282Y-94490000D01*
X136125827Y-94577612D01*
X135626351Y-94911351D01*
X135292612Y-95410827D01*
X135175418Y-96000000D01*
X126660000Y-96000000D01*
X126660000Y-88621294D01*
X127616220Y-88621294D01*
X127616220Y-89371066D01*
X127903145Y-90063765D01*
X128433315Y-90593935D01*
X129126014Y-90880860D01*
X129875786Y-90880860D01*
X130289476Y-90709504D01*
X130118120Y-91123194D01*
X130118120Y-91872966D01*
X130405045Y-92565665D01*
X130935215Y-93095835D01*
X131627914Y-93382760D01*
X132377686Y-93382760D01*
X133070385Y-93095835D01*
X133600555Y-92565665D01*
X133887480Y-91872966D01*
X133887480Y-91123194D01*
X133600555Y-90430495D01*
X133070385Y-89900325D01*
X132377686Y-89613400D01*
X131627914Y-89613400D01*
X131214224Y-89784756D01*
X131385580Y-89371066D01*
X131385580Y-88626374D01*
X140113020Y-88626374D01*
X140113020Y-89376146D01*
X140399945Y-90068845D01*
X140930115Y-90599015D01*
X141622814Y-90885940D01*
X142372586Y-90885940D01*
X143065285Y-90599015D01*
X143595455Y-90068845D01*
X143882380Y-89376146D01*
X143882380Y-88626374D01*
X143595455Y-87933675D01*
X143065285Y-87403505D01*
X142372586Y-87116580D01*
X141622814Y-87116580D01*
X140930115Y-87403505D01*
X140399945Y-87933675D01*
X140113020Y-88626374D01*
X131385580Y-88626374D01*
X131385580Y-88621294D01*
X131098655Y-87928595D01*
X130568485Y-87398425D01*
X129875786Y-87111500D01*
X129126014Y-87111500D01*
X128433315Y-87398425D01*
X127903145Y-87928595D01*
X127616220Y-88621294D01*
X126660000Y-88621294D01*
X126660000Y-87314801D01*
X130115580Y-83859221D01*
X130115580Y-84374886D01*
X130402505Y-85067585D01*
X130932675Y-85597755D01*
X131625374Y-85884680D01*
X132375146Y-85884680D01*
X133067845Y-85597755D01*
X133598015Y-85067585D01*
X133884940Y-84374886D01*
X133884940Y-83625114D01*
X133598015Y-82932415D01*
X133067845Y-82402245D01*
X132375146Y-82115320D01*
X131859481Y-82115320D01*
X135350947Y-78623854D01*
X140113020Y-78623854D01*
X140113020Y-79373626D01*
X140399945Y-80066325D01*
X140930115Y-80596495D01*
X141622814Y-80883420D01*
X142372586Y-80883420D01*
X143065285Y-80596495D01*
X143595455Y-80066325D01*
X143882380Y-79373626D01*
X143882380Y-78623854D01*
X143595455Y-77931155D01*
X143065285Y-77400985D01*
X142372586Y-77114060D01*
X141622814Y-77114060D01*
X140930115Y-77400985D01*
X140399945Y-77931155D01*
X140113020Y-78623854D01*
X135350947Y-78623854D01*
X141114802Y-72860000D01*
X143425148Y-72860000D01*
X143500000Y-72874889D01*
X143796537Y-72815904D01*
X144047929Y-72647929D01*
X144215904Y-72396537D01*
X144260000Y-72174852D01*
X144265000Y-72149713D01*
X144265001Y-98770975D01*
X144205699Y-98711673D01*
X143972310Y-98615000D01*
X142881750Y-98615000D01*
X142723000Y-98773750D01*
X142723000Y-100873000D01*
X142743000Y-100873000D01*
X142743000Y-101127000D01*
X142723000Y-101127000D01*
X142723000Y-103226250D01*
X142881750Y-103385000D01*
X143972310Y-103385000D01*
X144205699Y-103288327D01*
X144265001Y-103229025D01*
X144265001Y-112824030D01*
X144133845Y-112507392D01*
X143392608Y-111766155D01*
X142424134Y-111365000D01*
X141375866Y-111365000D01*
X140407392Y-111766155D01*
X139666155Y-112507392D01*
X139265000Y-113475866D01*
X139265000Y-114524134D01*
X139666155Y-115492608D01*
X140407392Y-116233845D01*
X141375866Y-116635000D01*
X142424134Y-116635000D01*
X143392608Y-116233845D01*
X144133845Y-115492608D01*
X144265001Y-115175970D01*
X144265001Y-124265000D01*
X45735000Y-124265000D01*
X45735000Y-122080159D01*
X49099446Y-122080159D01*
X49185852Y-122336643D01*
X49759336Y-122546458D01*
X50369460Y-122520839D01*
X50814148Y-122336643D01*
X50900554Y-122080159D01*
X50000000Y-121179605D01*
X49099446Y-122080159D01*
X45735000Y-122080159D01*
X45735000Y-120759336D01*
X48453542Y-120759336D01*
X48479161Y-121369460D01*
X48663357Y-121814148D01*
X48919841Y-121900554D01*
X49820395Y-121000000D01*
X50179605Y-121000000D01*
X51080159Y-121900554D01*
X51195461Y-121861710D01*
X51198690Y-121869507D01*
X51630493Y-122301310D01*
X52194670Y-122535000D01*
X52805330Y-122535000D01*
X53369507Y-122301310D01*
X53750000Y-121920817D01*
X54130493Y-122301310D01*
X54694670Y-122535000D01*
X55305330Y-122535000D01*
X55869507Y-122301310D01*
X56090658Y-122080159D01*
X66099446Y-122080159D01*
X66185852Y-122336643D01*
X66759336Y-122546458D01*
X67369460Y-122520839D01*
X67814148Y-122336643D01*
X67900554Y-122080159D01*
X67000000Y-121179605D01*
X66099446Y-122080159D01*
X56090658Y-122080159D01*
X56301310Y-121869507D01*
X56535000Y-121305330D01*
X56535000Y-120759336D01*
X65453542Y-120759336D01*
X65479161Y-121369460D01*
X65663357Y-121814148D01*
X65919841Y-121900554D01*
X66820395Y-121000000D01*
X67179605Y-121000000D01*
X68080159Y-121900554D01*
X68195461Y-121861710D01*
X68198690Y-121869507D01*
X68630493Y-122301310D01*
X69194670Y-122535000D01*
X69805330Y-122535000D01*
X70369507Y-122301310D01*
X70750000Y-121920817D01*
X71130493Y-122301310D01*
X71694670Y-122535000D01*
X72305330Y-122535000D01*
X72869507Y-122301310D01*
X73090658Y-122080159D01*
X83099446Y-122080159D01*
X83185852Y-122336643D01*
X83759336Y-122546458D01*
X84369460Y-122520839D01*
X84814148Y-122336643D01*
X84900554Y-122080159D01*
X84000000Y-121179605D01*
X83099446Y-122080159D01*
X73090658Y-122080159D01*
X73301310Y-121869507D01*
X73535000Y-121305330D01*
X73535000Y-120759336D01*
X82453542Y-120759336D01*
X82479161Y-121369460D01*
X82663357Y-121814148D01*
X82919841Y-121900554D01*
X83820395Y-121000000D01*
X84179605Y-121000000D01*
X85080159Y-121900554D01*
X85195461Y-121861710D01*
X85198690Y-121869507D01*
X85630493Y-122301310D01*
X86194670Y-122535000D01*
X86805330Y-122535000D01*
X87369507Y-122301310D01*
X87750000Y-121920817D01*
X88130493Y-122301310D01*
X88694670Y-122535000D01*
X89305330Y-122535000D01*
X89869507Y-122301310D01*
X90090658Y-122080159D01*
X100099446Y-122080159D01*
X100185852Y-122336643D01*
X100759336Y-122546458D01*
X101369460Y-122520839D01*
X101814148Y-122336643D01*
X101900554Y-122080159D01*
X101000000Y-121179605D01*
X100099446Y-122080159D01*
X90090658Y-122080159D01*
X90301310Y-121869507D01*
X90535000Y-121305330D01*
X90535000Y-120759336D01*
X99453542Y-120759336D01*
X99479161Y-121369460D01*
X99663357Y-121814148D01*
X99919841Y-121900554D01*
X100820395Y-121000000D01*
X101179605Y-121000000D01*
X102080159Y-121900554D01*
X102195461Y-121861710D01*
X102198690Y-121869507D01*
X102630493Y-122301310D01*
X103194670Y-122535000D01*
X103805330Y-122535000D01*
X104369507Y-122301310D01*
X104750000Y-121920817D01*
X105130493Y-122301310D01*
X105694670Y-122535000D01*
X106305330Y-122535000D01*
X106869507Y-122301310D01*
X107090658Y-122080159D01*
X117099446Y-122080159D01*
X117185852Y-122336643D01*
X117759336Y-122546458D01*
X118369460Y-122520839D01*
X118814148Y-122336643D01*
X118900554Y-122080159D01*
X118000000Y-121179605D01*
X117099446Y-122080159D01*
X107090658Y-122080159D01*
X107301310Y-121869507D01*
X107535000Y-121305330D01*
X107535000Y-120759336D01*
X116453542Y-120759336D01*
X116479161Y-121369460D01*
X116663357Y-121814148D01*
X116919841Y-121900554D01*
X117820395Y-121000000D01*
X118179605Y-121000000D01*
X119080159Y-121900554D01*
X119195461Y-121861710D01*
X119198690Y-121869507D01*
X119630493Y-122301310D01*
X120194670Y-122535000D01*
X120805330Y-122535000D01*
X121369507Y-122301310D01*
X121750000Y-121920817D01*
X122130493Y-122301310D01*
X122694670Y-122535000D01*
X123305330Y-122535000D01*
X123869507Y-122301310D01*
X124090658Y-122080159D01*
X134099446Y-122080159D01*
X134185852Y-122336643D01*
X134759336Y-122546458D01*
X135369460Y-122520839D01*
X135814148Y-122336643D01*
X135900554Y-122080159D01*
X135000000Y-121179605D01*
X134099446Y-122080159D01*
X124090658Y-122080159D01*
X124301310Y-121869507D01*
X124535000Y-121305330D01*
X124535000Y-120759336D01*
X133453542Y-120759336D01*
X133479161Y-121369460D01*
X133663357Y-121814148D01*
X133919841Y-121900554D01*
X134820395Y-121000000D01*
X135179605Y-121000000D01*
X136080159Y-121900554D01*
X136195461Y-121861710D01*
X136198690Y-121869507D01*
X136630493Y-122301310D01*
X137194670Y-122535000D01*
X137805330Y-122535000D01*
X138369507Y-122301310D01*
X138750000Y-121920817D01*
X139130493Y-122301310D01*
X139694670Y-122535000D01*
X140305330Y-122535000D01*
X140869507Y-122301310D01*
X141301310Y-121869507D01*
X141535000Y-121305330D01*
X141535000Y-120694670D01*
X141301310Y-120130493D01*
X140869507Y-119698690D01*
X140305330Y-119465000D01*
X139694670Y-119465000D01*
X139130493Y-119698690D01*
X138750000Y-120079183D01*
X138369507Y-119698690D01*
X137805330Y-119465000D01*
X137194670Y-119465000D01*
X136630493Y-119698690D01*
X136198690Y-120130493D01*
X136195461Y-120138290D01*
X136080159Y-120099446D01*
X135179605Y-121000000D01*
X134820395Y-121000000D01*
X133919841Y-120099446D01*
X133663357Y-120185852D01*
X133453542Y-120759336D01*
X124535000Y-120759336D01*
X124535000Y-120694670D01*
X124301310Y-120130493D01*
X124090658Y-119919841D01*
X134099446Y-119919841D01*
X135000000Y-120820395D01*
X135900554Y-119919841D01*
X135814148Y-119663357D01*
X135240664Y-119453542D01*
X134630540Y-119479161D01*
X134185852Y-119663357D01*
X134099446Y-119919841D01*
X124090658Y-119919841D01*
X123869507Y-119698690D01*
X123305330Y-119465000D01*
X122694670Y-119465000D01*
X122130493Y-119698690D01*
X121750000Y-120079183D01*
X121369507Y-119698690D01*
X120805330Y-119465000D01*
X120194670Y-119465000D01*
X119630493Y-119698690D01*
X119198690Y-120130493D01*
X119195461Y-120138290D01*
X119080159Y-120099446D01*
X118179605Y-121000000D01*
X117820395Y-121000000D01*
X116919841Y-120099446D01*
X116663357Y-120185852D01*
X116453542Y-120759336D01*
X107535000Y-120759336D01*
X107535000Y-120694670D01*
X107301310Y-120130493D01*
X107090658Y-119919841D01*
X117099446Y-119919841D01*
X118000000Y-120820395D01*
X118900554Y-119919841D01*
X118814148Y-119663357D01*
X118240664Y-119453542D01*
X117630540Y-119479161D01*
X117185852Y-119663357D01*
X117099446Y-119919841D01*
X107090658Y-119919841D01*
X106869507Y-119698690D01*
X106305330Y-119465000D01*
X105694670Y-119465000D01*
X105130493Y-119698690D01*
X104750000Y-120079183D01*
X104369507Y-119698690D01*
X103805330Y-119465000D01*
X103194670Y-119465000D01*
X102630493Y-119698690D01*
X102198690Y-120130493D01*
X102195461Y-120138290D01*
X102080159Y-120099446D01*
X101179605Y-121000000D01*
X100820395Y-121000000D01*
X99919841Y-120099446D01*
X99663357Y-120185852D01*
X99453542Y-120759336D01*
X90535000Y-120759336D01*
X90535000Y-120694670D01*
X90301310Y-120130493D01*
X90090658Y-119919841D01*
X100099446Y-119919841D01*
X101000000Y-120820395D01*
X101900554Y-119919841D01*
X101814148Y-119663357D01*
X101240664Y-119453542D01*
X100630540Y-119479161D01*
X100185852Y-119663357D01*
X100099446Y-119919841D01*
X90090658Y-119919841D01*
X89869507Y-119698690D01*
X89305330Y-119465000D01*
X88694670Y-119465000D01*
X88130493Y-119698690D01*
X87750000Y-120079183D01*
X87369507Y-119698690D01*
X86805330Y-119465000D01*
X86194670Y-119465000D01*
X85630493Y-119698690D01*
X85198690Y-120130493D01*
X85195461Y-120138290D01*
X85080159Y-120099446D01*
X84179605Y-121000000D01*
X83820395Y-121000000D01*
X82919841Y-120099446D01*
X82663357Y-120185852D01*
X82453542Y-120759336D01*
X73535000Y-120759336D01*
X73535000Y-120694670D01*
X73301310Y-120130493D01*
X73090658Y-119919841D01*
X83099446Y-119919841D01*
X84000000Y-120820395D01*
X84900554Y-119919841D01*
X84814148Y-119663357D01*
X84240664Y-119453542D01*
X83630540Y-119479161D01*
X83185852Y-119663357D01*
X83099446Y-119919841D01*
X73090658Y-119919841D01*
X72869507Y-119698690D01*
X72305330Y-119465000D01*
X71694670Y-119465000D01*
X71130493Y-119698690D01*
X70750000Y-120079183D01*
X70369507Y-119698690D01*
X69805330Y-119465000D01*
X69194670Y-119465000D01*
X68630493Y-119698690D01*
X68198690Y-120130493D01*
X68195461Y-120138290D01*
X68080159Y-120099446D01*
X67179605Y-121000000D01*
X66820395Y-121000000D01*
X65919841Y-120099446D01*
X65663357Y-120185852D01*
X65453542Y-120759336D01*
X56535000Y-120759336D01*
X56535000Y-120694670D01*
X56301310Y-120130493D01*
X56090658Y-119919841D01*
X66099446Y-119919841D01*
X67000000Y-120820395D01*
X67900554Y-119919841D01*
X67814148Y-119663357D01*
X67240664Y-119453542D01*
X66630540Y-119479161D01*
X66185852Y-119663357D01*
X66099446Y-119919841D01*
X56090658Y-119919841D01*
X55869507Y-119698690D01*
X55305330Y-119465000D01*
X54694670Y-119465000D01*
X54130493Y-119698690D01*
X53750000Y-120079183D01*
X53369507Y-119698690D01*
X52805330Y-119465000D01*
X52194670Y-119465000D01*
X51630493Y-119698690D01*
X51198690Y-120130493D01*
X51195461Y-120138290D01*
X51080159Y-120099446D01*
X50179605Y-121000000D01*
X49820395Y-121000000D01*
X48919841Y-120099446D01*
X48663357Y-120185852D01*
X48453542Y-120759336D01*
X45735000Y-120759336D01*
X45735000Y-119919841D01*
X49099446Y-119919841D01*
X50000000Y-120820395D01*
X50900554Y-119919841D01*
X50814148Y-119663357D01*
X50240664Y-119453542D01*
X49630540Y-119479161D01*
X49185852Y-119663357D01*
X49099446Y-119919841D01*
X45735000Y-119919841D01*
X45735000Y-115190972D01*
X45866155Y-115507608D01*
X46607392Y-116248845D01*
X47575866Y-116650000D01*
X48624134Y-116650000D01*
X49592608Y-116248845D01*
X50333845Y-115507608D01*
X50735000Y-114539134D01*
X50735000Y-113490866D01*
X50728787Y-113475866D01*
X54265000Y-113475866D01*
X54265000Y-114524134D01*
X54666155Y-115492608D01*
X55407392Y-116233845D01*
X56375866Y-116635000D01*
X57424134Y-116635000D01*
X58392608Y-116233845D01*
X59133845Y-115492608D01*
X59535000Y-114524134D01*
X59535000Y-113490866D01*
X62465000Y-113490866D01*
X62465000Y-114539134D01*
X62866155Y-115507608D01*
X63607392Y-116248845D01*
X64575866Y-116650000D01*
X65624134Y-116650000D01*
X66592608Y-116248845D01*
X67333845Y-115507608D01*
X67735000Y-114539134D01*
X67735000Y-113490866D01*
X67728787Y-113475866D01*
X71265000Y-113475866D01*
X71265000Y-114524134D01*
X71666155Y-115492608D01*
X72407392Y-116233845D01*
X73375866Y-116635000D01*
X74424134Y-116635000D01*
X75392608Y-116233845D01*
X76133845Y-115492608D01*
X76535000Y-114524134D01*
X76535000Y-113490866D01*
X79465000Y-113490866D01*
X79465000Y-114539134D01*
X79866155Y-115507608D01*
X80607392Y-116248845D01*
X81575866Y-116650000D01*
X82624134Y-116650000D01*
X83592608Y-116248845D01*
X84333845Y-115507608D01*
X84735000Y-114539134D01*
X84735000Y-113490866D01*
X84728787Y-113475866D01*
X88265000Y-113475866D01*
X88265000Y-114524134D01*
X88666155Y-115492608D01*
X89407392Y-116233845D01*
X90375866Y-116635000D01*
X91424134Y-116635000D01*
X92392608Y-116233845D01*
X93133845Y-115492608D01*
X93535000Y-114524134D01*
X93535000Y-113490866D01*
X96465000Y-113490866D01*
X96465000Y-114539134D01*
X96866155Y-115507608D01*
X97607392Y-116248845D01*
X98575866Y-116650000D01*
X99624134Y-116650000D01*
X100592608Y-116248845D01*
X101333845Y-115507608D01*
X101735000Y-114539134D01*
X101735000Y-113490866D01*
X101728787Y-113475866D01*
X105265000Y-113475866D01*
X105265000Y-114524134D01*
X105666155Y-115492608D01*
X106407392Y-116233845D01*
X107375866Y-116635000D01*
X108424134Y-116635000D01*
X109392608Y-116233845D01*
X110133845Y-115492608D01*
X110535000Y-114524134D01*
X110535000Y-113490866D01*
X113465000Y-113490866D01*
X113465000Y-114539134D01*
X113866155Y-115507608D01*
X114607392Y-116248845D01*
X115575866Y-116650000D01*
X116624134Y-116650000D01*
X117592608Y-116248845D01*
X118333845Y-115507608D01*
X118735000Y-114539134D01*
X118735000Y-113490866D01*
X118728787Y-113475866D01*
X122265000Y-113475866D01*
X122265000Y-114524134D01*
X122666155Y-115492608D01*
X123407392Y-116233845D01*
X124375866Y-116635000D01*
X125424134Y-116635000D01*
X126392608Y-116233845D01*
X127133845Y-115492608D01*
X127535000Y-114524134D01*
X127535000Y-113490866D01*
X130465000Y-113490866D01*
X130465000Y-114539134D01*
X130866155Y-115507608D01*
X131607392Y-116248845D01*
X132575866Y-116650000D01*
X133624134Y-116650000D01*
X134592608Y-116248845D01*
X135333845Y-115507608D01*
X135735000Y-114539134D01*
X135735000Y-113490866D01*
X135333845Y-112522392D01*
X134592608Y-111781155D01*
X133624134Y-111380000D01*
X132575866Y-111380000D01*
X131607392Y-111781155D01*
X130866155Y-112522392D01*
X130465000Y-113490866D01*
X127535000Y-113490866D01*
X127535000Y-113475866D01*
X127133845Y-112507392D01*
X126392608Y-111766155D01*
X125424134Y-111365000D01*
X124375866Y-111365000D01*
X123407392Y-111766155D01*
X122666155Y-112507392D01*
X122265000Y-113475866D01*
X118728787Y-113475866D01*
X118333845Y-112522392D01*
X117592608Y-111781155D01*
X116624134Y-111380000D01*
X115575866Y-111380000D01*
X114607392Y-111781155D01*
X113866155Y-112522392D01*
X113465000Y-113490866D01*
X110535000Y-113490866D01*
X110535000Y-113475866D01*
X110133845Y-112507392D01*
X109392608Y-111766155D01*
X108424134Y-111365000D01*
X107375866Y-111365000D01*
X106407392Y-111766155D01*
X105666155Y-112507392D01*
X105265000Y-113475866D01*
X101728787Y-113475866D01*
X101333845Y-112522392D01*
X100592608Y-111781155D01*
X99624134Y-111380000D01*
X98575866Y-111380000D01*
X97607392Y-111781155D01*
X96866155Y-112522392D01*
X96465000Y-113490866D01*
X93535000Y-113490866D01*
X93535000Y-113475866D01*
X93133845Y-112507392D01*
X92392608Y-111766155D01*
X91424134Y-111365000D01*
X90375866Y-111365000D01*
X89407392Y-111766155D01*
X88666155Y-112507392D01*
X88265000Y-113475866D01*
X84728787Y-113475866D01*
X84333845Y-112522392D01*
X83592608Y-111781155D01*
X82624134Y-111380000D01*
X81575866Y-111380000D01*
X80607392Y-111781155D01*
X79866155Y-112522392D01*
X79465000Y-113490866D01*
X76535000Y-113490866D01*
X76535000Y-113475866D01*
X76133845Y-112507392D01*
X75392608Y-111766155D01*
X74424134Y-111365000D01*
X73375866Y-111365000D01*
X72407392Y-111766155D01*
X71666155Y-112507392D01*
X71265000Y-113475866D01*
X67728787Y-113475866D01*
X67333845Y-112522392D01*
X66592608Y-111781155D01*
X65624134Y-111380000D01*
X64575866Y-111380000D01*
X63607392Y-111781155D01*
X62866155Y-112522392D01*
X62465000Y-113490866D01*
X59535000Y-113490866D01*
X59535000Y-113475866D01*
X59133845Y-112507392D01*
X58392608Y-111766155D01*
X57424134Y-111365000D01*
X56375866Y-111365000D01*
X55407392Y-111766155D01*
X54666155Y-112507392D01*
X54265000Y-113475866D01*
X50728787Y-113475866D01*
X50333845Y-112522392D01*
X49592608Y-111781155D01*
X48624134Y-111380000D01*
X47575866Y-111380000D01*
X46607392Y-111781155D01*
X45866155Y-112522392D01*
X45735000Y-112839028D01*
X45735000Y-94190972D01*
X45866155Y-94507608D01*
X46607392Y-95248845D01*
X47575866Y-95650000D01*
X48624134Y-95650000D01*
X49592608Y-95248845D01*
X50333845Y-94507608D01*
X50735000Y-93539134D01*
X50735000Y-92490866D01*
X50728787Y-92475866D01*
X54265000Y-92475866D01*
X54265000Y-93524134D01*
X54666155Y-94492608D01*
X55407392Y-95233845D01*
X56375866Y-95635000D01*
X57424134Y-95635000D01*
X58392608Y-95233845D01*
X59133845Y-94492608D01*
X59535000Y-93524134D01*
X59535000Y-92475866D01*
X59133845Y-91507392D01*
X58392608Y-90766155D01*
X57883876Y-90555431D01*
X62265000Y-90555431D01*
X62265000Y-91444569D01*
X62605259Y-92266026D01*
X63233974Y-92894741D01*
X64055431Y-93235000D01*
X64944569Y-93235000D01*
X65766026Y-92894741D01*
X66394741Y-92266026D01*
X66735000Y-91444569D01*
X66735000Y-90555431D01*
X66394741Y-89733974D01*
X65766026Y-89105259D01*
X64944569Y-88765000D01*
X64055431Y-88765000D01*
X63233974Y-89105259D01*
X62605259Y-89733974D01*
X62265000Y-90555431D01*
X57883876Y-90555431D01*
X57424134Y-90365000D01*
X56375866Y-90365000D01*
X55407392Y-90766155D01*
X54666155Y-91507392D01*
X54265000Y-92475866D01*
X50728787Y-92475866D01*
X50333845Y-91522392D01*
X49592608Y-90781155D01*
X48624134Y-90380000D01*
X47575866Y-90380000D01*
X46607392Y-90781155D01*
X45866155Y-91522392D01*
X45735000Y-91839028D01*
X45735000Y-61186245D01*
X46094126Y-61335000D01*
X46505874Y-61335000D01*
X46886280Y-61177431D01*
X47177431Y-60886280D01*
X47335000Y-60505874D01*
X47335000Y-60339801D01*
X51114802Y-56560000D01*
X55765000Y-56560000D01*
X55765000Y-56705874D01*
X55922569Y-57086280D01*
X56213720Y-57377431D01*
X56594126Y-57535000D01*
X57005874Y-57535000D01*
X57386280Y-57377431D01*
X57677431Y-57086280D01*
X57835000Y-56705874D01*
X57835000Y-56539801D01*
X60684473Y-53690329D01*
X60747929Y-53647929D01*
X60915904Y-53396537D01*
X60960000Y-53174852D01*
X60960000Y-53174848D01*
X60974888Y-53100001D01*
X60960000Y-53025154D01*
X60960000Y-51503711D01*
X61077431Y-51386280D01*
X61235000Y-51005874D01*
X61235000Y-50594126D01*
X61077431Y-50213720D01*
X60786280Y-49922569D01*
X60405874Y-49765000D01*
X59994126Y-49765000D01*
X59613720Y-49922569D01*
X59322569Y-50213720D01*
X59165000Y-50594126D01*
X59165000Y-51005874D01*
X59322569Y-51386280D01*
X59440000Y-51503711D01*
X59440001Y-52785197D01*
X56800000Y-55425199D01*
X56690330Y-55315529D01*
X56647929Y-55252071D01*
X56396537Y-55084096D01*
X56174852Y-55040000D01*
X56174847Y-55040000D01*
X56100000Y-55025112D01*
X56025153Y-55040000D01*
X50874846Y-55040000D01*
X50799999Y-55025112D01*
X50725152Y-55040000D01*
X50725148Y-55040000D01*
X50503463Y-55084096D01*
X50252071Y-55252071D01*
X50209671Y-55315527D01*
X46260199Y-59265000D01*
X46094126Y-59265000D01*
X45735000Y-59413755D01*
X45735000Y-36294126D01*
X46465000Y-36294126D01*
X46465000Y-36705874D01*
X46622569Y-37086280D01*
X46913720Y-37377431D01*
X47294126Y-37535000D01*
X47705874Y-37535000D01*
X48086280Y-37377431D01*
X48377431Y-37086280D01*
X48420711Y-36981794D01*
X48422569Y-36986280D01*
X48540001Y-37103712D01*
X48540000Y-47825153D01*
X48525112Y-47900000D01*
X48540000Y-47974847D01*
X48540000Y-47974851D01*
X48584096Y-48196536D01*
X48665000Y-48317618D01*
X48665000Y-48505874D01*
X48822569Y-48886280D01*
X49113720Y-49177431D01*
X49494126Y-49335000D01*
X49905874Y-49335000D01*
X50286280Y-49177431D01*
X50577431Y-48886280D01*
X50735000Y-48505874D01*
X50735000Y-48094126D01*
X50577431Y-47713720D01*
X50286280Y-47422569D01*
X50060000Y-47328841D01*
X50060000Y-37103711D01*
X50177431Y-36986280D01*
X50335000Y-36605874D01*
X50335000Y-36194126D01*
X50177431Y-35813720D01*
X50063711Y-35700000D01*
X50277431Y-35486280D01*
X50435000Y-35105874D01*
X50435000Y-34694126D01*
X50277431Y-34313720D01*
X49986280Y-34022569D01*
X49605874Y-33865000D01*
X49194126Y-33865000D01*
X48813720Y-34022569D01*
X48522569Y-34313720D01*
X48459701Y-34465497D01*
X47460199Y-35465000D01*
X47294126Y-35465000D01*
X46913720Y-35622569D01*
X46622569Y-35913720D01*
X46465000Y-36294126D01*
X45735000Y-36294126D01*
X45735000Y-25735000D01*
X126477620Y-25735000D01*
X126452071Y-25752071D01*
G04 #@! TD*
M02*
