M48
;DRILL file {KiCad (5.0.1)-3} date 01/04/2020 16:59:13
;FORMAT={-:-/ absolute / metric / decimal}
FMAT,2
METRIC,TZ
T1C0.400
T2C0.500
T3C1.000
T4C1.100
T5C1.200
T6C1.397
%
G90
G05
M71
T1
X46.3Y-60.3
X47.5Y-36.5
X48.1Y-78.3
X49.Y-52.6
X49.2Y-65.1
X49.3Y-36.4
X49.4Y-34.9
X49.7Y-48.3
X49.8Y-62.2
X50.3Y-39.9
X53.Y-58.9
X53.085Y-73.285
X53.1Y-57.7
X53.1Y-62.7
X53.3Y-31.
X53.7Y-36.2
X54.Y-71.2
X54.3Y-33.5
X54.5Y-68.5
X54.7Y-30.1
X55.4Y-31.8
X55.45Y-45.5
X55.45Y-46.8
X55.45Y-48.1
X55.6Y-41.9
X56.8Y-56.5
X58.3Y-32.82
X58.8Y-60.1
X59.Y-34.09
X59.6Y-61.4
X60.2Y-50.8
X61.1Y-58.8
X62.4Y-29.6
X68.1Y-77.5
X68.4Y-105.3
X69.3Y-107.7
X69.6Y-76.6
X69.7Y-74.9
X70.Y-104.6
X70.9Y-74.2
X73.Y-73.5
X74.Y-97.
X74.1Y-103.1
X74.3Y-73.6
X76.8Y-92.2
X77.8Y-98.5
X79.3Y-94.1
X82.3Y-91.8
X87.9Y-74.3
X89.863Y-98.337
X94.6Y-98.7
X108.8Y-57.5
X114.6Y-34.7
X117.2Y-26.8
X118.1Y-34.6
X118.5Y-71.1
X118.6Y-28.9
X119.3Y-33.3
X122.7Y-42.5
X124.7Y-51.2
X124.9Y-98.9
X129.6Y-36.
X130.7Y-35.1
X131.8Y-33.1
X132.7Y-32.2
X132.8Y-54.
X132.8Y-57.8
X132.8Y-61.9
X133.Y-49.4
X133.1Y-45.1
X135.Y-38.4
X135.1Y-65.
X135.6Y-39.9
X137.9Y-34.1
X137.9Y-40.9
X139.1Y-32.285
X142.3Y-31.
T2
X120.Y-35.84
X120.Y-39.65
T3
X77.46Y-84.
X80.Y-84.
X135.Y-121.
X137.5Y-121.
X140.Y-121.
X72.985Y-28.845
X72.985Y-31.385
X72.985Y-33.925
X72.985Y-36.465
X72.985Y-39.005
X72.985Y-41.545
X72.985Y-44.085
X72.985Y-46.625
X72.985Y-49.165
X72.985Y-51.705
X72.985Y-54.245
X72.985Y-56.785
X72.985Y-59.325
X72.985Y-61.865
X72.985Y-64.405
X72.985Y-66.945
X101.Y-121.
X103.5Y-121.
X106.Y-121.
X50.Y-121.
X52.5Y-121.
X55.Y-121.
X84.Y-121.
X86.5Y-121.
X89.Y-121.
X103.Y-51.
X105.54Y-51.
X118.Y-121.
X120.5Y-121.
X123.Y-121.
X50.Y-100.
X52.5Y-100.
X55.Y-100.
X69.385Y-28.845
X69.385Y-31.385
X69.385Y-33.925
X69.385Y-36.465
X69.385Y-39.005
X69.385Y-41.545
X69.385Y-44.085
X69.385Y-46.625
X69.385Y-49.165
X69.385Y-51.705
X69.385Y-54.245
X69.385Y-56.785
X69.385Y-59.325
X69.385Y-61.865
X69.385Y-64.405
X69.385Y-66.945
X67.Y-121.
X69.5Y-121.
X72.Y-121.
X76.585Y-28.845
X76.585Y-31.385
X76.585Y-33.925
X76.585Y-36.465
X76.585Y-39.005
X76.585Y-41.545
X76.585Y-44.085
X76.585Y-46.625
X76.585Y-49.165
X76.585Y-51.705
X76.585Y-54.245
X76.585Y-56.785
X76.585Y-59.325
X76.585Y-61.865
X76.585Y-64.405
X76.585Y-66.945
T4
X112.38Y-29.49
X112.38Y-32.03
X112.38Y-34.57
X112.38Y-37.11
X112.38Y-39.65
X112.38Y-42.19
X112.38Y-44.73
X112.38Y-47.27
X112.38Y-49.81
X112.38Y-52.35
X112.38Y-54.89
X112.38Y-57.43
X112.38Y-59.97
X112.38Y-62.51
X114.92Y-62.51
X117.46Y-62.51
X120.Y-44.73
X120.Y-47.27
X120.Y-49.81
X120.Y-52.35
X120.Y-54.89
X120.Y-57.43
X120.Y-59.97
X120.Y-62.51
X122.54Y-44.73
X122.54Y-47.27
X122.54Y-49.81
X122.54Y-52.35
X122.54Y-54.89
X122.54Y-57.43
X122.54Y-59.97
X122.54Y-62.51
X125.08Y-32.03
X125.08Y-37.11
X125.08Y-39.65
X125.08Y-42.19
X125.08Y-62.51
X127.62Y-29.49
X127.62Y-32.03
X127.62Y-34.57
X127.62Y-37.11
X127.62Y-39.65
X127.62Y-42.19
X127.62Y-44.73
X127.62Y-47.27
X127.62Y-49.81
X127.62Y-52.35
X127.62Y-54.89
X127.62Y-57.43
X127.62Y-59.97
X127.62Y-62.51
T5
X137.59Y-96.
X137.59Y-98.5
X137.59Y-103.5
X137.59Y-106.
X142.596Y-101.
T6
X129.501Y-79.004
X129.501Y-88.996
X132.Y-84.
X132.003Y-76.502
X132.003Y-91.498
T0
M30
