M48
;DRILL file {KiCad (5.0.1)-3} date 01/04/2020 16:59:13
;FORMAT={-:-/ absolute / metric / decimal}
FMAT,2
METRIC,TZ
T1C1.397
T2C2.200
T3C3.200
%
G90
G05
M71
T1
X141.998Y-78.999
X141.998Y-89.001
T2
X133.1Y-114.015
X141.9Y-114.
X99.1Y-114.015
X107.9Y-114.
X48.1Y-114.015
X56.9Y-114.
X82.1Y-114.015
X90.9Y-114.
X116.1Y-114.015
X124.9Y-114.
X48.1Y-93.015
X56.9Y-93.
X65.1Y-114.015
X73.9Y-114.
T3
X89.Y-89.
X64.5Y-91.
X106.Y-34.
X130.Y-101.
T0
M30
